%TF.GenerationSoftware,KiCad,Pcbnew,5.1.12-84ad8e8a86~92~ubuntu18.04.1*%
%TF.CreationDate,2021-12-05T17:17:48+11:00*%
%TF.ProjectId,aquaponics-1,61717561-706f-46e6-9963-732d312e6b69,rev?*%
%TF.SameCoordinates,Original*%
%TF.FileFunction,Copper,L1,Top*%
%TF.FilePolarity,Positive*%
%FSLAX46Y46*%
G04 Gerber Fmt 4.6, Leading zero omitted, Abs format (unit mm)*
G04 Created by KiCad (PCBNEW 5.1.12-84ad8e8a86~92~ubuntu18.04.1) date 2021-12-05 17:17:48*
%MOMM*%
%LPD*%
G01*
G04 APERTURE LIST*
%TA.AperFunction,NonConductor*%
%ADD10C,0.300000*%
%TD*%
%TA.AperFunction,ComponentPad*%
%ADD11O,0.850000X0.850000*%
%TD*%
%TA.AperFunction,ComponentPad*%
%ADD12R,0.850000X0.850000*%
%TD*%
%TA.AperFunction,ComponentPad*%
%ADD13C,2.400000*%
%TD*%
%TA.AperFunction,ComponentPad*%
%ADD14R,2.200000X2.200000*%
%TD*%
%TA.AperFunction,ComponentPad*%
%ADD15C,2.200000*%
%TD*%
%TA.AperFunction,ComponentPad*%
%ADD16R,1.905000X2.000000*%
%TD*%
%TA.AperFunction,ComponentPad*%
%ADD17O,1.905000X2.000000*%
%TD*%
%TA.AperFunction,ComponentPad*%
%ADD18C,1.400000*%
%TD*%
%TA.AperFunction,ComponentPad*%
%ADD19O,1.400000X1.400000*%
%TD*%
%TA.AperFunction,ComponentPad*%
%ADD20R,1.600000X1.600000*%
%TD*%
%TA.AperFunction,ComponentPad*%
%ADD21O,1.600000X1.600000*%
%TD*%
%TA.AperFunction,Conductor*%
%ADD22C,0.250000*%
%TD*%
%TA.AperFunction,Conductor*%
%ADD23C,0.254000*%
%TD*%
%TA.AperFunction,Conductor*%
%ADD24C,0.100000*%
%TD*%
G04 APERTURE END LIST*
D10*
X51134285Y-32000000D02*
X51848571Y-32000000D01*
X50991428Y-32428571D02*
X51491428Y-30928571D01*
X51991428Y-32428571D01*
X52491428Y-32428571D02*
X52491428Y-31428571D01*
X52491428Y-31714285D02*
X52562857Y-31571428D01*
X52634285Y-31500000D01*
X52777142Y-31428571D01*
X52920000Y-31428571D01*
X54062857Y-32428571D02*
X54062857Y-30928571D01*
X54062857Y-32357142D02*
X53920000Y-32428571D01*
X53634285Y-32428571D01*
X53491428Y-32357142D01*
X53420000Y-32285714D01*
X53348571Y-32142857D01*
X53348571Y-31714285D01*
X53420000Y-31571428D01*
X53491428Y-31500000D01*
X53634285Y-31428571D01*
X53920000Y-31428571D01*
X54062857Y-31500000D01*
X55420000Y-31428571D02*
X55420000Y-32428571D01*
X54777142Y-31428571D02*
X54777142Y-32214285D01*
X54848571Y-32357142D01*
X54991428Y-32428571D01*
X55205714Y-32428571D01*
X55348571Y-32357142D01*
X55420000Y-32285714D01*
X56134285Y-32428571D02*
X56134285Y-31428571D01*
X56134285Y-30928571D02*
X56062857Y-31000000D01*
X56134285Y-31071428D01*
X56205714Y-31000000D01*
X56134285Y-30928571D01*
X56134285Y-31071428D01*
X56848571Y-31428571D02*
X56848571Y-32428571D01*
X56848571Y-31571428D02*
X56920000Y-31500000D01*
X57062857Y-31428571D01*
X57277142Y-31428571D01*
X57420000Y-31500000D01*
X57491428Y-31642857D01*
X57491428Y-32428571D01*
X58420000Y-32428571D02*
X58277142Y-32357142D01*
X58205714Y-32285714D01*
X58134285Y-32142857D01*
X58134285Y-31714285D01*
X58205714Y-31571428D01*
X58277142Y-31500000D01*
X58420000Y-31428571D01*
X58634285Y-31428571D01*
X58777142Y-31500000D01*
X58848571Y-31571428D01*
X58920000Y-31714285D01*
X58920000Y-32142857D01*
X58848571Y-32285714D01*
X58777142Y-32357142D01*
X58634285Y-32428571D01*
X58420000Y-32428571D01*
X60705714Y-32428571D02*
X60705714Y-30928571D01*
X61562857Y-32428571D01*
X61562857Y-30928571D01*
X62920000Y-32428571D02*
X62920000Y-31642857D01*
X62848571Y-31500000D01*
X62705714Y-31428571D01*
X62420000Y-31428571D01*
X62277142Y-31500000D01*
X62920000Y-32357142D02*
X62777142Y-32428571D01*
X62420000Y-32428571D01*
X62277142Y-32357142D01*
X62205714Y-32214285D01*
X62205714Y-32071428D01*
X62277142Y-31928571D01*
X62420000Y-31857142D01*
X62777142Y-31857142D01*
X62920000Y-31785714D01*
X63634285Y-31428571D02*
X63634285Y-32428571D01*
X63634285Y-31571428D02*
X63705714Y-31500000D01*
X63848571Y-31428571D01*
X64062857Y-31428571D01*
X64205714Y-31500000D01*
X64277142Y-31642857D01*
X64277142Y-32428571D01*
X65205714Y-32428571D02*
X65062857Y-32357142D01*
X64991428Y-32285714D01*
X64920000Y-32142857D01*
X64920000Y-31714285D01*
X64991428Y-31571428D01*
X65062857Y-31500000D01*
X65205714Y-31428571D01*
X65420000Y-31428571D01*
X65562857Y-31500000D01*
X65634285Y-31571428D01*
X65705714Y-31714285D01*
X65705714Y-32142857D01*
X65634285Y-32285714D01*
X65562857Y-32357142D01*
X65420000Y-32428571D01*
X65205714Y-32428571D01*
D11*
%TO.P,J4,3*%
%TO.N,Net-(J4-Pad3)*%
X53340000Y-23590000D03*
%TO.P,J4,2*%
%TO.N,Net-(J4-Pad2)*%
X53340000Y-22590000D03*
D12*
%TO.P,J4,1*%
%TO.N,GND*%
X53340000Y-21590000D03*
%TD*%
D13*
%TO.P,J5,2*%
%TO.N,N/C*%
X24130000Y-57300000D03*
%TO.P,J5,1*%
%TO.N,Net-(J2-Pad1)*%
%TA.AperFunction,ComponentPad*%
G36*
G01*
X23180000Y-52140000D02*
X25080000Y-52140000D01*
G75*
G02*
X25330000Y-52390000I0J-250000D01*
G01*
X25330000Y-54290000D01*
G75*
G02*
X25080000Y-54540000I-250000J0D01*
G01*
X23180000Y-54540000D01*
G75*
G02*
X22930000Y-54290000I0J250000D01*
G01*
X22930000Y-52390000D01*
G75*
G02*
X23180000Y-52140000I250000J0D01*
G01*
G37*
%TD.AperFunction*%
%TD*%
D11*
%TO.P,J3,3*%
%TO.N,Net-(J3-Pad3)*%
X29940000Y-22860000D03*
%TO.P,J3,2*%
%TO.N,Net-(J3-Pad2)*%
X28940000Y-22860000D03*
D12*
%TO.P,J3,1*%
%TO.N,GND*%
X27940000Y-22860000D03*
%TD*%
%TO.P,J1,1*%
%TO.N,Net-(J1-Pad1)*%
%TA.AperFunction,ComponentPad*%
G36*
G01*
X34610000Y-52140000D02*
X36510000Y-52140000D01*
G75*
G02*
X36760000Y-52390000I0J-250000D01*
G01*
X36760000Y-54290000D01*
G75*
G02*
X36510000Y-54540000I-250000J0D01*
G01*
X34610000Y-54540000D01*
G75*
G02*
X34360000Y-54290000I0J250000D01*
G01*
X34360000Y-52390000D01*
G75*
G02*
X34610000Y-52140000I250000J0D01*
G01*
G37*
%TD.AperFunction*%
D13*
%TO.P,J1,2*%
%TO.N,N/C*%
X35560000Y-57300000D03*
%TD*%
D14*
%TO.P,J2,1*%
%TO.N,Net-(J2-Pad1)*%
X27940000Y-38100000D03*
D15*
%TO.P,J2,2*%
%TO.N,GND*%
X27940000Y-40640000D03*
%TD*%
D11*
%TO.P,M1,2*%
%TO.N,Net-(M1-Pad2)*%
X53070000Y-72390000D03*
D12*
%TO.P,M1,1*%
%TO.N,Net-(J2-Pad1)*%
X52070000Y-72390000D03*
%TD*%
%TO.P,M2,1*%
%TO.N,Net-(J2-Pad1)*%
X77470000Y-72390000D03*
D11*
%TO.P,M2,2*%
%TO.N,Net-(M2-Pad2)*%
X78470000Y-72390000D03*
%TD*%
%TO.P,M3,2*%
%TO.N,Net-(M3-Pad2)*%
X65770000Y-72390000D03*
D12*
%TO.P,M3,1*%
%TO.N,Net-(J2-Pad1)*%
X64770000Y-72390000D03*
%TD*%
D16*
%TO.P,Q1,1*%
%TO.N,Net-(Q1-Pad1)*%
X50800000Y-63500000D03*
D17*
%TO.P,Q1,2*%
%TO.N,Net-(M1-Pad2)*%
X53340000Y-63500000D03*
%TO.P,Q1,3*%
%TO.N,GND*%
X55880000Y-63500000D03*
%TD*%
D16*
%TO.P,Q2,1*%
%TO.N,Net-(Q2-Pad1)*%
X76200000Y-63500000D03*
D17*
%TO.P,Q2,2*%
%TO.N,Net-(M2-Pad2)*%
X78740000Y-63500000D03*
%TO.P,Q2,3*%
%TO.N,GND*%
X81280000Y-63500000D03*
%TD*%
%TO.P,Q3,3*%
%TO.N,GND*%
X68580000Y-63500000D03*
%TO.P,Q3,2*%
%TO.N,Net-(M3-Pad2)*%
X66040000Y-63500000D03*
D16*
%TO.P,Q3,1*%
%TO.N,Net-(Q3-Pad1)*%
X63500000Y-63500000D03*
%TD*%
D12*
%TO.P,R1,1*%
%TO.N,Net-(R1-Pad1)*%
X73660000Y-22860000D03*
D11*
%TO.P,R1,2*%
%TO.N,Net-(R1-Pad2)*%
X73660000Y-23860000D03*
%TD*%
D18*
%TO.P,R2,1*%
%TO.N,Net-(R2-Pad1)*%
X76200000Y-53340000D03*
D19*
%TO.P,R2,2*%
%TO.N,Net-(Q2-Pad1)*%
X76200000Y-55240000D03*
%TD*%
D18*
%TO.P,R3,1*%
%TO.N,GND*%
X68580000Y-22860000D03*
D19*
%TO.P,R3,2*%
%TO.N,Net-(R1-Pad1)*%
X70480000Y-22860000D03*
%TD*%
%TO.P,R4,2*%
%TO.N,Net-(Q1-Pad1)*%
X50800000Y-55240000D03*
D18*
%TO.P,R4,1*%
%TO.N,Net-(R4-Pad1)*%
X50800000Y-53340000D03*
%TD*%
D19*
%TO.P,R5,2*%
%TO.N,Net-(Q3-Pad1)*%
X63500000Y-55240000D03*
D18*
%TO.P,R5,1*%
%TO.N,Net-(R5-Pad1)*%
X63500000Y-53340000D03*
%TD*%
D20*
%TO.P,U1,1*%
%TO.N,N/C*%
X40640000Y-44450000D03*
D21*
%TO.P,U1,17*%
X73660000Y-29210000D03*
%TO.P,U1,2*%
X43180000Y-44450000D03*
%TO.P,U1,18*%
X71120000Y-29210000D03*
%TO.P,U1,3*%
X45720000Y-44450000D03*
%TO.P,U1,19*%
%TO.N,Net-(R1-Pad1)*%
X68580000Y-29210000D03*
%TO.P,U1,4*%
%TO.N,GND*%
X48260000Y-44450000D03*
%TO.P,U1,20*%
%TO.N,Net-(J3-Pad3)*%
X66040000Y-29210000D03*
%TO.P,U1,5*%
%TO.N,Net-(R4-Pad1)*%
X50800000Y-44450000D03*
%TO.P,U1,21*%
%TO.N,Net-(J4-Pad3)*%
X63500000Y-29210000D03*
%TO.P,U1,6*%
%TO.N,Net-(R5-Pad1)*%
X53340000Y-44450000D03*
%TO.P,U1,22*%
%TO.N,N/C*%
X60960000Y-29210000D03*
%TO.P,U1,7*%
%TO.N,Net-(R2-Pad1)*%
X55880000Y-44450000D03*
%TO.P,U1,23*%
%TO.N,N/C*%
X58420000Y-29210000D03*
%TO.P,U1,8*%
X58420000Y-44450000D03*
%TO.P,U1,24*%
X55880000Y-29210000D03*
%TO.P,U1,9*%
%TO.N,Net-(J3-Pad2)*%
X60960000Y-44450000D03*
%TO.P,U1,25*%
%TO.N,N/C*%
X53340000Y-29210000D03*
%TO.P,U1,10*%
%TO.N,Net-(J4-Pad2)*%
X63500000Y-44450000D03*
%TO.P,U1,26*%
%TO.N,N/C*%
X50800000Y-29210000D03*
%TO.P,U1,11*%
X66040000Y-44450000D03*
%TO.P,U1,27*%
%TO.N,Net-(J1-Pad1)*%
X48260000Y-29210000D03*
%TO.P,U1,12*%
%TO.N,N/C*%
X68580000Y-44450000D03*
%TO.P,U1,28*%
X45720000Y-29210000D03*
%TO.P,U1,13*%
X71120000Y-44450000D03*
%TO.P,U1,29*%
X43180000Y-29210000D03*
%TO.P,U1,14*%
X73660000Y-44450000D03*
%TO.P,U1,30*%
X40640000Y-29210000D03*
%TO.P,U1,15*%
X76200000Y-44450000D03*
%TO.P,U1,16*%
%TO.N,Net-(R1-Pad2)*%
X76200000Y-29210000D03*
%TD*%
D22*
%TO.N,Net-(J1-Pad1)*%
X35560000Y-41910000D02*
X48260000Y-29210000D01*
X35560000Y-53340000D02*
X35560000Y-41910000D01*
%TO.N,Net-(J2-Pad1)*%
X43180000Y-72390000D02*
X24130000Y-53340000D01*
X52070000Y-72390000D02*
X43180000Y-72390000D01*
X26514999Y-39525001D02*
X26514999Y-50955001D01*
X26514999Y-50955001D02*
X24130000Y-53340000D01*
X27940000Y-38100000D02*
X26514999Y-39525001D01*
X64019999Y-73140001D02*
X64770000Y-72390000D01*
X52145001Y-73140001D02*
X64019999Y-73140001D01*
X52070000Y-73065000D02*
X52145001Y-73140001D01*
X52070000Y-72390000D02*
X52070000Y-73065000D01*
X76719999Y-73140001D02*
X77470000Y-72390000D01*
X64845001Y-73140001D02*
X76719999Y-73140001D01*
X64770000Y-73065000D02*
X64845001Y-73140001D01*
X64770000Y-72390000D02*
X64770000Y-73065000D01*
%TO.N,Net-(J3-Pad2)*%
X49385001Y-32875001D02*
X60960000Y-44450000D01*
X49385001Y-28669999D02*
X49385001Y-32875001D01*
X48800001Y-28084999D02*
X49385001Y-28669999D01*
X33563959Y-28084999D02*
X48800001Y-28084999D01*
X28940000Y-23461040D02*
X33563959Y-28084999D01*
X28940000Y-22860000D02*
X28940000Y-23461040D01*
%TO.N,Net-(J3-Pad3)*%
X60170001Y-23340001D02*
X66040000Y-29210000D01*
X30420001Y-23340001D02*
X60170001Y-23340001D01*
X29940000Y-22860000D02*
X30420001Y-23340001D01*
%TO.N,Net-(J4-Pad2)*%
X67165001Y-40784999D02*
X63500000Y-44450000D01*
X67165001Y-28669999D02*
X67165001Y-40784999D01*
X61085002Y-22590000D02*
X67165001Y-28669999D01*
X53340000Y-22590000D02*
X61085002Y-22590000D01*
%TO.N,Net-(Q1-Pad1)*%
X50800000Y-55240000D02*
X50800000Y-54610000D01*
X50800000Y-54610000D02*
X50800000Y-63500000D01*
%TO.N,Net-(Q2-Pad1)*%
X76200000Y-55240000D02*
X76200000Y-63500000D01*
%TO.N,Net-(Q3-Pad1)*%
X63500000Y-55240000D02*
X63500000Y-63500000D01*
%TO.N,Net-(R1-Pad1)*%
X73660000Y-22860000D02*
X70480000Y-22860000D01*
X70480000Y-27310000D02*
X68580000Y-29210000D01*
X70480000Y-22860000D02*
X70480000Y-27310000D01*
%TO.N,Net-(R1-Pad2)*%
X73660000Y-26670000D02*
X76200000Y-29210000D01*
X73660000Y-23860000D02*
X73660000Y-26670000D01*
%TO.N,Net-(R2-Pad1)*%
X55880000Y-44450000D02*
X55880000Y-50800000D01*
X55880000Y-50800000D02*
X76200000Y-50800000D01*
X76200000Y-50800000D02*
X76200000Y-53340000D01*
%TO.N,Net-(R4-Pad1)*%
X50800000Y-53340000D02*
X50800000Y-44450000D01*
%TO.N,Net-(R5-Pad1)*%
X63500000Y-53340000D02*
X53340000Y-53340000D01*
X53340000Y-53340000D02*
X53340000Y-44450000D01*
%TD*%
D23*
%TO.N,GND*%
X85700001Y-78080000D02*
X19710000Y-78080000D01*
X19710000Y-57119268D01*
X22295000Y-57119268D01*
X22295000Y-57480732D01*
X22365518Y-57835250D01*
X22503844Y-58169199D01*
X22704662Y-58469744D01*
X22960256Y-58725338D01*
X23260801Y-58926156D01*
X23594750Y-59064482D01*
X23949268Y-59135000D01*
X24310732Y-59135000D01*
X24665250Y-59064482D01*
X24999199Y-58926156D01*
X25299744Y-58725338D01*
X25555338Y-58469744D01*
X25756156Y-58169199D01*
X25894482Y-57835250D01*
X25965000Y-57480732D01*
X25965000Y-57119268D01*
X25894482Y-56764750D01*
X25756156Y-56430801D01*
X25555338Y-56130256D01*
X25299744Y-55874662D01*
X24999199Y-55673844D01*
X24665250Y-55535518D01*
X24310732Y-55465000D01*
X23949268Y-55465000D01*
X23594750Y-55535518D01*
X23260801Y-55673844D01*
X22960256Y-55874662D01*
X22704662Y-56130256D01*
X22503844Y-56430801D01*
X22365518Y-56764750D01*
X22295000Y-57119268D01*
X19710000Y-57119268D01*
X19710000Y-52390000D01*
X22291928Y-52390000D01*
X22291928Y-54290000D01*
X22308992Y-54463254D01*
X22359528Y-54629850D01*
X22441595Y-54783386D01*
X22552038Y-54917962D01*
X22686614Y-55028405D01*
X22840150Y-55110472D01*
X23006746Y-55161008D01*
X23180000Y-55178072D01*
X24893271Y-55178072D01*
X42616201Y-72901003D01*
X42639999Y-72930001D01*
X42755724Y-73024974D01*
X42887753Y-73095546D01*
X43031014Y-73139003D01*
X43142667Y-73150000D01*
X43142676Y-73150000D01*
X43179999Y-73153676D01*
X43217322Y-73150000D01*
X51104043Y-73150000D01*
X51114463Y-73169494D01*
X51193815Y-73266185D01*
X51290506Y-73345537D01*
X51385270Y-73396190D01*
X51435026Y-73489276D01*
X51506201Y-73576002D01*
X51530000Y-73605001D01*
X51558996Y-73628797D01*
X51581200Y-73651002D01*
X51605000Y-73680002D01*
X51720725Y-73774975D01*
X51852754Y-73845547D01*
X51996015Y-73889004D01*
X52107668Y-73900001D01*
X52107678Y-73900001D01*
X52145000Y-73903677D01*
X52182323Y-73900001D01*
X63982677Y-73900001D01*
X64019999Y-73903677D01*
X64057321Y-73900001D01*
X64057332Y-73900001D01*
X64168985Y-73889004D01*
X64312246Y-73845547D01*
X64432500Y-73781269D01*
X64552754Y-73845547D01*
X64696015Y-73889004D01*
X64807668Y-73900001D01*
X64807678Y-73900001D01*
X64845000Y-73903677D01*
X64882323Y-73900001D01*
X76682677Y-73900001D01*
X76719999Y-73903677D01*
X76757321Y-73900001D01*
X76757332Y-73900001D01*
X76868985Y-73889004D01*
X77012246Y-73845547D01*
X77144275Y-73774975D01*
X77260000Y-73680002D01*
X77283802Y-73650999D01*
X77481729Y-73453072D01*
X77895000Y-73453072D01*
X78019482Y-73440812D01*
X78139180Y-73404502D01*
X78143603Y-73402138D01*
X78160809Y-73409265D01*
X78365599Y-73450000D01*
X78574401Y-73450000D01*
X78779191Y-73409265D01*
X78972098Y-73329360D01*
X79145711Y-73213356D01*
X79293356Y-73065711D01*
X79409360Y-72892098D01*
X79489265Y-72699191D01*
X79530000Y-72494401D01*
X79530000Y-72285599D01*
X79489265Y-72080809D01*
X79409360Y-71887902D01*
X79293356Y-71714289D01*
X79145711Y-71566644D01*
X78972098Y-71450640D01*
X78779191Y-71370735D01*
X78574401Y-71330000D01*
X78365599Y-71330000D01*
X78160809Y-71370735D01*
X78143603Y-71377862D01*
X78139180Y-71375498D01*
X78019482Y-71339188D01*
X77895000Y-71326928D01*
X77045000Y-71326928D01*
X76920518Y-71339188D01*
X76800820Y-71375498D01*
X76690506Y-71434463D01*
X76593815Y-71513815D01*
X76514463Y-71610506D01*
X76455498Y-71720820D01*
X76419188Y-71840518D01*
X76406928Y-71965000D01*
X76406928Y-72378271D01*
X76405198Y-72380001D01*
X66830000Y-72380001D01*
X66830000Y-72285599D01*
X66789265Y-72080809D01*
X66709360Y-71887902D01*
X66593356Y-71714289D01*
X66445711Y-71566644D01*
X66272098Y-71450640D01*
X66079191Y-71370735D01*
X65874401Y-71330000D01*
X65665599Y-71330000D01*
X65460809Y-71370735D01*
X65443603Y-71377862D01*
X65439180Y-71375498D01*
X65319482Y-71339188D01*
X65195000Y-71326928D01*
X64345000Y-71326928D01*
X64220518Y-71339188D01*
X64100820Y-71375498D01*
X63990506Y-71434463D01*
X63893815Y-71513815D01*
X63814463Y-71610506D01*
X63755498Y-71720820D01*
X63719188Y-71840518D01*
X63706928Y-71965000D01*
X63706928Y-72378271D01*
X63705198Y-72380001D01*
X54130000Y-72380001D01*
X54130000Y-72285599D01*
X54089265Y-72080809D01*
X54009360Y-71887902D01*
X53893356Y-71714289D01*
X53745711Y-71566644D01*
X53572098Y-71450640D01*
X53379191Y-71370735D01*
X53174401Y-71330000D01*
X52965599Y-71330000D01*
X52760809Y-71370735D01*
X52743603Y-71377862D01*
X52739180Y-71375498D01*
X52619482Y-71339188D01*
X52495000Y-71326928D01*
X51645000Y-71326928D01*
X51520518Y-71339188D01*
X51400820Y-71375498D01*
X51290506Y-71434463D01*
X51193815Y-71513815D01*
X51114463Y-71610506D01*
X51104043Y-71630000D01*
X43494802Y-71630000D01*
X28984070Y-57119268D01*
X33725000Y-57119268D01*
X33725000Y-57480732D01*
X33795518Y-57835250D01*
X33933844Y-58169199D01*
X34134662Y-58469744D01*
X34390256Y-58725338D01*
X34690801Y-58926156D01*
X35024750Y-59064482D01*
X35379268Y-59135000D01*
X35740732Y-59135000D01*
X36095250Y-59064482D01*
X36429199Y-58926156D01*
X36729744Y-58725338D01*
X36985338Y-58469744D01*
X37186156Y-58169199D01*
X37324482Y-57835250D01*
X37395000Y-57480732D01*
X37395000Y-57119268D01*
X37324482Y-56764750D01*
X37186156Y-56430801D01*
X36985338Y-56130256D01*
X36729744Y-55874662D01*
X36429199Y-55673844D01*
X36095250Y-55535518D01*
X35740732Y-55465000D01*
X35379268Y-55465000D01*
X35024750Y-55535518D01*
X34690801Y-55673844D01*
X34390256Y-55874662D01*
X34134662Y-56130256D01*
X33933844Y-56430801D01*
X33795518Y-56764750D01*
X33725000Y-57119268D01*
X28984070Y-57119268D01*
X25968072Y-54103271D01*
X25968072Y-52576730D01*
X27026002Y-51518800D01*
X27055000Y-51495002D01*
X27104264Y-51434974D01*
X27149973Y-51379278D01*
X27220545Y-51247248D01*
X27227513Y-51224276D01*
X27264002Y-51103987D01*
X27274999Y-50992334D01*
X27274999Y-50992324D01*
X27278675Y-50955001D01*
X27274999Y-50917678D01*
X27274999Y-42246442D01*
X27327384Y-42272216D01*
X27657585Y-42360369D01*
X27998639Y-42382409D01*
X28337439Y-42337489D01*
X28660966Y-42227336D01*
X28859274Y-42121338D01*
X28967107Y-41846712D01*
X27940000Y-40819605D01*
X27925858Y-40833748D01*
X27746253Y-40654143D01*
X27760395Y-40640000D01*
X27746253Y-40625858D01*
X27925858Y-40446253D01*
X27940000Y-40460395D01*
X27954143Y-40446253D01*
X28133748Y-40625858D01*
X28119605Y-40640000D01*
X29146712Y-41667107D01*
X29421338Y-41559274D01*
X29572216Y-41252616D01*
X29660369Y-40922415D01*
X29682409Y-40581361D01*
X29637489Y-40242561D01*
X29527336Y-39919034D01*
X29421338Y-39720726D01*
X29411267Y-39716772D01*
X29491185Y-39651185D01*
X29570537Y-39554494D01*
X29629502Y-39444180D01*
X29665812Y-39324482D01*
X29678072Y-39200000D01*
X29678072Y-37000000D01*
X29665812Y-36875518D01*
X29629502Y-36755820D01*
X29570537Y-36645506D01*
X29491185Y-36548815D01*
X29394494Y-36469463D01*
X29284180Y-36410498D01*
X29164482Y-36374188D01*
X29040000Y-36361928D01*
X26840000Y-36361928D01*
X26715518Y-36374188D01*
X26595820Y-36410498D01*
X26485506Y-36469463D01*
X26388815Y-36548815D01*
X26309463Y-36645506D01*
X26250498Y-36755820D01*
X26214188Y-36875518D01*
X26201928Y-37000000D01*
X26201928Y-37226084D01*
X26155394Y-37179550D01*
X25961308Y-37049866D01*
X25745652Y-36960539D01*
X25516712Y-36915000D01*
X25283288Y-36915000D01*
X25054348Y-36960539D01*
X24838692Y-37049866D01*
X24644606Y-37179550D01*
X24479550Y-37344606D01*
X24349866Y-37538692D01*
X24260539Y-37754348D01*
X24215000Y-37983288D01*
X24215000Y-38216712D01*
X24260539Y-38445652D01*
X24349866Y-38661308D01*
X24479550Y-38855394D01*
X24644606Y-39020450D01*
X24838692Y-39150134D01*
X25054348Y-39239461D01*
X25283288Y-39285000D01*
X25516712Y-39285000D01*
X25745652Y-39239461D01*
X25822992Y-39207426D01*
X25809453Y-39232755D01*
X25765996Y-39376016D01*
X25754999Y-39487669D01*
X25754999Y-39487679D01*
X25753416Y-39503755D01*
X25745652Y-39500539D01*
X25516712Y-39455000D01*
X25283288Y-39455000D01*
X25054348Y-39500539D01*
X24838692Y-39589866D01*
X24644606Y-39719550D01*
X24479550Y-39884606D01*
X24349866Y-40078692D01*
X24260539Y-40294348D01*
X24215000Y-40523288D01*
X24215000Y-40756712D01*
X24260539Y-40985652D01*
X24349866Y-41201308D01*
X24479550Y-41395394D01*
X24644606Y-41560450D01*
X24838692Y-41690134D01*
X25054348Y-41779461D01*
X25283288Y-41825000D01*
X25516712Y-41825000D01*
X25745652Y-41779461D01*
X25754999Y-41775589D01*
X25755000Y-50640198D01*
X24893270Y-51501928D01*
X23180000Y-51501928D01*
X23006746Y-51518992D01*
X22840150Y-51569528D01*
X22686614Y-51651595D01*
X22552038Y-51762038D01*
X22441595Y-51896614D01*
X22359528Y-52050150D01*
X22308992Y-52216746D01*
X22291928Y-52390000D01*
X19710000Y-52390000D01*
X19710000Y-23285000D01*
X26876928Y-23285000D01*
X26889188Y-23409482D01*
X26925498Y-23529180D01*
X26984463Y-23639494D01*
X27063815Y-23736185D01*
X27160506Y-23815537D01*
X27270820Y-23874502D01*
X27390518Y-23910812D01*
X27515000Y-23923072D01*
X27654250Y-23920000D01*
X27813000Y-23761250D01*
X27813000Y-22987000D01*
X27038750Y-22987000D01*
X26880000Y-23145750D01*
X26876928Y-23285000D01*
X19710000Y-23285000D01*
X19710000Y-22755599D01*
X27880000Y-22755599D01*
X27880000Y-22964401D01*
X27920735Y-23169191D01*
X28000640Y-23362098D01*
X28067000Y-23461413D01*
X28067000Y-23761250D01*
X28225750Y-23920000D01*
X28335477Y-23922421D01*
X28369930Y-23964401D01*
X28400000Y-24001041D01*
X28428998Y-24024839D01*
X33000159Y-28596001D01*
X33023958Y-28625000D01*
X33052956Y-28648798D01*
X33139683Y-28719973D01*
X33271712Y-28790545D01*
X33414973Y-28834002D01*
X33563959Y-28848676D01*
X33601292Y-28844999D01*
X39249491Y-28844999D01*
X39205000Y-29068665D01*
X39205000Y-29351335D01*
X39260147Y-29628574D01*
X39368320Y-29889727D01*
X39525363Y-30124759D01*
X39725241Y-30324637D01*
X39960273Y-30481680D01*
X40221426Y-30589853D01*
X40498665Y-30645000D01*
X40781335Y-30645000D01*
X41058574Y-30589853D01*
X41319727Y-30481680D01*
X41554759Y-30324637D01*
X41754637Y-30124759D01*
X41910000Y-29892241D01*
X42065363Y-30124759D01*
X42265241Y-30324637D01*
X42500273Y-30481680D01*
X42761426Y-30589853D01*
X43038665Y-30645000D01*
X43321335Y-30645000D01*
X43598574Y-30589853D01*
X43859727Y-30481680D01*
X44094759Y-30324637D01*
X44294637Y-30124759D01*
X44450000Y-29892241D01*
X44605363Y-30124759D01*
X44805241Y-30324637D01*
X45040273Y-30481680D01*
X45301426Y-30589853D01*
X45578665Y-30645000D01*
X45750198Y-30645000D01*
X35048998Y-41346201D01*
X35020000Y-41369999D01*
X34996202Y-41398997D01*
X34996201Y-41398998D01*
X34925026Y-41485724D01*
X34854454Y-41617754D01*
X34810998Y-41761015D01*
X34796324Y-41910000D01*
X34800001Y-41947332D01*
X34800000Y-51501928D01*
X34610000Y-51501928D01*
X34436746Y-51518992D01*
X34270150Y-51569528D01*
X34116614Y-51651595D01*
X33982038Y-51762038D01*
X33871595Y-51896614D01*
X33789528Y-52050150D01*
X33738992Y-52216746D01*
X33721928Y-52390000D01*
X33721928Y-54290000D01*
X33738992Y-54463254D01*
X33789528Y-54629850D01*
X33871595Y-54783386D01*
X33982038Y-54917962D01*
X34116614Y-55028405D01*
X34270150Y-55110472D01*
X34436746Y-55161008D01*
X34610000Y-55178072D01*
X36510000Y-55178072D01*
X36683254Y-55161008D01*
X36849850Y-55110472D01*
X37003386Y-55028405D01*
X37137962Y-54917962D01*
X37248405Y-54783386D01*
X37330472Y-54629850D01*
X37381008Y-54463254D01*
X37398072Y-54290000D01*
X37398072Y-52390000D01*
X37381008Y-52216746D01*
X37330472Y-52050150D01*
X37248405Y-51896614D01*
X37137962Y-51762038D01*
X37003386Y-51651595D01*
X36849850Y-51569528D01*
X36683254Y-51518992D01*
X36510000Y-51501928D01*
X36320000Y-51501928D01*
X36320000Y-43650000D01*
X39201928Y-43650000D01*
X39201928Y-45250000D01*
X39214188Y-45374482D01*
X39250498Y-45494180D01*
X39309463Y-45604494D01*
X39388815Y-45701185D01*
X39485506Y-45780537D01*
X39595820Y-45839502D01*
X39715518Y-45875812D01*
X39840000Y-45888072D01*
X41440000Y-45888072D01*
X41564482Y-45875812D01*
X41684180Y-45839502D01*
X41794494Y-45780537D01*
X41891185Y-45701185D01*
X41970537Y-45604494D01*
X42029502Y-45494180D01*
X42065812Y-45374482D01*
X42066643Y-45366039D01*
X42265241Y-45564637D01*
X42500273Y-45721680D01*
X42761426Y-45829853D01*
X43038665Y-45885000D01*
X43321335Y-45885000D01*
X43598574Y-45829853D01*
X43859727Y-45721680D01*
X44094759Y-45564637D01*
X44294637Y-45364759D01*
X44450000Y-45132241D01*
X44605363Y-45364759D01*
X44805241Y-45564637D01*
X45040273Y-45721680D01*
X45301426Y-45829853D01*
X45578665Y-45885000D01*
X45861335Y-45885000D01*
X46138574Y-45829853D01*
X46399727Y-45721680D01*
X46634759Y-45564637D01*
X46834637Y-45364759D01*
X46991680Y-45129727D01*
X46996067Y-45119135D01*
X47107615Y-45305131D01*
X47296586Y-45513519D01*
X47522580Y-45681037D01*
X47776913Y-45801246D01*
X47910961Y-45841904D01*
X48133000Y-45719915D01*
X48133000Y-44577000D01*
X48113000Y-44577000D01*
X48113000Y-44323000D01*
X48133000Y-44323000D01*
X48133000Y-43180085D01*
X47910961Y-43058096D01*
X47776913Y-43098754D01*
X47522580Y-43218963D01*
X47296586Y-43386481D01*
X47107615Y-43594869D01*
X46996067Y-43780865D01*
X46991680Y-43770273D01*
X46834637Y-43535241D01*
X46634759Y-43335363D01*
X46399727Y-43178320D01*
X46138574Y-43070147D01*
X45861335Y-43015000D01*
X45578665Y-43015000D01*
X45301426Y-43070147D01*
X45040273Y-43178320D01*
X44805241Y-43335363D01*
X44605363Y-43535241D01*
X44450000Y-43767759D01*
X44294637Y-43535241D01*
X44094759Y-43335363D01*
X43859727Y-43178320D01*
X43598574Y-43070147D01*
X43321335Y-43015000D01*
X43038665Y-43015000D01*
X42761426Y-43070147D01*
X42500273Y-43178320D01*
X42265241Y-43335363D01*
X42066643Y-43533961D01*
X42065812Y-43525518D01*
X42029502Y-43405820D01*
X41970537Y-43295506D01*
X41891185Y-43198815D01*
X41794494Y-43119463D01*
X41684180Y-43060498D01*
X41564482Y-43024188D01*
X41440000Y-43011928D01*
X39840000Y-43011928D01*
X39715518Y-43024188D01*
X39595820Y-43060498D01*
X39485506Y-43119463D01*
X39388815Y-43198815D01*
X39309463Y-43295506D01*
X39250498Y-43405820D01*
X39214188Y-43525518D01*
X39201928Y-43650000D01*
X36320000Y-43650000D01*
X36320000Y-42224801D01*
X47936114Y-30608688D01*
X48118665Y-30645000D01*
X48401335Y-30645000D01*
X48625001Y-30600509D01*
X48625002Y-32837669D01*
X48621325Y-32875001D01*
X48635999Y-33023986D01*
X48679455Y-33167247D01*
X48750027Y-33299277D01*
X48821202Y-33386003D01*
X48845001Y-33415002D01*
X48873999Y-33438800D01*
X58450198Y-43015000D01*
X58278665Y-43015000D01*
X58001426Y-43070147D01*
X57740273Y-43178320D01*
X57505241Y-43335363D01*
X57305363Y-43535241D01*
X57150000Y-43767759D01*
X56994637Y-43535241D01*
X56794759Y-43335363D01*
X56559727Y-43178320D01*
X56298574Y-43070147D01*
X56021335Y-43015000D01*
X55738665Y-43015000D01*
X55461426Y-43070147D01*
X55200273Y-43178320D01*
X54965241Y-43335363D01*
X54765363Y-43535241D01*
X54610000Y-43767759D01*
X54454637Y-43535241D01*
X54254759Y-43335363D01*
X54019727Y-43178320D01*
X53758574Y-43070147D01*
X53481335Y-43015000D01*
X53198665Y-43015000D01*
X52921426Y-43070147D01*
X52660273Y-43178320D01*
X52425241Y-43335363D01*
X52225363Y-43535241D01*
X52070000Y-43767759D01*
X51914637Y-43535241D01*
X51714759Y-43335363D01*
X51479727Y-43178320D01*
X51218574Y-43070147D01*
X50941335Y-43015000D01*
X50658665Y-43015000D01*
X50381426Y-43070147D01*
X50120273Y-43178320D01*
X49885241Y-43335363D01*
X49685363Y-43535241D01*
X49528320Y-43770273D01*
X49523933Y-43780865D01*
X49412385Y-43594869D01*
X49223414Y-43386481D01*
X48997420Y-43218963D01*
X48743087Y-43098754D01*
X48609039Y-43058096D01*
X48387000Y-43180085D01*
X48387000Y-44323000D01*
X48407000Y-44323000D01*
X48407000Y-44577000D01*
X48387000Y-44577000D01*
X48387000Y-45719915D01*
X48609039Y-45841904D01*
X48743087Y-45801246D01*
X48997420Y-45681037D01*
X49223414Y-45513519D01*
X49412385Y-45305131D01*
X49523933Y-45119135D01*
X49528320Y-45129727D01*
X49685363Y-45364759D01*
X49885241Y-45564637D01*
X50040001Y-45668044D01*
X50040000Y-52242225D01*
X49948987Y-52303038D01*
X49763038Y-52488987D01*
X49616939Y-52707641D01*
X49516304Y-52950595D01*
X49465000Y-53208514D01*
X49465000Y-53471486D01*
X49516304Y-53729405D01*
X49616939Y-53972359D01*
X49763038Y-54191013D01*
X49862025Y-54290000D01*
X49763038Y-54388987D01*
X49616939Y-54607641D01*
X49516304Y-54850595D01*
X49465000Y-55108514D01*
X49465000Y-55371486D01*
X49516304Y-55629405D01*
X49616939Y-55872359D01*
X49763038Y-56091013D01*
X49948987Y-56276962D01*
X50040000Y-56337775D01*
X50040001Y-61861928D01*
X49847500Y-61861928D01*
X49723018Y-61874188D01*
X49603320Y-61910498D01*
X49493006Y-61969463D01*
X49396315Y-62048815D01*
X49316963Y-62145506D01*
X49257998Y-62255820D01*
X49221688Y-62375518D01*
X49209428Y-62500000D01*
X49209428Y-64500000D01*
X49221688Y-64624482D01*
X49257998Y-64744180D01*
X49316963Y-64854494D01*
X49396315Y-64951185D01*
X49493006Y-65030537D01*
X49603320Y-65089502D01*
X49723018Y-65125812D01*
X49847500Y-65138072D01*
X51752500Y-65138072D01*
X51876982Y-65125812D01*
X51996680Y-65089502D01*
X52106994Y-65030537D01*
X52203685Y-64951185D01*
X52283037Y-64854494D01*
X52327905Y-64770553D01*
X52453766Y-64873845D01*
X52729552Y-65021255D01*
X53028797Y-65112030D01*
X53340000Y-65142681D01*
X53651204Y-65112030D01*
X53950449Y-65021255D01*
X54226235Y-64873845D01*
X54467963Y-64675463D01*
X54615162Y-64496100D01*
X54770563Y-64681315D01*
X55013077Y-64875969D01*
X55288906Y-65019571D01*
X55507020Y-65090563D01*
X55753000Y-64970594D01*
X55753000Y-63627000D01*
X56007000Y-63627000D01*
X56007000Y-64970594D01*
X56252980Y-65090563D01*
X56471094Y-65019571D01*
X56746923Y-64875969D01*
X56989437Y-64681315D01*
X57189316Y-64443089D01*
X57338879Y-64170446D01*
X57432378Y-63873863D01*
X57305570Y-63627000D01*
X56007000Y-63627000D01*
X55753000Y-63627000D01*
X55733000Y-63627000D01*
X55733000Y-63373000D01*
X55753000Y-63373000D01*
X55753000Y-62029406D01*
X56007000Y-62029406D01*
X56007000Y-63373000D01*
X57305570Y-63373000D01*
X57432378Y-63126137D01*
X57338879Y-62829554D01*
X57189316Y-62556911D01*
X56989437Y-62318685D01*
X56746923Y-62124031D01*
X56471094Y-61980429D01*
X56252980Y-61909437D01*
X56007000Y-62029406D01*
X55753000Y-62029406D01*
X55507020Y-61909437D01*
X55288906Y-61980429D01*
X55013077Y-62124031D01*
X54770563Y-62318685D01*
X54615163Y-62503899D01*
X54467963Y-62324537D01*
X54226234Y-62126155D01*
X53950448Y-61978745D01*
X53651203Y-61887970D01*
X53340000Y-61857319D01*
X53028796Y-61887970D01*
X52729551Y-61978745D01*
X52453765Y-62126155D01*
X52327905Y-62229446D01*
X52283037Y-62145506D01*
X52203685Y-62048815D01*
X52106994Y-61969463D01*
X51996680Y-61910498D01*
X51876982Y-61874188D01*
X51752500Y-61861928D01*
X51560000Y-61861928D01*
X51560000Y-56337775D01*
X51651013Y-56276962D01*
X51836962Y-56091013D01*
X51983061Y-55872359D01*
X52083696Y-55629405D01*
X52135000Y-55371486D01*
X52135000Y-55108514D01*
X52083696Y-54850595D01*
X51983061Y-54607641D01*
X51836962Y-54388987D01*
X51737975Y-54290000D01*
X51836962Y-54191013D01*
X51983061Y-53972359D01*
X52083696Y-53729405D01*
X52135000Y-53471486D01*
X52135000Y-53208514D01*
X52083696Y-52950595D01*
X51983061Y-52707641D01*
X51836962Y-52488987D01*
X51651013Y-52303038D01*
X51560000Y-52242225D01*
X51560000Y-45668043D01*
X51714759Y-45564637D01*
X51914637Y-45364759D01*
X52070000Y-45132241D01*
X52225363Y-45364759D01*
X52425241Y-45564637D01*
X52580001Y-45668044D01*
X52580000Y-53302667D01*
X52576323Y-53340000D01*
X52590997Y-53488986D01*
X52634454Y-53632247D01*
X52705026Y-53764276D01*
X52772360Y-53846323D01*
X52799999Y-53880001D01*
X52915724Y-53974974D01*
X53047753Y-54045546D01*
X53191014Y-54089003D01*
X53340000Y-54103677D01*
X53377333Y-54100000D01*
X62402225Y-54100000D01*
X62463038Y-54191013D01*
X62562025Y-54290000D01*
X62463038Y-54388987D01*
X62316939Y-54607641D01*
X62216304Y-54850595D01*
X62165000Y-55108514D01*
X62165000Y-55371486D01*
X62216304Y-55629405D01*
X62316939Y-55872359D01*
X62463038Y-56091013D01*
X62648987Y-56276962D01*
X62740000Y-56337775D01*
X62740001Y-61861928D01*
X62547500Y-61861928D01*
X62423018Y-61874188D01*
X62303320Y-61910498D01*
X62193006Y-61969463D01*
X62096315Y-62048815D01*
X62016963Y-62145506D01*
X61957998Y-62255820D01*
X61921688Y-62375518D01*
X61909428Y-62500000D01*
X61909428Y-64500000D01*
X61921688Y-64624482D01*
X61957998Y-64744180D01*
X62016963Y-64854494D01*
X62096315Y-64951185D01*
X62193006Y-65030537D01*
X62303320Y-65089502D01*
X62423018Y-65125812D01*
X62547500Y-65138072D01*
X64452500Y-65138072D01*
X64576982Y-65125812D01*
X64696680Y-65089502D01*
X64806994Y-65030537D01*
X64903685Y-64951185D01*
X64983037Y-64854494D01*
X65027905Y-64770553D01*
X65153766Y-64873845D01*
X65429552Y-65021255D01*
X65728797Y-65112030D01*
X66040000Y-65142681D01*
X66351204Y-65112030D01*
X66650449Y-65021255D01*
X66926235Y-64873845D01*
X67167963Y-64675463D01*
X67315162Y-64496100D01*
X67470563Y-64681315D01*
X67713077Y-64875969D01*
X67988906Y-65019571D01*
X68207020Y-65090563D01*
X68453000Y-64970594D01*
X68453000Y-63627000D01*
X68707000Y-63627000D01*
X68707000Y-64970594D01*
X68952980Y-65090563D01*
X69171094Y-65019571D01*
X69446923Y-64875969D01*
X69689437Y-64681315D01*
X69889316Y-64443089D01*
X70038879Y-64170446D01*
X70132378Y-63873863D01*
X70005570Y-63627000D01*
X68707000Y-63627000D01*
X68453000Y-63627000D01*
X68433000Y-63627000D01*
X68433000Y-63373000D01*
X68453000Y-63373000D01*
X68453000Y-62029406D01*
X68707000Y-62029406D01*
X68707000Y-63373000D01*
X70005570Y-63373000D01*
X70132378Y-63126137D01*
X70038879Y-62829554D01*
X69889316Y-62556911D01*
X69689437Y-62318685D01*
X69446923Y-62124031D01*
X69171094Y-61980429D01*
X68952980Y-61909437D01*
X68707000Y-62029406D01*
X68453000Y-62029406D01*
X68207020Y-61909437D01*
X67988906Y-61980429D01*
X67713077Y-62124031D01*
X67470563Y-62318685D01*
X67315163Y-62503899D01*
X67167963Y-62324537D01*
X66926234Y-62126155D01*
X66650448Y-61978745D01*
X66351203Y-61887970D01*
X66040000Y-61857319D01*
X65728796Y-61887970D01*
X65429551Y-61978745D01*
X65153765Y-62126155D01*
X65027905Y-62229446D01*
X64983037Y-62145506D01*
X64903685Y-62048815D01*
X64806994Y-61969463D01*
X64696680Y-61910498D01*
X64576982Y-61874188D01*
X64452500Y-61861928D01*
X64260000Y-61861928D01*
X64260000Y-56337775D01*
X64351013Y-56276962D01*
X64536962Y-56091013D01*
X64683061Y-55872359D01*
X64783696Y-55629405D01*
X64835000Y-55371486D01*
X64835000Y-55108514D01*
X64783696Y-54850595D01*
X64683061Y-54607641D01*
X64536962Y-54388987D01*
X64437975Y-54290000D01*
X64536962Y-54191013D01*
X64683061Y-53972359D01*
X64783696Y-53729405D01*
X64835000Y-53471486D01*
X64835000Y-53208514D01*
X64783696Y-52950595D01*
X64683061Y-52707641D01*
X64536962Y-52488987D01*
X64351013Y-52303038D01*
X64132359Y-52156939D01*
X63889405Y-52056304D01*
X63631486Y-52005000D01*
X63368514Y-52005000D01*
X63110595Y-52056304D01*
X62867641Y-52156939D01*
X62648987Y-52303038D01*
X62463038Y-52488987D01*
X62402225Y-52580000D01*
X54100000Y-52580000D01*
X54100000Y-45668043D01*
X54254759Y-45564637D01*
X54454637Y-45364759D01*
X54610000Y-45132241D01*
X54765363Y-45364759D01*
X54965241Y-45564637D01*
X55120000Y-45668044D01*
X55120001Y-50762657D01*
X55116323Y-50800000D01*
X55130997Y-50948986D01*
X55174454Y-51092247D01*
X55245026Y-51224276D01*
X55339999Y-51340001D01*
X55455724Y-51434974D01*
X55587753Y-51505546D01*
X55731014Y-51549003D01*
X55842667Y-51560000D01*
X55880000Y-51563677D01*
X55917333Y-51560000D01*
X75440000Y-51560000D01*
X75440001Y-52242225D01*
X75348987Y-52303038D01*
X75163038Y-52488987D01*
X75016939Y-52707641D01*
X74916304Y-52950595D01*
X74865000Y-53208514D01*
X74865000Y-53471486D01*
X74916304Y-53729405D01*
X75016939Y-53972359D01*
X75163038Y-54191013D01*
X75262025Y-54290000D01*
X75163038Y-54388987D01*
X75016939Y-54607641D01*
X74916304Y-54850595D01*
X74865000Y-55108514D01*
X74865000Y-55371486D01*
X74916304Y-55629405D01*
X75016939Y-55872359D01*
X75163038Y-56091013D01*
X75348987Y-56276962D01*
X75440000Y-56337775D01*
X75440001Y-61861928D01*
X75247500Y-61861928D01*
X75123018Y-61874188D01*
X75003320Y-61910498D01*
X74893006Y-61969463D01*
X74796315Y-62048815D01*
X74716963Y-62145506D01*
X74657998Y-62255820D01*
X74621688Y-62375518D01*
X74609428Y-62500000D01*
X74609428Y-64500000D01*
X74621688Y-64624482D01*
X74657998Y-64744180D01*
X74716963Y-64854494D01*
X74796315Y-64951185D01*
X74893006Y-65030537D01*
X75003320Y-65089502D01*
X75123018Y-65125812D01*
X75247500Y-65138072D01*
X77152500Y-65138072D01*
X77276982Y-65125812D01*
X77396680Y-65089502D01*
X77506994Y-65030537D01*
X77603685Y-64951185D01*
X77683037Y-64854494D01*
X77727905Y-64770553D01*
X77853766Y-64873845D01*
X78129552Y-65021255D01*
X78428797Y-65112030D01*
X78740000Y-65142681D01*
X79051204Y-65112030D01*
X79350449Y-65021255D01*
X79626235Y-64873845D01*
X79867963Y-64675463D01*
X80015162Y-64496100D01*
X80170563Y-64681315D01*
X80413077Y-64875969D01*
X80688906Y-65019571D01*
X80907020Y-65090563D01*
X81153000Y-64970594D01*
X81153000Y-63627000D01*
X81407000Y-63627000D01*
X81407000Y-64970594D01*
X81652980Y-65090563D01*
X81871094Y-65019571D01*
X82146923Y-64875969D01*
X82389437Y-64681315D01*
X82589316Y-64443089D01*
X82738879Y-64170446D01*
X82832378Y-63873863D01*
X82705570Y-63627000D01*
X81407000Y-63627000D01*
X81153000Y-63627000D01*
X81133000Y-63627000D01*
X81133000Y-63373000D01*
X81153000Y-63373000D01*
X81153000Y-62029406D01*
X81407000Y-62029406D01*
X81407000Y-63373000D01*
X82705570Y-63373000D01*
X82832378Y-63126137D01*
X82738879Y-62829554D01*
X82589316Y-62556911D01*
X82389437Y-62318685D01*
X82146923Y-62124031D01*
X81871094Y-61980429D01*
X81652980Y-61909437D01*
X81407000Y-62029406D01*
X81153000Y-62029406D01*
X80907020Y-61909437D01*
X80688906Y-61980429D01*
X80413077Y-62124031D01*
X80170563Y-62318685D01*
X80015163Y-62503899D01*
X79867963Y-62324537D01*
X79626234Y-62126155D01*
X79350448Y-61978745D01*
X79051203Y-61887970D01*
X78740000Y-61857319D01*
X78428796Y-61887970D01*
X78129551Y-61978745D01*
X77853765Y-62126155D01*
X77727905Y-62229446D01*
X77683037Y-62145506D01*
X77603685Y-62048815D01*
X77506994Y-61969463D01*
X77396680Y-61910498D01*
X77276982Y-61874188D01*
X77152500Y-61861928D01*
X76960000Y-61861928D01*
X76960000Y-56337775D01*
X77051013Y-56276962D01*
X77236962Y-56091013D01*
X77383061Y-55872359D01*
X77483696Y-55629405D01*
X77535000Y-55371486D01*
X77535000Y-55108514D01*
X77483696Y-54850595D01*
X77383061Y-54607641D01*
X77236962Y-54388987D01*
X77137975Y-54290000D01*
X77236962Y-54191013D01*
X77383061Y-53972359D01*
X77483696Y-53729405D01*
X77535000Y-53471486D01*
X77535000Y-53208514D01*
X77483696Y-52950595D01*
X77383061Y-52707641D01*
X77236962Y-52488987D01*
X77051013Y-52303038D01*
X76960000Y-52242225D01*
X76960000Y-50837333D01*
X76963677Y-50800000D01*
X76949003Y-50651014D01*
X76905546Y-50507753D01*
X76834974Y-50375724D01*
X76740001Y-50259999D01*
X76624276Y-50165026D01*
X76492247Y-50094454D01*
X76348986Y-50050997D01*
X76237333Y-50040000D01*
X76200000Y-50036323D01*
X76162667Y-50040000D01*
X56640000Y-50040000D01*
X56640000Y-45668043D01*
X56794759Y-45564637D01*
X56994637Y-45364759D01*
X57150000Y-45132241D01*
X57305363Y-45364759D01*
X57505241Y-45564637D01*
X57740273Y-45721680D01*
X58001426Y-45829853D01*
X58278665Y-45885000D01*
X58561335Y-45885000D01*
X58838574Y-45829853D01*
X59099727Y-45721680D01*
X59334759Y-45564637D01*
X59534637Y-45364759D01*
X59690000Y-45132241D01*
X59845363Y-45364759D01*
X60045241Y-45564637D01*
X60280273Y-45721680D01*
X60541426Y-45829853D01*
X60818665Y-45885000D01*
X61101335Y-45885000D01*
X61378574Y-45829853D01*
X61639727Y-45721680D01*
X61874759Y-45564637D01*
X62074637Y-45364759D01*
X62230000Y-45132241D01*
X62385363Y-45364759D01*
X62585241Y-45564637D01*
X62820273Y-45721680D01*
X63081426Y-45829853D01*
X63358665Y-45885000D01*
X63641335Y-45885000D01*
X63918574Y-45829853D01*
X64179727Y-45721680D01*
X64414759Y-45564637D01*
X64614637Y-45364759D01*
X64770000Y-45132241D01*
X64925363Y-45364759D01*
X65125241Y-45564637D01*
X65360273Y-45721680D01*
X65621426Y-45829853D01*
X65898665Y-45885000D01*
X66181335Y-45885000D01*
X66458574Y-45829853D01*
X66719727Y-45721680D01*
X66954759Y-45564637D01*
X67154637Y-45364759D01*
X67310000Y-45132241D01*
X67465363Y-45364759D01*
X67665241Y-45564637D01*
X67900273Y-45721680D01*
X68161426Y-45829853D01*
X68438665Y-45885000D01*
X68721335Y-45885000D01*
X68998574Y-45829853D01*
X69259727Y-45721680D01*
X69494759Y-45564637D01*
X69694637Y-45364759D01*
X69850000Y-45132241D01*
X70005363Y-45364759D01*
X70205241Y-45564637D01*
X70440273Y-45721680D01*
X70701426Y-45829853D01*
X70978665Y-45885000D01*
X71261335Y-45885000D01*
X71538574Y-45829853D01*
X71799727Y-45721680D01*
X72034759Y-45564637D01*
X72234637Y-45364759D01*
X72390000Y-45132241D01*
X72545363Y-45364759D01*
X72745241Y-45564637D01*
X72980273Y-45721680D01*
X73241426Y-45829853D01*
X73518665Y-45885000D01*
X73801335Y-45885000D01*
X74078574Y-45829853D01*
X74339727Y-45721680D01*
X74574759Y-45564637D01*
X74774637Y-45364759D01*
X74930000Y-45132241D01*
X75085363Y-45364759D01*
X75285241Y-45564637D01*
X75520273Y-45721680D01*
X75781426Y-45829853D01*
X76058665Y-45885000D01*
X76341335Y-45885000D01*
X76618574Y-45829853D01*
X76879727Y-45721680D01*
X77114759Y-45564637D01*
X77314637Y-45364759D01*
X77471680Y-45129727D01*
X77579853Y-44868574D01*
X77635000Y-44591335D01*
X77635000Y-44308665D01*
X77579853Y-44031426D01*
X77471680Y-43770273D01*
X77314637Y-43535241D01*
X77114759Y-43335363D01*
X76879727Y-43178320D01*
X76618574Y-43070147D01*
X76341335Y-43015000D01*
X76058665Y-43015000D01*
X75781426Y-43070147D01*
X75520273Y-43178320D01*
X75285241Y-43335363D01*
X75085363Y-43535241D01*
X74930000Y-43767759D01*
X74774637Y-43535241D01*
X74574759Y-43335363D01*
X74339727Y-43178320D01*
X74078574Y-43070147D01*
X73801335Y-43015000D01*
X73518665Y-43015000D01*
X73241426Y-43070147D01*
X72980273Y-43178320D01*
X72745241Y-43335363D01*
X72545363Y-43535241D01*
X72390000Y-43767759D01*
X72234637Y-43535241D01*
X72034759Y-43335363D01*
X71799727Y-43178320D01*
X71538574Y-43070147D01*
X71261335Y-43015000D01*
X70978665Y-43015000D01*
X70701426Y-43070147D01*
X70440273Y-43178320D01*
X70205241Y-43335363D01*
X70005363Y-43535241D01*
X69850000Y-43767759D01*
X69694637Y-43535241D01*
X69494759Y-43335363D01*
X69259727Y-43178320D01*
X68998574Y-43070147D01*
X68721335Y-43015000D01*
X68438665Y-43015000D01*
X68161426Y-43070147D01*
X67900273Y-43178320D01*
X67665241Y-43335363D01*
X67465363Y-43535241D01*
X67310000Y-43767759D01*
X67154637Y-43535241D01*
X66954759Y-43335363D01*
X66719727Y-43178320D01*
X66458574Y-43070147D01*
X66181335Y-43015000D01*
X66009802Y-43015000D01*
X67676004Y-41348798D01*
X67705002Y-41325000D01*
X67764406Y-41252616D01*
X67799975Y-41209276D01*
X67870547Y-41077246D01*
X67898331Y-40985652D01*
X67914004Y-40933985D01*
X67925001Y-40822332D01*
X67925001Y-40822323D01*
X67928677Y-40785000D01*
X67925001Y-40747677D01*
X67925001Y-30491923D01*
X68161426Y-30589853D01*
X68438665Y-30645000D01*
X68721335Y-30645000D01*
X68998574Y-30589853D01*
X69259727Y-30481680D01*
X69494759Y-30324637D01*
X69694637Y-30124759D01*
X69850000Y-29892241D01*
X70005363Y-30124759D01*
X70205241Y-30324637D01*
X70440273Y-30481680D01*
X70701426Y-30589853D01*
X70978665Y-30645000D01*
X71261335Y-30645000D01*
X71538574Y-30589853D01*
X71799727Y-30481680D01*
X72034759Y-30324637D01*
X72234637Y-30124759D01*
X72390000Y-29892241D01*
X72545363Y-30124759D01*
X72745241Y-30324637D01*
X72980273Y-30481680D01*
X73241426Y-30589853D01*
X73518665Y-30645000D01*
X73801335Y-30645000D01*
X74078574Y-30589853D01*
X74339727Y-30481680D01*
X74574759Y-30324637D01*
X74774637Y-30124759D01*
X74930000Y-29892241D01*
X75085363Y-30124759D01*
X75285241Y-30324637D01*
X75520273Y-30481680D01*
X75781426Y-30589853D01*
X76058665Y-30645000D01*
X76341335Y-30645000D01*
X76618574Y-30589853D01*
X76879727Y-30481680D01*
X77114759Y-30324637D01*
X77314637Y-30124759D01*
X77471680Y-29889727D01*
X77579853Y-29628574D01*
X77635000Y-29351335D01*
X77635000Y-29068665D01*
X77579853Y-28791426D01*
X77471680Y-28530273D01*
X77314637Y-28295241D01*
X77114759Y-28095363D01*
X76879727Y-27938320D01*
X76618574Y-27830147D01*
X76341335Y-27775000D01*
X76058665Y-27775000D01*
X75876114Y-27811312D01*
X74420000Y-26355199D01*
X74420000Y-24599067D01*
X74483356Y-24535711D01*
X74599360Y-24362098D01*
X74679265Y-24169191D01*
X74720000Y-23964401D01*
X74720000Y-23755599D01*
X74679265Y-23550809D01*
X74672138Y-23533603D01*
X74674502Y-23529180D01*
X74710812Y-23409482D01*
X74723072Y-23285000D01*
X74723072Y-22435000D01*
X74710812Y-22310518D01*
X74674502Y-22190820D01*
X74615537Y-22080506D01*
X74536185Y-21983815D01*
X74439494Y-21904463D01*
X74329180Y-21845498D01*
X74209482Y-21809188D01*
X74085000Y-21796928D01*
X73235000Y-21796928D01*
X73110518Y-21809188D01*
X72990820Y-21845498D01*
X72880506Y-21904463D01*
X72783815Y-21983815D01*
X72704463Y-22080506D01*
X72694043Y-22100000D01*
X71577775Y-22100000D01*
X71516962Y-22008987D01*
X71331013Y-21823038D01*
X71112359Y-21676939D01*
X70869405Y-21576304D01*
X70611486Y-21525000D01*
X70348514Y-21525000D01*
X70090595Y-21576304D01*
X69847641Y-21676939D01*
X69628987Y-21823038D01*
X69443038Y-22008987D01*
X69296939Y-22227641D01*
X69229746Y-22389859D01*
X68759605Y-22860000D01*
X69229746Y-23330141D01*
X69296939Y-23492359D01*
X69443038Y-23711013D01*
X69628987Y-23896962D01*
X69720000Y-23957775D01*
X69720001Y-26995197D01*
X68903886Y-27811312D01*
X68721335Y-27775000D01*
X68438665Y-27775000D01*
X68161426Y-27830147D01*
X67900273Y-27938320D01*
X67665241Y-28095363D01*
X67665204Y-28095400D01*
X63351073Y-23781269D01*
X67838336Y-23781269D01*
X67897797Y-24015037D01*
X68136242Y-24125934D01*
X68391740Y-24188183D01*
X68654473Y-24199390D01*
X68914344Y-24159125D01*
X69161366Y-24068935D01*
X69262203Y-24015037D01*
X69321664Y-23781269D01*
X68580000Y-23039605D01*
X67838336Y-23781269D01*
X63351073Y-23781269D01*
X62504277Y-22934473D01*
X67240610Y-22934473D01*
X67280875Y-23194344D01*
X67371065Y-23441366D01*
X67424963Y-23542203D01*
X67658731Y-23601664D01*
X68400395Y-22860000D01*
X67658731Y-22118336D01*
X67424963Y-22177797D01*
X67314066Y-22416242D01*
X67251817Y-22671740D01*
X67240610Y-22934473D01*
X62504277Y-22934473D01*
X61648806Y-22079003D01*
X61625003Y-22049999D01*
X61509278Y-21955026D01*
X61478793Y-21938731D01*
X67838336Y-21938731D01*
X68580000Y-22680395D01*
X69321664Y-21938731D01*
X69262203Y-21704963D01*
X69023758Y-21594066D01*
X68768260Y-21531817D01*
X68505527Y-21520610D01*
X68245656Y-21560875D01*
X67998634Y-21651065D01*
X67897797Y-21704963D01*
X67838336Y-21938731D01*
X61478793Y-21938731D01*
X61377249Y-21884454D01*
X61233988Y-21840997D01*
X61122335Y-21830000D01*
X61122324Y-21830000D01*
X61085002Y-21826324D01*
X61047680Y-21830000D01*
X54354250Y-21830000D01*
X54241250Y-21717000D01*
X53941413Y-21717000D01*
X53842098Y-21650640D01*
X53649191Y-21570735D01*
X53444401Y-21530000D01*
X53235599Y-21530000D01*
X53030809Y-21570735D01*
X52837902Y-21650640D01*
X52738587Y-21717000D01*
X52438750Y-21717000D01*
X52280000Y-21875750D01*
X52276928Y-22015000D01*
X52289188Y-22139482D01*
X52325498Y-22259180D01*
X52327862Y-22263603D01*
X52320735Y-22280809D01*
X52280000Y-22485599D01*
X52280000Y-22580001D01*
X30965072Y-22580001D01*
X30959265Y-22550809D01*
X30879360Y-22357902D01*
X30763356Y-22184289D01*
X30615711Y-22036644D01*
X30442098Y-21920640D01*
X30249191Y-21840735D01*
X30044401Y-21800000D01*
X29835599Y-21800000D01*
X29630809Y-21840735D01*
X29440000Y-21919771D01*
X29249191Y-21840735D01*
X29044401Y-21800000D01*
X28835599Y-21800000D01*
X28630809Y-21840735D01*
X28613603Y-21847862D01*
X28609180Y-21845498D01*
X28489482Y-21809188D01*
X28365000Y-21796928D01*
X28225750Y-21800000D01*
X28067000Y-21958750D01*
X28067000Y-22258587D01*
X28000640Y-22357902D01*
X27920735Y-22550809D01*
X27880000Y-22755599D01*
X19710000Y-22755599D01*
X19710000Y-22435000D01*
X26876928Y-22435000D01*
X26880000Y-22574250D01*
X27038750Y-22733000D01*
X27813000Y-22733000D01*
X27813000Y-21958750D01*
X27654250Y-21800000D01*
X27515000Y-21796928D01*
X27390518Y-21809188D01*
X27270820Y-21845498D01*
X27160506Y-21904463D01*
X27063815Y-21983815D01*
X26984463Y-22080506D01*
X26925498Y-22190820D01*
X26889188Y-22310518D01*
X26876928Y-22435000D01*
X19710000Y-22435000D01*
X19710000Y-21165000D01*
X52276928Y-21165000D01*
X52280000Y-21304250D01*
X52438750Y-21463000D01*
X53213000Y-21463000D01*
X53213000Y-20688750D01*
X53467000Y-20688750D01*
X53467000Y-21463000D01*
X54241250Y-21463000D01*
X54400000Y-21304250D01*
X54403072Y-21165000D01*
X54390812Y-21040518D01*
X54354502Y-20920820D01*
X54295537Y-20810506D01*
X54216185Y-20713815D01*
X54119494Y-20634463D01*
X54009180Y-20575498D01*
X53889482Y-20539188D01*
X53765000Y-20526928D01*
X53625750Y-20530000D01*
X53467000Y-20688750D01*
X53213000Y-20688750D01*
X53054250Y-20530000D01*
X52915000Y-20526928D01*
X52790518Y-20539188D01*
X52670820Y-20575498D01*
X52560506Y-20634463D01*
X52463815Y-20713815D01*
X52384463Y-20810506D01*
X52325498Y-20920820D01*
X52289188Y-21040518D01*
X52276928Y-21165000D01*
X19710000Y-21165000D01*
X19710000Y-15900000D01*
X85700000Y-15900000D01*
X85700001Y-78080000D01*
%TA.AperFunction,Conductor*%
D24*
G36*
X85700001Y-78080000D02*
G01*
X19710000Y-78080000D01*
X19710000Y-57119268D01*
X22295000Y-57119268D01*
X22295000Y-57480732D01*
X22365518Y-57835250D01*
X22503844Y-58169199D01*
X22704662Y-58469744D01*
X22960256Y-58725338D01*
X23260801Y-58926156D01*
X23594750Y-59064482D01*
X23949268Y-59135000D01*
X24310732Y-59135000D01*
X24665250Y-59064482D01*
X24999199Y-58926156D01*
X25299744Y-58725338D01*
X25555338Y-58469744D01*
X25756156Y-58169199D01*
X25894482Y-57835250D01*
X25965000Y-57480732D01*
X25965000Y-57119268D01*
X25894482Y-56764750D01*
X25756156Y-56430801D01*
X25555338Y-56130256D01*
X25299744Y-55874662D01*
X24999199Y-55673844D01*
X24665250Y-55535518D01*
X24310732Y-55465000D01*
X23949268Y-55465000D01*
X23594750Y-55535518D01*
X23260801Y-55673844D01*
X22960256Y-55874662D01*
X22704662Y-56130256D01*
X22503844Y-56430801D01*
X22365518Y-56764750D01*
X22295000Y-57119268D01*
X19710000Y-57119268D01*
X19710000Y-52390000D01*
X22291928Y-52390000D01*
X22291928Y-54290000D01*
X22308992Y-54463254D01*
X22359528Y-54629850D01*
X22441595Y-54783386D01*
X22552038Y-54917962D01*
X22686614Y-55028405D01*
X22840150Y-55110472D01*
X23006746Y-55161008D01*
X23180000Y-55178072D01*
X24893271Y-55178072D01*
X42616201Y-72901003D01*
X42639999Y-72930001D01*
X42755724Y-73024974D01*
X42887753Y-73095546D01*
X43031014Y-73139003D01*
X43142667Y-73150000D01*
X43142676Y-73150000D01*
X43179999Y-73153676D01*
X43217322Y-73150000D01*
X51104043Y-73150000D01*
X51114463Y-73169494D01*
X51193815Y-73266185D01*
X51290506Y-73345537D01*
X51385270Y-73396190D01*
X51435026Y-73489276D01*
X51506201Y-73576002D01*
X51530000Y-73605001D01*
X51558996Y-73628797D01*
X51581200Y-73651002D01*
X51605000Y-73680002D01*
X51720725Y-73774975D01*
X51852754Y-73845547D01*
X51996015Y-73889004D01*
X52107668Y-73900001D01*
X52107678Y-73900001D01*
X52145000Y-73903677D01*
X52182323Y-73900001D01*
X63982677Y-73900001D01*
X64019999Y-73903677D01*
X64057321Y-73900001D01*
X64057332Y-73900001D01*
X64168985Y-73889004D01*
X64312246Y-73845547D01*
X64432500Y-73781269D01*
X64552754Y-73845547D01*
X64696015Y-73889004D01*
X64807668Y-73900001D01*
X64807678Y-73900001D01*
X64845000Y-73903677D01*
X64882323Y-73900001D01*
X76682677Y-73900001D01*
X76719999Y-73903677D01*
X76757321Y-73900001D01*
X76757332Y-73900001D01*
X76868985Y-73889004D01*
X77012246Y-73845547D01*
X77144275Y-73774975D01*
X77260000Y-73680002D01*
X77283802Y-73650999D01*
X77481729Y-73453072D01*
X77895000Y-73453072D01*
X78019482Y-73440812D01*
X78139180Y-73404502D01*
X78143603Y-73402138D01*
X78160809Y-73409265D01*
X78365599Y-73450000D01*
X78574401Y-73450000D01*
X78779191Y-73409265D01*
X78972098Y-73329360D01*
X79145711Y-73213356D01*
X79293356Y-73065711D01*
X79409360Y-72892098D01*
X79489265Y-72699191D01*
X79530000Y-72494401D01*
X79530000Y-72285599D01*
X79489265Y-72080809D01*
X79409360Y-71887902D01*
X79293356Y-71714289D01*
X79145711Y-71566644D01*
X78972098Y-71450640D01*
X78779191Y-71370735D01*
X78574401Y-71330000D01*
X78365599Y-71330000D01*
X78160809Y-71370735D01*
X78143603Y-71377862D01*
X78139180Y-71375498D01*
X78019482Y-71339188D01*
X77895000Y-71326928D01*
X77045000Y-71326928D01*
X76920518Y-71339188D01*
X76800820Y-71375498D01*
X76690506Y-71434463D01*
X76593815Y-71513815D01*
X76514463Y-71610506D01*
X76455498Y-71720820D01*
X76419188Y-71840518D01*
X76406928Y-71965000D01*
X76406928Y-72378271D01*
X76405198Y-72380001D01*
X66830000Y-72380001D01*
X66830000Y-72285599D01*
X66789265Y-72080809D01*
X66709360Y-71887902D01*
X66593356Y-71714289D01*
X66445711Y-71566644D01*
X66272098Y-71450640D01*
X66079191Y-71370735D01*
X65874401Y-71330000D01*
X65665599Y-71330000D01*
X65460809Y-71370735D01*
X65443603Y-71377862D01*
X65439180Y-71375498D01*
X65319482Y-71339188D01*
X65195000Y-71326928D01*
X64345000Y-71326928D01*
X64220518Y-71339188D01*
X64100820Y-71375498D01*
X63990506Y-71434463D01*
X63893815Y-71513815D01*
X63814463Y-71610506D01*
X63755498Y-71720820D01*
X63719188Y-71840518D01*
X63706928Y-71965000D01*
X63706928Y-72378271D01*
X63705198Y-72380001D01*
X54130000Y-72380001D01*
X54130000Y-72285599D01*
X54089265Y-72080809D01*
X54009360Y-71887902D01*
X53893356Y-71714289D01*
X53745711Y-71566644D01*
X53572098Y-71450640D01*
X53379191Y-71370735D01*
X53174401Y-71330000D01*
X52965599Y-71330000D01*
X52760809Y-71370735D01*
X52743603Y-71377862D01*
X52739180Y-71375498D01*
X52619482Y-71339188D01*
X52495000Y-71326928D01*
X51645000Y-71326928D01*
X51520518Y-71339188D01*
X51400820Y-71375498D01*
X51290506Y-71434463D01*
X51193815Y-71513815D01*
X51114463Y-71610506D01*
X51104043Y-71630000D01*
X43494802Y-71630000D01*
X28984070Y-57119268D01*
X33725000Y-57119268D01*
X33725000Y-57480732D01*
X33795518Y-57835250D01*
X33933844Y-58169199D01*
X34134662Y-58469744D01*
X34390256Y-58725338D01*
X34690801Y-58926156D01*
X35024750Y-59064482D01*
X35379268Y-59135000D01*
X35740732Y-59135000D01*
X36095250Y-59064482D01*
X36429199Y-58926156D01*
X36729744Y-58725338D01*
X36985338Y-58469744D01*
X37186156Y-58169199D01*
X37324482Y-57835250D01*
X37395000Y-57480732D01*
X37395000Y-57119268D01*
X37324482Y-56764750D01*
X37186156Y-56430801D01*
X36985338Y-56130256D01*
X36729744Y-55874662D01*
X36429199Y-55673844D01*
X36095250Y-55535518D01*
X35740732Y-55465000D01*
X35379268Y-55465000D01*
X35024750Y-55535518D01*
X34690801Y-55673844D01*
X34390256Y-55874662D01*
X34134662Y-56130256D01*
X33933844Y-56430801D01*
X33795518Y-56764750D01*
X33725000Y-57119268D01*
X28984070Y-57119268D01*
X25968072Y-54103271D01*
X25968072Y-52576730D01*
X27026002Y-51518800D01*
X27055000Y-51495002D01*
X27104264Y-51434974D01*
X27149973Y-51379278D01*
X27220545Y-51247248D01*
X27227513Y-51224276D01*
X27264002Y-51103987D01*
X27274999Y-50992334D01*
X27274999Y-50992324D01*
X27278675Y-50955001D01*
X27274999Y-50917678D01*
X27274999Y-42246442D01*
X27327384Y-42272216D01*
X27657585Y-42360369D01*
X27998639Y-42382409D01*
X28337439Y-42337489D01*
X28660966Y-42227336D01*
X28859274Y-42121338D01*
X28967107Y-41846712D01*
X27940000Y-40819605D01*
X27925858Y-40833748D01*
X27746253Y-40654143D01*
X27760395Y-40640000D01*
X27746253Y-40625858D01*
X27925858Y-40446253D01*
X27940000Y-40460395D01*
X27954143Y-40446253D01*
X28133748Y-40625858D01*
X28119605Y-40640000D01*
X29146712Y-41667107D01*
X29421338Y-41559274D01*
X29572216Y-41252616D01*
X29660369Y-40922415D01*
X29682409Y-40581361D01*
X29637489Y-40242561D01*
X29527336Y-39919034D01*
X29421338Y-39720726D01*
X29411267Y-39716772D01*
X29491185Y-39651185D01*
X29570537Y-39554494D01*
X29629502Y-39444180D01*
X29665812Y-39324482D01*
X29678072Y-39200000D01*
X29678072Y-37000000D01*
X29665812Y-36875518D01*
X29629502Y-36755820D01*
X29570537Y-36645506D01*
X29491185Y-36548815D01*
X29394494Y-36469463D01*
X29284180Y-36410498D01*
X29164482Y-36374188D01*
X29040000Y-36361928D01*
X26840000Y-36361928D01*
X26715518Y-36374188D01*
X26595820Y-36410498D01*
X26485506Y-36469463D01*
X26388815Y-36548815D01*
X26309463Y-36645506D01*
X26250498Y-36755820D01*
X26214188Y-36875518D01*
X26201928Y-37000000D01*
X26201928Y-37226084D01*
X26155394Y-37179550D01*
X25961308Y-37049866D01*
X25745652Y-36960539D01*
X25516712Y-36915000D01*
X25283288Y-36915000D01*
X25054348Y-36960539D01*
X24838692Y-37049866D01*
X24644606Y-37179550D01*
X24479550Y-37344606D01*
X24349866Y-37538692D01*
X24260539Y-37754348D01*
X24215000Y-37983288D01*
X24215000Y-38216712D01*
X24260539Y-38445652D01*
X24349866Y-38661308D01*
X24479550Y-38855394D01*
X24644606Y-39020450D01*
X24838692Y-39150134D01*
X25054348Y-39239461D01*
X25283288Y-39285000D01*
X25516712Y-39285000D01*
X25745652Y-39239461D01*
X25822992Y-39207426D01*
X25809453Y-39232755D01*
X25765996Y-39376016D01*
X25754999Y-39487669D01*
X25754999Y-39487679D01*
X25753416Y-39503755D01*
X25745652Y-39500539D01*
X25516712Y-39455000D01*
X25283288Y-39455000D01*
X25054348Y-39500539D01*
X24838692Y-39589866D01*
X24644606Y-39719550D01*
X24479550Y-39884606D01*
X24349866Y-40078692D01*
X24260539Y-40294348D01*
X24215000Y-40523288D01*
X24215000Y-40756712D01*
X24260539Y-40985652D01*
X24349866Y-41201308D01*
X24479550Y-41395394D01*
X24644606Y-41560450D01*
X24838692Y-41690134D01*
X25054348Y-41779461D01*
X25283288Y-41825000D01*
X25516712Y-41825000D01*
X25745652Y-41779461D01*
X25754999Y-41775589D01*
X25755000Y-50640198D01*
X24893270Y-51501928D01*
X23180000Y-51501928D01*
X23006746Y-51518992D01*
X22840150Y-51569528D01*
X22686614Y-51651595D01*
X22552038Y-51762038D01*
X22441595Y-51896614D01*
X22359528Y-52050150D01*
X22308992Y-52216746D01*
X22291928Y-52390000D01*
X19710000Y-52390000D01*
X19710000Y-23285000D01*
X26876928Y-23285000D01*
X26889188Y-23409482D01*
X26925498Y-23529180D01*
X26984463Y-23639494D01*
X27063815Y-23736185D01*
X27160506Y-23815537D01*
X27270820Y-23874502D01*
X27390518Y-23910812D01*
X27515000Y-23923072D01*
X27654250Y-23920000D01*
X27813000Y-23761250D01*
X27813000Y-22987000D01*
X27038750Y-22987000D01*
X26880000Y-23145750D01*
X26876928Y-23285000D01*
X19710000Y-23285000D01*
X19710000Y-22755599D01*
X27880000Y-22755599D01*
X27880000Y-22964401D01*
X27920735Y-23169191D01*
X28000640Y-23362098D01*
X28067000Y-23461413D01*
X28067000Y-23761250D01*
X28225750Y-23920000D01*
X28335477Y-23922421D01*
X28369930Y-23964401D01*
X28400000Y-24001041D01*
X28428998Y-24024839D01*
X33000159Y-28596001D01*
X33023958Y-28625000D01*
X33052956Y-28648798D01*
X33139683Y-28719973D01*
X33271712Y-28790545D01*
X33414973Y-28834002D01*
X33563959Y-28848676D01*
X33601292Y-28844999D01*
X39249491Y-28844999D01*
X39205000Y-29068665D01*
X39205000Y-29351335D01*
X39260147Y-29628574D01*
X39368320Y-29889727D01*
X39525363Y-30124759D01*
X39725241Y-30324637D01*
X39960273Y-30481680D01*
X40221426Y-30589853D01*
X40498665Y-30645000D01*
X40781335Y-30645000D01*
X41058574Y-30589853D01*
X41319727Y-30481680D01*
X41554759Y-30324637D01*
X41754637Y-30124759D01*
X41910000Y-29892241D01*
X42065363Y-30124759D01*
X42265241Y-30324637D01*
X42500273Y-30481680D01*
X42761426Y-30589853D01*
X43038665Y-30645000D01*
X43321335Y-30645000D01*
X43598574Y-30589853D01*
X43859727Y-30481680D01*
X44094759Y-30324637D01*
X44294637Y-30124759D01*
X44450000Y-29892241D01*
X44605363Y-30124759D01*
X44805241Y-30324637D01*
X45040273Y-30481680D01*
X45301426Y-30589853D01*
X45578665Y-30645000D01*
X45750198Y-30645000D01*
X35048998Y-41346201D01*
X35020000Y-41369999D01*
X34996202Y-41398997D01*
X34996201Y-41398998D01*
X34925026Y-41485724D01*
X34854454Y-41617754D01*
X34810998Y-41761015D01*
X34796324Y-41910000D01*
X34800001Y-41947332D01*
X34800000Y-51501928D01*
X34610000Y-51501928D01*
X34436746Y-51518992D01*
X34270150Y-51569528D01*
X34116614Y-51651595D01*
X33982038Y-51762038D01*
X33871595Y-51896614D01*
X33789528Y-52050150D01*
X33738992Y-52216746D01*
X33721928Y-52390000D01*
X33721928Y-54290000D01*
X33738992Y-54463254D01*
X33789528Y-54629850D01*
X33871595Y-54783386D01*
X33982038Y-54917962D01*
X34116614Y-55028405D01*
X34270150Y-55110472D01*
X34436746Y-55161008D01*
X34610000Y-55178072D01*
X36510000Y-55178072D01*
X36683254Y-55161008D01*
X36849850Y-55110472D01*
X37003386Y-55028405D01*
X37137962Y-54917962D01*
X37248405Y-54783386D01*
X37330472Y-54629850D01*
X37381008Y-54463254D01*
X37398072Y-54290000D01*
X37398072Y-52390000D01*
X37381008Y-52216746D01*
X37330472Y-52050150D01*
X37248405Y-51896614D01*
X37137962Y-51762038D01*
X37003386Y-51651595D01*
X36849850Y-51569528D01*
X36683254Y-51518992D01*
X36510000Y-51501928D01*
X36320000Y-51501928D01*
X36320000Y-43650000D01*
X39201928Y-43650000D01*
X39201928Y-45250000D01*
X39214188Y-45374482D01*
X39250498Y-45494180D01*
X39309463Y-45604494D01*
X39388815Y-45701185D01*
X39485506Y-45780537D01*
X39595820Y-45839502D01*
X39715518Y-45875812D01*
X39840000Y-45888072D01*
X41440000Y-45888072D01*
X41564482Y-45875812D01*
X41684180Y-45839502D01*
X41794494Y-45780537D01*
X41891185Y-45701185D01*
X41970537Y-45604494D01*
X42029502Y-45494180D01*
X42065812Y-45374482D01*
X42066643Y-45366039D01*
X42265241Y-45564637D01*
X42500273Y-45721680D01*
X42761426Y-45829853D01*
X43038665Y-45885000D01*
X43321335Y-45885000D01*
X43598574Y-45829853D01*
X43859727Y-45721680D01*
X44094759Y-45564637D01*
X44294637Y-45364759D01*
X44450000Y-45132241D01*
X44605363Y-45364759D01*
X44805241Y-45564637D01*
X45040273Y-45721680D01*
X45301426Y-45829853D01*
X45578665Y-45885000D01*
X45861335Y-45885000D01*
X46138574Y-45829853D01*
X46399727Y-45721680D01*
X46634759Y-45564637D01*
X46834637Y-45364759D01*
X46991680Y-45129727D01*
X46996067Y-45119135D01*
X47107615Y-45305131D01*
X47296586Y-45513519D01*
X47522580Y-45681037D01*
X47776913Y-45801246D01*
X47910961Y-45841904D01*
X48133000Y-45719915D01*
X48133000Y-44577000D01*
X48113000Y-44577000D01*
X48113000Y-44323000D01*
X48133000Y-44323000D01*
X48133000Y-43180085D01*
X47910961Y-43058096D01*
X47776913Y-43098754D01*
X47522580Y-43218963D01*
X47296586Y-43386481D01*
X47107615Y-43594869D01*
X46996067Y-43780865D01*
X46991680Y-43770273D01*
X46834637Y-43535241D01*
X46634759Y-43335363D01*
X46399727Y-43178320D01*
X46138574Y-43070147D01*
X45861335Y-43015000D01*
X45578665Y-43015000D01*
X45301426Y-43070147D01*
X45040273Y-43178320D01*
X44805241Y-43335363D01*
X44605363Y-43535241D01*
X44450000Y-43767759D01*
X44294637Y-43535241D01*
X44094759Y-43335363D01*
X43859727Y-43178320D01*
X43598574Y-43070147D01*
X43321335Y-43015000D01*
X43038665Y-43015000D01*
X42761426Y-43070147D01*
X42500273Y-43178320D01*
X42265241Y-43335363D01*
X42066643Y-43533961D01*
X42065812Y-43525518D01*
X42029502Y-43405820D01*
X41970537Y-43295506D01*
X41891185Y-43198815D01*
X41794494Y-43119463D01*
X41684180Y-43060498D01*
X41564482Y-43024188D01*
X41440000Y-43011928D01*
X39840000Y-43011928D01*
X39715518Y-43024188D01*
X39595820Y-43060498D01*
X39485506Y-43119463D01*
X39388815Y-43198815D01*
X39309463Y-43295506D01*
X39250498Y-43405820D01*
X39214188Y-43525518D01*
X39201928Y-43650000D01*
X36320000Y-43650000D01*
X36320000Y-42224801D01*
X47936114Y-30608688D01*
X48118665Y-30645000D01*
X48401335Y-30645000D01*
X48625001Y-30600509D01*
X48625002Y-32837669D01*
X48621325Y-32875001D01*
X48635999Y-33023986D01*
X48679455Y-33167247D01*
X48750027Y-33299277D01*
X48821202Y-33386003D01*
X48845001Y-33415002D01*
X48873999Y-33438800D01*
X58450198Y-43015000D01*
X58278665Y-43015000D01*
X58001426Y-43070147D01*
X57740273Y-43178320D01*
X57505241Y-43335363D01*
X57305363Y-43535241D01*
X57150000Y-43767759D01*
X56994637Y-43535241D01*
X56794759Y-43335363D01*
X56559727Y-43178320D01*
X56298574Y-43070147D01*
X56021335Y-43015000D01*
X55738665Y-43015000D01*
X55461426Y-43070147D01*
X55200273Y-43178320D01*
X54965241Y-43335363D01*
X54765363Y-43535241D01*
X54610000Y-43767759D01*
X54454637Y-43535241D01*
X54254759Y-43335363D01*
X54019727Y-43178320D01*
X53758574Y-43070147D01*
X53481335Y-43015000D01*
X53198665Y-43015000D01*
X52921426Y-43070147D01*
X52660273Y-43178320D01*
X52425241Y-43335363D01*
X52225363Y-43535241D01*
X52070000Y-43767759D01*
X51914637Y-43535241D01*
X51714759Y-43335363D01*
X51479727Y-43178320D01*
X51218574Y-43070147D01*
X50941335Y-43015000D01*
X50658665Y-43015000D01*
X50381426Y-43070147D01*
X50120273Y-43178320D01*
X49885241Y-43335363D01*
X49685363Y-43535241D01*
X49528320Y-43770273D01*
X49523933Y-43780865D01*
X49412385Y-43594869D01*
X49223414Y-43386481D01*
X48997420Y-43218963D01*
X48743087Y-43098754D01*
X48609039Y-43058096D01*
X48387000Y-43180085D01*
X48387000Y-44323000D01*
X48407000Y-44323000D01*
X48407000Y-44577000D01*
X48387000Y-44577000D01*
X48387000Y-45719915D01*
X48609039Y-45841904D01*
X48743087Y-45801246D01*
X48997420Y-45681037D01*
X49223414Y-45513519D01*
X49412385Y-45305131D01*
X49523933Y-45119135D01*
X49528320Y-45129727D01*
X49685363Y-45364759D01*
X49885241Y-45564637D01*
X50040001Y-45668044D01*
X50040000Y-52242225D01*
X49948987Y-52303038D01*
X49763038Y-52488987D01*
X49616939Y-52707641D01*
X49516304Y-52950595D01*
X49465000Y-53208514D01*
X49465000Y-53471486D01*
X49516304Y-53729405D01*
X49616939Y-53972359D01*
X49763038Y-54191013D01*
X49862025Y-54290000D01*
X49763038Y-54388987D01*
X49616939Y-54607641D01*
X49516304Y-54850595D01*
X49465000Y-55108514D01*
X49465000Y-55371486D01*
X49516304Y-55629405D01*
X49616939Y-55872359D01*
X49763038Y-56091013D01*
X49948987Y-56276962D01*
X50040000Y-56337775D01*
X50040001Y-61861928D01*
X49847500Y-61861928D01*
X49723018Y-61874188D01*
X49603320Y-61910498D01*
X49493006Y-61969463D01*
X49396315Y-62048815D01*
X49316963Y-62145506D01*
X49257998Y-62255820D01*
X49221688Y-62375518D01*
X49209428Y-62500000D01*
X49209428Y-64500000D01*
X49221688Y-64624482D01*
X49257998Y-64744180D01*
X49316963Y-64854494D01*
X49396315Y-64951185D01*
X49493006Y-65030537D01*
X49603320Y-65089502D01*
X49723018Y-65125812D01*
X49847500Y-65138072D01*
X51752500Y-65138072D01*
X51876982Y-65125812D01*
X51996680Y-65089502D01*
X52106994Y-65030537D01*
X52203685Y-64951185D01*
X52283037Y-64854494D01*
X52327905Y-64770553D01*
X52453766Y-64873845D01*
X52729552Y-65021255D01*
X53028797Y-65112030D01*
X53340000Y-65142681D01*
X53651204Y-65112030D01*
X53950449Y-65021255D01*
X54226235Y-64873845D01*
X54467963Y-64675463D01*
X54615162Y-64496100D01*
X54770563Y-64681315D01*
X55013077Y-64875969D01*
X55288906Y-65019571D01*
X55507020Y-65090563D01*
X55753000Y-64970594D01*
X55753000Y-63627000D01*
X56007000Y-63627000D01*
X56007000Y-64970594D01*
X56252980Y-65090563D01*
X56471094Y-65019571D01*
X56746923Y-64875969D01*
X56989437Y-64681315D01*
X57189316Y-64443089D01*
X57338879Y-64170446D01*
X57432378Y-63873863D01*
X57305570Y-63627000D01*
X56007000Y-63627000D01*
X55753000Y-63627000D01*
X55733000Y-63627000D01*
X55733000Y-63373000D01*
X55753000Y-63373000D01*
X55753000Y-62029406D01*
X56007000Y-62029406D01*
X56007000Y-63373000D01*
X57305570Y-63373000D01*
X57432378Y-63126137D01*
X57338879Y-62829554D01*
X57189316Y-62556911D01*
X56989437Y-62318685D01*
X56746923Y-62124031D01*
X56471094Y-61980429D01*
X56252980Y-61909437D01*
X56007000Y-62029406D01*
X55753000Y-62029406D01*
X55507020Y-61909437D01*
X55288906Y-61980429D01*
X55013077Y-62124031D01*
X54770563Y-62318685D01*
X54615163Y-62503899D01*
X54467963Y-62324537D01*
X54226234Y-62126155D01*
X53950448Y-61978745D01*
X53651203Y-61887970D01*
X53340000Y-61857319D01*
X53028796Y-61887970D01*
X52729551Y-61978745D01*
X52453765Y-62126155D01*
X52327905Y-62229446D01*
X52283037Y-62145506D01*
X52203685Y-62048815D01*
X52106994Y-61969463D01*
X51996680Y-61910498D01*
X51876982Y-61874188D01*
X51752500Y-61861928D01*
X51560000Y-61861928D01*
X51560000Y-56337775D01*
X51651013Y-56276962D01*
X51836962Y-56091013D01*
X51983061Y-55872359D01*
X52083696Y-55629405D01*
X52135000Y-55371486D01*
X52135000Y-55108514D01*
X52083696Y-54850595D01*
X51983061Y-54607641D01*
X51836962Y-54388987D01*
X51737975Y-54290000D01*
X51836962Y-54191013D01*
X51983061Y-53972359D01*
X52083696Y-53729405D01*
X52135000Y-53471486D01*
X52135000Y-53208514D01*
X52083696Y-52950595D01*
X51983061Y-52707641D01*
X51836962Y-52488987D01*
X51651013Y-52303038D01*
X51560000Y-52242225D01*
X51560000Y-45668043D01*
X51714759Y-45564637D01*
X51914637Y-45364759D01*
X52070000Y-45132241D01*
X52225363Y-45364759D01*
X52425241Y-45564637D01*
X52580001Y-45668044D01*
X52580000Y-53302667D01*
X52576323Y-53340000D01*
X52590997Y-53488986D01*
X52634454Y-53632247D01*
X52705026Y-53764276D01*
X52772360Y-53846323D01*
X52799999Y-53880001D01*
X52915724Y-53974974D01*
X53047753Y-54045546D01*
X53191014Y-54089003D01*
X53340000Y-54103677D01*
X53377333Y-54100000D01*
X62402225Y-54100000D01*
X62463038Y-54191013D01*
X62562025Y-54290000D01*
X62463038Y-54388987D01*
X62316939Y-54607641D01*
X62216304Y-54850595D01*
X62165000Y-55108514D01*
X62165000Y-55371486D01*
X62216304Y-55629405D01*
X62316939Y-55872359D01*
X62463038Y-56091013D01*
X62648987Y-56276962D01*
X62740000Y-56337775D01*
X62740001Y-61861928D01*
X62547500Y-61861928D01*
X62423018Y-61874188D01*
X62303320Y-61910498D01*
X62193006Y-61969463D01*
X62096315Y-62048815D01*
X62016963Y-62145506D01*
X61957998Y-62255820D01*
X61921688Y-62375518D01*
X61909428Y-62500000D01*
X61909428Y-64500000D01*
X61921688Y-64624482D01*
X61957998Y-64744180D01*
X62016963Y-64854494D01*
X62096315Y-64951185D01*
X62193006Y-65030537D01*
X62303320Y-65089502D01*
X62423018Y-65125812D01*
X62547500Y-65138072D01*
X64452500Y-65138072D01*
X64576982Y-65125812D01*
X64696680Y-65089502D01*
X64806994Y-65030537D01*
X64903685Y-64951185D01*
X64983037Y-64854494D01*
X65027905Y-64770553D01*
X65153766Y-64873845D01*
X65429552Y-65021255D01*
X65728797Y-65112030D01*
X66040000Y-65142681D01*
X66351204Y-65112030D01*
X66650449Y-65021255D01*
X66926235Y-64873845D01*
X67167963Y-64675463D01*
X67315162Y-64496100D01*
X67470563Y-64681315D01*
X67713077Y-64875969D01*
X67988906Y-65019571D01*
X68207020Y-65090563D01*
X68453000Y-64970594D01*
X68453000Y-63627000D01*
X68707000Y-63627000D01*
X68707000Y-64970594D01*
X68952980Y-65090563D01*
X69171094Y-65019571D01*
X69446923Y-64875969D01*
X69689437Y-64681315D01*
X69889316Y-64443089D01*
X70038879Y-64170446D01*
X70132378Y-63873863D01*
X70005570Y-63627000D01*
X68707000Y-63627000D01*
X68453000Y-63627000D01*
X68433000Y-63627000D01*
X68433000Y-63373000D01*
X68453000Y-63373000D01*
X68453000Y-62029406D01*
X68707000Y-62029406D01*
X68707000Y-63373000D01*
X70005570Y-63373000D01*
X70132378Y-63126137D01*
X70038879Y-62829554D01*
X69889316Y-62556911D01*
X69689437Y-62318685D01*
X69446923Y-62124031D01*
X69171094Y-61980429D01*
X68952980Y-61909437D01*
X68707000Y-62029406D01*
X68453000Y-62029406D01*
X68207020Y-61909437D01*
X67988906Y-61980429D01*
X67713077Y-62124031D01*
X67470563Y-62318685D01*
X67315163Y-62503899D01*
X67167963Y-62324537D01*
X66926234Y-62126155D01*
X66650448Y-61978745D01*
X66351203Y-61887970D01*
X66040000Y-61857319D01*
X65728796Y-61887970D01*
X65429551Y-61978745D01*
X65153765Y-62126155D01*
X65027905Y-62229446D01*
X64983037Y-62145506D01*
X64903685Y-62048815D01*
X64806994Y-61969463D01*
X64696680Y-61910498D01*
X64576982Y-61874188D01*
X64452500Y-61861928D01*
X64260000Y-61861928D01*
X64260000Y-56337775D01*
X64351013Y-56276962D01*
X64536962Y-56091013D01*
X64683061Y-55872359D01*
X64783696Y-55629405D01*
X64835000Y-55371486D01*
X64835000Y-55108514D01*
X64783696Y-54850595D01*
X64683061Y-54607641D01*
X64536962Y-54388987D01*
X64437975Y-54290000D01*
X64536962Y-54191013D01*
X64683061Y-53972359D01*
X64783696Y-53729405D01*
X64835000Y-53471486D01*
X64835000Y-53208514D01*
X64783696Y-52950595D01*
X64683061Y-52707641D01*
X64536962Y-52488987D01*
X64351013Y-52303038D01*
X64132359Y-52156939D01*
X63889405Y-52056304D01*
X63631486Y-52005000D01*
X63368514Y-52005000D01*
X63110595Y-52056304D01*
X62867641Y-52156939D01*
X62648987Y-52303038D01*
X62463038Y-52488987D01*
X62402225Y-52580000D01*
X54100000Y-52580000D01*
X54100000Y-45668043D01*
X54254759Y-45564637D01*
X54454637Y-45364759D01*
X54610000Y-45132241D01*
X54765363Y-45364759D01*
X54965241Y-45564637D01*
X55120000Y-45668044D01*
X55120001Y-50762657D01*
X55116323Y-50800000D01*
X55130997Y-50948986D01*
X55174454Y-51092247D01*
X55245026Y-51224276D01*
X55339999Y-51340001D01*
X55455724Y-51434974D01*
X55587753Y-51505546D01*
X55731014Y-51549003D01*
X55842667Y-51560000D01*
X55880000Y-51563677D01*
X55917333Y-51560000D01*
X75440000Y-51560000D01*
X75440001Y-52242225D01*
X75348987Y-52303038D01*
X75163038Y-52488987D01*
X75016939Y-52707641D01*
X74916304Y-52950595D01*
X74865000Y-53208514D01*
X74865000Y-53471486D01*
X74916304Y-53729405D01*
X75016939Y-53972359D01*
X75163038Y-54191013D01*
X75262025Y-54290000D01*
X75163038Y-54388987D01*
X75016939Y-54607641D01*
X74916304Y-54850595D01*
X74865000Y-55108514D01*
X74865000Y-55371486D01*
X74916304Y-55629405D01*
X75016939Y-55872359D01*
X75163038Y-56091013D01*
X75348987Y-56276962D01*
X75440000Y-56337775D01*
X75440001Y-61861928D01*
X75247500Y-61861928D01*
X75123018Y-61874188D01*
X75003320Y-61910498D01*
X74893006Y-61969463D01*
X74796315Y-62048815D01*
X74716963Y-62145506D01*
X74657998Y-62255820D01*
X74621688Y-62375518D01*
X74609428Y-62500000D01*
X74609428Y-64500000D01*
X74621688Y-64624482D01*
X74657998Y-64744180D01*
X74716963Y-64854494D01*
X74796315Y-64951185D01*
X74893006Y-65030537D01*
X75003320Y-65089502D01*
X75123018Y-65125812D01*
X75247500Y-65138072D01*
X77152500Y-65138072D01*
X77276982Y-65125812D01*
X77396680Y-65089502D01*
X77506994Y-65030537D01*
X77603685Y-64951185D01*
X77683037Y-64854494D01*
X77727905Y-64770553D01*
X77853766Y-64873845D01*
X78129552Y-65021255D01*
X78428797Y-65112030D01*
X78740000Y-65142681D01*
X79051204Y-65112030D01*
X79350449Y-65021255D01*
X79626235Y-64873845D01*
X79867963Y-64675463D01*
X80015162Y-64496100D01*
X80170563Y-64681315D01*
X80413077Y-64875969D01*
X80688906Y-65019571D01*
X80907020Y-65090563D01*
X81153000Y-64970594D01*
X81153000Y-63627000D01*
X81407000Y-63627000D01*
X81407000Y-64970594D01*
X81652980Y-65090563D01*
X81871094Y-65019571D01*
X82146923Y-64875969D01*
X82389437Y-64681315D01*
X82589316Y-64443089D01*
X82738879Y-64170446D01*
X82832378Y-63873863D01*
X82705570Y-63627000D01*
X81407000Y-63627000D01*
X81153000Y-63627000D01*
X81133000Y-63627000D01*
X81133000Y-63373000D01*
X81153000Y-63373000D01*
X81153000Y-62029406D01*
X81407000Y-62029406D01*
X81407000Y-63373000D01*
X82705570Y-63373000D01*
X82832378Y-63126137D01*
X82738879Y-62829554D01*
X82589316Y-62556911D01*
X82389437Y-62318685D01*
X82146923Y-62124031D01*
X81871094Y-61980429D01*
X81652980Y-61909437D01*
X81407000Y-62029406D01*
X81153000Y-62029406D01*
X80907020Y-61909437D01*
X80688906Y-61980429D01*
X80413077Y-62124031D01*
X80170563Y-62318685D01*
X80015163Y-62503899D01*
X79867963Y-62324537D01*
X79626234Y-62126155D01*
X79350448Y-61978745D01*
X79051203Y-61887970D01*
X78740000Y-61857319D01*
X78428796Y-61887970D01*
X78129551Y-61978745D01*
X77853765Y-62126155D01*
X77727905Y-62229446D01*
X77683037Y-62145506D01*
X77603685Y-62048815D01*
X77506994Y-61969463D01*
X77396680Y-61910498D01*
X77276982Y-61874188D01*
X77152500Y-61861928D01*
X76960000Y-61861928D01*
X76960000Y-56337775D01*
X77051013Y-56276962D01*
X77236962Y-56091013D01*
X77383061Y-55872359D01*
X77483696Y-55629405D01*
X77535000Y-55371486D01*
X77535000Y-55108514D01*
X77483696Y-54850595D01*
X77383061Y-54607641D01*
X77236962Y-54388987D01*
X77137975Y-54290000D01*
X77236962Y-54191013D01*
X77383061Y-53972359D01*
X77483696Y-53729405D01*
X77535000Y-53471486D01*
X77535000Y-53208514D01*
X77483696Y-52950595D01*
X77383061Y-52707641D01*
X77236962Y-52488987D01*
X77051013Y-52303038D01*
X76960000Y-52242225D01*
X76960000Y-50837333D01*
X76963677Y-50800000D01*
X76949003Y-50651014D01*
X76905546Y-50507753D01*
X76834974Y-50375724D01*
X76740001Y-50259999D01*
X76624276Y-50165026D01*
X76492247Y-50094454D01*
X76348986Y-50050997D01*
X76237333Y-50040000D01*
X76200000Y-50036323D01*
X76162667Y-50040000D01*
X56640000Y-50040000D01*
X56640000Y-45668043D01*
X56794759Y-45564637D01*
X56994637Y-45364759D01*
X57150000Y-45132241D01*
X57305363Y-45364759D01*
X57505241Y-45564637D01*
X57740273Y-45721680D01*
X58001426Y-45829853D01*
X58278665Y-45885000D01*
X58561335Y-45885000D01*
X58838574Y-45829853D01*
X59099727Y-45721680D01*
X59334759Y-45564637D01*
X59534637Y-45364759D01*
X59690000Y-45132241D01*
X59845363Y-45364759D01*
X60045241Y-45564637D01*
X60280273Y-45721680D01*
X60541426Y-45829853D01*
X60818665Y-45885000D01*
X61101335Y-45885000D01*
X61378574Y-45829853D01*
X61639727Y-45721680D01*
X61874759Y-45564637D01*
X62074637Y-45364759D01*
X62230000Y-45132241D01*
X62385363Y-45364759D01*
X62585241Y-45564637D01*
X62820273Y-45721680D01*
X63081426Y-45829853D01*
X63358665Y-45885000D01*
X63641335Y-45885000D01*
X63918574Y-45829853D01*
X64179727Y-45721680D01*
X64414759Y-45564637D01*
X64614637Y-45364759D01*
X64770000Y-45132241D01*
X64925363Y-45364759D01*
X65125241Y-45564637D01*
X65360273Y-45721680D01*
X65621426Y-45829853D01*
X65898665Y-45885000D01*
X66181335Y-45885000D01*
X66458574Y-45829853D01*
X66719727Y-45721680D01*
X66954759Y-45564637D01*
X67154637Y-45364759D01*
X67310000Y-45132241D01*
X67465363Y-45364759D01*
X67665241Y-45564637D01*
X67900273Y-45721680D01*
X68161426Y-45829853D01*
X68438665Y-45885000D01*
X68721335Y-45885000D01*
X68998574Y-45829853D01*
X69259727Y-45721680D01*
X69494759Y-45564637D01*
X69694637Y-45364759D01*
X69850000Y-45132241D01*
X70005363Y-45364759D01*
X70205241Y-45564637D01*
X70440273Y-45721680D01*
X70701426Y-45829853D01*
X70978665Y-45885000D01*
X71261335Y-45885000D01*
X71538574Y-45829853D01*
X71799727Y-45721680D01*
X72034759Y-45564637D01*
X72234637Y-45364759D01*
X72390000Y-45132241D01*
X72545363Y-45364759D01*
X72745241Y-45564637D01*
X72980273Y-45721680D01*
X73241426Y-45829853D01*
X73518665Y-45885000D01*
X73801335Y-45885000D01*
X74078574Y-45829853D01*
X74339727Y-45721680D01*
X74574759Y-45564637D01*
X74774637Y-45364759D01*
X74930000Y-45132241D01*
X75085363Y-45364759D01*
X75285241Y-45564637D01*
X75520273Y-45721680D01*
X75781426Y-45829853D01*
X76058665Y-45885000D01*
X76341335Y-45885000D01*
X76618574Y-45829853D01*
X76879727Y-45721680D01*
X77114759Y-45564637D01*
X77314637Y-45364759D01*
X77471680Y-45129727D01*
X77579853Y-44868574D01*
X77635000Y-44591335D01*
X77635000Y-44308665D01*
X77579853Y-44031426D01*
X77471680Y-43770273D01*
X77314637Y-43535241D01*
X77114759Y-43335363D01*
X76879727Y-43178320D01*
X76618574Y-43070147D01*
X76341335Y-43015000D01*
X76058665Y-43015000D01*
X75781426Y-43070147D01*
X75520273Y-43178320D01*
X75285241Y-43335363D01*
X75085363Y-43535241D01*
X74930000Y-43767759D01*
X74774637Y-43535241D01*
X74574759Y-43335363D01*
X74339727Y-43178320D01*
X74078574Y-43070147D01*
X73801335Y-43015000D01*
X73518665Y-43015000D01*
X73241426Y-43070147D01*
X72980273Y-43178320D01*
X72745241Y-43335363D01*
X72545363Y-43535241D01*
X72390000Y-43767759D01*
X72234637Y-43535241D01*
X72034759Y-43335363D01*
X71799727Y-43178320D01*
X71538574Y-43070147D01*
X71261335Y-43015000D01*
X70978665Y-43015000D01*
X70701426Y-43070147D01*
X70440273Y-43178320D01*
X70205241Y-43335363D01*
X70005363Y-43535241D01*
X69850000Y-43767759D01*
X69694637Y-43535241D01*
X69494759Y-43335363D01*
X69259727Y-43178320D01*
X68998574Y-43070147D01*
X68721335Y-43015000D01*
X68438665Y-43015000D01*
X68161426Y-43070147D01*
X67900273Y-43178320D01*
X67665241Y-43335363D01*
X67465363Y-43535241D01*
X67310000Y-43767759D01*
X67154637Y-43535241D01*
X66954759Y-43335363D01*
X66719727Y-43178320D01*
X66458574Y-43070147D01*
X66181335Y-43015000D01*
X66009802Y-43015000D01*
X67676004Y-41348798D01*
X67705002Y-41325000D01*
X67764406Y-41252616D01*
X67799975Y-41209276D01*
X67870547Y-41077246D01*
X67898331Y-40985652D01*
X67914004Y-40933985D01*
X67925001Y-40822332D01*
X67925001Y-40822323D01*
X67928677Y-40785000D01*
X67925001Y-40747677D01*
X67925001Y-30491923D01*
X68161426Y-30589853D01*
X68438665Y-30645000D01*
X68721335Y-30645000D01*
X68998574Y-30589853D01*
X69259727Y-30481680D01*
X69494759Y-30324637D01*
X69694637Y-30124759D01*
X69850000Y-29892241D01*
X70005363Y-30124759D01*
X70205241Y-30324637D01*
X70440273Y-30481680D01*
X70701426Y-30589853D01*
X70978665Y-30645000D01*
X71261335Y-30645000D01*
X71538574Y-30589853D01*
X71799727Y-30481680D01*
X72034759Y-30324637D01*
X72234637Y-30124759D01*
X72390000Y-29892241D01*
X72545363Y-30124759D01*
X72745241Y-30324637D01*
X72980273Y-30481680D01*
X73241426Y-30589853D01*
X73518665Y-30645000D01*
X73801335Y-30645000D01*
X74078574Y-30589853D01*
X74339727Y-30481680D01*
X74574759Y-30324637D01*
X74774637Y-30124759D01*
X74930000Y-29892241D01*
X75085363Y-30124759D01*
X75285241Y-30324637D01*
X75520273Y-30481680D01*
X75781426Y-30589853D01*
X76058665Y-30645000D01*
X76341335Y-30645000D01*
X76618574Y-30589853D01*
X76879727Y-30481680D01*
X77114759Y-30324637D01*
X77314637Y-30124759D01*
X77471680Y-29889727D01*
X77579853Y-29628574D01*
X77635000Y-29351335D01*
X77635000Y-29068665D01*
X77579853Y-28791426D01*
X77471680Y-28530273D01*
X77314637Y-28295241D01*
X77114759Y-28095363D01*
X76879727Y-27938320D01*
X76618574Y-27830147D01*
X76341335Y-27775000D01*
X76058665Y-27775000D01*
X75876114Y-27811312D01*
X74420000Y-26355199D01*
X74420000Y-24599067D01*
X74483356Y-24535711D01*
X74599360Y-24362098D01*
X74679265Y-24169191D01*
X74720000Y-23964401D01*
X74720000Y-23755599D01*
X74679265Y-23550809D01*
X74672138Y-23533603D01*
X74674502Y-23529180D01*
X74710812Y-23409482D01*
X74723072Y-23285000D01*
X74723072Y-22435000D01*
X74710812Y-22310518D01*
X74674502Y-22190820D01*
X74615537Y-22080506D01*
X74536185Y-21983815D01*
X74439494Y-21904463D01*
X74329180Y-21845498D01*
X74209482Y-21809188D01*
X74085000Y-21796928D01*
X73235000Y-21796928D01*
X73110518Y-21809188D01*
X72990820Y-21845498D01*
X72880506Y-21904463D01*
X72783815Y-21983815D01*
X72704463Y-22080506D01*
X72694043Y-22100000D01*
X71577775Y-22100000D01*
X71516962Y-22008987D01*
X71331013Y-21823038D01*
X71112359Y-21676939D01*
X70869405Y-21576304D01*
X70611486Y-21525000D01*
X70348514Y-21525000D01*
X70090595Y-21576304D01*
X69847641Y-21676939D01*
X69628987Y-21823038D01*
X69443038Y-22008987D01*
X69296939Y-22227641D01*
X69229746Y-22389859D01*
X68759605Y-22860000D01*
X69229746Y-23330141D01*
X69296939Y-23492359D01*
X69443038Y-23711013D01*
X69628987Y-23896962D01*
X69720000Y-23957775D01*
X69720001Y-26995197D01*
X68903886Y-27811312D01*
X68721335Y-27775000D01*
X68438665Y-27775000D01*
X68161426Y-27830147D01*
X67900273Y-27938320D01*
X67665241Y-28095363D01*
X67665204Y-28095400D01*
X63351073Y-23781269D01*
X67838336Y-23781269D01*
X67897797Y-24015037D01*
X68136242Y-24125934D01*
X68391740Y-24188183D01*
X68654473Y-24199390D01*
X68914344Y-24159125D01*
X69161366Y-24068935D01*
X69262203Y-24015037D01*
X69321664Y-23781269D01*
X68580000Y-23039605D01*
X67838336Y-23781269D01*
X63351073Y-23781269D01*
X62504277Y-22934473D01*
X67240610Y-22934473D01*
X67280875Y-23194344D01*
X67371065Y-23441366D01*
X67424963Y-23542203D01*
X67658731Y-23601664D01*
X68400395Y-22860000D01*
X67658731Y-22118336D01*
X67424963Y-22177797D01*
X67314066Y-22416242D01*
X67251817Y-22671740D01*
X67240610Y-22934473D01*
X62504277Y-22934473D01*
X61648806Y-22079003D01*
X61625003Y-22049999D01*
X61509278Y-21955026D01*
X61478793Y-21938731D01*
X67838336Y-21938731D01*
X68580000Y-22680395D01*
X69321664Y-21938731D01*
X69262203Y-21704963D01*
X69023758Y-21594066D01*
X68768260Y-21531817D01*
X68505527Y-21520610D01*
X68245656Y-21560875D01*
X67998634Y-21651065D01*
X67897797Y-21704963D01*
X67838336Y-21938731D01*
X61478793Y-21938731D01*
X61377249Y-21884454D01*
X61233988Y-21840997D01*
X61122335Y-21830000D01*
X61122324Y-21830000D01*
X61085002Y-21826324D01*
X61047680Y-21830000D01*
X54354250Y-21830000D01*
X54241250Y-21717000D01*
X53941413Y-21717000D01*
X53842098Y-21650640D01*
X53649191Y-21570735D01*
X53444401Y-21530000D01*
X53235599Y-21530000D01*
X53030809Y-21570735D01*
X52837902Y-21650640D01*
X52738587Y-21717000D01*
X52438750Y-21717000D01*
X52280000Y-21875750D01*
X52276928Y-22015000D01*
X52289188Y-22139482D01*
X52325498Y-22259180D01*
X52327862Y-22263603D01*
X52320735Y-22280809D01*
X52280000Y-22485599D01*
X52280000Y-22580001D01*
X30965072Y-22580001D01*
X30959265Y-22550809D01*
X30879360Y-22357902D01*
X30763356Y-22184289D01*
X30615711Y-22036644D01*
X30442098Y-21920640D01*
X30249191Y-21840735D01*
X30044401Y-21800000D01*
X29835599Y-21800000D01*
X29630809Y-21840735D01*
X29440000Y-21919771D01*
X29249191Y-21840735D01*
X29044401Y-21800000D01*
X28835599Y-21800000D01*
X28630809Y-21840735D01*
X28613603Y-21847862D01*
X28609180Y-21845498D01*
X28489482Y-21809188D01*
X28365000Y-21796928D01*
X28225750Y-21800000D01*
X28067000Y-21958750D01*
X28067000Y-22258587D01*
X28000640Y-22357902D01*
X27920735Y-22550809D01*
X27880000Y-22755599D01*
X19710000Y-22755599D01*
X19710000Y-22435000D01*
X26876928Y-22435000D01*
X26880000Y-22574250D01*
X27038750Y-22733000D01*
X27813000Y-22733000D01*
X27813000Y-21958750D01*
X27654250Y-21800000D01*
X27515000Y-21796928D01*
X27390518Y-21809188D01*
X27270820Y-21845498D01*
X27160506Y-21904463D01*
X27063815Y-21983815D01*
X26984463Y-22080506D01*
X26925498Y-22190820D01*
X26889188Y-22310518D01*
X26876928Y-22435000D01*
X19710000Y-22435000D01*
X19710000Y-21165000D01*
X52276928Y-21165000D01*
X52280000Y-21304250D01*
X52438750Y-21463000D01*
X53213000Y-21463000D01*
X53213000Y-20688750D01*
X53467000Y-20688750D01*
X53467000Y-21463000D01*
X54241250Y-21463000D01*
X54400000Y-21304250D01*
X54403072Y-21165000D01*
X54390812Y-21040518D01*
X54354502Y-20920820D01*
X54295537Y-20810506D01*
X54216185Y-20713815D01*
X54119494Y-20634463D01*
X54009180Y-20575498D01*
X53889482Y-20539188D01*
X53765000Y-20526928D01*
X53625750Y-20530000D01*
X53467000Y-20688750D01*
X53213000Y-20688750D01*
X53054250Y-20530000D01*
X52915000Y-20526928D01*
X52790518Y-20539188D01*
X52670820Y-20575498D01*
X52560506Y-20634463D01*
X52463815Y-20713815D01*
X52384463Y-20810506D01*
X52325498Y-20920820D01*
X52289188Y-21040518D01*
X52276928Y-21165000D01*
X19710000Y-21165000D01*
X19710000Y-15900000D01*
X85700000Y-15900000D01*
X85700001Y-78080000D01*
G37*
%TD.AperFunction*%
%TD*%
M02*
