%TF.GenerationSoftware,KiCad,Pcbnew,5.1.12-84ad8e8a86~92~ubuntu18.04.1*%
%TF.CreationDate,2021-12-05T17:17:48+11:00*%
%TF.ProjectId,aquaponics-1,61717561-706f-46e6-9963-732d312e6b69,rev?*%
%TF.SameCoordinates,Original*%
%TF.FileFunction,Legend,Top*%
%TF.FilePolarity,Positive*%
%FSLAX46Y46*%
G04 Gerber Fmt 4.6, Leading zero omitted, Abs format (unit mm)*
G04 Created by KiCad (PCBNEW 5.1.12-84ad8e8a86~92~ubuntu18.04.1) date 2021-12-05 17:17:48*
%MOMM*%
%LPD*%
G01*
G04 APERTURE LIST*
%ADD10C,0.120000*%
%ADD11C,0.150000*%
G04 APERTURE END LIST*
D10*
%TO.C,J4*%
X52645000Y-24150000D02*
X52945507Y-24150000D01*
X53734493Y-24150000D02*
X54035000Y-24150000D01*
X52645000Y-22275000D02*
X52645000Y-24150000D01*
X54035000Y-22275000D02*
X54035000Y-24150000D01*
X52645000Y-22275000D02*
X52731724Y-22275000D01*
X53948276Y-22275000D02*
X54035000Y-22275000D01*
X52645000Y-21590000D02*
X52645000Y-20905000D01*
X52645000Y-20905000D02*
X53340000Y-20905000D01*
%TO.C,J5*%
X19430000Y-53840000D02*
X19430000Y-52840000D01*
X20430000Y-53340000D02*
X19430000Y-53840000D01*
X19430000Y-52840000D02*
X20430000Y-53340000D01*
X20820000Y-59080000D02*
X20820000Y-55320000D01*
X27440000Y-59080000D02*
X20820000Y-59080000D01*
X27440000Y-55320000D02*
X27440000Y-59080000D01*
X20820000Y-51560000D02*
X20820000Y-55320000D01*
X27440000Y-51560000D02*
X20820000Y-51560000D01*
X27440000Y-55320000D02*
X27440000Y-51560000D01*
%TO.C,J3*%
X27255000Y-23555000D02*
X27255000Y-22860000D01*
X27940000Y-23555000D02*
X27255000Y-23555000D01*
X28625000Y-22251724D02*
X28625000Y-22165000D01*
X28625000Y-23555000D02*
X28625000Y-23468276D01*
X28625000Y-22165000D02*
X30500000Y-22165000D01*
X28625000Y-23555000D02*
X30500000Y-23555000D01*
X30500000Y-22465507D02*
X30500000Y-22165000D01*
X30500000Y-23555000D02*
X30500000Y-23254493D01*
%TO.C,J1*%
X38870000Y-55320000D02*
X38870000Y-51560000D01*
X38870000Y-51560000D02*
X32250000Y-51560000D01*
X32250000Y-51560000D02*
X32250000Y-55320000D01*
X38870000Y-55320000D02*
X38870000Y-59080000D01*
X38870000Y-59080000D02*
X32250000Y-59080000D01*
X32250000Y-59080000D02*
X32250000Y-55320000D01*
X30860000Y-52840000D02*
X31860000Y-53340000D01*
X31860000Y-53340000D02*
X30860000Y-53840000D01*
X30860000Y-53840000D02*
X30860000Y-52840000D01*
%TO.C,J2*%
X25340000Y-36540000D02*
X25340000Y-37310000D01*
X25340000Y-38890000D02*
X25340000Y-39850000D01*
X25340000Y-41430000D02*
X25340000Y-42200000D01*
X30640000Y-36540000D02*
X30640000Y-42200000D01*
X31100000Y-36540000D02*
X31100000Y-42200000D01*
X24780000Y-36540000D02*
X24780000Y-37310000D01*
X24780000Y-38890000D02*
X24780000Y-39850000D01*
X24780000Y-41430000D02*
X24780000Y-42200000D01*
X31100000Y-36540000D02*
X24780000Y-36540000D01*
X31100000Y-42200000D02*
X24780000Y-42200000D01*
X25280000Y-36300000D02*
X24540000Y-36300000D01*
X24540000Y-36300000D02*
X24540000Y-36800000D01*
%TO.C,M1*%
X51385000Y-73085000D02*
X51385000Y-72390000D01*
X52070000Y-73085000D02*
X51385000Y-73085000D01*
X52755000Y-71781724D02*
X52755000Y-71695000D01*
X52755000Y-73085000D02*
X52755000Y-72998276D01*
X52755000Y-71695000D02*
X53630000Y-71695000D01*
X52755000Y-73085000D02*
X53630000Y-73085000D01*
X53630000Y-71995507D02*
X53630000Y-71695000D01*
X53630000Y-73085000D02*
X53630000Y-72784493D01*
%TO.C,M2*%
X79030000Y-73085000D02*
X79030000Y-72784493D01*
X79030000Y-71995507D02*
X79030000Y-71695000D01*
X78155000Y-73085000D02*
X79030000Y-73085000D01*
X78155000Y-71695000D02*
X79030000Y-71695000D01*
X78155000Y-73085000D02*
X78155000Y-72998276D01*
X78155000Y-71781724D02*
X78155000Y-71695000D01*
X77470000Y-73085000D02*
X76785000Y-73085000D01*
X76785000Y-73085000D02*
X76785000Y-72390000D01*
%TO.C,M3*%
X64085000Y-73085000D02*
X64085000Y-72390000D01*
X64770000Y-73085000D02*
X64085000Y-73085000D01*
X65455000Y-71781724D02*
X65455000Y-71695000D01*
X65455000Y-73085000D02*
X65455000Y-72998276D01*
X65455000Y-71695000D02*
X66330000Y-71695000D01*
X65455000Y-73085000D02*
X66330000Y-73085000D01*
X66330000Y-71995507D02*
X66330000Y-71695000D01*
X66330000Y-73085000D02*
X66330000Y-72784493D01*
%TO.C,Q1*%
X48220000Y-60230000D02*
X58460000Y-60230000D01*
X48220000Y-64871000D02*
X58460000Y-64871000D01*
X48220000Y-60230000D02*
X48220000Y-64871000D01*
X58460000Y-60230000D02*
X58460000Y-64871000D01*
X48220000Y-61740000D02*
X58460000Y-61740000D01*
X51490000Y-60230000D02*
X51490000Y-61740000D01*
X55191000Y-60230000D02*
X55191000Y-61740000D01*
%TO.C,Q2*%
X73620000Y-60230000D02*
X83860000Y-60230000D01*
X73620000Y-64871000D02*
X83860000Y-64871000D01*
X73620000Y-60230000D02*
X73620000Y-64871000D01*
X83860000Y-60230000D02*
X83860000Y-64871000D01*
X73620000Y-61740000D02*
X83860000Y-61740000D01*
X76890000Y-60230000D02*
X76890000Y-61740000D01*
X80591000Y-60230000D02*
X80591000Y-61740000D01*
%TO.C,Q3*%
X67891000Y-60230000D02*
X67891000Y-61740000D01*
X64190000Y-60230000D02*
X64190000Y-61740000D01*
X60920000Y-61740000D02*
X71160000Y-61740000D01*
X71160000Y-60230000D02*
X71160000Y-64871000D01*
X60920000Y-60230000D02*
X60920000Y-64871000D01*
X60920000Y-64871000D02*
X71160000Y-64871000D01*
X60920000Y-60230000D02*
X71160000Y-60230000D01*
%TO.C,R1*%
X72965000Y-24420000D02*
X73265507Y-24420000D01*
X74054493Y-24420000D02*
X74355000Y-24420000D01*
X72965000Y-23545000D02*
X72965000Y-24420000D01*
X74355000Y-23545000D02*
X74355000Y-24420000D01*
X72965000Y-23545000D02*
X73051724Y-23545000D01*
X74268276Y-23545000D02*
X74355000Y-23545000D01*
X72965000Y-22860000D02*
X72965000Y-22175000D01*
X72965000Y-22175000D02*
X73660000Y-22175000D01*
%TO.C,R2*%
X75450641Y-53660095D02*
G75*
G02*
X76900000Y-53757133I749359J320095D01*
G01*
%TO.C,R3*%
X68900095Y-23609359D02*
G75*
G02*
X68997133Y-22160000I-320095J749359D01*
G01*
%TO.C,R4*%
X50050641Y-53660095D02*
G75*
G02*
X51500000Y-53757133I749359J320095D01*
G01*
%TO.C,R5*%
X62750641Y-53660095D02*
G75*
G02*
X64200000Y-53757133I749359J320095D01*
G01*
%TO.C,U1*%
X41910000Y-43180000D02*
X39370000Y-43180000D01*
X39370000Y-43180000D02*
X39370000Y-45847000D01*
X41910000Y-45847000D02*
X80137000Y-45847000D01*
X36703000Y-45847000D02*
X39370000Y-45847000D01*
X39370000Y-30480000D02*
X39370000Y-27810000D01*
X39370000Y-30480000D02*
X77470000Y-30480000D01*
X77470000Y-30480000D02*
X77470000Y-27810000D01*
X41910000Y-43180000D02*
X41910000Y-45847000D01*
X41910000Y-43180000D02*
X77470000Y-43180000D01*
X77470000Y-43180000D02*
X77470000Y-45850000D01*
X80137000Y-45847000D02*
X80137000Y-40767000D01*
X80137000Y-27813000D02*
X36703000Y-27813000D01*
X36703000Y-27813000D02*
X36703000Y-45847000D01*
X82677000Y-40767000D02*
X80137000Y-40767000D01*
X80137000Y-32893000D02*
X80137000Y-27813000D01*
X82677000Y-32893000D02*
X80137000Y-32893000D01*
X82677000Y-40767000D02*
X82677000Y-32893000D01*
%TO.C,J4*%
D11*
X53006666Y-19482380D02*
X53006666Y-20196666D01*
X52959047Y-20339523D01*
X52863809Y-20434761D01*
X52720952Y-20482380D01*
X52625714Y-20482380D01*
X53911428Y-19815714D02*
X53911428Y-20482380D01*
X53673333Y-19434761D02*
X53435238Y-20149047D01*
X54054285Y-20149047D01*
%TO.C,J5*%
X27982380Y-55653333D02*
X28696666Y-55653333D01*
X28839523Y-55700952D01*
X28934761Y-55796190D01*
X28982380Y-55939047D01*
X28982380Y-56034285D01*
X27982380Y-54700952D02*
X27982380Y-55177142D01*
X28458571Y-55224761D01*
X28410952Y-55177142D01*
X28363333Y-55081904D01*
X28363333Y-54843809D01*
X28410952Y-54748571D01*
X28458571Y-54700952D01*
X28553809Y-54653333D01*
X28791904Y-54653333D01*
X28887142Y-54700952D01*
X28934761Y-54748571D01*
X28982380Y-54843809D01*
X28982380Y-55081904D01*
X28934761Y-55177142D01*
X28887142Y-55224761D01*
%TO.C,J3*%
X25832380Y-23193333D02*
X26546666Y-23193333D01*
X26689523Y-23240952D01*
X26784761Y-23336190D01*
X26832380Y-23479047D01*
X26832380Y-23574285D01*
X25832380Y-22812380D02*
X25832380Y-22193333D01*
X26213333Y-22526666D01*
X26213333Y-22383809D01*
X26260952Y-22288571D01*
X26308571Y-22240952D01*
X26403809Y-22193333D01*
X26641904Y-22193333D01*
X26737142Y-22240952D01*
X26784761Y-22288571D01*
X26832380Y-22383809D01*
X26832380Y-22669523D01*
X26784761Y-22764761D01*
X26737142Y-22812380D01*
%TO.C,J1*%
X39412380Y-55653333D02*
X40126666Y-55653333D01*
X40269523Y-55700952D01*
X40364761Y-55796190D01*
X40412380Y-55939047D01*
X40412380Y-56034285D01*
X40412380Y-54653333D02*
X40412380Y-55224761D01*
X40412380Y-54939047D02*
X39412380Y-54939047D01*
X39555238Y-55034285D01*
X39650476Y-55129523D01*
X39698095Y-55224761D01*
%TO.C,J2*%
X31552380Y-39703333D02*
X32266666Y-39703333D01*
X32409523Y-39750952D01*
X32504761Y-39846190D01*
X32552380Y-39989047D01*
X32552380Y-40084285D01*
X31647619Y-39274761D02*
X31600000Y-39227142D01*
X31552380Y-39131904D01*
X31552380Y-38893809D01*
X31600000Y-38798571D01*
X31647619Y-38750952D01*
X31742857Y-38703333D01*
X31838095Y-38703333D01*
X31980952Y-38750952D01*
X32552380Y-39322380D01*
X32552380Y-38703333D01*
%TO.C,M1*%
X50962380Y-73199523D02*
X49962380Y-73199523D01*
X50676666Y-72866190D01*
X49962380Y-72532857D01*
X50962380Y-72532857D01*
X50962380Y-71532857D02*
X50962380Y-72104285D01*
X50962380Y-71818571D02*
X49962380Y-71818571D01*
X50105238Y-71913809D01*
X50200476Y-72009047D01*
X50248095Y-72104285D01*
%TO.C,M2*%
X76362380Y-73199523D02*
X75362380Y-73199523D01*
X76076666Y-72866190D01*
X75362380Y-72532857D01*
X76362380Y-72532857D01*
X75457619Y-72104285D02*
X75410000Y-72056666D01*
X75362380Y-71961428D01*
X75362380Y-71723333D01*
X75410000Y-71628095D01*
X75457619Y-71580476D01*
X75552857Y-71532857D01*
X75648095Y-71532857D01*
X75790952Y-71580476D01*
X76362380Y-72151904D01*
X76362380Y-71532857D01*
%TO.C,M3*%
X63662380Y-73199523D02*
X62662380Y-73199523D01*
X63376666Y-72866190D01*
X62662380Y-72532857D01*
X63662380Y-72532857D01*
X62662380Y-72151904D02*
X62662380Y-71532857D01*
X63043333Y-71866190D01*
X63043333Y-71723333D01*
X63090952Y-71628095D01*
X63138571Y-71580476D01*
X63233809Y-71532857D01*
X63471904Y-71532857D01*
X63567142Y-71580476D01*
X63614761Y-71628095D01*
X63662380Y-71723333D01*
X63662380Y-72009047D01*
X63614761Y-72104285D01*
X63567142Y-72151904D01*
%TO.C,Q1*%
X53244761Y-59777619D02*
X53149523Y-59730000D01*
X53054285Y-59634761D01*
X52911428Y-59491904D01*
X52816190Y-59444285D01*
X52720952Y-59444285D01*
X52768571Y-59682380D02*
X52673333Y-59634761D01*
X52578095Y-59539523D01*
X52530476Y-59349047D01*
X52530476Y-59015714D01*
X52578095Y-58825238D01*
X52673333Y-58730000D01*
X52768571Y-58682380D01*
X52959047Y-58682380D01*
X53054285Y-58730000D01*
X53149523Y-58825238D01*
X53197142Y-59015714D01*
X53197142Y-59349047D01*
X53149523Y-59539523D01*
X53054285Y-59634761D01*
X52959047Y-59682380D01*
X52768571Y-59682380D01*
X54149523Y-59682380D02*
X53578095Y-59682380D01*
X53863809Y-59682380D02*
X53863809Y-58682380D01*
X53768571Y-58825238D01*
X53673333Y-58920476D01*
X53578095Y-58968095D01*
%TO.C,Q2*%
X78644761Y-59777619D02*
X78549523Y-59730000D01*
X78454285Y-59634761D01*
X78311428Y-59491904D01*
X78216190Y-59444285D01*
X78120952Y-59444285D01*
X78168571Y-59682380D02*
X78073333Y-59634761D01*
X77978095Y-59539523D01*
X77930476Y-59349047D01*
X77930476Y-59015714D01*
X77978095Y-58825238D01*
X78073333Y-58730000D01*
X78168571Y-58682380D01*
X78359047Y-58682380D01*
X78454285Y-58730000D01*
X78549523Y-58825238D01*
X78597142Y-59015714D01*
X78597142Y-59349047D01*
X78549523Y-59539523D01*
X78454285Y-59634761D01*
X78359047Y-59682380D01*
X78168571Y-59682380D01*
X78978095Y-58777619D02*
X79025714Y-58730000D01*
X79120952Y-58682380D01*
X79359047Y-58682380D01*
X79454285Y-58730000D01*
X79501904Y-58777619D01*
X79549523Y-58872857D01*
X79549523Y-58968095D01*
X79501904Y-59110952D01*
X78930476Y-59682380D01*
X79549523Y-59682380D01*
%TO.C,Q3*%
X65944761Y-59777619D02*
X65849523Y-59730000D01*
X65754285Y-59634761D01*
X65611428Y-59491904D01*
X65516190Y-59444285D01*
X65420952Y-59444285D01*
X65468571Y-59682380D02*
X65373333Y-59634761D01*
X65278095Y-59539523D01*
X65230476Y-59349047D01*
X65230476Y-59015714D01*
X65278095Y-58825238D01*
X65373333Y-58730000D01*
X65468571Y-58682380D01*
X65659047Y-58682380D01*
X65754285Y-58730000D01*
X65849523Y-58825238D01*
X65897142Y-59015714D01*
X65897142Y-59349047D01*
X65849523Y-59539523D01*
X65754285Y-59634761D01*
X65659047Y-59682380D01*
X65468571Y-59682380D01*
X66230476Y-58682380D02*
X66849523Y-58682380D01*
X66516190Y-59063333D01*
X66659047Y-59063333D01*
X66754285Y-59110952D01*
X66801904Y-59158571D01*
X66849523Y-59253809D01*
X66849523Y-59491904D01*
X66801904Y-59587142D01*
X66754285Y-59634761D01*
X66659047Y-59682380D01*
X66373333Y-59682380D01*
X66278095Y-59634761D01*
X66230476Y-59587142D01*
%TO.C,R1*%
X73493333Y-21752380D02*
X73160000Y-21276190D01*
X72921904Y-21752380D02*
X72921904Y-20752380D01*
X73302857Y-20752380D01*
X73398095Y-20800000D01*
X73445714Y-20847619D01*
X73493333Y-20942857D01*
X73493333Y-21085714D01*
X73445714Y-21180952D01*
X73398095Y-21228571D01*
X73302857Y-21276190D01*
X72921904Y-21276190D01*
X74445714Y-21752380D02*
X73874285Y-21752380D01*
X74160000Y-21752380D02*
X74160000Y-20752380D01*
X74064761Y-20895238D01*
X73969523Y-20990476D01*
X73874285Y-21038095D01*
%TO.C,R2*%
X78572380Y-54456666D02*
X78096190Y-54790000D01*
X78572380Y-55028095D02*
X77572380Y-55028095D01*
X77572380Y-54647142D01*
X77620000Y-54551904D01*
X77667619Y-54504285D01*
X77762857Y-54456666D01*
X77905714Y-54456666D01*
X78000952Y-54504285D01*
X78048571Y-54551904D01*
X78096190Y-54647142D01*
X78096190Y-55028095D01*
X77667619Y-54075714D02*
X77620000Y-54028095D01*
X77572380Y-53932857D01*
X77572380Y-53694761D01*
X77620000Y-53599523D01*
X77667619Y-53551904D01*
X77762857Y-53504285D01*
X77858095Y-53504285D01*
X78000952Y-53551904D01*
X78572380Y-54123333D01*
X78572380Y-53504285D01*
%TO.C,R3*%
X69363333Y-21392380D02*
X69030000Y-20916190D01*
X68791904Y-21392380D02*
X68791904Y-20392380D01*
X69172857Y-20392380D01*
X69268095Y-20440000D01*
X69315714Y-20487619D01*
X69363333Y-20582857D01*
X69363333Y-20725714D01*
X69315714Y-20820952D01*
X69268095Y-20868571D01*
X69172857Y-20916190D01*
X68791904Y-20916190D01*
X69696666Y-20392380D02*
X70315714Y-20392380D01*
X69982380Y-20773333D01*
X70125238Y-20773333D01*
X70220476Y-20820952D01*
X70268095Y-20868571D01*
X70315714Y-20963809D01*
X70315714Y-21201904D01*
X70268095Y-21297142D01*
X70220476Y-21344761D01*
X70125238Y-21392380D01*
X69839523Y-21392380D01*
X69744285Y-21344761D01*
X69696666Y-21297142D01*
%TO.C,R4*%
X53172380Y-54456666D02*
X52696190Y-54790000D01*
X53172380Y-55028095D02*
X52172380Y-55028095D01*
X52172380Y-54647142D01*
X52220000Y-54551904D01*
X52267619Y-54504285D01*
X52362857Y-54456666D01*
X52505714Y-54456666D01*
X52600952Y-54504285D01*
X52648571Y-54551904D01*
X52696190Y-54647142D01*
X52696190Y-55028095D01*
X52505714Y-53599523D02*
X53172380Y-53599523D01*
X52124761Y-53837619D02*
X52839047Y-54075714D01*
X52839047Y-53456666D01*
%TO.C,R5*%
X65872380Y-54456666D02*
X65396190Y-54790000D01*
X65872380Y-55028095D02*
X64872380Y-55028095D01*
X64872380Y-54647142D01*
X64920000Y-54551904D01*
X64967619Y-54504285D01*
X65062857Y-54456666D01*
X65205714Y-54456666D01*
X65300952Y-54504285D01*
X65348571Y-54551904D01*
X65396190Y-54647142D01*
X65396190Y-55028095D01*
X64872380Y-53551904D02*
X64872380Y-54028095D01*
X65348571Y-54075714D01*
X65300952Y-54028095D01*
X65253333Y-53932857D01*
X65253333Y-53694761D01*
X65300952Y-53599523D01*
X65348571Y-53551904D01*
X65443809Y-53504285D01*
X65681904Y-53504285D01*
X65777142Y-53551904D01*
X65824761Y-53599523D01*
X65872380Y-53694761D01*
X65872380Y-53932857D01*
X65824761Y-54028095D01*
X65777142Y-54075714D01*
%TO.C,U1*%
X35012380Y-37591904D02*
X35821904Y-37591904D01*
X35917142Y-37544285D01*
X35964761Y-37496666D01*
X36012380Y-37401428D01*
X36012380Y-37210952D01*
X35964761Y-37115714D01*
X35917142Y-37068095D01*
X35821904Y-37020476D01*
X35012380Y-37020476D01*
X36012380Y-36020476D02*
X36012380Y-36591904D01*
X36012380Y-36306190D02*
X35012380Y-36306190D01*
X35155238Y-36401428D01*
X35250476Y-36496666D01*
X35298095Y-36591904D01*
%TD*%
M02*
