%TF.GenerationSoftware,KiCad,Pcbnew,5.1.9+dfsg1-1+b1*%
%TF.CreationDate,2021-12-12T08:10:16+11:00*%
%TF.ProjectId,aquaponics-1,61717561-706f-46e6-9963-732d312e6b69,rev?*%
%TF.SameCoordinates,Original*%
%TF.FileFunction,Copper,L1,Top*%
%TF.FilePolarity,Positive*%
%FSLAX46Y46*%
G04 Gerber Fmt 4.6, Leading zero omitted, Abs format (unit mm)*
G04 Created by KiCad (PCBNEW 5.1.9+dfsg1-1+b1) date 2021-12-12 08:10:16*
%MOMM*%
%LPD*%
G01*
G04 APERTURE LIST*
%TA.AperFunction,ComponentPad*%
%ADD10R,2.600000X2.600000*%
%TD*%
%TA.AperFunction,ComponentPad*%
%ADD11C,2.600000*%
%TD*%
%TA.AperFunction,ComponentPad*%
%ADD12O,1.600000X1.600000*%
%TD*%
%TA.AperFunction,ComponentPad*%
%ADD13R,1.600000X1.600000*%
%TD*%
%TA.AperFunction,ComponentPad*%
%ADD14C,1.500000*%
%TD*%
%TA.AperFunction,ComponentPad*%
%ADD15R,1.500000X1.500000*%
%TD*%
%TA.AperFunction,ComponentPad*%
%ADD16C,2.400000*%
%TD*%
%TA.AperFunction,ComponentPad*%
%ADD17O,0.850000X0.850000*%
%TD*%
%TA.AperFunction,ComponentPad*%
%ADD18R,0.850000X0.850000*%
%TD*%
%TA.AperFunction,ComponentPad*%
%ADD19O,2.000000X1.905000*%
%TD*%
%TA.AperFunction,ComponentPad*%
%ADD20R,2.000000X1.905000*%
%TD*%
%TA.AperFunction,ComponentPad*%
%ADD21O,1.400000X1.400000*%
%TD*%
%TA.AperFunction,ComponentPad*%
%ADD22C,1.400000*%
%TD*%
%TA.AperFunction,Conductor*%
%ADD23C,0.500000*%
%TD*%
%TA.AperFunction,Conductor*%
%ADD24C,0.250000*%
%TD*%
%TA.AperFunction,Conductor*%
%ADD25C,0.254000*%
%TD*%
%TA.AperFunction,Conductor*%
%ADD26C,0.100000*%
%TD*%
G04 APERTURE END LIST*
D10*
%TO.P,J2,1*%
%TO.N,Net-(J2-Pad1)*%
X62230000Y-20320000D03*
D11*
%TO.P,J2,2*%
%TO.N,GND*%
X57230000Y-20320000D03*
%TD*%
D12*
%TO.P,U1,16*%
%TO.N,Net-(U1-Pad16)*%
X27940000Y-30480000D03*
%TO.P,U1,15*%
%TO.N,Net-(U1-Pad15)*%
X43180000Y-30480000D03*
%TO.P,U1,30*%
%TO.N,Net-(U1-Pad30)*%
X27940000Y-66040000D03*
%TO.P,U1,14*%
%TO.N,Net-(U1-Pad14)*%
X43180000Y-33020000D03*
%TO.P,U1,29*%
%TO.N,Net-(U1-Pad29)*%
X27940000Y-63500000D03*
%TO.P,U1,13*%
%TO.N,Net-(U1-Pad13)*%
X43180000Y-35560000D03*
%TO.P,U1,28*%
%TO.N,Net-(U1-Pad28)*%
X27940000Y-60960000D03*
%TO.P,U1,12*%
%TO.N,Net-(U1-Pad12)*%
X43180000Y-38100000D03*
%TO.P,U1,27*%
%TO.N,+5V*%
X27940000Y-58420000D03*
%TO.P,U1,11*%
%TO.N,Net-(U1-Pad11)*%
X43180000Y-40640000D03*
%TO.P,U1,26*%
%TO.N,Net-(U1-Pad26)*%
X27940000Y-55880000D03*
%TO.P,U1,10*%
%TO.N,Net-(U1-Pad10)*%
X43180000Y-43180000D03*
%TO.P,U1,25*%
%TO.N,Net-(U1-Pad25)*%
X27940000Y-53340000D03*
%TO.P,U1,9*%
%TO.N,Net-(U1-Pad9)*%
X43180000Y-45720000D03*
%TO.P,U1,24*%
%TO.N,Net-(U1-Pad24)*%
X27940000Y-50800000D03*
%TO.P,U1,8*%
%TO.N,Net-(U1-Pad8)*%
X43180000Y-48260000D03*
%TO.P,U1,23*%
%TO.N,Net-(U1-Pad23)*%
X27940000Y-48260000D03*
%TO.P,U1,7*%
%TO.N,Net-(R2-Pad1)*%
X43180000Y-50800000D03*
%TO.P,U1,22*%
%TO.N,Net-(R1-Pad1)*%
X27940000Y-45720000D03*
%TO.P,U1,6*%
%TO.N,Net-(R5-Pad1)*%
X43180000Y-53340000D03*
%TO.P,U1,21*%
%TO.N,Net-(J3-Pad3)*%
X27940000Y-43180000D03*
%TO.P,U1,5*%
%TO.N,Net-(R4-Pad1)*%
X43180000Y-55880000D03*
%TO.P,U1,20*%
%TO.N,Net-(J4-Pad3)*%
X27940000Y-40640000D03*
%TO.P,U1,4*%
%TO.N,GND*%
X43180000Y-58420000D03*
%TO.P,U1,19*%
%TO.N,Net-(R6-Pad1)*%
X27940000Y-38100000D03*
%TO.P,U1,3*%
%TO.N,Net-(U1-Pad3)*%
X43180000Y-60960000D03*
%TO.P,U1,18*%
%TO.N,Net-(U1-Pad18)*%
X27940000Y-35560000D03*
%TO.P,U1,2*%
%TO.N,Net-(U1-Pad2)*%
X43180000Y-63500000D03*
%TO.P,U1,17*%
%TO.N,+3V3*%
X27940000Y-33020000D03*
D13*
%TO.P,U1,1*%
%TO.N,Net-(U1-Pad1)*%
X43180000Y-66040000D03*
%TD*%
D14*
%TO.P,Temp,4*%
%TO.N,GND*%
X31115000Y-19685000D03*
%TO.P,Temp,3*%
%TO.N,Net-(U2-Pad3)*%
X28575000Y-19685000D03*
%TO.P,Temp,2*%
%TO.N,Net-(R6-Pad1)*%
X26035000Y-19685000D03*
D15*
%TO.P,Temp,1*%
%TO.N,+3V3*%
X23495000Y-19685000D03*
%TD*%
D16*
%TO.P,J5,2*%
%TO.N,Net-(J5-Pad2)*%
X65405000Y-70485000D03*
%TO.P,J5,1*%
%TO.N,Net-(J2-Pad1)*%
%TA.AperFunction,ComponentPad*%
G36*
G01*
X66355000Y-75645000D02*
X64455000Y-75645000D01*
G75*
G02*
X64205000Y-75395000I0J250000D01*
G01*
X64205000Y-73495000D01*
G75*
G02*
X64455000Y-73245000I250000J0D01*
G01*
X66355000Y-73245000D01*
G75*
G02*
X66605000Y-73495000I0J-250000D01*
G01*
X66605000Y-75395000D01*
G75*
G02*
X66355000Y-75645000I-250000J0D01*
G01*
G37*
%TD.AperFunction*%
%TD*%
D17*
%TO.P,Overflow,2*%
%TO.N,Net-(M2-Pad2)*%
X63500000Y-34290000D03*
D18*
%TO.P,Overflow,1*%
%TO.N,Net-(J2-Pad1)*%
X64500000Y-34290000D03*
%TD*%
D19*
%TO.P,Q3,3*%
%TO.N,GND*%
X57150000Y-43180000D03*
%TO.P,Q3,2*%
%TO.N,Net-(M3-Pad2)*%
X57150000Y-45720000D03*
D20*
%TO.P,Q3,1*%
%TO.N,Net-(Q3-Pad1)*%
X57150000Y-48260000D03*
%TD*%
D17*
%TO.P,Feed,2*%
%TO.N,Net-(M3-Pad2)*%
X63500000Y-45720000D03*
D18*
%TO.P,Feed,1*%
%TO.N,Net-(J2-Pad1)*%
X64500000Y-45720000D03*
%TD*%
D19*
%TO.P,Q1,3*%
%TO.N,GND*%
X57150000Y-54610000D03*
%TO.P,Q1,2*%
%TO.N,Net-(M1-Pad2)*%
X57150000Y-57150000D03*
D20*
%TO.P,Q1,1*%
%TO.N,Net-(Q1-Pad1)*%
X57150000Y-59690000D03*
%TD*%
D19*
%TO.P,Q2,3*%
%TO.N,GND*%
X57150000Y-31750000D03*
%TO.P,Q2,2*%
%TO.N,Net-(M2-Pad2)*%
X57150000Y-34290000D03*
D20*
%TO.P,Q2,1*%
%TO.N,Net-(Q2-Pad1)*%
X57150000Y-36830000D03*
%TD*%
D17*
%TO.P,Pump,2*%
%TO.N,Net-(M1-Pad2)*%
X63500000Y-57150000D03*
D18*
%TO.P,Pump,1*%
%TO.N,Net-(J2-Pad1)*%
X64500000Y-57150000D03*
%TD*%
D17*
%TO.P,Rain,3*%
%TO.N,Net-(J4-Pad3)*%
X24225000Y-43180000D03*
%TO.P,Rain,2*%
%TO.N,+5V*%
X23225000Y-43180000D03*
D18*
%TO.P,Rain,1*%
%TO.N,GND*%
X22225000Y-43180000D03*
%TD*%
D16*
%TO.P,J1,2*%
%TO.N,Net-(J1-Pad2)*%
X50165000Y-70335000D03*
%TO.P,J1,1*%
%TO.N,+5V*%
%TA.AperFunction,ComponentPad*%
G36*
G01*
X51115000Y-75495000D02*
X49215000Y-75495000D01*
G75*
G02*
X48965000Y-75245000I0J250000D01*
G01*
X48965000Y-73345000D01*
G75*
G02*
X49215000Y-73095000I250000J0D01*
G01*
X51115000Y-73095000D01*
G75*
G02*
X51365000Y-73345000I0J-250000D01*
G01*
X51365000Y-75245000D01*
G75*
G02*
X51115000Y-75495000I-250000J0D01*
G01*
G37*
%TD.AperFunction*%
%TD*%
D17*
%TO.P,Level,3*%
%TO.N,Net-(J3-Pad3)*%
X24225000Y-46990000D03*
%TO.P,Level,2*%
%TO.N,+5V*%
X23225000Y-46990000D03*
D18*
%TO.P,Level,1*%
%TO.N,GND*%
X22225000Y-46990000D03*
%TD*%
D17*
%TO.P,Light,2*%
%TO.N,+5V*%
X22495000Y-55880000D03*
D18*
%TO.P,Light,1*%
%TO.N,Net-(R1-Pad1)*%
X23495000Y-55880000D03*
%TD*%
D21*
%TO.P,R2,2*%
%TO.N,Net-(Q2-Pad1)*%
X50795000Y-36830000D03*
D22*
%TO.P,R2,1*%
%TO.N,Net-(R2-Pad1)*%
X48895000Y-36830000D03*
%TD*%
D21*
%TO.P,R3,2*%
%TO.N,Net-(R1-Pad1)*%
X24125000Y-51435000D03*
D22*
%TO.P,R3,1*%
%TO.N,GND*%
X22225000Y-51435000D03*
%TD*%
D21*
%TO.P,R4,2*%
%TO.N,Net-(Q1-Pad1)*%
X50795000Y-59690000D03*
D22*
%TO.P,R4,1*%
%TO.N,Net-(R4-Pad1)*%
X48895000Y-59690000D03*
%TD*%
D21*
%TO.P,R5,2*%
%TO.N,Net-(Q3-Pad1)*%
X50795000Y-48260000D03*
D22*
%TO.P,R5,1*%
%TO.N,Net-(R5-Pad1)*%
X48895000Y-48260000D03*
%TD*%
D21*
%TO.P,R6,2*%
%TO.N,+3V3*%
X21590000Y-33020000D03*
D22*
%TO.P,R6,1*%
%TO.N,Net-(R6-Pad1)*%
X21590000Y-38100000D03*
%TD*%
D23*
%TO.N,Net-(J2-Pad1)*%
X67055001Y-72794999D02*
X65405000Y-74445000D01*
X67055001Y-23345001D02*
X67055001Y-72794999D01*
X64030000Y-20320000D02*
X67055001Y-23345001D01*
X62230000Y-20320000D02*
X64030000Y-20320000D01*
X64500000Y-22590000D02*
X64500000Y-34290000D01*
X62230000Y-20320000D02*
X64500000Y-22590000D01*
X64500000Y-34290000D02*
X64500000Y-45720000D01*
X64500000Y-45720000D02*
X64500000Y-57150000D01*
D24*
%TO.N,Net-(J3-Pad3)*%
X27940000Y-43275000D02*
X27940000Y-43180000D01*
X24225000Y-46990000D02*
X27940000Y-43275000D01*
%TO.N,Net-(Q1-Pad1)*%
X50795000Y-59690000D02*
X57150000Y-59690000D01*
%TO.N,Net-(Q2-Pad1)*%
X50795000Y-36830000D02*
X57150000Y-36830000D01*
%TO.N,Net-(Q3-Pad1)*%
X50795000Y-48260000D02*
X57150000Y-48260000D01*
%TO.N,Net-(R1-Pad1)*%
X23495000Y-52065000D02*
X24125000Y-51435000D01*
X23495000Y-55880000D02*
X23495000Y-52065000D01*
X24125000Y-49535000D02*
X27940000Y-45720000D01*
X24125000Y-51435000D02*
X24125000Y-49535000D01*
%TO.N,Net-(R2-Pad1)*%
X48895000Y-45085000D02*
X48895000Y-36830000D01*
X43180000Y-50800000D02*
X48895000Y-45085000D01*
%TO.N,Net-(R4-Pad1)*%
X45085000Y-55880000D02*
X48895000Y-59690000D01*
X43180000Y-55880000D02*
X45085000Y-55880000D01*
%TO.N,Net-(R5-Pad1)*%
X48260000Y-48260000D02*
X48895000Y-48260000D01*
X43180000Y-53340000D02*
X48260000Y-48260000D01*
%TO.N,Net-(J4-Pad3)*%
X25400000Y-43180000D02*
X27940000Y-40640000D01*
X24225000Y-43180000D02*
X25400000Y-43180000D01*
%TO.N,Net-(R6-Pad1)*%
X29065001Y-22715001D02*
X26035000Y-19685000D01*
X29065001Y-36974999D02*
X29065001Y-22715001D01*
X27940000Y-38100000D02*
X29065001Y-36974999D01*
X21590000Y-38100000D02*
X27940000Y-38100000D01*
%TO.N,+3V3*%
X21590000Y-21590000D02*
X23495000Y-19685000D01*
X21590000Y-33020000D02*
X21590000Y-21590000D01*
X27940000Y-33020000D02*
X21590000Y-33020000D01*
%TO.N,+5V*%
X23225000Y-43180000D02*
X23225000Y-46990000D01*
X50165000Y-74295000D02*
X49714990Y-73844990D01*
X24130000Y-62230000D02*
X27940000Y-58420000D01*
X24130000Y-74295000D02*
X24130000Y-62230000D01*
X50165000Y-74295000D02*
X24130000Y-74295000D01*
X22495000Y-60595000D02*
X22495000Y-55880000D01*
X24130000Y-62230000D02*
X22495000Y-60595000D01*
X20320000Y-50496040D02*
X23225000Y-47591040D01*
X20320000Y-55880000D02*
X20320000Y-50496040D01*
X23225000Y-47591040D02*
X23225000Y-46990000D01*
X22495000Y-55880000D02*
X20320000Y-55880000D01*
%TD*%
D25*
%TO.N,GND*%
X69825001Y-76810000D02*
X19075000Y-76810000D01*
X19075000Y-55880000D01*
X19556323Y-55880000D01*
X19570997Y-56028986D01*
X19614454Y-56172247D01*
X19685026Y-56304276D01*
X19739380Y-56370506D01*
X19779999Y-56420001D01*
X19895724Y-56514974D01*
X20027753Y-56585546D01*
X20171014Y-56629003D01*
X20320000Y-56643677D01*
X20357333Y-56640000D01*
X21735001Y-56640000D01*
X21735000Y-60557677D01*
X21731324Y-60595000D01*
X21735000Y-60632322D01*
X21735000Y-60632332D01*
X21745997Y-60743985D01*
X21768651Y-60818665D01*
X21789454Y-60887246D01*
X21860026Y-61019276D01*
X21864724Y-61025000D01*
X21954999Y-61135001D01*
X21984003Y-61158804D01*
X23370001Y-62544803D01*
X23370000Y-74257667D01*
X23366323Y-74295000D01*
X23380997Y-74443986D01*
X23424454Y-74587247D01*
X23495026Y-74719276D01*
X23549221Y-74785313D01*
X23589999Y-74835001D01*
X23705724Y-74929974D01*
X23837753Y-75000546D01*
X23981014Y-75044003D01*
X24130000Y-75058677D01*
X24167333Y-75055000D01*
X48326928Y-75055000D01*
X48326928Y-75245000D01*
X48343992Y-75418254D01*
X48394528Y-75584850D01*
X48476595Y-75738386D01*
X48587038Y-75872962D01*
X48721614Y-75983405D01*
X48875150Y-76065472D01*
X49041746Y-76116008D01*
X49215000Y-76133072D01*
X51115000Y-76133072D01*
X51288254Y-76116008D01*
X51454850Y-76065472D01*
X51608386Y-75983405D01*
X51742962Y-75872962D01*
X51853405Y-75738386D01*
X51935472Y-75584850D01*
X51986008Y-75418254D01*
X52003072Y-75245000D01*
X52003072Y-73345000D01*
X51986008Y-73171746D01*
X51935472Y-73005150D01*
X51853405Y-72851614D01*
X51742962Y-72717038D01*
X51608386Y-72606595D01*
X51454850Y-72524528D01*
X51288254Y-72473992D01*
X51115000Y-72456928D01*
X49215000Y-72456928D01*
X49041746Y-72473992D01*
X48875150Y-72524528D01*
X48721614Y-72606595D01*
X48587038Y-72717038D01*
X48476595Y-72851614D01*
X48394528Y-73005150D01*
X48343992Y-73171746D01*
X48326928Y-73345000D01*
X48326928Y-73535000D01*
X24890000Y-73535000D01*
X24890000Y-70154268D01*
X48330000Y-70154268D01*
X48330000Y-70515732D01*
X48400518Y-70870250D01*
X48538844Y-71204199D01*
X48739662Y-71504744D01*
X48995256Y-71760338D01*
X49295801Y-71961156D01*
X49629750Y-72099482D01*
X49984268Y-72170000D01*
X50345732Y-72170000D01*
X50700250Y-72099482D01*
X51034199Y-71961156D01*
X51334744Y-71760338D01*
X51590338Y-71504744D01*
X51791156Y-71204199D01*
X51929482Y-70870250D01*
X52000000Y-70515732D01*
X52000000Y-70154268D01*
X51929482Y-69799750D01*
X51791156Y-69465801D01*
X51590338Y-69165256D01*
X51334744Y-68909662D01*
X51034199Y-68708844D01*
X50700250Y-68570518D01*
X50345732Y-68500000D01*
X49984268Y-68500000D01*
X49629750Y-68570518D01*
X49295801Y-68708844D01*
X48995256Y-68909662D01*
X48739662Y-69165256D01*
X48538844Y-69465801D01*
X48400518Y-69799750D01*
X48330000Y-70154268D01*
X24890000Y-70154268D01*
X24890000Y-62544801D01*
X26505000Y-60929801D01*
X26505000Y-61101335D01*
X26560147Y-61378574D01*
X26668320Y-61639727D01*
X26825363Y-61874759D01*
X27025241Y-62074637D01*
X27257759Y-62230000D01*
X27025241Y-62385363D01*
X26825363Y-62585241D01*
X26668320Y-62820273D01*
X26560147Y-63081426D01*
X26505000Y-63358665D01*
X26505000Y-63641335D01*
X26560147Y-63918574D01*
X26668320Y-64179727D01*
X26825363Y-64414759D01*
X27025241Y-64614637D01*
X27257759Y-64770000D01*
X27025241Y-64925363D01*
X26825363Y-65125241D01*
X26668320Y-65360273D01*
X26560147Y-65621426D01*
X26505000Y-65898665D01*
X26505000Y-66181335D01*
X26560147Y-66458574D01*
X26668320Y-66719727D01*
X26825363Y-66954759D01*
X27025241Y-67154637D01*
X27260273Y-67311680D01*
X27521426Y-67419853D01*
X27798665Y-67475000D01*
X28081335Y-67475000D01*
X28358574Y-67419853D01*
X28619727Y-67311680D01*
X28854759Y-67154637D01*
X29054637Y-66954759D01*
X29211680Y-66719727D01*
X29319853Y-66458574D01*
X29375000Y-66181335D01*
X29375000Y-65898665D01*
X29319853Y-65621426D01*
X29211680Y-65360273D01*
X29131317Y-65240000D01*
X41741928Y-65240000D01*
X41741928Y-66840000D01*
X41754188Y-66964482D01*
X41790498Y-67084180D01*
X41849463Y-67194494D01*
X41928815Y-67291185D01*
X42025506Y-67370537D01*
X42135820Y-67429502D01*
X42255518Y-67465812D01*
X42380000Y-67478072D01*
X43980000Y-67478072D01*
X44104482Y-67465812D01*
X44224180Y-67429502D01*
X44334494Y-67370537D01*
X44431185Y-67291185D01*
X44510537Y-67194494D01*
X44569502Y-67084180D01*
X44605812Y-66964482D01*
X44618072Y-66840000D01*
X44618072Y-65240000D01*
X44605812Y-65115518D01*
X44569502Y-64995820D01*
X44510537Y-64885506D01*
X44431185Y-64788815D01*
X44334494Y-64709463D01*
X44224180Y-64650498D01*
X44104482Y-64614188D01*
X44096039Y-64613357D01*
X44294637Y-64414759D01*
X44451680Y-64179727D01*
X44559853Y-63918574D01*
X44615000Y-63641335D01*
X44615000Y-63358665D01*
X44559853Y-63081426D01*
X44451680Y-62820273D01*
X44294637Y-62585241D01*
X44094759Y-62385363D01*
X43862241Y-62230000D01*
X44094759Y-62074637D01*
X44294637Y-61874759D01*
X44451680Y-61639727D01*
X44559853Y-61378574D01*
X44615000Y-61101335D01*
X44615000Y-60818665D01*
X44559853Y-60541426D01*
X44451680Y-60280273D01*
X44294637Y-60045241D01*
X44094759Y-59845363D01*
X43859727Y-59688320D01*
X43849135Y-59683933D01*
X44035131Y-59572385D01*
X44243519Y-59383414D01*
X44411037Y-59157420D01*
X44531246Y-58903087D01*
X44571904Y-58769039D01*
X44449915Y-58547000D01*
X43307000Y-58547000D01*
X43307000Y-58567000D01*
X43053000Y-58567000D01*
X43053000Y-58547000D01*
X41910085Y-58547000D01*
X41788096Y-58769039D01*
X41828754Y-58903087D01*
X41948963Y-59157420D01*
X42116481Y-59383414D01*
X42324869Y-59572385D01*
X42510865Y-59683933D01*
X42500273Y-59688320D01*
X42265241Y-59845363D01*
X42065363Y-60045241D01*
X41908320Y-60280273D01*
X41800147Y-60541426D01*
X41745000Y-60818665D01*
X41745000Y-61101335D01*
X41800147Y-61378574D01*
X41908320Y-61639727D01*
X42065363Y-61874759D01*
X42265241Y-62074637D01*
X42497759Y-62230000D01*
X42265241Y-62385363D01*
X42065363Y-62585241D01*
X41908320Y-62820273D01*
X41800147Y-63081426D01*
X41745000Y-63358665D01*
X41745000Y-63641335D01*
X41800147Y-63918574D01*
X41908320Y-64179727D01*
X42065363Y-64414759D01*
X42263961Y-64613357D01*
X42255518Y-64614188D01*
X42135820Y-64650498D01*
X42025506Y-64709463D01*
X41928815Y-64788815D01*
X41849463Y-64885506D01*
X41790498Y-64995820D01*
X41754188Y-65115518D01*
X41741928Y-65240000D01*
X29131317Y-65240000D01*
X29054637Y-65125241D01*
X28854759Y-64925363D01*
X28622241Y-64770000D01*
X28854759Y-64614637D01*
X29054637Y-64414759D01*
X29211680Y-64179727D01*
X29319853Y-63918574D01*
X29375000Y-63641335D01*
X29375000Y-63358665D01*
X29319853Y-63081426D01*
X29211680Y-62820273D01*
X29054637Y-62585241D01*
X28854759Y-62385363D01*
X28622241Y-62230000D01*
X28854759Y-62074637D01*
X29054637Y-61874759D01*
X29211680Y-61639727D01*
X29319853Y-61378574D01*
X29375000Y-61101335D01*
X29375000Y-60818665D01*
X29319853Y-60541426D01*
X29211680Y-60280273D01*
X29054637Y-60045241D01*
X28854759Y-59845363D01*
X28622241Y-59690000D01*
X28854759Y-59534637D01*
X29054637Y-59334759D01*
X29211680Y-59099727D01*
X29319853Y-58838574D01*
X29375000Y-58561335D01*
X29375000Y-58278665D01*
X29319853Y-58001426D01*
X29211680Y-57740273D01*
X29054637Y-57505241D01*
X28854759Y-57305363D01*
X28622241Y-57150000D01*
X28854759Y-56994637D01*
X29054637Y-56794759D01*
X29211680Y-56559727D01*
X29319853Y-56298574D01*
X29375000Y-56021335D01*
X29375000Y-55738665D01*
X29319853Y-55461426D01*
X29211680Y-55200273D01*
X29054637Y-54965241D01*
X28854759Y-54765363D01*
X28622241Y-54610000D01*
X28854759Y-54454637D01*
X29054637Y-54254759D01*
X29211680Y-54019727D01*
X29319853Y-53758574D01*
X29375000Y-53481335D01*
X29375000Y-53198665D01*
X29319853Y-52921426D01*
X29211680Y-52660273D01*
X29054637Y-52425241D01*
X28854759Y-52225363D01*
X28622241Y-52070000D01*
X28854759Y-51914637D01*
X29054637Y-51714759D01*
X29211680Y-51479727D01*
X29319853Y-51218574D01*
X29375000Y-50941335D01*
X29375000Y-50658665D01*
X29319853Y-50381426D01*
X29211680Y-50120273D01*
X29054637Y-49885241D01*
X28854759Y-49685363D01*
X28622241Y-49530000D01*
X28854759Y-49374637D01*
X29054637Y-49174759D01*
X29211680Y-48939727D01*
X29319853Y-48678574D01*
X29375000Y-48401335D01*
X29375000Y-48118665D01*
X29319853Y-47841426D01*
X29211680Y-47580273D01*
X29054637Y-47345241D01*
X28854759Y-47145363D01*
X28622241Y-46990000D01*
X28854759Y-46834637D01*
X29054637Y-46634759D01*
X29211680Y-46399727D01*
X29319853Y-46138574D01*
X29375000Y-45861335D01*
X29375000Y-45578665D01*
X29319853Y-45301426D01*
X29211680Y-45040273D01*
X29054637Y-44805241D01*
X28854759Y-44605363D01*
X28622241Y-44450000D01*
X28854759Y-44294637D01*
X29054637Y-44094759D01*
X29211680Y-43859727D01*
X29319853Y-43598574D01*
X29375000Y-43321335D01*
X29375000Y-43038665D01*
X29319853Y-42761426D01*
X29211680Y-42500273D01*
X29054637Y-42265241D01*
X28854759Y-42065363D01*
X28622241Y-41910000D01*
X28854759Y-41754637D01*
X29054637Y-41554759D01*
X29211680Y-41319727D01*
X29319853Y-41058574D01*
X29375000Y-40781335D01*
X29375000Y-40498665D01*
X29319853Y-40221426D01*
X29211680Y-39960273D01*
X29054637Y-39725241D01*
X28854759Y-39525363D01*
X28622241Y-39370000D01*
X28854759Y-39214637D01*
X29054637Y-39014759D01*
X29211680Y-38779727D01*
X29319853Y-38518574D01*
X29375000Y-38241335D01*
X29375000Y-37958665D01*
X29338688Y-37776114D01*
X29576005Y-37538797D01*
X29605002Y-37515000D01*
X29699975Y-37399275D01*
X29770547Y-37267246D01*
X29814004Y-37123985D01*
X29825001Y-37012332D01*
X29825001Y-37012324D01*
X29828677Y-36974999D01*
X29825001Y-36937674D01*
X29825001Y-30338665D01*
X41745000Y-30338665D01*
X41745000Y-30621335D01*
X41800147Y-30898574D01*
X41908320Y-31159727D01*
X42065363Y-31394759D01*
X42265241Y-31594637D01*
X42497759Y-31750000D01*
X42265241Y-31905363D01*
X42065363Y-32105241D01*
X41908320Y-32340273D01*
X41800147Y-32601426D01*
X41745000Y-32878665D01*
X41745000Y-33161335D01*
X41800147Y-33438574D01*
X41908320Y-33699727D01*
X42065363Y-33934759D01*
X42265241Y-34134637D01*
X42497759Y-34290000D01*
X42265241Y-34445363D01*
X42065363Y-34645241D01*
X41908320Y-34880273D01*
X41800147Y-35141426D01*
X41745000Y-35418665D01*
X41745000Y-35701335D01*
X41800147Y-35978574D01*
X41908320Y-36239727D01*
X42065363Y-36474759D01*
X42265241Y-36674637D01*
X42497759Y-36830000D01*
X42265241Y-36985363D01*
X42065363Y-37185241D01*
X41908320Y-37420273D01*
X41800147Y-37681426D01*
X41745000Y-37958665D01*
X41745000Y-38241335D01*
X41800147Y-38518574D01*
X41908320Y-38779727D01*
X42065363Y-39014759D01*
X42265241Y-39214637D01*
X42497759Y-39370000D01*
X42265241Y-39525363D01*
X42065363Y-39725241D01*
X41908320Y-39960273D01*
X41800147Y-40221426D01*
X41745000Y-40498665D01*
X41745000Y-40781335D01*
X41800147Y-41058574D01*
X41908320Y-41319727D01*
X42065363Y-41554759D01*
X42265241Y-41754637D01*
X42497759Y-41910000D01*
X42265241Y-42065363D01*
X42065363Y-42265241D01*
X41908320Y-42500273D01*
X41800147Y-42761426D01*
X41745000Y-43038665D01*
X41745000Y-43321335D01*
X41800147Y-43598574D01*
X41908320Y-43859727D01*
X42065363Y-44094759D01*
X42265241Y-44294637D01*
X42497759Y-44450000D01*
X42265241Y-44605363D01*
X42065363Y-44805241D01*
X41908320Y-45040273D01*
X41800147Y-45301426D01*
X41745000Y-45578665D01*
X41745000Y-45861335D01*
X41800147Y-46138574D01*
X41908320Y-46399727D01*
X42065363Y-46634759D01*
X42265241Y-46834637D01*
X42497759Y-46990000D01*
X42265241Y-47145363D01*
X42065363Y-47345241D01*
X41908320Y-47580273D01*
X41800147Y-47841426D01*
X41745000Y-48118665D01*
X41745000Y-48401335D01*
X41800147Y-48678574D01*
X41908320Y-48939727D01*
X42065363Y-49174759D01*
X42265241Y-49374637D01*
X42497759Y-49530000D01*
X42265241Y-49685363D01*
X42065363Y-49885241D01*
X41908320Y-50120273D01*
X41800147Y-50381426D01*
X41745000Y-50658665D01*
X41745000Y-50941335D01*
X41800147Y-51218574D01*
X41908320Y-51479727D01*
X42065363Y-51714759D01*
X42265241Y-51914637D01*
X42497759Y-52070000D01*
X42265241Y-52225363D01*
X42065363Y-52425241D01*
X41908320Y-52660273D01*
X41800147Y-52921426D01*
X41745000Y-53198665D01*
X41745000Y-53481335D01*
X41800147Y-53758574D01*
X41908320Y-54019727D01*
X42065363Y-54254759D01*
X42265241Y-54454637D01*
X42497759Y-54610000D01*
X42265241Y-54765363D01*
X42065363Y-54965241D01*
X41908320Y-55200273D01*
X41800147Y-55461426D01*
X41745000Y-55738665D01*
X41745000Y-56021335D01*
X41800147Y-56298574D01*
X41908320Y-56559727D01*
X42065363Y-56794759D01*
X42265241Y-56994637D01*
X42500273Y-57151680D01*
X42510865Y-57156067D01*
X42324869Y-57267615D01*
X42116481Y-57456586D01*
X41948963Y-57682580D01*
X41828754Y-57936913D01*
X41788096Y-58070961D01*
X41910085Y-58293000D01*
X43053000Y-58293000D01*
X43053000Y-58273000D01*
X43307000Y-58273000D01*
X43307000Y-58293000D01*
X44449915Y-58293000D01*
X44571904Y-58070961D01*
X44531246Y-57936913D01*
X44411037Y-57682580D01*
X44243519Y-57456586D01*
X44035131Y-57267615D01*
X43849135Y-57156067D01*
X43859727Y-57151680D01*
X44094759Y-56994637D01*
X44294637Y-56794759D01*
X44398043Y-56640000D01*
X44770199Y-56640000D01*
X47581355Y-59451157D01*
X47560000Y-59558514D01*
X47560000Y-59821486D01*
X47611304Y-60079405D01*
X47711939Y-60322359D01*
X47858038Y-60541013D01*
X48043987Y-60726962D01*
X48262641Y-60873061D01*
X48505595Y-60973696D01*
X48763514Y-61025000D01*
X49026486Y-61025000D01*
X49284405Y-60973696D01*
X49527359Y-60873061D01*
X49746013Y-60726962D01*
X49845000Y-60627975D01*
X49943987Y-60726962D01*
X50162641Y-60873061D01*
X50405595Y-60973696D01*
X50663514Y-61025000D01*
X50926486Y-61025000D01*
X51184405Y-60973696D01*
X51427359Y-60873061D01*
X51646013Y-60726962D01*
X51831962Y-60541013D01*
X51892775Y-60450000D01*
X55511928Y-60450000D01*
X55511928Y-60642500D01*
X55524188Y-60766982D01*
X55560498Y-60886680D01*
X55619463Y-60996994D01*
X55698815Y-61093685D01*
X55795506Y-61173037D01*
X55905820Y-61232002D01*
X56025518Y-61268312D01*
X56150000Y-61280572D01*
X58150000Y-61280572D01*
X58274482Y-61268312D01*
X58394180Y-61232002D01*
X58504494Y-61173037D01*
X58601185Y-61093685D01*
X58680537Y-60996994D01*
X58739502Y-60886680D01*
X58775812Y-60766982D01*
X58788072Y-60642500D01*
X58788072Y-58737500D01*
X58775812Y-58613018D01*
X58739502Y-58493320D01*
X58680537Y-58383006D01*
X58601185Y-58286315D01*
X58504494Y-58206963D01*
X58420554Y-58162095D01*
X58523845Y-58036235D01*
X58671255Y-57760449D01*
X58762030Y-57461204D01*
X58792681Y-57150000D01*
X58762030Y-56838796D01*
X58671255Y-56539551D01*
X58523845Y-56263765D01*
X58325463Y-56022037D01*
X58146101Y-55874837D01*
X58331315Y-55719437D01*
X58525969Y-55476923D01*
X58669571Y-55201094D01*
X58740563Y-54982980D01*
X58620594Y-54737000D01*
X57277000Y-54737000D01*
X57277000Y-54757000D01*
X57023000Y-54757000D01*
X57023000Y-54737000D01*
X55679406Y-54737000D01*
X55559437Y-54982980D01*
X55630429Y-55201094D01*
X55774031Y-55476923D01*
X55968685Y-55719437D01*
X56153899Y-55874837D01*
X55974537Y-56022037D01*
X55776155Y-56263765D01*
X55628745Y-56539551D01*
X55537970Y-56838796D01*
X55507319Y-57150000D01*
X55537970Y-57461204D01*
X55628745Y-57760449D01*
X55776155Y-58036235D01*
X55879446Y-58162095D01*
X55795506Y-58206963D01*
X55698815Y-58286315D01*
X55619463Y-58383006D01*
X55560498Y-58493320D01*
X55524188Y-58613018D01*
X55511928Y-58737500D01*
X55511928Y-58930000D01*
X51892775Y-58930000D01*
X51831962Y-58838987D01*
X51646013Y-58653038D01*
X51427359Y-58506939D01*
X51184405Y-58406304D01*
X50926486Y-58355000D01*
X50663514Y-58355000D01*
X50405595Y-58406304D01*
X50162641Y-58506939D01*
X49943987Y-58653038D01*
X49845000Y-58752025D01*
X49746013Y-58653038D01*
X49527359Y-58506939D01*
X49284405Y-58406304D01*
X49026486Y-58355000D01*
X48763514Y-58355000D01*
X48656157Y-58376355D01*
X45648804Y-55369003D01*
X45625001Y-55339999D01*
X45509276Y-55245026D01*
X45377247Y-55174454D01*
X45233986Y-55130997D01*
X45122333Y-55120000D01*
X45122322Y-55120000D01*
X45085000Y-55116324D01*
X45047678Y-55120000D01*
X44398043Y-55120000D01*
X44294637Y-54965241D01*
X44094759Y-54765363D01*
X43862241Y-54610000D01*
X44094759Y-54454637D01*
X44294637Y-54254759D01*
X44306489Y-54237020D01*
X55559437Y-54237020D01*
X55679406Y-54483000D01*
X57023000Y-54483000D01*
X57023000Y-53184430D01*
X57277000Y-53184430D01*
X57277000Y-54483000D01*
X58620594Y-54483000D01*
X58740563Y-54237020D01*
X58669571Y-54018906D01*
X58525969Y-53743077D01*
X58331315Y-53500563D01*
X58093089Y-53300684D01*
X57820446Y-53151121D01*
X57523863Y-53057622D01*
X57277000Y-53184430D01*
X57023000Y-53184430D01*
X56776137Y-53057622D01*
X56479554Y-53151121D01*
X56206911Y-53300684D01*
X55968685Y-53500563D01*
X55774031Y-53743077D01*
X55630429Y-54018906D01*
X55559437Y-54237020D01*
X44306489Y-54237020D01*
X44451680Y-54019727D01*
X44559853Y-53758574D01*
X44615000Y-53481335D01*
X44615000Y-53198665D01*
X44578688Y-53016113D01*
X48196161Y-49398641D01*
X48262641Y-49443061D01*
X48505595Y-49543696D01*
X48763514Y-49595000D01*
X49026486Y-49595000D01*
X49284405Y-49543696D01*
X49527359Y-49443061D01*
X49746013Y-49296962D01*
X49845000Y-49197975D01*
X49943987Y-49296962D01*
X50162641Y-49443061D01*
X50405595Y-49543696D01*
X50663514Y-49595000D01*
X50926486Y-49595000D01*
X51184405Y-49543696D01*
X51427359Y-49443061D01*
X51646013Y-49296962D01*
X51831962Y-49111013D01*
X51892775Y-49020000D01*
X55511928Y-49020000D01*
X55511928Y-49212500D01*
X55524188Y-49336982D01*
X55560498Y-49456680D01*
X55619463Y-49566994D01*
X55698815Y-49663685D01*
X55795506Y-49743037D01*
X55905820Y-49802002D01*
X56025518Y-49838312D01*
X56150000Y-49850572D01*
X58150000Y-49850572D01*
X58274482Y-49838312D01*
X58394180Y-49802002D01*
X58504494Y-49743037D01*
X58601185Y-49663685D01*
X58680537Y-49566994D01*
X58739502Y-49456680D01*
X58775812Y-49336982D01*
X58788072Y-49212500D01*
X58788072Y-47307500D01*
X58775812Y-47183018D01*
X58739502Y-47063320D01*
X58680537Y-46953006D01*
X58601185Y-46856315D01*
X58504494Y-46776963D01*
X58420554Y-46732095D01*
X58523845Y-46606235D01*
X58671255Y-46330449D01*
X58762030Y-46031204D01*
X58792681Y-45720000D01*
X58762030Y-45408796D01*
X58671255Y-45109551D01*
X58523845Y-44833765D01*
X58325463Y-44592037D01*
X58146101Y-44444837D01*
X58331315Y-44289437D01*
X58525969Y-44046923D01*
X58669571Y-43771094D01*
X58740563Y-43552980D01*
X58620594Y-43307000D01*
X57277000Y-43307000D01*
X57277000Y-43327000D01*
X57023000Y-43327000D01*
X57023000Y-43307000D01*
X55679406Y-43307000D01*
X55559437Y-43552980D01*
X55630429Y-43771094D01*
X55774031Y-44046923D01*
X55968685Y-44289437D01*
X56153899Y-44444837D01*
X55974537Y-44592037D01*
X55776155Y-44833765D01*
X55628745Y-45109551D01*
X55537970Y-45408796D01*
X55507319Y-45720000D01*
X55537970Y-46031204D01*
X55628745Y-46330449D01*
X55776155Y-46606235D01*
X55879446Y-46732095D01*
X55795506Y-46776963D01*
X55698815Y-46856315D01*
X55619463Y-46953006D01*
X55560498Y-47063320D01*
X55524188Y-47183018D01*
X55511928Y-47307500D01*
X55511928Y-47500000D01*
X51892775Y-47500000D01*
X51831962Y-47408987D01*
X51646013Y-47223038D01*
X51427359Y-47076939D01*
X51184405Y-46976304D01*
X50926486Y-46925000D01*
X50663514Y-46925000D01*
X50405595Y-46976304D01*
X50162641Y-47076939D01*
X49943987Y-47223038D01*
X49845000Y-47322025D01*
X49746013Y-47223038D01*
X49527359Y-47076939D01*
X49284405Y-46976304D01*
X49026486Y-46925000D01*
X48763514Y-46925000D01*
X48505595Y-46976304D01*
X48262641Y-47076939D01*
X48043987Y-47223038D01*
X47858038Y-47408987D01*
X47711939Y-47627641D01*
X47637256Y-47807942D01*
X44615000Y-50830199D01*
X44615000Y-50658665D01*
X44578688Y-50476113D01*
X49406004Y-45648798D01*
X49435001Y-45625001D01*
X49529974Y-45509276D01*
X49600546Y-45377247D01*
X49644003Y-45233986D01*
X49655000Y-45122333D01*
X49655000Y-45122332D01*
X49658677Y-45085000D01*
X49655000Y-45047667D01*
X49655000Y-42807020D01*
X55559437Y-42807020D01*
X55679406Y-43053000D01*
X57023000Y-43053000D01*
X57023000Y-41754430D01*
X57277000Y-41754430D01*
X57277000Y-43053000D01*
X58620594Y-43053000D01*
X58740563Y-42807020D01*
X58669571Y-42588906D01*
X58525969Y-42313077D01*
X58331315Y-42070563D01*
X58093089Y-41870684D01*
X57820446Y-41721121D01*
X57523863Y-41627622D01*
X57277000Y-41754430D01*
X57023000Y-41754430D01*
X56776137Y-41627622D01*
X56479554Y-41721121D01*
X56206911Y-41870684D01*
X55968685Y-42070563D01*
X55774031Y-42313077D01*
X55630429Y-42588906D01*
X55559437Y-42807020D01*
X49655000Y-42807020D01*
X49655000Y-37927775D01*
X49746013Y-37866962D01*
X49845000Y-37767975D01*
X49943987Y-37866962D01*
X50162641Y-38013061D01*
X50405595Y-38113696D01*
X50663514Y-38165000D01*
X50926486Y-38165000D01*
X51184405Y-38113696D01*
X51427359Y-38013061D01*
X51646013Y-37866962D01*
X51831962Y-37681013D01*
X51892775Y-37590000D01*
X55511928Y-37590000D01*
X55511928Y-37782500D01*
X55524188Y-37906982D01*
X55560498Y-38026680D01*
X55619463Y-38136994D01*
X55698815Y-38233685D01*
X55795506Y-38313037D01*
X55905820Y-38372002D01*
X56025518Y-38408312D01*
X56150000Y-38420572D01*
X58150000Y-38420572D01*
X58274482Y-38408312D01*
X58394180Y-38372002D01*
X58504494Y-38313037D01*
X58601185Y-38233685D01*
X58680537Y-38136994D01*
X58739502Y-38026680D01*
X58775812Y-37906982D01*
X58788072Y-37782500D01*
X58788072Y-35877500D01*
X58775812Y-35753018D01*
X58739502Y-35633320D01*
X58680537Y-35523006D01*
X58601185Y-35426315D01*
X58504494Y-35346963D01*
X58420554Y-35302095D01*
X58523845Y-35176235D01*
X58671255Y-34900449D01*
X58762030Y-34601204D01*
X58792681Y-34290000D01*
X58762030Y-33978796D01*
X58671255Y-33679551D01*
X58523845Y-33403765D01*
X58325463Y-33162037D01*
X58146101Y-33014837D01*
X58331315Y-32859437D01*
X58525969Y-32616923D01*
X58669571Y-32341094D01*
X58740563Y-32122980D01*
X58620594Y-31877000D01*
X57277000Y-31877000D01*
X57277000Y-31897000D01*
X57023000Y-31897000D01*
X57023000Y-31877000D01*
X55679406Y-31877000D01*
X55559437Y-32122980D01*
X55630429Y-32341094D01*
X55774031Y-32616923D01*
X55968685Y-32859437D01*
X56153899Y-33014837D01*
X55974537Y-33162037D01*
X55776155Y-33403765D01*
X55628745Y-33679551D01*
X55537970Y-33978796D01*
X55507319Y-34290000D01*
X55537970Y-34601204D01*
X55628745Y-34900449D01*
X55776155Y-35176235D01*
X55879446Y-35302095D01*
X55795506Y-35346963D01*
X55698815Y-35426315D01*
X55619463Y-35523006D01*
X55560498Y-35633320D01*
X55524188Y-35753018D01*
X55511928Y-35877500D01*
X55511928Y-36070000D01*
X51892775Y-36070000D01*
X51831962Y-35978987D01*
X51646013Y-35793038D01*
X51427359Y-35646939D01*
X51184405Y-35546304D01*
X50926486Y-35495000D01*
X50663514Y-35495000D01*
X50405595Y-35546304D01*
X50162641Y-35646939D01*
X49943987Y-35793038D01*
X49845000Y-35892025D01*
X49746013Y-35793038D01*
X49527359Y-35646939D01*
X49284405Y-35546304D01*
X49026486Y-35495000D01*
X48763514Y-35495000D01*
X48505595Y-35546304D01*
X48262641Y-35646939D01*
X48043987Y-35793038D01*
X47858038Y-35978987D01*
X47711939Y-36197641D01*
X47611304Y-36440595D01*
X47560000Y-36698514D01*
X47560000Y-36961486D01*
X47611304Y-37219405D01*
X47711939Y-37462359D01*
X47858038Y-37681013D01*
X48043987Y-37866962D01*
X48135001Y-37927775D01*
X48135000Y-44770198D01*
X44615000Y-48290199D01*
X44615000Y-48118665D01*
X44559853Y-47841426D01*
X44451680Y-47580273D01*
X44294637Y-47345241D01*
X44094759Y-47145363D01*
X43862241Y-46990000D01*
X44094759Y-46834637D01*
X44294637Y-46634759D01*
X44451680Y-46399727D01*
X44559853Y-46138574D01*
X44615000Y-45861335D01*
X44615000Y-45578665D01*
X44559853Y-45301426D01*
X44451680Y-45040273D01*
X44294637Y-44805241D01*
X44094759Y-44605363D01*
X43862241Y-44450000D01*
X44094759Y-44294637D01*
X44294637Y-44094759D01*
X44451680Y-43859727D01*
X44559853Y-43598574D01*
X44615000Y-43321335D01*
X44615000Y-43038665D01*
X44559853Y-42761426D01*
X44451680Y-42500273D01*
X44294637Y-42265241D01*
X44094759Y-42065363D01*
X43862241Y-41910000D01*
X44094759Y-41754637D01*
X44294637Y-41554759D01*
X44451680Y-41319727D01*
X44559853Y-41058574D01*
X44615000Y-40781335D01*
X44615000Y-40498665D01*
X44559853Y-40221426D01*
X44451680Y-39960273D01*
X44294637Y-39725241D01*
X44094759Y-39525363D01*
X43862241Y-39370000D01*
X44094759Y-39214637D01*
X44294637Y-39014759D01*
X44451680Y-38779727D01*
X44559853Y-38518574D01*
X44615000Y-38241335D01*
X44615000Y-37958665D01*
X44559853Y-37681426D01*
X44451680Y-37420273D01*
X44294637Y-37185241D01*
X44094759Y-36985363D01*
X43862241Y-36830000D01*
X44094759Y-36674637D01*
X44294637Y-36474759D01*
X44451680Y-36239727D01*
X44559853Y-35978574D01*
X44615000Y-35701335D01*
X44615000Y-35418665D01*
X44559853Y-35141426D01*
X44451680Y-34880273D01*
X44294637Y-34645241D01*
X44094759Y-34445363D01*
X43862241Y-34290000D01*
X44094759Y-34134637D01*
X44294637Y-33934759D01*
X44451680Y-33699727D01*
X44559853Y-33438574D01*
X44615000Y-33161335D01*
X44615000Y-32878665D01*
X44559853Y-32601426D01*
X44451680Y-32340273D01*
X44294637Y-32105241D01*
X44094759Y-31905363D01*
X43862241Y-31750000D01*
X44094759Y-31594637D01*
X44294637Y-31394759D01*
X44306489Y-31377020D01*
X55559437Y-31377020D01*
X55679406Y-31623000D01*
X57023000Y-31623000D01*
X57023000Y-30324430D01*
X57277000Y-30324430D01*
X57277000Y-31623000D01*
X58620594Y-31623000D01*
X58740563Y-31377020D01*
X58669571Y-31158906D01*
X58525969Y-30883077D01*
X58331315Y-30640563D01*
X58093089Y-30440684D01*
X57820446Y-30291121D01*
X57523863Y-30197622D01*
X57277000Y-30324430D01*
X57023000Y-30324430D01*
X56776137Y-30197622D01*
X56479554Y-30291121D01*
X56206911Y-30440684D01*
X55968685Y-30640563D01*
X55774031Y-30883077D01*
X55630429Y-31158906D01*
X55559437Y-31377020D01*
X44306489Y-31377020D01*
X44451680Y-31159727D01*
X44559853Y-30898574D01*
X44615000Y-30621335D01*
X44615000Y-30338665D01*
X44559853Y-30061426D01*
X44451680Y-29800273D01*
X44294637Y-29565241D01*
X44094759Y-29365363D01*
X43859727Y-29208320D01*
X43598574Y-29100147D01*
X43321335Y-29045000D01*
X43038665Y-29045000D01*
X42761426Y-29100147D01*
X42500273Y-29208320D01*
X42265241Y-29365363D01*
X42065363Y-29565241D01*
X41908320Y-29800273D01*
X41800147Y-30061426D01*
X41745000Y-30338665D01*
X29825001Y-30338665D01*
X29825001Y-22752334D01*
X29828678Y-22715001D01*
X29814004Y-22566015D01*
X29770547Y-22422754D01*
X29699975Y-22290725D01*
X29628800Y-22203998D01*
X29605002Y-22175000D01*
X29576004Y-22151202D01*
X29094026Y-21669224D01*
X56060381Y-21669224D01*
X56192317Y-21964312D01*
X56533045Y-22135159D01*
X56900557Y-22236250D01*
X57280729Y-22263701D01*
X57658951Y-22216457D01*
X58020690Y-22096333D01*
X58267683Y-21964312D01*
X58399619Y-21669224D01*
X57230000Y-20499605D01*
X56060381Y-21669224D01*
X29094026Y-21669224D01*
X28494802Y-21070000D01*
X28711411Y-21070000D01*
X28978989Y-21016775D01*
X29231043Y-20912371D01*
X29457886Y-20760799D01*
X29576692Y-20641993D01*
X30337612Y-20641993D01*
X30403137Y-20880860D01*
X30650116Y-20996760D01*
X30914960Y-21062250D01*
X31187492Y-21074812D01*
X31457238Y-21033965D01*
X31713832Y-20941277D01*
X31826863Y-20880860D01*
X31892388Y-20641993D01*
X31115000Y-19864605D01*
X30337612Y-20641993D01*
X29576692Y-20641993D01*
X29650799Y-20567886D01*
X29802371Y-20341043D01*
X29843511Y-20241721D01*
X29858723Y-20283832D01*
X29919140Y-20396863D01*
X30158007Y-20462388D01*
X30935395Y-19685000D01*
X31294605Y-19685000D01*
X32071993Y-20462388D01*
X32310860Y-20396863D01*
X32323123Y-20370729D01*
X55286299Y-20370729D01*
X55333543Y-20748951D01*
X55453667Y-21110690D01*
X55585688Y-21357683D01*
X55880776Y-21489619D01*
X57050395Y-20320000D01*
X57409605Y-20320000D01*
X58579224Y-21489619D01*
X58874312Y-21357683D01*
X59045159Y-21016955D01*
X59146250Y-20649443D01*
X59173701Y-20269271D01*
X59126457Y-19891049D01*
X59006333Y-19529310D01*
X58874312Y-19282317D01*
X58579224Y-19150381D01*
X57409605Y-20320000D01*
X57050395Y-20320000D01*
X55880776Y-19150381D01*
X55585688Y-19282317D01*
X55414841Y-19623045D01*
X55313750Y-19990557D01*
X55286299Y-20370729D01*
X32323123Y-20370729D01*
X32426760Y-20149884D01*
X32492250Y-19885040D01*
X32504812Y-19612508D01*
X32463965Y-19342762D01*
X32371277Y-19086168D01*
X32310860Y-18973137D01*
X32302254Y-18970776D01*
X56060381Y-18970776D01*
X57230000Y-20140395D01*
X58350395Y-19020000D01*
X60291928Y-19020000D01*
X60291928Y-21620000D01*
X60304188Y-21744482D01*
X60340498Y-21864180D01*
X60399463Y-21974494D01*
X60478815Y-22071185D01*
X60575506Y-22150537D01*
X60685820Y-22209502D01*
X60805518Y-22245812D01*
X60930000Y-22258072D01*
X62916493Y-22258072D01*
X63615000Y-22956579D01*
X63615001Y-33232108D01*
X63604401Y-33230000D01*
X63395599Y-33230000D01*
X63190809Y-33270735D01*
X62997902Y-33350640D01*
X62824289Y-33466644D01*
X62676644Y-33614289D01*
X62560640Y-33787902D01*
X62480735Y-33980809D01*
X62440000Y-34185599D01*
X62440000Y-34394401D01*
X62480735Y-34599191D01*
X62560640Y-34792098D01*
X62676644Y-34965711D01*
X62824289Y-35113356D01*
X62997902Y-35229360D01*
X63190809Y-35309265D01*
X63395599Y-35350000D01*
X63604401Y-35350000D01*
X63615000Y-35347892D01*
X63615001Y-44662108D01*
X63604401Y-44660000D01*
X63395599Y-44660000D01*
X63190809Y-44700735D01*
X62997902Y-44780640D01*
X62824289Y-44896644D01*
X62676644Y-45044289D01*
X62560640Y-45217902D01*
X62480735Y-45410809D01*
X62440000Y-45615599D01*
X62440000Y-45824401D01*
X62480735Y-46029191D01*
X62560640Y-46222098D01*
X62676644Y-46395711D01*
X62824289Y-46543356D01*
X62997902Y-46659360D01*
X63190809Y-46739265D01*
X63395599Y-46780000D01*
X63604401Y-46780000D01*
X63615000Y-46777892D01*
X63615001Y-56092108D01*
X63604401Y-56090000D01*
X63395599Y-56090000D01*
X63190809Y-56130735D01*
X62997902Y-56210640D01*
X62824289Y-56326644D01*
X62676644Y-56474289D01*
X62560640Y-56647902D01*
X62480735Y-56840809D01*
X62440000Y-57045599D01*
X62440000Y-57254401D01*
X62480735Y-57459191D01*
X62560640Y-57652098D01*
X62676644Y-57825711D01*
X62824289Y-57973356D01*
X62997902Y-58089360D01*
X63190809Y-58169265D01*
X63395599Y-58210000D01*
X63604401Y-58210000D01*
X63809191Y-58169265D01*
X63826397Y-58162138D01*
X63830820Y-58164502D01*
X63950518Y-58200812D01*
X64075000Y-58213072D01*
X64925000Y-58213072D01*
X65049482Y-58200812D01*
X65169180Y-58164502D01*
X65279494Y-58105537D01*
X65376185Y-58026185D01*
X65455537Y-57929494D01*
X65514502Y-57819180D01*
X65550812Y-57699482D01*
X65563072Y-57575000D01*
X65563072Y-56725000D01*
X65550812Y-56600518D01*
X65514502Y-56480820D01*
X65455537Y-56370506D01*
X65385000Y-56284556D01*
X65385000Y-46585444D01*
X65455537Y-46499494D01*
X65514502Y-46389180D01*
X65550812Y-46269482D01*
X65563072Y-46145000D01*
X65563072Y-45295000D01*
X65550812Y-45170518D01*
X65514502Y-45050820D01*
X65455537Y-44940506D01*
X65385000Y-44854556D01*
X65385000Y-35155444D01*
X65455537Y-35069494D01*
X65514502Y-34959180D01*
X65550812Y-34839482D01*
X65563072Y-34715000D01*
X65563072Y-33865000D01*
X65550812Y-33740518D01*
X65514502Y-33620820D01*
X65455537Y-33510506D01*
X65385000Y-33424556D01*
X65385000Y-22926579D01*
X66170001Y-23711580D01*
X66170002Y-68815684D01*
X65940250Y-68720518D01*
X65585732Y-68650000D01*
X65224268Y-68650000D01*
X64869750Y-68720518D01*
X64535801Y-68858844D01*
X64235256Y-69059662D01*
X63979662Y-69315256D01*
X63778844Y-69615801D01*
X63640518Y-69949750D01*
X63570000Y-70304268D01*
X63570000Y-70665732D01*
X63640518Y-71020250D01*
X63778844Y-71354199D01*
X63979662Y-71654744D01*
X64235256Y-71910338D01*
X64535801Y-72111156D01*
X64869750Y-72249482D01*
X65224268Y-72320000D01*
X65585732Y-72320000D01*
X65940250Y-72249482D01*
X66170002Y-72154316D01*
X66170002Y-72428419D01*
X65991493Y-72606928D01*
X64455000Y-72606928D01*
X64281746Y-72623992D01*
X64115150Y-72674528D01*
X63961614Y-72756595D01*
X63827038Y-72867038D01*
X63716595Y-73001614D01*
X63634528Y-73155150D01*
X63583992Y-73321746D01*
X63566928Y-73495000D01*
X63566928Y-75395000D01*
X63583992Y-75568254D01*
X63634528Y-75734850D01*
X63716595Y-75888386D01*
X63827038Y-76022962D01*
X63961614Y-76133405D01*
X64115150Y-76215472D01*
X64281746Y-76266008D01*
X64455000Y-76283072D01*
X66355000Y-76283072D01*
X66528254Y-76266008D01*
X66694850Y-76215472D01*
X66848386Y-76133405D01*
X66982962Y-76022962D01*
X67093405Y-75888386D01*
X67175472Y-75734850D01*
X67226008Y-75568254D01*
X67243072Y-75395000D01*
X67243072Y-73858507D01*
X67650050Y-73451529D01*
X67683818Y-73423816D01*
X67767586Y-73321746D01*
X67794412Y-73289058D01*
X67836660Y-73210016D01*
X67876590Y-73135312D01*
X67927196Y-72968489D01*
X67940001Y-72838476D01*
X67940001Y-72838468D01*
X67944282Y-72794999D01*
X67940001Y-72751530D01*
X67940001Y-23388466D01*
X67944282Y-23345000D01*
X67940001Y-23301534D01*
X67940001Y-23301524D01*
X67927196Y-23171511D01*
X67876590Y-23004688D01*
X67794412Y-22850942D01*
X67770211Y-22821453D01*
X67711533Y-22749954D01*
X67711531Y-22749952D01*
X67683818Y-22716184D01*
X67650051Y-22688472D01*
X64686534Y-19724956D01*
X64658817Y-19691183D01*
X64524059Y-19580589D01*
X64370313Y-19498411D01*
X64203490Y-19447805D01*
X64168072Y-19444317D01*
X64168072Y-19020000D01*
X64155812Y-18895518D01*
X64119502Y-18775820D01*
X64060537Y-18665506D01*
X63981185Y-18568815D01*
X63884494Y-18489463D01*
X63774180Y-18430498D01*
X63654482Y-18394188D01*
X63530000Y-18381928D01*
X60930000Y-18381928D01*
X60805518Y-18394188D01*
X60685820Y-18430498D01*
X60575506Y-18489463D01*
X60478815Y-18568815D01*
X60399463Y-18665506D01*
X60340498Y-18775820D01*
X60304188Y-18895518D01*
X60291928Y-19020000D01*
X58350395Y-19020000D01*
X58399619Y-18970776D01*
X58267683Y-18675688D01*
X57926955Y-18504841D01*
X57559443Y-18403750D01*
X57179271Y-18376299D01*
X56801049Y-18423543D01*
X56439310Y-18543667D01*
X56192317Y-18675688D01*
X56060381Y-18970776D01*
X32302254Y-18970776D01*
X32071993Y-18907612D01*
X31294605Y-19685000D01*
X30935395Y-19685000D01*
X30158007Y-18907612D01*
X29919140Y-18973137D01*
X29844836Y-19131477D01*
X29802371Y-19028957D01*
X29650799Y-18802114D01*
X29576692Y-18728007D01*
X30337612Y-18728007D01*
X31115000Y-19505395D01*
X31892388Y-18728007D01*
X31826863Y-18489140D01*
X31579884Y-18373240D01*
X31315040Y-18307750D01*
X31042508Y-18295188D01*
X30772762Y-18336035D01*
X30516168Y-18428723D01*
X30403137Y-18489140D01*
X30337612Y-18728007D01*
X29576692Y-18728007D01*
X29457886Y-18609201D01*
X29231043Y-18457629D01*
X28978989Y-18353225D01*
X28711411Y-18300000D01*
X28438589Y-18300000D01*
X28171011Y-18353225D01*
X27918957Y-18457629D01*
X27692114Y-18609201D01*
X27499201Y-18802114D01*
X27347629Y-19028957D01*
X27305000Y-19131873D01*
X27262371Y-19028957D01*
X27110799Y-18802114D01*
X26917886Y-18609201D01*
X26691043Y-18457629D01*
X26438989Y-18353225D01*
X26171411Y-18300000D01*
X25898589Y-18300000D01*
X25631011Y-18353225D01*
X25378957Y-18457629D01*
X25152114Y-18609201D01*
X24959201Y-18802114D01*
X24881445Y-18918483D01*
X24870812Y-18810518D01*
X24834502Y-18690820D01*
X24775537Y-18580506D01*
X24696185Y-18483815D01*
X24599494Y-18404463D01*
X24489180Y-18345498D01*
X24369482Y-18309188D01*
X24245000Y-18296928D01*
X22745000Y-18296928D01*
X22620518Y-18309188D01*
X22500820Y-18345498D01*
X22390506Y-18404463D01*
X22293815Y-18483815D01*
X22214463Y-18580506D01*
X22155498Y-18690820D01*
X22119188Y-18810518D01*
X22106928Y-18935000D01*
X22106928Y-19998270D01*
X21078998Y-21026201D01*
X21050000Y-21049999D01*
X21026202Y-21078997D01*
X21026201Y-21078998D01*
X20955026Y-21165724D01*
X20884454Y-21297754D01*
X20840998Y-21441015D01*
X20826324Y-21590000D01*
X20830001Y-21627332D01*
X20830000Y-31922225D01*
X20738987Y-31983038D01*
X20553038Y-32168987D01*
X20406939Y-32387641D01*
X20306304Y-32630595D01*
X20255000Y-32888514D01*
X20255000Y-33151486D01*
X20306304Y-33409405D01*
X20406939Y-33652359D01*
X20553038Y-33871013D01*
X20738987Y-34056962D01*
X20957641Y-34203061D01*
X21200595Y-34303696D01*
X21458514Y-34355000D01*
X21721486Y-34355000D01*
X21979405Y-34303696D01*
X22222359Y-34203061D01*
X22441013Y-34056962D01*
X22626962Y-33871013D01*
X22687775Y-33780000D01*
X26721957Y-33780000D01*
X26825363Y-33934759D01*
X27025241Y-34134637D01*
X27257759Y-34290000D01*
X27025241Y-34445363D01*
X26825363Y-34645241D01*
X26668320Y-34880273D01*
X26560147Y-35141426D01*
X26505000Y-35418665D01*
X26505000Y-35701335D01*
X26560147Y-35978574D01*
X26668320Y-36239727D01*
X26825363Y-36474759D01*
X27025241Y-36674637D01*
X27257759Y-36830000D01*
X27025241Y-36985363D01*
X26825363Y-37185241D01*
X26721957Y-37340000D01*
X22687775Y-37340000D01*
X22626962Y-37248987D01*
X22441013Y-37063038D01*
X22222359Y-36916939D01*
X21979405Y-36816304D01*
X21721486Y-36765000D01*
X21458514Y-36765000D01*
X21200595Y-36816304D01*
X20957641Y-36916939D01*
X20738987Y-37063038D01*
X20553038Y-37248987D01*
X20406939Y-37467641D01*
X20306304Y-37710595D01*
X20255000Y-37968514D01*
X20255000Y-38231486D01*
X20306304Y-38489405D01*
X20406939Y-38732359D01*
X20553038Y-38951013D01*
X20738987Y-39136962D01*
X20957641Y-39283061D01*
X21200595Y-39383696D01*
X21458514Y-39435000D01*
X21721486Y-39435000D01*
X21979405Y-39383696D01*
X22222359Y-39283061D01*
X22441013Y-39136962D01*
X22626962Y-38951013D01*
X22687775Y-38860000D01*
X26721957Y-38860000D01*
X26825363Y-39014759D01*
X27025241Y-39214637D01*
X27257759Y-39370000D01*
X27025241Y-39525363D01*
X26825363Y-39725241D01*
X26668320Y-39960273D01*
X26560147Y-40221426D01*
X26505000Y-40498665D01*
X26505000Y-40781335D01*
X26541312Y-40963886D01*
X25085199Y-42420000D01*
X24964067Y-42420000D01*
X24900711Y-42356644D01*
X24727098Y-42240640D01*
X24534191Y-42160735D01*
X24329401Y-42120000D01*
X24120599Y-42120000D01*
X23915809Y-42160735D01*
X23725000Y-42239771D01*
X23534191Y-42160735D01*
X23329401Y-42120000D01*
X23120599Y-42120000D01*
X22915809Y-42160735D01*
X22898603Y-42167862D01*
X22894180Y-42165498D01*
X22774482Y-42129188D01*
X22650000Y-42116928D01*
X22510750Y-42120000D01*
X22352000Y-42278750D01*
X22352000Y-42578587D01*
X22285640Y-42677902D01*
X22205735Y-42870809D01*
X22165000Y-43075599D01*
X22165000Y-43284401D01*
X22205735Y-43489191D01*
X22285640Y-43682098D01*
X22352000Y-43781413D01*
X22352000Y-44081250D01*
X22465000Y-44194250D01*
X22465001Y-45975749D01*
X22352000Y-46088750D01*
X22352000Y-46388587D01*
X22285640Y-46487902D01*
X22205735Y-46680809D01*
X22165000Y-46885599D01*
X22165000Y-47094401D01*
X22173473Y-47137000D01*
X22098000Y-47137000D01*
X22098000Y-47117000D01*
X21323750Y-47117000D01*
X21165000Y-47275750D01*
X21161928Y-47415000D01*
X21174188Y-47539482D01*
X21210498Y-47659180D01*
X21269463Y-47769494D01*
X21348815Y-47866185D01*
X21445506Y-47945537D01*
X21555820Y-48004502D01*
X21675518Y-48040812D01*
X21698193Y-48043045D01*
X19808998Y-49932241D01*
X19780000Y-49956039D01*
X19756202Y-49985037D01*
X19756201Y-49985038D01*
X19685026Y-50071764D01*
X19614454Y-50203794D01*
X19603306Y-50240546D01*
X19570998Y-50347054D01*
X19560001Y-50458707D01*
X19556324Y-50496040D01*
X19560001Y-50533372D01*
X19560000Y-55842667D01*
X19556323Y-55880000D01*
X19075000Y-55880000D01*
X19075000Y-46565000D01*
X21161928Y-46565000D01*
X21165000Y-46704250D01*
X21323750Y-46863000D01*
X22098000Y-46863000D01*
X22098000Y-46088750D01*
X21939250Y-45930000D01*
X21800000Y-45926928D01*
X21675518Y-45939188D01*
X21555820Y-45975498D01*
X21445506Y-46034463D01*
X21348815Y-46113815D01*
X21269463Y-46210506D01*
X21210498Y-46320820D01*
X21174188Y-46440518D01*
X21161928Y-46565000D01*
X19075000Y-46565000D01*
X19075000Y-43605000D01*
X21161928Y-43605000D01*
X21174188Y-43729482D01*
X21210498Y-43849180D01*
X21269463Y-43959494D01*
X21348815Y-44056185D01*
X21445506Y-44135537D01*
X21555820Y-44194502D01*
X21675518Y-44230812D01*
X21800000Y-44243072D01*
X21939250Y-44240000D01*
X22098000Y-44081250D01*
X22098000Y-43307000D01*
X21323750Y-43307000D01*
X21165000Y-43465750D01*
X21161928Y-43605000D01*
X19075000Y-43605000D01*
X19075000Y-42755000D01*
X21161928Y-42755000D01*
X21165000Y-42894250D01*
X21323750Y-43053000D01*
X22098000Y-43053000D01*
X22098000Y-42278750D01*
X21939250Y-42120000D01*
X21800000Y-42116928D01*
X21675518Y-42129188D01*
X21555820Y-42165498D01*
X21445506Y-42224463D01*
X21348815Y-42303815D01*
X21269463Y-42400506D01*
X21210498Y-42510820D01*
X21174188Y-42630518D01*
X21161928Y-42755000D01*
X19075000Y-42755000D01*
X19075000Y-14630000D01*
X69825000Y-14630000D01*
X69825001Y-76810000D01*
%TA.AperFunction,Conductor*%
D26*
G36*
X69825001Y-76810000D02*
G01*
X19075000Y-76810000D01*
X19075000Y-55880000D01*
X19556323Y-55880000D01*
X19570997Y-56028986D01*
X19614454Y-56172247D01*
X19685026Y-56304276D01*
X19739380Y-56370506D01*
X19779999Y-56420001D01*
X19895724Y-56514974D01*
X20027753Y-56585546D01*
X20171014Y-56629003D01*
X20320000Y-56643677D01*
X20357333Y-56640000D01*
X21735001Y-56640000D01*
X21735000Y-60557677D01*
X21731324Y-60595000D01*
X21735000Y-60632322D01*
X21735000Y-60632332D01*
X21745997Y-60743985D01*
X21768651Y-60818665D01*
X21789454Y-60887246D01*
X21860026Y-61019276D01*
X21864724Y-61025000D01*
X21954999Y-61135001D01*
X21984003Y-61158804D01*
X23370001Y-62544803D01*
X23370000Y-74257667D01*
X23366323Y-74295000D01*
X23380997Y-74443986D01*
X23424454Y-74587247D01*
X23495026Y-74719276D01*
X23549221Y-74785313D01*
X23589999Y-74835001D01*
X23705724Y-74929974D01*
X23837753Y-75000546D01*
X23981014Y-75044003D01*
X24130000Y-75058677D01*
X24167333Y-75055000D01*
X48326928Y-75055000D01*
X48326928Y-75245000D01*
X48343992Y-75418254D01*
X48394528Y-75584850D01*
X48476595Y-75738386D01*
X48587038Y-75872962D01*
X48721614Y-75983405D01*
X48875150Y-76065472D01*
X49041746Y-76116008D01*
X49215000Y-76133072D01*
X51115000Y-76133072D01*
X51288254Y-76116008D01*
X51454850Y-76065472D01*
X51608386Y-75983405D01*
X51742962Y-75872962D01*
X51853405Y-75738386D01*
X51935472Y-75584850D01*
X51986008Y-75418254D01*
X52003072Y-75245000D01*
X52003072Y-73345000D01*
X51986008Y-73171746D01*
X51935472Y-73005150D01*
X51853405Y-72851614D01*
X51742962Y-72717038D01*
X51608386Y-72606595D01*
X51454850Y-72524528D01*
X51288254Y-72473992D01*
X51115000Y-72456928D01*
X49215000Y-72456928D01*
X49041746Y-72473992D01*
X48875150Y-72524528D01*
X48721614Y-72606595D01*
X48587038Y-72717038D01*
X48476595Y-72851614D01*
X48394528Y-73005150D01*
X48343992Y-73171746D01*
X48326928Y-73345000D01*
X48326928Y-73535000D01*
X24890000Y-73535000D01*
X24890000Y-70154268D01*
X48330000Y-70154268D01*
X48330000Y-70515732D01*
X48400518Y-70870250D01*
X48538844Y-71204199D01*
X48739662Y-71504744D01*
X48995256Y-71760338D01*
X49295801Y-71961156D01*
X49629750Y-72099482D01*
X49984268Y-72170000D01*
X50345732Y-72170000D01*
X50700250Y-72099482D01*
X51034199Y-71961156D01*
X51334744Y-71760338D01*
X51590338Y-71504744D01*
X51791156Y-71204199D01*
X51929482Y-70870250D01*
X52000000Y-70515732D01*
X52000000Y-70154268D01*
X51929482Y-69799750D01*
X51791156Y-69465801D01*
X51590338Y-69165256D01*
X51334744Y-68909662D01*
X51034199Y-68708844D01*
X50700250Y-68570518D01*
X50345732Y-68500000D01*
X49984268Y-68500000D01*
X49629750Y-68570518D01*
X49295801Y-68708844D01*
X48995256Y-68909662D01*
X48739662Y-69165256D01*
X48538844Y-69465801D01*
X48400518Y-69799750D01*
X48330000Y-70154268D01*
X24890000Y-70154268D01*
X24890000Y-62544801D01*
X26505000Y-60929801D01*
X26505000Y-61101335D01*
X26560147Y-61378574D01*
X26668320Y-61639727D01*
X26825363Y-61874759D01*
X27025241Y-62074637D01*
X27257759Y-62230000D01*
X27025241Y-62385363D01*
X26825363Y-62585241D01*
X26668320Y-62820273D01*
X26560147Y-63081426D01*
X26505000Y-63358665D01*
X26505000Y-63641335D01*
X26560147Y-63918574D01*
X26668320Y-64179727D01*
X26825363Y-64414759D01*
X27025241Y-64614637D01*
X27257759Y-64770000D01*
X27025241Y-64925363D01*
X26825363Y-65125241D01*
X26668320Y-65360273D01*
X26560147Y-65621426D01*
X26505000Y-65898665D01*
X26505000Y-66181335D01*
X26560147Y-66458574D01*
X26668320Y-66719727D01*
X26825363Y-66954759D01*
X27025241Y-67154637D01*
X27260273Y-67311680D01*
X27521426Y-67419853D01*
X27798665Y-67475000D01*
X28081335Y-67475000D01*
X28358574Y-67419853D01*
X28619727Y-67311680D01*
X28854759Y-67154637D01*
X29054637Y-66954759D01*
X29211680Y-66719727D01*
X29319853Y-66458574D01*
X29375000Y-66181335D01*
X29375000Y-65898665D01*
X29319853Y-65621426D01*
X29211680Y-65360273D01*
X29131317Y-65240000D01*
X41741928Y-65240000D01*
X41741928Y-66840000D01*
X41754188Y-66964482D01*
X41790498Y-67084180D01*
X41849463Y-67194494D01*
X41928815Y-67291185D01*
X42025506Y-67370537D01*
X42135820Y-67429502D01*
X42255518Y-67465812D01*
X42380000Y-67478072D01*
X43980000Y-67478072D01*
X44104482Y-67465812D01*
X44224180Y-67429502D01*
X44334494Y-67370537D01*
X44431185Y-67291185D01*
X44510537Y-67194494D01*
X44569502Y-67084180D01*
X44605812Y-66964482D01*
X44618072Y-66840000D01*
X44618072Y-65240000D01*
X44605812Y-65115518D01*
X44569502Y-64995820D01*
X44510537Y-64885506D01*
X44431185Y-64788815D01*
X44334494Y-64709463D01*
X44224180Y-64650498D01*
X44104482Y-64614188D01*
X44096039Y-64613357D01*
X44294637Y-64414759D01*
X44451680Y-64179727D01*
X44559853Y-63918574D01*
X44615000Y-63641335D01*
X44615000Y-63358665D01*
X44559853Y-63081426D01*
X44451680Y-62820273D01*
X44294637Y-62585241D01*
X44094759Y-62385363D01*
X43862241Y-62230000D01*
X44094759Y-62074637D01*
X44294637Y-61874759D01*
X44451680Y-61639727D01*
X44559853Y-61378574D01*
X44615000Y-61101335D01*
X44615000Y-60818665D01*
X44559853Y-60541426D01*
X44451680Y-60280273D01*
X44294637Y-60045241D01*
X44094759Y-59845363D01*
X43859727Y-59688320D01*
X43849135Y-59683933D01*
X44035131Y-59572385D01*
X44243519Y-59383414D01*
X44411037Y-59157420D01*
X44531246Y-58903087D01*
X44571904Y-58769039D01*
X44449915Y-58547000D01*
X43307000Y-58547000D01*
X43307000Y-58567000D01*
X43053000Y-58567000D01*
X43053000Y-58547000D01*
X41910085Y-58547000D01*
X41788096Y-58769039D01*
X41828754Y-58903087D01*
X41948963Y-59157420D01*
X42116481Y-59383414D01*
X42324869Y-59572385D01*
X42510865Y-59683933D01*
X42500273Y-59688320D01*
X42265241Y-59845363D01*
X42065363Y-60045241D01*
X41908320Y-60280273D01*
X41800147Y-60541426D01*
X41745000Y-60818665D01*
X41745000Y-61101335D01*
X41800147Y-61378574D01*
X41908320Y-61639727D01*
X42065363Y-61874759D01*
X42265241Y-62074637D01*
X42497759Y-62230000D01*
X42265241Y-62385363D01*
X42065363Y-62585241D01*
X41908320Y-62820273D01*
X41800147Y-63081426D01*
X41745000Y-63358665D01*
X41745000Y-63641335D01*
X41800147Y-63918574D01*
X41908320Y-64179727D01*
X42065363Y-64414759D01*
X42263961Y-64613357D01*
X42255518Y-64614188D01*
X42135820Y-64650498D01*
X42025506Y-64709463D01*
X41928815Y-64788815D01*
X41849463Y-64885506D01*
X41790498Y-64995820D01*
X41754188Y-65115518D01*
X41741928Y-65240000D01*
X29131317Y-65240000D01*
X29054637Y-65125241D01*
X28854759Y-64925363D01*
X28622241Y-64770000D01*
X28854759Y-64614637D01*
X29054637Y-64414759D01*
X29211680Y-64179727D01*
X29319853Y-63918574D01*
X29375000Y-63641335D01*
X29375000Y-63358665D01*
X29319853Y-63081426D01*
X29211680Y-62820273D01*
X29054637Y-62585241D01*
X28854759Y-62385363D01*
X28622241Y-62230000D01*
X28854759Y-62074637D01*
X29054637Y-61874759D01*
X29211680Y-61639727D01*
X29319853Y-61378574D01*
X29375000Y-61101335D01*
X29375000Y-60818665D01*
X29319853Y-60541426D01*
X29211680Y-60280273D01*
X29054637Y-60045241D01*
X28854759Y-59845363D01*
X28622241Y-59690000D01*
X28854759Y-59534637D01*
X29054637Y-59334759D01*
X29211680Y-59099727D01*
X29319853Y-58838574D01*
X29375000Y-58561335D01*
X29375000Y-58278665D01*
X29319853Y-58001426D01*
X29211680Y-57740273D01*
X29054637Y-57505241D01*
X28854759Y-57305363D01*
X28622241Y-57150000D01*
X28854759Y-56994637D01*
X29054637Y-56794759D01*
X29211680Y-56559727D01*
X29319853Y-56298574D01*
X29375000Y-56021335D01*
X29375000Y-55738665D01*
X29319853Y-55461426D01*
X29211680Y-55200273D01*
X29054637Y-54965241D01*
X28854759Y-54765363D01*
X28622241Y-54610000D01*
X28854759Y-54454637D01*
X29054637Y-54254759D01*
X29211680Y-54019727D01*
X29319853Y-53758574D01*
X29375000Y-53481335D01*
X29375000Y-53198665D01*
X29319853Y-52921426D01*
X29211680Y-52660273D01*
X29054637Y-52425241D01*
X28854759Y-52225363D01*
X28622241Y-52070000D01*
X28854759Y-51914637D01*
X29054637Y-51714759D01*
X29211680Y-51479727D01*
X29319853Y-51218574D01*
X29375000Y-50941335D01*
X29375000Y-50658665D01*
X29319853Y-50381426D01*
X29211680Y-50120273D01*
X29054637Y-49885241D01*
X28854759Y-49685363D01*
X28622241Y-49530000D01*
X28854759Y-49374637D01*
X29054637Y-49174759D01*
X29211680Y-48939727D01*
X29319853Y-48678574D01*
X29375000Y-48401335D01*
X29375000Y-48118665D01*
X29319853Y-47841426D01*
X29211680Y-47580273D01*
X29054637Y-47345241D01*
X28854759Y-47145363D01*
X28622241Y-46990000D01*
X28854759Y-46834637D01*
X29054637Y-46634759D01*
X29211680Y-46399727D01*
X29319853Y-46138574D01*
X29375000Y-45861335D01*
X29375000Y-45578665D01*
X29319853Y-45301426D01*
X29211680Y-45040273D01*
X29054637Y-44805241D01*
X28854759Y-44605363D01*
X28622241Y-44450000D01*
X28854759Y-44294637D01*
X29054637Y-44094759D01*
X29211680Y-43859727D01*
X29319853Y-43598574D01*
X29375000Y-43321335D01*
X29375000Y-43038665D01*
X29319853Y-42761426D01*
X29211680Y-42500273D01*
X29054637Y-42265241D01*
X28854759Y-42065363D01*
X28622241Y-41910000D01*
X28854759Y-41754637D01*
X29054637Y-41554759D01*
X29211680Y-41319727D01*
X29319853Y-41058574D01*
X29375000Y-40781335D01*
X29375000Y-40498665D01*
X29319853Y-40221426D01*
X29211680Y-39960273D01*
X29054637Y-39725241D01*
X28854759Y-39525363D01*
X28622241Y-39370000D01*
X28854759Y-39214637D01*
X29054637Y-39014759D01*
X29211680Y-38779727D01*
X29319853Y-38518574D01*
X29375000Y-38241335D01*
X29375000Y-37958665D01*
X29338688Y-37776114D01*
X29576005Y-37538797D01*
X29605002Y-37515000D01*
X29699975Y-37399275D01*
X29770547Y-37267246D01*
X29814004Y-37123985D01*
X29825001Y-37012332D01*
X29825001Y-37012324D01*
X29828677Y-36974999D01*
X29825001Y-36937674D01*
X29825001Y-30338665D01*
X41745000Y-30338665D01*
X41745000Y-30621335D01*
X41800147Y-30898574D01*
X41908320Y-31159727D01*
X42065363Y-31394759D01*
X42265241Y-31594637D01*
X42497759Y-31750000D01*
X42265241Y-31905363D01*
X42065363Y-32105241D01*
X41908320Y-32340273D01*
X41800147Y-32601426D01*
X41745000Y-32878665D01*
X41745000Y-33161335D01*
X41800147Y-33438574D01*
X41908320Y-33699727D01*
X42065363Y-33934759D01*
X42265241Y-34134637D01*
X42497759Y-34290000D01*
X42265241Y-34445363D01*
X42065363Y-34645241D01*
X41908320Y-34880273D01*
X41800147Y-35141426D01*
X41745000Y-35418665D01*
X41745000Y-35701335D01*
X41800147Y-35978574D01*
X41908320Y-36239727D01*
X42065363Y-36474759D01*
X42265241Y-36674637D01*
X42497759Y-36830000D01*
X42265241Y-36985363D01*
X42065363Y-37185241D01*
X41908320Y-37420273D01*
X41800147Y-37681426D01*
X41745000Y-37958665D01*
X41745000Y-38241335D01*
X41800147Y-38518574D01*
X41908320Y-38779727D01*
X42065363Y-39014759D01*
X42265241Y-39214637D01*
X42497759Y-39370000D01*
X42265241Y-39525363D01*
X42065363Y-39725241D01*
X41908320Y-39960273D01*
X41800147Y-40221426D01*
X41745000Y-40498665D01*
X41745000Y-40781335D01*
X41800147Y-41058574D01*
X41908320Y-41319727D01*
X42065363Y-41554759D01*
X42265241Y-41754637D01*
X42497759Y-41910000D01*
X42265241Y-42065363D01*
X42065363Y-42265241D01*
X41908320Y-42500273D01*
X41800147Y-42761426D01*
X41745000Y-43038665D01*
X41745000Y-43321335D01*
X41800147Y-43598574D01*
X41908320Y-43859727D01*
X42065363Y-44094759D01*
X42265241Y-44294637D01*
X42497759Y-44450000D01*
X42265241Y-44605363D01*
X42065363Y-44805241D01*
X41908320Y-45040273D01*
X41800147Y-45301426D01*
X41745000Y-45578665D01*
X41745000Y-45861335D01*
X41800147Y-46138574D01*
X41908320Y-46399727D01*
X42065363Y-46634759D01*
X42265241Y-46834637D01*
X42497759Y-46990000D01*
X42265241Y-47145363D01*
X42065363Y-47345241D01*
X41908320Y-47580273D01*
X41800147Y-47841426D01*
X41745000Y-48118665D01*
X41745000Y-48401335D01*
X41800147Y-48678574D01*
X41908320Y-48939727D01*
X42065363Y-49174759D01*
X42265241Y-49374637D01*
X42497759Y-49530000D01*
X42265241Y-49685363D01*
X42065363Y-49885241D01*
X41908320Y-50120273D01*
X41800147Y-50381426D01*
X41745000Y-50658665D01*
X41745000Y-50941335D01*
X41800147Y-51218574D01*
X41908320Y-51479727D01*
X42065363Y-51714759D01*
X42265241Y-51914637D01*
X42497759Y-52070000D01*
X42265241Y-52225363D01*
X42065363Y-52425241D01*
X41908320Y-52660273D01*
X41800147Y-52921426D01*
X41745000Y-53198665D01*
X41745000Y-53481335D01*
X41800147Y-53758574D01*
X41908320Y-54019727D01*
X42065363Y-54254759D01*
X42265241Y-54454637D01*
X42497759Y-54610000D01*
X42265241Y-54765363D01*
X42065363Y-54965241D01*
X41908320Y-55200273D01*
X41800147Y-55461426D01*
X41745000Y-55738665D01*
X41745000Y-56021335D01*
X41800147Y-56298574D01*
X41908320Y-56559727D01*
X42065363Y-56794759D01*
X42265241Y-56994637D01*
X42500273Y-57151680D01*
X42510865Y-57156067D01*
X42324869Y-57267615D01*
X42116481Y-57456586D01*
X41948963Y-57682580D01*
X41828754Y-57936913D01*
X41788096Y-58070961D01*
X41910085Y-58293000D01*
X43053000Y-58293000D01*
X43053000Y-58273000D01*
X43307000Y-58273000D01*
X43307000Y-58293000D01*
X44449915Y-58293000D01*
X44571904Y-58070961D01*
X44531246Y-57936913D01*
X44411037Y-57682580D01*
X44243519Y-57456586D01*
X44035131Y-57267615D01*
X43849135Y-57156067D01*
X43859727Y-57151680D01*
X44094759Y-56994637D01*
X44294637Y-56794759D01*
X44398043Y-56640000D01*
X44770199Y-56640000D01*
X47581355Y-59451157D01*
X47560000Y-59558514D01*
X47560000Y-59821486D01*
X47611304Y-60079405D01*
X47711939Y-60322359D01*
X47858038Y-60541013D01*
X48043987Y-60726962D01*
X48262641Y-60873061D01*
X48505595Y-60973696D01*
X48763514Y-61025000D01*
X49026486Y-61025000D01*
X49284405Y-60973696D01*
X49527359Y-60873061D01*
X49746013Y-60726962D01*
X49845000Y-60627975D01*
X49943987Y-60726962D01*
X50162641Y-60873061D01*
X50405595Y-60973696D01*
X50663514Y-61025000D01*
X50926486Y-61025000D01*
X51184405Y-60973696D01*
X51427359Y-60873061D01*
X51646013Y-60726962D01*
X51831962Y-60541013D01*
X51892775Y-60450000D01*
X55511928Y-60450000D01*
X55511928Y-60642500D01*
X55524188Y-60766982D01*
X55560498Y-60886680D01*
X55619463Y-60996994D01*
X55698815Y-61093685D01*
X55795506Y-61173037D01*
X55905820Y-61232002D01*
X56025518Y-61268312D01*
X56150000Y-61280572D01*
X58150000Y-61280572D01*
X58274482Y-61268312D01*
X58394180Y-61232002D01*
X58504494Y-61173037D01*
X58601185Y-61093685D01*
X58680537Y-60996994D01*
X58739502Y-60886680D01*
X58775812Y-60766982D01*
X58788072Y-60642500D01*
X58788072Y-58737500D01*
X58775812Y-58613018D01*
X58739502Y-58493320D01*
X58680537Y-58383006D01*
X58601185Y-58286315D01*
X58504494Y-58206963D01*
X58420554Y-58162095D01*
X58523845Y-58036235D01*
X58671255Y-57760449D01*
X58762030Y-57461204D01*
X58792681Y-57150000D01*
X58762030Y-56838796D01*
X58671255Y-56539551D01*
X58523845Y-56263765D01*
X58325463Y-56022037D01*
X58146101Y-55874837D01*
X58331315Y-55719437D01*
X58525969Y-55476923D01*
X58669571Y-55201094D01*
X58740563Y-54982980D01*
X58620594Y-54737000D01*
X57277000Y-54737000D01*
X57277000Y-54757000D01*
X57023000Y-54757000D01*
X57023000Y-54737000D01*
X55679406Y-54737000D01*
X55559437Y-54982980D01*
X55630429Y-55201094D01*
X55774031Y-55476923D01*
X55968685Y-55719437D01*
X56153899Y-55874837D01*
X55974537Y-56022037D01*
X55776155Y-56263765D01*
X55628745Y-56539551D01*
X55537970Y-56838796D01*
X55507319Y-57150000D01*
X55537970Y-57461204D01*
X55628745Y-57760449D01*
X55776155Y-58036235D01*
X55879446Y-58162095D01*
X55795506Y-58206963D01*
X55698815Y-58286315D01*
X55619463Y-58383006D01*
X55560498Y-58493320D01*
X55524188Y-58613018D01*
X55511928Y-58737500D01*
X55511928Y-58930000D01*
X51892775Y-58930000D01*
X51831962Y-58838987D01*
X51646013Y-58653038D01*
X51427359Y-58506939D01*
X51184405Y-58406304D01*
X50926486Y-58355000D01*
X50663514Y-58355000D01*
X50405595Y-58406304D01*
X50162641Y-58506939D01*
X49943987Y-58653038D01*
X49845000Y-58752025D01*
X49746013Y-58653038D01*
X49527359Y-58506939D01*
X49284405Y-58406304D01*
X49026486Y-58355000D01*
X48763514Y-58355000D01*
X48656157Y-58376355D01*
X45648804Y-55369003D01*
X45625001Y-55339999D01*
X45509276Y-55245026D01*
X45377247Y-55174454D01*
X45233986Y-55130997D01*
X45122333Y-55120000D01*
X45122322Y-55120000D01*
X45085000Y-55116324D01*
X45047678Y-55120000D01*
X44398043Y-55120000D01*
X44294637Y-54965241D01*
X44094759Y-54765363D01*
X43862241Y-54610000D01*
X44094759Y-54454637D01*
X44294637Y-54254759D01*
X44306489Y-54237020D01*
X55559437Y-54237020D01*
X55679406Y-54483000D01*
X57023000Y-54483000D01*
X57023000Y-53184430D01*
X57277000Y-53184430D01*
X57277000Y-54483000D01*
X58620594Y-54483000D01*
X58740563Y-54237020D01*
X58669571Y-54018906D01*
X58525969Y-53743077D01*
X58331315Y-53500563D01*
X58093089Y-53300684D01*
X57820446Y-53151121D01*
X57523863Y-53057622D01*
X57277000Y-53184430D01*
X57023000Y-53184430D01*
X56776137Y-53057622D01*
X56479554Y-53151121D01*
X56206911Y-53300684D01*
X55968685Y-53500563D01*
X55774031Y-53743077D01*
X55630429Y-54018906D01*
X55559437Y-54237020D01*
X44306489Y-54237020D01*
X44451680Y-54019727D01*
X44559853Y-53758574D01*
X44615000Y-53481335D01*
X44615000Y-53198665D01*
X44578688Y-53016113D01*
X48196161Y-49398641D01*
X48262641Y-49443061D01*
X48505595Y-49543696D01*
X48763514Y-49595000D01*
X49026486Y-49595000D01*
X49284405Y-49543696D01*
X49527359Y-49443061D01*
X49746013Y-49296962D01*
X49845000Y-49197975D01*
X49943987Y-49296962D01*
X50162641Y-49443061D01*
X50405595Y-49543696D01*
X50663514Y-49595000D01*
X50926486Y-49595000D01*
X51184405Y-49543696D01*
X51427359Y-49443061D01*
X51646013Y-49296962D01*
X51831962Y-49111013D01*
X51892775Y-49020000D01*
X55511928Y-49020000D01*
X55511928Y-49212500D01*
X55524188Y-49336982D01*
X55560498Y-49456680D01*
X55619463Y-49566994D01*
X55698815Y-49663685D01*
X55795506Y-49743037D01*
X55905820Y-49802002D01*
X56025518Y-49838312D01*
X56150000Y-49850572D01*
X58150000Y-49850572D01*
X58274482Y-49838312D01*
X58394180Y-49802002D01*
X58504494Y-49743037D01*
X58601185Y-49663685D01*
X58680537Y-49566994D01*
X58739502Y-49456680D01*
X58775812Y-49336982D01*
X58788072Y-49212500D01*
X58788072Y-47307500D01*
X58775812Y-47183018D01*
X58739502Y-47063320D01*
X58680537Y-46953006D01*
X58601185Y-46856315D01*
X58504494Y-46776963D01*
X58420554Y-46732095D01*
X58523845Y-46606235D01*
X58671255Y-46330449D01*
X58762030Y-46031204D01*
X58792681Y-45720000D01*
X58762030Y-45408796D01*
X58671255Y-45109551D01*
X58523845Y-44833765D01*
X58325463Y-44592037D01*
X58146101Y-44444837D01*
X58331315Y-44289437D01*
X58525969Y-44046923D01*
X58669571Y-43771094D01*
X58740563Y-43552980D01*
X58620594Y-43307000D01*
X57277000Y-43307000D01*
X57277000Y-43327000D01*
X57023000Y-43327000D01*
X57023000Y-43307000D01*
X55679406Y-43307000D01*
X55559437Y-43552980D01*
X55630429Y-43771094D01*
X55774031Y-44046923D01*
X55968685Y-44289437D01*
X56153899Y-44444837D01*
X55974537Y-44592037D01*
X55776155Y-44833765D01*
X55628745Y-45109551D01*
X55537970Y-45408796D01*
X55507319Y-45720000D01*
X55537970Y-46031204D01*
X55628745Y-46330449D01*
X55776155Y-46606235D01*
X55879446Y-46732095D01*
X55795506Y-46776963D01*
X55698815Y-46856315D01*
X55619463Y-46953006D01*
X55560498Y-47063320D01*
X55524188Y-47183018D01*
X55511928Y-47307500D01*
X55511928Y-47500000D01*
X51892775Y-47500000D01*
X51831962Y-47408987D01*
X51646013Y-47223038D01*
X51427359Y-47076939D01*
X51184405Y-46976304D01*
X50926486Y-46925000D01*
X50663514Y-46925000D01*
X50405595Y-46976304D01*
X50162641Y-47076939D01*
X49943987Y-47223038D01*
X49845000Y-47322025D01*
X49746013Y-47223038D01*
X49527359Y-47076939D01*
X49284405Y-46976304D01*
X49026486Y-46925000D01*
X48763514Y-46925000D01*
X48505595Y-46976304D01*
X48262641Y-47076939D01*
X48043987Y-47223038D01*
X47858038Y-47408987D01*
X47711939Y-47627641D01*
X47637256Y-47807942D01*
X44615000Y-50830199D01*
X44615000Y-50658665D01*
X44578688Y-50476113D01*
X49406004Y-45648798D01*
X49435001Y-45625001D01*
X49529974Y-45509276D01*
X49600546Y-45377247D01*
X49644003Y-45233986D01*
X49655000Y-45122333D01*
X49655000Y-45122332D01*
X49658677Y-45085000D01*
X49655000Y-45047667D01*
X49655000Y-42807020D01*
X55559437Y-42807020D01*
X55679406Y-43053000D01*
X57023000Y-43053000D01*
X57023000Y-41754430D01*
X57277000Y-41754430D01*
X57277000Y-43053000D01*
X58620594Y-43053000D01*
X58740563Y-42807020D01*
X58669571Y-42588906D01*
X58525969Y-42313077D01*
X58331315Y-42070563D01*
X58093089Y-41870684D01*
X57820446Y-41721121D01*
X57523863Y-41627622D01*
X57277000Y-41754430D01*
X57023000Y-41754430D01*
X56776137Y-41627622D01*
X56479554Y-41721121D01*
X56206911Y-41870684D01*
X55968685Y-42070563D01*
X55774031Y-42313077D01*
X55630429Y-42588906D01*
X55559437Y-42807020D01*
X49655000Y-42807020D01*
X49655000Y-37927775D01*
X49746013Y-37866962D01*
X49845000Y-37767975D01*
X49943987Y-37866962D01*
X50162641Y-38013061D01*
X50405595Y-38113696D01*
X50663514Y-38165000D01*
X50926486Y-38165000D01*
X51184405Y-38113696D01*
X51427359Y-38013061D01*
X51646013Y-37866962D01*
X51831962Y-37681013D01*
X51892775Y-37590000D01*
X55511928Y-37590000D01*
X55511928Y-37782500D01*
X55524188Y-37906982D01*
X55560498Y-38026680D01*
X55619463Y-38136994D01*
X55698815Y-38233685D01*
X55795506Y-38313037D01*
X55905820Y-38372002D01*
X56025518Y-38408312D01*
X56150000Y-38420572D01*
X58150000Y-38420572D01*
X58274482Y-38408312D01*
X58394180Y-38372002D01*
X58504494Y-38313037D01*
X58601185Y-38233685D01*
X58680537Y-38136994D01*
X58739502Y-38026680D01*
X58775812Y-37906982D01*
X58788072Y-37782500D01*
X58788072Y-35877500D01*
X58775812Y-35753018D01*
X58739502Y-35633320D01*
X58680537Y-35523006D01*
X58601185Y-35426315D01*
X58504494Y-35346963D01*
X58420554Y-35302095D01*
X58523845Y-35176235D01*
X58671255Y-34900449D01*
X58762030Y-34601204D01*
X58792681Y-34290000D01*
X58762030Y-33978796D01*
X58671255Y-33679551D01*
X58523845Y-33403765D01*
X58325463Y-33162037D01*
X58146101Y-33014837D01*
X58331315Y-32859437D01*
X58525969Y-32616923D01*
X58669571Y-32341094D01*
X58740563Y-32122980D01*
X58620594Y-31877000D01*
X57277000Y-31877000D01*
X57277000Y-31897000D01*
X57023000Y-31897000D01*
X57023000Y-31877000D01*
X55679406Y-31877000D01*
X55559437Y-32122980D01*
X55630429Y-32341094D01*
X55774031Y-32616923D01*
X55968685Y-32859437D01*
X56153899Y-33014837D01*
X55974537Y-33162037D01*
X55776155Y-33403765D01*
X55628745Y-33679551D01*
X55537970Y-33978796D01*
X55507319Y-34290000D01*
X55537970Y-34601204D01*
X55628745Y-34900449D01*
X55776155Y-35176235D01*
X55879446Y-35302095D01*
X55795506Y-35346963D01*
X55698815Y-35426315D01*
X55619463Y-35523006D01*
X55560498Y-35633320D01*
X55524188Y-35753018D01*
X55511928Y-35877500D01*
X55511928Y-36070000D01*
X51892775Y-36070000D01*
X51831962Y-35978987D01*
X51646013Y-35793038D01*
X51427359Y-35646939D01*
X51184405Y-35546304D01*
X50926486Y-35495000D01*
X50663514Y-35495000D01*
X50405595Y-35546304D01*
X50162641Y-35646939D01*
X49943987Y-35793038D01*
X49845000Y-35892025D01*
X49746013Y-35793038D01*
X49527359Y-35646939D01*
X49284405Y-35546304D01*
X49026486Y-35495000D01*
X48763514Y-35495000D01*
X48505595Y-35546304D01*
X48262641Y-35646939D01*
X48043987Y-35793038D01*
X47858038Y-35978987D01*
X47711939Y-36197641D01*
X47611304Y-36440595D01*
X47560000Y-36698514D01*
X47560000Y-36961486D01*
X47611304Y-37219405D01*
X47711939Y-37462359D01*
X47858038Y-37681013D01*
X48043987Y-37866962D01*
X48135001Y-37927775D01*
X48135000Y-44770198D01*
X44615000Y-48290199D01*
X44615000Y-48118665D01*
X44559853Y-47841426D01*
X44451680Y-47580273D01*
X44294637Y-47345241D01*
X44094759Y-47145363D01*
X43862241Y-46990000D01*
X44094759Y-46834637D01*
X44294637Y-46634759D01*
X44451680Y-46399727D01*
X44559853Y-46138574D01*
X44615000Y-45861335D01*
X44615000Y-45578665D01*
X44559853Y-45301426D01*
X44451680Y-45040273D01*
X44294637Y-44805241D01*
X44094759Y-44605363D01*
X43862241Y-44450000D01*
X44094759Y-44294637D01*
X44294637Y-44094759D01*
X44451680Y-43859727D01*
X44559853Y-43598574D01*
X44615000Y-43321335D01*
X44615000Y-43038665D01*
X44559853Y-42761426D01*
X44451680Y-42500273D01*
X44294637Y-42265241D01*
X44094759Y-42065363D01*
X43862241Y-41910000D01*
X44094759Y-41754637D01*
X44294637Y-41554759D01*
X44451680Y-41319727D01*
X44559853Y-41058574D01*
X44615000Y-40781335D01*
X44615000Y-40498665D01*
X44559853Y-40221426D01*
X44451680Y-39960273D01*
X44294637Y-39725241D01*
X44094759Y-39525363D01*
X43862241Y-39370000D01*
X44094759Y-39214637D01*
X44294637Y-39014759D01*
X44451680Y-38779727D01*
X44559853Y-38518574D01*
X44615000Y-38241335D01*
X44615000Y-37958665D01*
X44559853Y-37681426D01*
X44451680Y-37420273D01*
X44294637Y-37185241D01*
X44094759Y-36985363D01*
X43862241Y-36830000D01*
X44094759Y-36674637D01*
X44294637Y-36474759D01*
X44451680Y-36239727D01*
X44559853Y-35978574D01*
X44615000Y-35701335D01*
X44615000Y-35418665D01*
X44559853Y-35141426D01*
X44451680Y-34880273D01*
X44294637Y-34645241D01*
X44094759Y-34445363D01*
X43862241Y-34290000D01*
X44094759Y-34134637D01*
X44294637Y-33934759D01*
X44451680Y-33699727D01*
X44559853Y-33438574D01*
X44615000Y-33161335D01*
X44615000Y-32878665D01*
X44559853Y-32601426D01*
X44451680Y-32340273D01*
X44294637Y-32105241D01*
X44094759Y-31905363D01*
X43862241Y-31750000D01*
X44094759Y-31594637D01*
X44294637Y-31394759D01*
X44306489Y-31377020D01*
X55559437Y-31377020D01*
X55679406Y-31623000D01*
X57023000Y-31623000D01*
X57023000Y-30324430D01*
X57277000Y-30324430D01*
X57277000Y-31623000D01*
X58620594Y-31623000D01*
X58740563Y-31377020D01*
X58669571Y-31158906D01*
X58525969Y-30883077D01*
X58331315Y-30640563D01*
X58093089Y-30440684D01*
X57820446Y-30291121D01*
X57523863Y-30197622D01*
X57277000Y-30324430D01*
X57023000Y-30324430D01*
X56776137Y-30197622D01*
X56479554Y-30291121D01*
X56206911Y-30440684D01*
X55968685Y-30640563D01*
X55774031Y-30883077D01*
X55630429Y-31158906D01*
X55559437Y-31377020D01*
X44306489Y-31377020D01*
X44451680Y-31159727D01*
X44559853Y-30898574D01*
X44615000Y-30621335D01*
X44615000Y-30338665D01*
X44559853Y-30061426D01*
X44451680Y-29800273D01*
X44294637Y-29565241D01*
X44094759Y-29365363D01*
X43859727Y-29208320D01*
X43598574Y-29100147D01*
X43321335Y-29045000D01*
X43038665Y-29045000D01*
X42761426Y-29100147D01*
X42500273Y-29208320D01*
X42265241Y-29365363D01*
X42065363Y-29565241D01*
X41908320Y-29800273D01*
X41800147Y-30061426D01*
X41745000Y-30338665D01*
X29825001Y-30338665D01*
X29825001Y-22752334D01*
X29828678Y-22715001D01*
X29814004Y-22566015D01*
X29770547Y-22422754D01*
X29699975Y-22290725D01*
X29628800Y-22203998D01*
X29605002Y-22175000D01*
X29576004Y-22151202D01*
X29094026Y-21669224D01*
X56060381Y-21669224D01*
X56192317Y-21964312D01*
X56533045Y-22135159D01*
X56900557Y-22236250D01*
X57280729Y-22263701D01*
X57658951Y-22216457D01*
X58020690Y-22096333D01*
X58267683Y-21964312D01*
X58399619Y-21669224D01*
X57230000Y-20499605D01*
X56060381Y-21669224D01*
X29094026Y-21669224D01*
X28494802Y-21070000D01*
X28711411Y-21070000D01*
X28978989Y-21016775D01*
X29231043Y-20912371D01*
X29457886Y-20760799D01*
X29576692Y-20641993D01*
X30337612Y-20641993D01*
X30403137Y-20880860D01*
X30650116Y-20996760D01*
X30914960Y-21062250D01*
X31187492Y-21074812D01*
X31457238Y-21033965D01*
X31713832Y-20941277D01*
X31826863Y-20880860D01*
X31892388Y-20641993D01*
X31115000Y-19864605D01*
X30337612Y-20641993D01*
X29576692Y-20641993D01*
X29650799Y-20567886D01*
X29802371Y-20341043D01*
X29843511Y-20241721D01*
X29858723Y-20283832D01*
X29919140Y-20396863D01*
X30158007Y-20462388D01*
X30935395Y-19685000D01*
X31294605Y-19685000D01*
X32071993Y-20462388D01*
X32310860Y-20396863D01*
X32323123Y-20370729D01*
X55286299Y-20370729D01*
X55333543Y-20748951D01*
X55453667Y-21110690D01*
X55585688Y-21357683D01*
X55880776Y-21489619D01*
X57050395Y-20320000D01*
X57409605Y-20320000D01*
X58579224Y-21489619D01*
X58874312Y-21357683D01*
X59045159Y-21016955D01*
X59146250Y-20649443D01*
X59173701Y-20269271D01*
X59126457Y-19891049D01*
X59006333Y-19529310D01*
X58874312Y-19282317D01*
X58579224Y-19150381D01*
X57409605Y-20320000D01*
X57050395Y-20320000D01*
X55880776Y-19150381D01*
X55585688Y-19282317D01*
X55414841Y-19623045D01*
X55313750Y-19990557D01*
X55286299Y-20370729D01*
X32323123Y-20370729D01*
X32426760Y-20149884D01*
X32492250Y-19885040D01*
X32504812Y-19612508D01*
X32463965Y-19342762D01*
X32371277Y-19086168D01*
X32310860Y-18973137D01*
X32302254Y-18970776D01*
X56060381Y-18970776D01*
X57230000Y-20140395D01*
X58350395Y-19020000D01*
X60291928Y-19020000D01*
X60291928Y-21620000D01*
X60304188Y-21744482D01*
X60340498Y-21864180D01*
X60399463Y-21974494D01*
X60478815Y-22071185D01*
X60575506Y-22150537D01*
X60685820Y-22209502D01*
X60805518Y-22245812D01*
X60930000Y-22258072D01*
X62916493Y-22258072D01*
X63615000Y-22956579D01*
X63615001Y-33232108D01*
X63604401Y-33230000D01*
X63395599Y-33230000D01*
X63190809Y-33270735D01*
X62997902Y-33350640D01*
X62824289Y-33466644D01*
X62676644Y-33614289D01*
X62560640Y-33787902D01*
X62480735Y-33980809D01*
X62440000Y-34185599D01*
X62440000Y-34394401D01*
X62480735Y-34599191D01*
X62560640Y-34792098D01*
X62676644Y-34965711D01*
X62824289Y-35113356D01*
X62997902Y-35229360D01*
X63190809Y-35309265D01*
X63395599Y-35350000D01*
X63604401Y-35350000D01*
X63615000Y-35347892D01*
X63615001Y-44662108D01*
X63604401Y-44660000D01*
X63395599Y-44660000D01*
X63190809Y-44700735D01*
X62997902Y-44780640D01*
X62824289Y-44896644D01*
X62676644Y-45044289D01*
X62560640Y-45217902D01*
X62480735Y-45410809D01*
X62440000Y-45615599D01*
X62440000Y-45824401D01*
X62480735Y-46029191D01*
X62560640Y-46222098D01*
X62676644Y-46395711D01*
X62824289Y-46543356D01*
X62997902Y-46659360D01*
X63190809Y-46739265D01*
X63395599Y-46780000D01*
X63604401Y-46780000D01*
X63615000Y-46777892D01*
X63615001Y-56092108D01*
X63604401Y-56090000D01*
X63395599Y-56090000D01*
X63190809Y-56130735D01*
X62997902Y-56210640D01*
X62824289Y-56326644D01*
X62676644Y-56474289D01*
X62560640Y-56647902D01*
X62480735Y-56840809D01*
X62440000Y-57045599D01*
X62440000Y-57254401D01*
X62480735Y-57459191D01*
X62560640Y-57652098D01*
X62676644Y-57825711D01*
X62824289Y-57973356D01*
X62997902Y-58089360D01*
X63190809Y-58169265D01*
X63395599Y-58210000D01*
X63604401Y-58210000D01*
X63809191Y-58169265D01*
X63826397Y-58162138D01*
X63830820Y-58164502D01*
X63950518Y-58200812D01*
X64075000Y-58213072D01*
X64925000Y-58213072D01*
X65049482Y-58200812D01*
X65169180Y-58164502D01*
X65279494Y-58105537D01*
X65376185Y-58026185D01*
X65455537Y-57929494D01*
X65514502Y-57819180D01*
X65550812Y-57699482D01*
X65563072Y-57575000D01*
X65563072Y-56725000D01*
X65550812Y-56600518D01*
X65514502Y-56480820D01*
X65455537Y-56370506D01*
X65385000Y-56284556D01*
X65385000Y-46585444D01*
X65455537Y-46499494D01*
X65514502Y-46389180D01*
X65550812Y-46269482D01*
X65563072Y-46145000D01*
X65563072Y-45295000D01*
X65550812Y-45170518D01*
X65514502Y-45050820D01*
X65455537Y-44940506D01*
X65385000Y-44854556D01*
X65385000Y-35155444D01*
X65455537Y-35069494D01*
X65514502Y-34959180D01*
X65550812Y-34839482D01*
X65563072Y-34715000D01*
X65563072Y-33865000D01*
X65550812Y-33740518D01*
X65514502Y-33620820D01*
X65455537Y-33510506D01*
X65385000Y-33424556D01*
X65385000Y-22926579D01*
X66170001Y-23711580D01*
X66170002Y-68815684D01*
X65940250Y-68720518D01*
X65585732Y-68650000D01*
X65224268Y-68650000D01*
X64869750Y-68720518D01*
X64535801Y-68858844D01*
X64235256Y-69059662D01*
X63979662Y-69315256D01*
X63778844Y-69615801D01*
X63640518Y-69949750D01*
X63570000Y-70304268D01*
X63570000Y-70665732D01*
X63640518Y-71020250D01*
X63778844Y-71354199D01*
X63979662Y-71654744D01*
X64235256Y-71910338D01*
X64535801Y-72111156D01*
X64869750Y-72249482D01*
X65224268Y-72320000D01*
X65585732Y-72320000D01*
X65940250Y-72249482D01*
X66170002Y-72154316D01*
X66170002Y-72428419D01*
X65991493Y-72606928D01*
X64455000Y-72606928D01*
X64281746Y-72623992D01*
X64115150Y-72674528D01*
X63961614Y-72756595D01*
X63827038Y-72867038D01*
X63716595Y-73001614D01*
X63634528Y-73155150D01*
X63583992Y-73321746D01*
X63566928Y-73495000D01*
X63566928Y-75395000D01*
X63583992Y-75568254D01*
X63634528Y-75734850D01*
X63716595Y-75888386D01*
X63827038Y-76022962D01*
X63961614Y-76133405D01*
X64115150Y-76215472D01*
X64281746Y-76266008D01*
X64455000Y-76283072D01*
X66355000Y-76283072D01*
X66528254Y-76266008D01*
X66694850Y-76215472D01*
X66848386Y-76133405D01*
X66982962Y-76022962D01*
X67093405Y-75888386D01*
X67175472Y-75734850D01*
X67226008Y-75568254D01*
X67243072Y-75395000D01*
X67243072Y-73858507D01*
X67650050Y-73451529D01*
X67683818Y-73423816D01*
X67767586Y-73321746D01*
X67794412Y-73289058D01*
X67836660Y-73210016D01*
X67876590Y-73135312D01*
X67927196Y-72968489D01*
X67940001Y-72838476D01*
X67940001Y-72838468D01*
X67944282Y-72794999D01*
X67940001Y-72751530D01*
X67940001Y-23388466D01*
X67944282Y-23345000D01*
X67940001Y-23301534D01*
X67940001Y-23301524D01*
X67927196Y-23171511D01*
X67876590Y-23004688D01*
X67794412Y-22850942D01*
X67770211Y-22821453D01*
X67711533Y-22749954D01*
X67711531Y-22749952D01*
X67683818Y-22716184D01*
X67650051Y-22688472D01*
X64686534Y-19724956D01*
X64658817Y-19691183D01*
X64524059Y-19580589D01*
X64370313Y-19498411D01*
X64203490Y-19447805D01*
X64168072Y-19444317D01*
X64168072Y-19020000D01*
X64155812Y-18895518D01*
X64119502Y-18775820D01*
X64060537Y-18665506D01*
X63981185Y-18568815D01*
X63884494Y-18489463D01*
X63774180Y-18430498D01*
X63654482Y-18394188D01*
X63530000Y-18381928D01*
X60930000Y-18381928D01*
X60805518Y-18394188D01*
X60685820Y-18430498D01*
X60575506Y-18489463D01*
X60478815Y-18568815D01*
X60399463Y-18665506D01*
X60340498Y-18775820D01*
X60304188Y-18895518D01*
X60291928Y-19020000D01*
X58350395Y-19020000D01*
X58399619Y-18970776D01*
X58267683Y-18675688D01*
X57926955Y-18504841D01*
X57559443Y-18403750D01*
X57179271Y-18376299D01*
X56801049Y-18423543D01*
X56439310Y-18543667D01*
X56192317Y-18675688D01*
X56060381Y-18970776D01*
X32302254Y-18970776D01*
X32071993Y-18907612D01*
X31294605Y-19685000D01*
X30935395Y-19685000D01*
X30158007Y-18907612D01*
X29919140Y-18973137D01*
X29844836Y-19131477D01*
X29802371Y-19028957D01*
X29650799Y-18802114D01*
X29576692Y-18728007D01*
X30337612Y-18728007D01*
X31115000Y-19505395D01*
X31892388Y-18728007D01*
X31826863Y-18489140D01*
X31579884Y-18373240D01*
X31315040Y-18307750D01*
X31042508Y-18295188D01*
X30772762Y-18336035D01*
X30516168Y-18428723D01*
X30403137Y-18489140D01*
X30337612Y-18728007D01*
X29576692Y-18728007D01*
X29457886Y-18609201D01*
X29231043Y-18457629D01*
X28978989Y-18353225D01*
X28711411Y-18300000D01*
X28438589Y-18300000D01*
X28171011Y-18353225D01*
X27918957Y-18457629D01*
X27692114Y-18609201D01*
X27499201Y-18802114D01*
X27347629Y-19028957D01*
X27305000Y-19131873D01*
X27262371Y-19028957D01*
X27110799Y-18802114D01*
X26917886Y-18609201D01*
X26691043Y-18457629D01*
X26438989Y-18353225D01*
X26171411Y-18300000D01*
X25898589Y-18300000D01*
X25631011Y-18353225D01*
X25378957Y-18457629D01*
X25152114Y-18609201D01*
X24959201Y-18802114D01*
X24881445Y-18918483D01*
X24870812Y-18810518D01*
X24834502Y-18690820D01*
X24775537Y-18580506D01*
X24696185Y-18483815D01*
X24599494Y-18404463D01*
X24489180Y-18345498D01*
X24369482Y-18309188D01*
X24245000Y-18296928D01*
X22745000Y-18296928D01*
X22620518Y-18309188D01*
X22500820Y-18345498D01*
X22390506Y-18404463D01*
X22293815Y-18483815D01*
X22214463Y-18580506D01*
X22155498Y-18690820D01*
X22119188Y-18810518D01*
X22106928Y-18935000D01*
X22106928Y-19998270D01*
X21078998Y-21026201D01*
X21050000Y-21049999D01*
X21026202Y-21078997D01*
X21026201Y-21078998D01*
X20955026Y-21165724D01*
X20884454Y-21297754D01*
X20840998Y-21441015D01*
X20826324Y-21590000D01*
X20830001Y-21627332D01*
X20830000Y-31922225D01*
X20738987Y-31983038D01*
X20553038Y-32168987D01*
X20406939Y-32387641D01*
X20306304Y-32630595D01*
X20255000Y-32888514D01*
X20255000Y-33151486D01*
X20306304Y-33409405D01*
X20406939Y-33652359D01*
X20553038Y-33871013D01*
X20738987Y-34056962D01*
X20957641Y-34203061D01*
X21200595Y-34303696D01*
X21458514Y-34355000D01*
X21721486Y-34355000D01*
X21979405Y-34303696D01*
X22222359Y-34203061D01*
X22441013Y-34056962D01*
X22626962Y-33871013D01*
X22687775Y-33780000D01*
X26721957Y-33780000D01*
X26825363Y-33934759D01*
X27025241Y-34134637D01*
X27257759Y-34290000D01*
X27025241Y-34445363D01*
X26825363Y-34645241D01*
X26668320Y-34880273D01*
X26560147Y-35141426D01*
X26505000Y-35418665D01*
X26505000Y-35701335D01*
X26560147Y-35978574D01*
X26668320Y-36239727D01*
X26825363Y-36474759D01*
X27025241Y-36674637D01*
X27257759Y-36830000D01*
X27025241Y-36985363D01*
X26825363Y-37185241D01*
X26721957Y-37340000D01*
X22687775Y-37340000D01*
X22626962Y-37248987D01*
X22441013Y-37063038D01*
X22222359Y-36916939D01*
X21979405Y-36816304D01*
X21721486Y-36765000D01*
X21458514Y-36765000D01*
X21200595Y-36816304D01*
X20957641Y-36916939D01*
X20738987Y-37063038D01*
X20553038Y-37248987D01*
X20406939Y-37467641D01*
X20306304Y-37710595D01*
X20255000Y-37968514D01*
X20255000Y-38231486D01*
X20306304Y-38489405D01*
X20406939Y-38732359D01*
X20553038Y-38951013D01*
X20738987Y-39136962D01*
X20957641Y-39283061D01*
X21200595Y-39383696D01*
X21458514Y-39435000D01*
X21721486Y-39435000D01*
X21979405Y-39383696D01*
X22222359Y-39283061D01*
X22441013Y-39136962D01*
X22626962Y-38951013D01*
X22687775Y-38860000D01*
X26721957Y-38860000D01*
X26825363Y-39014759D01*
X27025241Y-39214637D01*
X27257759Y-39370000D01*
X27025241Y-39525363D01*
X26825363Y-39725241D01*
X26668320Y-39960273D01*
X26560147Y-40221426D01*
X26505000Y-40498665D01*
X26505000Y-40781335D01*
X26541312Y-40963886D01*
X25085199Y-42420000D01*
X24964067Y-42420000D01*
X24900711Y-42356644D01*
X24727098Y-42240640D01*
X24534191Y-42160735D01*
X24329401Y-42120000D01*
X24120599Y-42120000D01*
X23915809Y-42160735D01*
X23725000Y-42239771D01*
X23534191Y-42160735D01*
X23329401Y-42120000D01*
X23120599Y-42120000D01*
X22915809Y-42160735D01*
X22898603Y-42167862D01*
X22894180Y-42165498D01*
X22774482Y-42129188D01*
X22650000Y-42116928D01*
X22510750Y-42120000D01*
X22352000Y-42278750D01*
X22352000Y-42578587D01*
X22285640Y-42677902D01*
X22205735Y-42870809D01*
X22165000Y-43075599D01*
X22165000Y-43284401D01*
X22205735Y-43489191D01*
X22285640Y-43682098D01*
X22352000Y-43781413D01*
X22352000Y-44081250D01*
X22465000Y-44194250D01*
X22465001Y-45975749D01*
X22352000Y-46088750D01*
X22352000Y-46388587D01*
X22285640Y-46487902D01*
X22205735Y-46680809D01*
X22165000Y-46885599D01*
X22165000Y-47094401D01*
X22173473Y-47137000D01*
X22098000Y-47137000D01*
X22098000Y-47117000D01*
X21323750Y-47117000D01*
X21165000Y-47275750D01*
X21161928Y-47415000D01*
X21174188Y-47539482D01*
X21210498Y-47659180D01*
X21269463Y-47769494D01*
X21348815Y-47866185D01*
X21445506Y-47945537D01*
X21555820Y-48004502D01*
X21675518Y-48040812D01*
X21698193Y-48043045D01*
X19808998Y-49932241D01*
X19780000Y-49956039D01*
X19756202Y-49985037D01*
X19756201Y-49985038D01*
X19685026Y-50071764D01*
X19614454Y-50203794D01*
X19603306Y-50240546D01*
X19570998Y-50347054D01*
X19560001Y-50458707D01*
X19556324Y-50496040D01*
X19560001Y-50533372D01*
X19560000Y-55842667D01*
X19556323Y-55880000D01*
X19075000Y-55880000D01*
X19075000Y-46565000D01*
X21161928Y-46565000D01*
X21165000Y-46704250D01*
X21323750Y-46863000D01*
X22098000Y-46863000D01*
X22098000Y-46088750D01*
X21939250Y-45930000D01*
X21800000Y-45926928D01*
X21675518Y-45939188D01*
X21555820Y-45975498D01*
X21445506Y-46034463D01*
X21348815Y-46113815D01*
X21269463Y-46210506D01*
X21210498Y-46320820D01*
X21174188Y-46440518D01*
X21161928Y-46565000D01*
X19075000Y-46565000D01*
X19075000Y-43605000D01*
X21161928Y-43605000D01*
X21174188Y-43729482D01*
X21210498Y-43849180D01*
X21269463Y-43959494D01*
X21348815Y-44056185D01*
X21445506Y-44135537D01*
X21555820Y-44194502D01*
X21675518Y-44230812D01*
X21800000Y-44243072D01*
X21939250Y-44240000D01*
X22098000Y-44081250D01*
X22098000Y-43307000D01*
X21323750Y-43307000D01*
X21165000Y-43465750D01*
X21161928Y-43605000D01*
X19075000Y-43605000D01*
X19075000Y-42755000D01*
X21161928Y-42755000D01*
X21165000Y-42894250D01*
X21323750Y-43053000D01*
X22098000Y-43053000D01*
X22098000Y-42278750D01*
X21939250Y-42120000D01*
X21800000Y-42116928D01*
X21675518Y-42129188D01*
X21555820Y-42165498D01*
X21445506Y-42224463D01*
X21348815Y-42303815D01*
X21269463Y-42400506D01*
X21210498Y-42510820D01*
X21174188Y-42630518D01*
X21161928Y-42755000D01*
X19075000Y-42755000D01*
X19075000Y-14630000D01*
X69825000Y-14630000D01*
X69825001Y-76810000D01*
G37*
%TD.AperFunction*%
D25*
X23613998Y-48971201D02*
X23585000Y-48994999D01*
X23561202Y-49023997D01*
X23561201Y-49023998D01*
X23490026Y-49110724D01*
X23419454Y-49242754D01*
X23403011Y-49296962D01*
X23382373Y-49365000D01*
X23375998Y-49386015D01*
X23361324Y-49535000D01*
X23365001Y-49572332D01*
X23365001Y-50337225D01*
X23273987Y-50398038D01*
X23088038Y-50583987D01*
X22941939Y-50802641D01*
X22874746Y-50964859D01*
X22404605Y-51435000D01*
X22418748Y-51449143D01*
X22239143Y-51628748D01*
X22225000Y-51614605D01*
X21483336Y-52356269D01*
X21542797Y-52590037D01*
X21781242Y-52700934D01*
X22036740Y-52763183D01*
X22299473Y-52774390D01*
X22559344Y-52734125D01*
X22735001Y-52669991D01*
X22735000Y-54846972D01*
X22599401Y-54820000D01*
X22390599Y-54820000D01*
X22185809Y-54860735D01*
X21992902Y-54940640D01*
X21819289Y-55056644D01*
X21755933Y-55120000D01*
X21080000Y-55120000D01*
X21080000Y-52119756D01*
X21303731Y-52176664D01*
X22045395Y-51435000D01*
X22031253Y-51420858D01*
X22210858Y-51241253D01*
X22225000Y-51255395D01*
X22966664Y-50513731D01*
X22907203Y-50279963D01*
X22668758Y-50169066D01*
X22413260Y-50106817D01*
X22150527Y-50095610D01*
X21890656Y-50135875D01*
X21676935Y-50213906D01*
X23736009Y-48154834D01*
X23765001Y-48131041D01*
X23788795Y-48102048D01*
X23788799Y-48102044D01*
X23859973Y-48015317D01*
X23859974Y-48015316D01*
X23872743Y-47991427D01*
X23915809Y-48009265D01*
X24120599Y-48050000D01*
X24329401Y-48050000D01*
X24534191Y-48009265D01*
X24605450Y-47979748D01*
X23613998Y-48971201D01*
%TA.AperFunction,Conductor*%
D26*
G36*
X23613998Y-48971201D02*
G01*
X23585000Y-48994999D01*
X23561202Y-49023997D01*
X23561201Y-49023998D01*
X23490026Y-49110724D01*
X23419454Y-49242754D01*
X23403011Y-49296962D01*
X23382373Y-49365000D01*
X23375998Y-49386015D01*
X23361324Y-49535000D01*
X23365001Y-49572332D01*
X23365001Y-50337225D01*
X23273987Y-50398038D01*
X23088038Y-50583987D01*
X22941939Y-50802641D01*
X22874746Y-50964859D01*
X22404605Y-51435000D01*
X22418748Y-51449143D01*
X22239143Y-51628748D01*
X22225000Y-51614605D01*
X21483336Y-52356269D01*
X21542797Y-52590037D01*
X21781242Y-52700934D01*
X22036740Y-52763183D01*
X22299473Y-52774390D01*
X22559344Y-52734125D01*
X22735001Y-52669991D01*
X22735000Y-54846972D01*
X22599401Y-54820000D01*
X22390599Y-54820000D01*
X22185809Y-54860735D01*
X21992902Y-54940640D01*
X21819289Y-55056644D01*
X21755933Y-55120000D01*
X21080000Y-55120000D01*
X21080000Y-52119756D01*
X21303731Y-52176664D01*
X22045395Y-51435000D01*
X22031253Y-51420858D01*
X22210858Y-51241253D01*
X22225000Y-51255395D01*
X22966664Y-50513731D01*
X22907203Y-50279963D01*
X22668758Y-50169066D01*
X22413260Y-50106817D01*
X22150527Y-50095610D01*
X21890656Y-50135875D01*
X21676935Y-50213906D01*
X23736009Y-48154834D01*
X23765001Y-48131041D01*
X23788795Y-48102048D01*
X23788799Y-48102044D01*
X23859973Y-48015317D01*
X23859974Y-48015316D01*
X23872743Y-47991427D01*
X23915809Y-48009265D01*
X24120599Y-48050000D01*
X24329401Y-48050000D01*
X24534191Y-48009265D01*
X24605450Y-47979748D01*
X23613998Y-48971201D01*
G37*
%TD.AperFunction*%
%TD*%
M02*
