M48
; DRILL file {KiCad 5.1.12-84ad8e8a86~92~ubuntu20.04.1} date Wed 12 Jan 2022 20:26:07
; FORMAT={-:-/ absolute / inch / decimal}
; #@! TF.CreationDate,2022-01-12T20:26:07+11:00
; #@! TF.GenerationSoftware,Kicad,Pcbnew,5.1.12-84ad8e8a86~92~ubuntu20.04.1
; #@! TF.FileFunction,Plated,1,2,PTH
FMAT,2
INCH
T1C0.0276
T2C0.0315
T3C0.0394
T4C0.0433
T5C0.0472
T6C0.0512
T7C0.0551
%
G90
G05
T1
X0.9Y-1.4252
X0.9Y-1.5
X0.925Y-2.4752
X0.925Y-2.55
X1.975Y-1.45
X1.975Y-1.9
X1.975Y-2.35
X2.0498Y-1.45
X2.0498Y-1.9
X2.0498Y-2.35
T2
X0.925Y-0.675
X0.925Y-0.775
X0.925Y-0.875
X0.925Y-0.975
X1.15Y-1.2
X1.15Y-1.3
X1.15Y-1.4
X1.15Y-1.5
X1.15Y-1.6
X1.15Y-1.7
X1.15Y-1.8
X1.15Y-1.9
X1.15Y-2.0
X1.15Y-2.1
X1.15Y-2.2
X1.15Y-2.3
X1.15Y-2.4
X1.15Y-2.5
X1.15Y-2.6
X1.75Y-1.2
X1.75Y-1.3
X1.75Y-1.4
X1.75Y-1.5
X1.75Y-1.6
X1.75Y-1.7
X1.75Y-1.8
X1.75Y-1.9
X1.75Y-2.0
X1.75Y-2.1
X1.75Y-2.2
X1.75Y-2.3
X1.75Y-2.4
X1.75Y-2.5
X1.75Y-2.6
T3
X0.925Y-1.7
X0.925Y-1.8
X0.925Y-1.9
X0.925Y-2.1
X0.925Y-2.2
X0.925Y-2.3
X0.925Y-2.775
X0.925Y-2.875
X1.25Y-2.9
X1.35Y-2.9
X1.45Y-2.9
X1.55Y-2.9
X2.4894Y-1.35
X2.4894Y-1.8
X2.4894Y-2.25
X2.5894Y-1.35
X2.5894Y-1.8
X2.5894Y-2.25
T4
X2.3Y-1.25
X2.3Y-1.35
X2.3Y-1.45
X2.3Y-1.7
X2.3Y-1.8
X2.3Y-1.9
X2.3Y-2.15
X2.3Y-2.25
X2.3Y-2.35
T5
X1.85Y-0.7
X1.85Y-0.8
T6
X2.3031Y-0.8
X2.5Y-0.8
T7
X2.05Y-2.55
X2.05Y-2.9
X2.65Y-2.55
X2.65Y-2.9
T0
M30
