%TF.GenerationSoftware,KiCad,Pcbnew,5.1.12-84ad8e8a86~92~ubuntu18.04.1*%
%TF.CreationDate,2021-12-05T17:17:48+11:00*%
%TF.ProjectId,aquaponics-1,61717561-706f-46e6-9963-732d312e6b69,rev?*%
%TF.SameCoordinates,Original*%
%TF.FileFunction,Soldermask,Top*%
%TF.FilePolarity,Negative*%
%FSLAX46Y46*%
G04 Gerber Fmt 4.6, Leading zero omitted, Abs format (unit mm)*
G04 Created by KiCad (PCBNEW 5.1.12-84ad8e8a86~92~ubuntu18.04.1) date 2021-12-05 17:17:48*
%MOMM*%
%LPD*%
G01*
G04 APERTURE LIST*
%ADD10O,0.850000X0.850000*%
%ADD11R,0.850000X0.850000*%
%ADD12C,2.400000*%
%ADD13R,2.200000X2.200000*%
%ADD14C,1.100000*%
%ADD15C,2.200000*%
%ADD16R,1.905000X2.000000*%
%ADD17O,1.905000X2.000000*%
%ADD18C,1.400000*%
%ADD19O,1.400000X1.400000*%
%ADD20R,1.600000X1.600000*%
%ADD21O,1.600000X1.600000*%
G04 APERTURE END LIST*
D10*
%TO.C,J4*%
X53340000Y-23590000D03*
X53340000Y-22590000D03*
D11*
X53340000Y-21590000D03*
%TD*%
D12*
%TO.C,J5*%
X24130000Y-57300000D03*
G36*
G01*
X23180000Y-52140000D02*
X25080000Y-52140000D01*
G75*
G02*
X25330000Y-52390000I0J-250000D01*
G01*
X25330000Y-54290000D01*
G75*
G02*
X25080000Y-54540000I-250000J0D01*
G01*
X23180000Y-54540000D01*
G75*
G02*
X22930000Y-54290000I0J250000D01*
G01*
X22930000Y-52390000D01*
G75*
G02*
X23180000Y-52140000I250000J0D01*
G01*
G37*
%TD*%
D10*
%TO.C,J3*%
X29940000Y-22860000D03*
X28940000Y-22860000D03*
D11*
X27940000Y-22860000D03*
%TD*%
%TO.C,J1*%
G36*
G01*
X34610000Y-52140000D02*
X36510000Y-52140000D01*
G75*
G02*
X36760000Y-52390000I0J-250000D01*
G01*
X36760000Y-54290000D01*
G75*
G02*
X36510000Y-54540000I-250000J0D01*
G01*
X34610000Y-54540000D01*
G75*
G02*
X34360000Y-54290000I0J250000D01*
G01*
X34360000Y-52390000D01*
G75*
G02*
X34610000Y-52140000I250000J0D01*
G01*
G37*
D12*
X35560000Y-57300000D03*
%TD*%
D13*
%TO.C,J2*%
X27940000Y-38100000D03*
D14*
X25400000Y-38100000D03*
D15*
X27940000Y-40640000D03*
D14*
X25400000Y-40640000D03*
%TD*%
D10*
%TO.C,M1*%
X53070000Y-72390000D03*
D11*
X52070000Y-72390000D03*
%TD*%
%TO.C,M2*%
X77470000Y-72390000D03*
D10*
X78470000Y-72390000D03*
%TD*%
%TO.C,M3*%
X65770000Y-72390000D03*
D11*
X64770000Y-72390000D03*
%TD*%
D16*
%TO.C,Q1*%
X50800000Y-63500000D03*
D17*
X53340000Y-63500000D03*
X55880000Y-63500000D03*
%TD*%
D16*
%TO.C,Q2*%
X76200000Y-63500000D03*
D17*
X78740000Y-63500000D03*
X81280000Y-63500000D03*
%TD*%
%TO.C,Q3*%
X68580000Y-63500000D03*
X66040000Y-63500000D03*
D16*
X63500000Y-63500000D03*
%TD*%
D11*
%TO.C,R1*%
X73660000Y-22860000D03*
D10*
X73660000Y-23860000D03*
%TD*%
D18*
%TO.C,R2*%
X76200000Y-53340000D03*
D19*
X76200000Y-55240000D03*
%TD*%
D18*
%TO.C,R3*%
X68580000Y-22860000D03*
D19*
X70480000Y-22860000D03*
%TD*%
%TO.C,R4*%
X50800000Y-55240000D03*
D18*
X50800000Y-53340000D03*
%TD*%
D19*
%TO.C,R5*%
X63500000Y-55240000D03*
D18*
X63500000Y-53340000D03*
%TD*%
D20*
%TO.C,U1*%
X40640000Y-44450000D03*
D21*
X73660000Y-29210000D03*
X43180000Y-44450000D03*
X71120000Y-29210000D03*
X45720000Y-44450000D03*
X68580000Y-29210000D03*
X48260000Y-44450000D03*
X66040000Y-29210000D03*
X50800000Y-44450000D03*
X63500000Y-29210000D03*
X53340000Y-44450000D03*
X60960000Y-29210000D03*
X55880000Y-44450000D03*
X58420000Y-29210000D03*
X58420000Y-44450000D03*
X55880000Y-29210000D03*
X60960000Y-44450000D03*
X53340000Y-29210000D03*
X63500000Y-44450000D03*
X50800000Y-29210000D03*
X66040000Y-44450000D03*
X48260000Y-29210000D03*
X68580000Y-44450000D03*
X45720000Y-29210000D03*
X71120000Y-44450000D03*
X43180000Y-29210000D03*
X73660000Y-44450000D03*
X40640000Y-29210000D03*
X76200000Y-44450000D03*
X76200000Y-29210000D03*
%TD*%
M02*
