%TF.GenerationSoftware,KiCad,Pcbnew,5.1.12-84ad8e8a86~92~ubuntu20.04.1*%
%TF.CreationDate,2022-01-12T20:25:55+11:00*%
%TF.ProjectId,aquaponics-1,61717561-706f-46e6-9963-732d312e6b69,rev?*%
%TF.SameCoordinates,Original*%
%TF.FileFunction,Legend,Top*%
%TF.FilePolarity,Positive*%
%FSLAX46Y46*%
G04 Gerber Fmt 4.6, Leading zero omitted, Abs format (unit mm)*
G04 Created by KiCad (PCBNEW 5.1.12-84ad8e8a86~92~ubuntu20.04.1) date 2022-01-12 20:25:55*
%MOMM*%
%LPD*%
G01*
G04 APERTURE LIST*
%ADD10C,0.120000*%
%ADD11C,0.150000*%
G04 APERTURE END LIST*
D10*
%TO.C,J6*%
X30420000Y-72330000D02*
X30420000Y-74990000D01*
X38100000Y-72330000D02*
X30420000Y-72330000D01*
X38100000Y-74990000D02*
X30420000Y-74990000D01*
X38100000Y-72330000D02*
X38100000Y-74990000D01*
X39370000Y-72330000D02*
X40700000Y-72330000D01*
X40700000Y-72330000D02*
X40700000Y-73660000D01*
%TO.C,J3*%
X24825000Y-52010000D02*
X22165000Y-52010000D01*
X24825000Y-57150000D02*
X24825000Y-52010000D01*
X22165000Y-57150000D02*
X22165000Y-52010000D01*
X24825000Y-57150000D02*
X22165000Y-57150000D01*
X24825000Y-58420000D02*
X24825000Y-59750000D01*
X24825000Y-59750000D02*
X23495000Y-59750000D01*
%TO.C,J5*%
X72010000Y-73160000D02*
X72010000Y-74160000D01*
X71010000Y-73660000D02*
X72010000Y-73160000D01*
X72010000Y-74160000D02*
X71010000Y-73660000D01*
X70620000Y-63160000D02*
X70620000Y-71680000D01*
X64000000Y-63160000D02*
X70620000Y-63160000D01*
X64000000Y-71680000D02*
X64000000Y-63160000D01*
X70620000Y-75440000D02*
X70620000Y-71680000D01*
X64000000Y-75440000D02*
X70620000Y-75440000D01*
X64000000Y-71680000D02*
X64000000Y-75440000D01*
%TO.C,J1*%
X56770000Y-73160000D02*
X56770000Y-74160000D01*
X55770000Y-73660000D02*
X56770000Y-73160000D01*
X56770000Y-74160000D02*
X55770000Y-73660000D01*
X55380000Y-63160000D02*
X55380000Y-71680000D01*
X48760000Y-63160000D02*
X55380000Y-63160000D01*
X48760000Y-71680000D02*
X48760000Y-63160000D01*
X55380000Y-75440000D02*
X55380000Y-71680000D01*
X48760000Y-75440000D02*
X55380000Y-75440000D01*
X48760000Y-71680000D02*
X48760000Y-75440000D01*
%TO.C,J4*%
X24825000Y-41850000D02*
X22165000Y-41850000D01*
X24825000Y-46990000D02*
X24825000Y-41850000D01*
X22165000Y-46990000D02*
X22165000Y-41850000D01*
X24825000Y-46990000D02*
X22165000Y-46990000D01*
X24825000Y-48260000D02*
X24825000Y-49590000D01*
X24825000Y-49590000D02*
X23495000Y-49590000D01*
%TO.C,R6*%
X23609359Y-37779905D02*
G75*
G02*
X22160000Y-37682867I-749359J-320095D01*
G01*
%TO.C,R1*%
X22165000Y-74355000D02*
X24825000Y-74355000D01*
X22165000Y-71755000D02*
X22165000Y-74355000D01*
X24825000Y-71755000D02*
X24825000Y-74355000D01*
X22165000Y-71755000D02*
X24825000Y-71755000D01*
X22165000Y-70485000D02*
X22165000Y-69155000D01*
X22165000Y-69155000D02*
X23495000Y-69155000D01*
%TO.C,M3*%
X61900000Y-44390000D02*
X61900000Y-47050000D01*
X64500000Y-44390000D02*
X61900000Y-44390000D01*
X64500000Y-47050000D02*
X61900000Y-47050000D01*
X64500000Y-44390000D02*
X64500000Y-47050000D01*
X65770000Y-44390000D02*
X67100000Y-44390000D01*
X67100000Y-44390000D02*
X67100000Y-45720000D01*
%TO.C,M2*%
X61900000Y-32960000D02*
X61900000Y-35620000D01*
X64500000Y-32960000D02*
X61900000Y-32960000D01*
X64500000Y-35620000D02*
X61900000Y-35620000D01*
X64500000Y-32960000D02*
X64500000Y-35620000D01*
X65770000Y-32960000D02*
X67100000Y-32960000D01*
X67100000Y-32960000D02*
X67100000Y-34290000D01*
%TO.C,M1*%
X61900000Y-55820000D02*
X61900000Y-58480000D01*
X64500000Y-55820000D02*
X61900000Y-55820000D01*
X64500000Y-58480000D02*
X61900000Y-58480000D01*
X64500000Y-55820000D02*
X64500000Y-58480000D01*
X65770000Y-55820000D02*
X67100000Y-55820000D01*
X67100000Y-55820000D02*
X67100000Y-57150000D01*
%TO.C,J2*%
X65680000Y-20320000D02*
G75*
G03*
X65680000Y-20320000I-2180000J0D01*
G01*
X60680000Y-20320000D02*
G75*
G03*
X60680000Y-20320000I-2180000J0D01*
G01*
X66060000Y-15720000D02*
X55940000Y-15720000D01*
X66060000Y-16820000D02*
X55940000Y-16820000D01*
X66060000Y-24380000D02*
X55940000Y-24380000D01*
X66060000Y-15260000D02*
X55940000Y-15260000D01*
X66060000Y-24380000D02*
X66060000Y-15260000D01*
X55940000Y-24380000D02*
X55940000Y-15260000D01*
X61846000Y-21708000D02*
X61953000Y-21601000D01*
X64782000Y-18773000D02*
X64888000Y-18666000D01*
X62112000Y-21974000D02*
X62219000Y-21867000D01*
X65048000Y-19039000D02*
X65154000Y-18932000D01*
X56846000Y-21708000D02*
X57241000Y-21312000D01*
X59507000Y-19046000D02*
X59887000Y-18666000D01*
X57112000Y-21974000D02*
X57492000Y-21594000D01*
X59758000Y-19328000D02*
X60153000Y-18932000D01*
X66300000Y-15660000D02*
X66300000Y-15020000D01*
X66300000Y-15020000D02*
X65900000Y-15020000D01*
%TO.C,U1*%
X43180000Y-64770000D02*
X43180000Y-67310000D01*
X43180000Y-67310000D02*
X45847000Y-67310000D01*
X45847000Y-64770000D02*
X45847000Y-26543000D01*
X45847000Y-69977000D02*
X45847000Y-67310000D01*
X30480000Y-67310000D02*
X27810000Y-67310000D01*
X30480000Y-67310000D02*
X30480000Y-29210000D01*
X30480000Y-29210000D02*
X27810000Y-29210000D01*
X43180000Y-64770000D02*
X45847000Y-64770000D01*
X43180000Y-64770000D02*
X43180000Y-29210000D01*
X43180000Y-29210000D02*
X45850000Y-29210000D01*
X45847000Y-26543000D02*
X40767000Y-26543000D01*
X27813000Y-26543000D02*
X27813000Y-69977000D01*
X27813000Y-69977000D02*
X45847000Y-69977000D01*
X40767000Y-24003000D02*
X40767000Y-26543000D01*
X32893000Y-26543000D02*
X27813000Y-26543000D01*
X32893000Y-24003000D02*
X32893000Y-26543000D01*
X40767000Y-24003000D02*
X32893000Y-24003000D01*
%TO.C,U2*%
X26365000Y-27085000D02*
X20625000Y-27085000D01*
X20615000Y-27085000D02*
X20615000Y-14825000D01*
X20615000Y-14825000D02*
X26375000Y-14825000D01*
X26375000Y-14825000D02*
X26375000Y-27075000D01*
X26655000Y-27365000D02*
X26655000Y-25365000D01*
X26655000Y-27365000D02*
X25045000Y-27365000D01*
%TO.C,Q3*%
X55150000Y-50840000D02*
X55150000Y-40600000D01*
X59791000Y-50840000D02*
X59791000Y-40600000D01*
X55150000Y-50840000D02*
X59791000Y-50840000D01*
X55150000Y-40600000D02*
X59791000Y-40600000D01*
X56660000Y-50840000D02*
X56660000Y-40600000D01*
X55150000Y-47570000D02*
X56660000Y-47570000D01*
X55150000Y-43869000D02*
X56660000Y-43869000D01*
%TO.C,Q1*%
X55150000Y-62270000D02*
X55150000Y-52030000D01*
X59791000Y-62270000D02*
X59791000Y-52030000D01*
X55150000Y-62270000D02*
X59791000Y-62270000D01*
X55150000Y-52030000D02*
X59791000Y-52030000D01*
X56660000Y-62270000D02*
X56660000Y-52030000D01*
X55150000Y-59000000D02*
X56660000Y-59000000D01*
X55150000Y-55299000D02*
X56660000Y-55299000D01*
%TO.C,Q2*%
X55150000Y-39410000D02*
X55150000Y-29170000D01*
X59791000Y-39410000D02*
X59791000Y-29170000D01*
X55150000Y-39410000D02*
X59791000Y-39410000D01*
X55150000Y-29170000D02*
X59791000Y-29170000D01*
X56660000Y-39410000D02*
X56660000Y-29170000D01*
X55150000Y-36140000D02*
X56660000Y-36140000D01*
X55150000Y-32439000D02*
X56660000Y-32439000D01*
%TO.C,R2*%
X50485095Y-37579359D02*
G75*
G02*
X50582133Y-36130000I-320095J749359D01*
G01*
%TO.C,R3*%
X24244359Y-64449905D02*
G75*
G02*
X22795000Y-64352867I-749359J-320095D01*
G01*
%TO.C,R4*%
X50485095Y-60439359D02*
G75*
G02*
X50582133Y-58990000I-320095J749359D01*
G01*
%TO.C,R5*%
X50485095Y-49009359D02*
G75*
G02*
X50582133Y-47560000I-320095J749359D01*
G01*
%TO.C,D1*%
X45795268Y-19236371D02*
G75*
G02*
X48110000Y-19294596I1194732J1456371D01*
G01*
%TO.C,J6*%
D11*
X41152380Y-73993333D02*
X41866666Y-73993333D01*
X42009523Y-74040952D01*
X42104761Y-74136190D01*
X42152380Y-74279047D01*
X42152380Y-74374285D01*
X41152380Y-73088571D02*
X41152380Y-73279047D01*
X41200000Y-73374285D01*
X41247619Y-73421904D01*
X41390476Y-73517142D01*
X41580952Y-73564761D01*
X41961904Y-73564761D01*
X42057142Y-73517142D01*
X42104761Y-73469523D01*
X42152380Y-73374285D01*
X42152380Y-73183809D01*
X42104761Y-73088571D01*
X42057142Y-73040952D01*
X41961904Y-72993333D01*
X41723809Y-72993333D01*
X41628571Y-73040952D01*
X41580952Y-73088571D01*
X41533333Y-73183809D01*
X41533333Y-73374285D01*
X41580952Y-73469523D01*
X41628571Y-73517142D01*
X41723809Y-73564761D01*
%TO.C,J3*%
X23161666Y-60202380D02*
X23161666Y-60916666D01*
X23114047Y-61059523D01*
X23018809Y-61154761D01*
X22875952Y-61202380D01*
X22780714Y-61202380D01*
X23542619Y-60202380D02*
X24161666Y-60202380D01*
X23828333Y-60583333D01*
X23971190Y-60583333D01*
X24066428Y-60630952D01*
X24114047Y-60678571D01*
X24161666Y-60773809D01*
X24161666Y-61011904D01*
X24114047Y-61107142D01*
X24066428Y-61154761D01*
X23971190Y-61202380D01*
X23685476Y-61202380D01*
X23590238Y-61154761D01*
X23542619Y-61107142D01*
%TO.C,J5*%
X62362380Y-72013333D02*
X63076666Y-72013333D01*
X63219523Y-72060952D01*
X63314761Y-72156190D01*
X63362380Y-72299047D01*
X63362380Y-72394285D01*
X62362380Y-71060952D02*
X62362380Y-71537142D01*
X62838571Y-71584761D01*
X62790952Y-71537142D01*
X62743333Y-71441904D01*
X62743333Y-71203809D01*
X62790952Y-71108571D01*
X62838571Y-71060952D01*
X62933809Y-71013333D01*
X63171904Y-71013333D01*
X63267142Y-71060952D01*
X63314761Y-71108571D01*
X63362380Y-71203809D01*
X63362380Y-71441904D01*
X63314761Y-71537142D01*
X63267142Y-71584761D01*
%TO.C,J1*%
X47122380Y-72013333D02*
X47836666Y-72013333D01*
X47979523Y-72060952D01*
X48074761Y-72156190D01*
X48122380Y-72299047D01*
X48122380Y-72394285D01*
X48122380Y-71013333D02*
X48122380Y-71584761D01*
X48122380Y-71299047D02*
X47122380Y-71299047D01*
X47265238Y-71394285D01*
X47360476Y-71489523D01*
X47408095Y-71584761D01*
%TO.C,J4*%
X23161666Y-50042380D02*
X23161666Y-50756666D01*
X23114047Y-50899523D01*
X23018809Y-50994761D01*
X22875952Y-51042380D01*
X22780714Y-51042380D01*
X24066428Y-50375714D02*
X24066428Y-51042380D01*
X23828333Y-49994761D02*
X23590238Y-50709047D01*
X24209285Y-50709047D01*
%TO.C,R6*%
X21392380Y-37316666D02*
X20916190Y-37650000D01*
X21392380Y-37888095D02*
X20392380Y-37888095D01*
X20392380Y-37507142D01*
X20440000Y-37411904D01*
X20487619Y-37364285D01*
X20582857Y-37316666D01*
X20725714Y-37316666D01*
X20820952Y-37364285D01*
X20868571Y-37411904D01*
X20916190Y-37507142D01*
X20916190Y-37888095D01*
X20392380Y-36459523D02*
X20392380Y-36650000D01*
X20440000Y-36745238D01*
X20487619Y-36792857D01*
X20630476Y-36888095D01*
X20820952Y-36935714D01*
X21201904Y-36935714D01*
X21297142Y-36888095D01*
X21344761Y-36840476D01*
X21392380Y-36745238D01*
X21392380Y-36554761D01*
X21344761Y-36459523D01*
X21297142Y-36411904D01*
X21201904Y-36364285D01*
X20963809Y-36364285D01*
X20868571Y-36411904D01*
X20820952Y-36459523D01*
X20773333Y-36554761D01*
X20773333Y-36745238D01*
X20820952Y-36840476D01*
X20868571Y-36888095D01*
X20963809Y-36935714D01*
%TO.C,R1*%
X23328333Y-68607380D02*
X22995000Y-68131190D01*
X22756904Y-68607380D02*
X22756904Y-67607380D01*
X23137857Y-67607380D01*
X23233095Y-67655000D01*
X23280714Y-67702619D01*
X23328333Y-67797857D01*
X23328333Y-67940714D01*
X23280714Y-68035952D01*
X23233095Y-68083571D01*
X23137857Y-68131190D01*
X22756904Y-68131190D01*
X24280714Y-68607380D02*
X23709285Y-68607380D01*
X23995000Y-68607380D02*
X23995000Y-67607380D01*
X23899761Y-67750238D01*
X23804523Y-67845476D01*
X23709285Y-67893095D01*
%TO.C,M3*%
X68552380Y-46529523D02*
X67552380Y-46529523D01*
X68266666Y-46196190D01*
X67552380Y-45862857D01*
X68552380Y-45862857D01*
X67552380Y-45481904D02*
X67552380Y-44862857D01*
X67933333Y-45196190D01*
X67933333Y-45053333D01*
X67980952Y-44958095D01*
X68028571Y-44910476D01*
X68123809Y-44862857D01*
X68361904Y-44862857D01*
X68457142Y-44910476D01*
X68504761Y-44958095D01*
X68552380Y-45053333D01*
X68552380Y-45339047D01*
X68504761Y-45434285D01*
X68457142Y-45481904D01*
%TO.C,M2*%
X68552380Y-35099523D02*
X67552380Y-35099523D01*
X68266666Y-34766190D01*
X67552380Y-34432857D01*
X68552380Y-34432857D01*
X67647619Y-34004285D02*
X67600000Y-33956666D01*
X67552380Y-33861428D01*
X67552380Y-33623333D01*
X67600000Y-33528095D01*
X67647619Y-33480476D01*
X67742857Y-33432857D01*
X67838095Y-33432857D01*
X67980952Y-33480476D01*
X68552380Y-34051904D01*
X68552380Y-33432857D01*
%TO.C,M1*%
X68552380Y-57959523D02*
X67552380Y-57959523D01*
X68266666Y-57626190D01*
X67552380Y-57292857D01*
X68552380Y-57292857D01*
X68552380Y-56292857D02*
X68552380Y-56864285D01*
X68552380Y-56578571D02*
X67552380Y-56578571D01*
X67695238Y-56673809D01*
X67790476Y-56769047D01*
X67838095Y-56864285D01*
%TO.C,J2*%
X60666666Y-24832380D02*
X60666666Y-25546666D01*
X60619047Y-25689523D01*
X60523809Y-25784761D01*
X60380952Y-25832380D01*
X60285714Y-25832380D01*
X61095238Y-24927619D02*
X61142857Y-24880000D01*
X61238095Y-24832380D01*
X61476190Y-24832380D01*
X61571428Y-24880000D01*
X61619047Y-24927619D01*
X61666666Y-25022857D01*
X61666666Y-25118095D01*
X61619047Y-25260952D01*
X61047619Y-25832380D01*
X61666666Y-25832380D01*
%TO.C,U1*%
X36068095Y-70572380D02*
X36068095Y-71381904D01*
X36115714Y-71477142D01*
X36163333Y-71524761D01*
X36258571Y-71572380D01*
X36449047Y-71572380D01*
X36544285Y-71524761D01*
X36591904Y-71477142D01*
X36639523Y-71381904D01*
X36639523Y-70572380D01*
X37639523Y-71572380D02*
X37068095Y-71572380D01*
X37353809Y-71572380D02*
X37353809Y-70572380D01*
X37258571Y-70715238D01*
X37163333Y-70810476D01*
X37068095Y-70858095D01*
%TO.C,U2*%
X23733095Y-27717380D02*
X23733095Y-28526904D01*
X23780714Y-28622142D01*
X23828333Y-28669761D01*
X23923571Y-28717380D01*
X24114047Y-28717380D01*
X24209285Y-28669761D01*
X24256904Y-28622142D01*
X24304523Y-28526904D01*
X24304523Y-27717380D01*
X24733095Y-27812619D02*
X24780714Y-27765000D01*
X24875952Y-27717380D01*
X25114047Y-27717380D01*
X25209285Y-27765000D01*
X25256904Y-27812619D01*
X25304523Y-27907857D01*
X25304523Y-28003095D01*
X25256904Y-28145952D01*
X24685476Y-28717380D01*
X25304523Y-28717380D01*
%TO.C,Q3*%
X54697619Y-45815238D02*
X54650000Y-45910476D01*
X54554761Y-46005714D01*
X54411904Y-46148571D01*
X54364285Y-46243809D01*
X54364285Y-46339047D01*
X54602380Y-46291428D02*
X54554761Y-46386666D01*
X54459523Y-46481904D01*
X54269047Y-46529523D01*
X53935714Y-46529523D01*
X53745238Y-46481904D01*
X53650000Y-46386666D01*
X53602380Y-46291428D01*
X53602380Y-46100952D01*
X53650000Y-46005714D01*
X53745238Y-45910476D01*
X53935714Y-45862857D01*
X54269047Y-45862857D01*
X54459523Y-45910476D01*
X54554761Y-46005714D01*
X54602380Y-46100952D01*
X54602380Y-46291428D01*
X53602380Y-45529523D02*
X53602380Y-44910476D01*
X53983333Y-45243809D01*
X53983333Y-45100952D01*
X54030952Y-45005714D01*
X54078571Y-44958095D01*
X54173809Y-44910476D01*
X54411904Y-44910476D01*
X54507142Y-44958095D01*
X54554761Y-45005714D01*
X54602380Y-45100952D01*
X54602380Y-45386666D01*
X54554761Y-45481904D01*
X54507142Y-45529523D01*
%TO.C,Q1*%
X54697619Y-57245238D02*
X54650000Y-57340476D01*
X54554761Y-57435714D01*
X54411904Y-57578571D01*
X54364285Y-57673809D01*
X54364285Y-57769047D01*
X54602380Y-57721428D02*
X54554761Y-57816666D01*
X54459523Y-57911904D01*
X54269047Y-57959523D01*
X53935714Y-57959523D01*
X53745238Y-57911904D01*
X53650000Y-57816666D01*
X53602380Y-57721428D01*
X53602380Y-57530952D01*
X53650000Y-57435714D01*
X53745238Y-57340476D01*
X53935714Y-57292857D01*
X54269047Y-57292857D01*
X54459523Y-57340476D01*
X54554761Y-57435714D01*
X54602380Y-57530952D01*
X54602380Y-57721428D01*
X54602380Y-56340476D02*
X54602380Y-56911904D01*
X54602380Y-56626190D02*
X53602380Y-56626190D01*
X53745238Y-56721428D01*
X53840476Y-56816666D01*
X53888095Y-56911904D01*
%TO.C,Q2*%
X54697619Y-34385238D02*
X54650000Y-34480476D01*
X54554761Y-34575714D01*
X54411904Y-34718571D01*
X54364285Y-34813809D01*
X54364285Y-34909047D01*
X54602380Y-34861428D02*
X54554761Y-34956666D01*
X54459523Y-35051904D01*
X54269047Y-35099523D01*
X53935714Y-35099523D01*
X53745238Y-35051904D01*
X53650000Y-34956666D01*
X53602380Y-34861428D01*
X53602380Y-34670952D01*
X53650000Y-34575714D01*
X53745238Y-34480476D01*
X53935714Y-34432857D01*
X54269047Y-34432857D01*
X54459523Y-34480476D01*
X54554761Y-34575714D01*
X54602380Y-34670952D01*
X54602380Y-34861428D01*
X53697619Y-34051904D02*
X53650000Y-34004285D01*
X53602380Y-33909047D01*
X53602380Y-33670952D01*
X53650000Y-33575714D01*
X53697619Y-33528095D01*
X53792857Y-33480476D01*
X53888095Y-33480476D01*
X54030952Y-33528095D01*
X54602380Y-34099523D01*
X54602380Y-33480476D01*
%TO.C,R2*%
X50948333Y-35362380D02*
X50615000Y-34886190D01*
X50376904Y-35362380D02*
X50376904Y-34362380D01*
X50757857Y-34362380D01*
X50853095Y-34410000D01*
X50900714Y-34457619D01*
X50948333Y-34552857D01*
X50948333Y-34695714D01*
X50900714Y-34790952D01*
X50853095Y-34838571D01*
X50757857Y-34886190D01*
X50376904Y-34886190D01*
X51329285Y-34457619D02*
X51376904Y-34410000D01*
X51472142Y-34362380D01*
X51710238Y-34362380D01*
X51805476Y-34410000D01*
X51853095Y-34457619D01*
X51900714Y-34552857D01*
X51900714Y-34648095D01*
X51853095Y-34790952D01*
X51281666Y-35362380D01*
X51900714Y-35362380D01*
%TO.C,R3*%
X22027380Y-63986666D02*
X21551190Y-64320000D01*
X22027380Y-64558095D02*
X21027380Y-64558095D01*
X21027380Y-64177142D01*
X21075000Y-64081904D01*
X21122619Y-64034285D01*
X21217857Y-63986666D01*
X21360714Y-63986666D01*
X21455952Y-64034285D01*
X21503571Y-64081904D01*
X21551190Y-64177142D01*
X21551190Y-64558095D01*
X21027380Y-63653333D02*
X21027380Y-63034285D01*
X21408333Y-63367619D01*
X21408333Y-63224761D01*
X21455952Y-63129523D01*
X21503571Y-63081904D01*
X21598809Y-63034285D01*
X21836904Y-63034285D01*
X21932142Y-63081904D01*
X21979761Y-63129523D01*
X22027380Y-63224761D01*
X22027380Y-63510476D01*
X21979761Y-63605714D01*
X21932142Y-63653333D01*
%TO.C,R4*%
X50948333Y-58222380D02*
X50615000Y-57746190D01*
X50376904Y-58222380D02*
X50376904Y-57222380D01*
X50757857Y-57222380D01*
X50853095Y-57270000D01*
X50900714Y-57317619D01*
X50948333Y-57412857D01*
X50948333Y-57555714D01*
X50900714Y-57650952D01*
X50853095Y-57698571D01*
X50757857Y-57746190D01*
X50376904Y-57746190D01*
X51805476Y-57555714D02*
X51805476Y-58222380D01*
X51567380Y-57174761D02*
X51329285Y-57889047D01*
X51948333Y-57889047D01*
%TO.C,R5*%
X50948333Y-46792380D02*
X50615000Y-46316190D01*
X50376904Y-46792380D02*
X50376904Y-45792380D01*
X50757857Y-45792380D01*
X50853095Y-45840000D01*
X50900714Y-45887619D01*
X50948333Y-45982857D01*
X50948333Y-46125714D01*
X50900714Y-46220952D01*
X50853095Y-46268571D01*
X50757857Y-46316190D01*
X50376904Y-46316190D01*
X51853095Y-45792380D02*
X51376904Y-45792380D01*
X51329285Y-46268571D01*
X51376904Y-46220952D01*
X51472142Y-46173333D01*
X51710238Y-46173333D01*
X51805476Y-46220952D01*
X51853095Y-46268571D01*
X51900714Y-46363809D01*
X51900714Y-46601904D01*
X51853095Y-46697142D01*
X51805476Y-46744761D01*
X51710238Y-46792380D01*
X51472142Y-46792380D01*
X51376904Y-46744761D01*
X51329285Y-46697142D01*
%TO.C,D1*%
X50362380Y-19788095D02*
X49362380Y-19788095D01*
X49362380Y-19550000D01*
X49410000Y-19407142D01*
X49505238Y-19311904D01*
X49600476Y-19264285D01*
X49790952Y-19216666D01*
X49933809Y-19216666D01*
X50124285Y-19264285D01*
X50219523Y-19311904D01*
X50314761Y-19407142D01*
X50362380Y-19550000D01*
X50362380Y-19788095D01*
X50362380Y-18264285D02*
X50362380Y-18835714D01*
X50362380Y-18550000D02*
X49362380Y-18550000D01*
X49505238Y-18645238D01*
X49600476Y-18740476D01*
X49648095Y-18835714D01*
X47156666Y-22678095D02*
X47156666Y-22201904D01*
X47442380Y-22773333D02*
X46442380Y-22440000D01*
X47442380Y-22106666D01*
%TD*%
M02*
