%TF.GenerationSoftware,KiCad,Pcbnew,5.1.9+dfsg1-1+b1*%
%TF.CreationDate,2021-12-16T19:11:23+11:00*%
%TF.ProjectId,aquaponics-1,61717561-706f-46e6-9963-732d312e6b69,rev?*%
%TF.SameCoordinates,Original*%
%TF.FileFunction,Copper,L1,Top*%
%TF.FilePolarity,Positive*%
%FSLAX46Y46*%
G04 Gerber Fmt 4.6, Leading zero omitted, Abs format (unit mm)*
G04 Created by KiCad (PCBNEW 5.1.9+dfsg1-1+b1) date 2021-12-16 19:11:23*
%MOMM*%
%LPD*%
G01*
G04 APERTURE LIST*
%TA.AperFunction,ComponentPad*%
%ADD10R,1.700000X1.700000*%
%TD*%
%TA.AperFunction,ComponentPad*%
%ADD11O,1.700000X1.700000*%
%TD*%
%TA.AperFunction,ComponentPad*%
%ADD12O,1.400000X1.400000*%
%TD*%
%TA.AperFunction,ComponentPad*%
%ADD13C,1.400000*%
%TD*%
%TA.AperFunction,ComponentPad*%
%ADD14R,2.600000X2.600000*%
%TD*%
%TA.AperFunction,ComponentPad*%
%ADD15C,2.600000*%
%TD*%
%TA.AperFunction,ComponentPad*%
%ADD16O,1.600000X1.600000*%
%TD*%
%TA.AperFunction,ComponentPad*%
%ADD17R,1.600000X1.600000*%
%TD*%
%TA.AperFunction,ComponentPad*%
%ADD18C,1.500000*%
%TD*%
%TA.AperFunction,ComponentPad*%
%ADD19R,1.500000X1.500000*%
%TD*%
%TA.AperFunction,ComponentPad*%
%ADD20C,2.400000*%
%TD*%
%TA.AperFunction,ComponentPad*%
%ADD21O,2.000000X1.905000*%
%TD*%
%TA.AperFunction,ComponentPad*%
%ADD22R,2.000000X1.905000*%
%TD*%
%TA.AperFunction,Conductor*%
%ADD23C,0.500000*%
%TD*%
%TA.AperFunction,Conductor*%
%ADD24C,0.250000*%
%TD*%
%TA.AperFunction,Conductor*%
%ADD25C,0.254000*%
%TD*%
%TA.AperFunction,Conductor*%
%ADD26C,0.100000*%
%TD*%
G04 APERTURE END LIST*
D10*
%TO.P,J4,1*%
%TO.N,GND*%
X22225000Y-48260000D03*
D11*
%TO.P,J4,2*%
%TO.N,+5V*%
X22225000Y-45720000D03*
%TO.P,J4,3*%
%TO.N,Net-(J4-Pad3)*%
X22225000Y-43180000D03*
%TD*%
%TO.P,J3,3*%
%TO.N,Net-(J3-Pad3)*%
X22225000Y-53340000D03*
%TO.P,J3,2*%
%TO.N,+5V*%
X22225000Y-55880000D03*
D10*
%TO.P,J3,1*%
%TO.N,GND*%
X22225000Y-58420000D03*
%TD*%
D12*
%TO.P,R6,2*%
%TO.N,+3V3*%
X21590000Y-36200000D03*
D13*
%TO.P,R6,1*%
%TO.N,Net-(R6-Pad1)*%
X21590000Y-38100000D03*
%TD*%
D11*
%TO.P,R1,2*%
%TO.N,+5V*%
X22225000Y-73025000D03*
D10*
%TO.P,R1,1*%
%TO.N,Net-(R1-Pad1)*%
X22225000Y-70485000D03*
%TD*%
D11*
%TO.P,M3,2*%
%TO.N,Net-(M3-Pad2)*%
X61960000Y-45720000D03*
D10*
%TO.P,M3,1*%
%TO.N,Net-(J2-Pad1)*%
X64500000Y-45720000D03*
%TD*%
D11*
%TO.P,M2,2*%
%TO.N,Net-(M2-Pad2)*%
X61960000Y-34290000D03*
D10*
%TO.P,M2,1*%
%TO.N,Net-(J2-Pad1)*%
X64500000Y-34290000D03*
%TD*%
D11*
%TO.P,M1,2*%
%TO.N,Net-(M1-Pad2)*%
X61960000Y-57150000D03*
D10*
%TO.P,M1,1*%
%TO.N,Net-(J2-Pad1)*%
X64500000Y-57150000D03*
%TD*%
D14*
%TO.P,J2,1*%
%TO.N,Net-(J2-Pad1)*%
X62230000Y-20320000D03*
D15*
%TO.P,J2,2*%
%TO.N,GND*%
X57230000Y-20320000D03*
%TD*%
D16*
%TO.P,U1,16*%
%TO.N,Net-(U1-Pad16)*%
X27940000Y-30480000D03*
%TO.P,U1,15*%
%TO.N,Net-(U1-Pad15)*%
X43180000Y-30480000D03*
%TO.P,U1,30*%
%TO.N,Net-(U1-Pad30)*%
X27940000Y-66040000D03*
%TO.P,U1,14*%
%TO.N,Net-(U1-Pad14)*%
X43180000Y-33020000D03*
%TO.P,U1,29*%
%TO.N,Net-(U1-Pad29)*%
X27940000Y-63500000D03*
%TO.P,U1,13*%
%TO.N,Net-(U1-Pad13)*%
X43180000Y-35560000D03*
%TO.P,U1,28*%
%TO.N,Net-(U1-Pad28)*%
X27940000Y-60960000D03*
%TO.P,U1,12*%
%TO.N,Net-(U1-Pad12)*%
X43180000Y-38100000D03*
%TO.P,U1,27*%
%TO.N,+5V*%
X27940000Y-58420000D03*
%TO.P,U1,11*%
%TO.N,Net-(U1-Pad11)*%
X43180000Y-40640000D03*
%TO.P,U1,26*%
%TO.N,Net-(U1-Pad26)*%
X27940000Y-55880000D03*
%TO.P,U1,10*%
%TO.N,Net-(U1-Pad10)*%
X43180000Y-43180000D03*
%TO.P,U1,25*%
%TO.N,Net-(U1-Pad25)*%
X27940000Y-53340000D03*
%TO.P,U1,9*%
%TO.N,Net-(U1-Pad9)*%
X43180000Y-45720000D03*
%TO.P,U1,24*%
%TO.N,Net-(U1-Pad24)*%
X27940000Y-50800000D03*
%TO.P,U1,8*%
%TO.N,Net-(U1-Pad8)*%
X43180000Y-48260000D03*
%TO.P,U1,23*%
%TO.N,Net-(U1-Pad23)*%
X27940000Y-48260000D03*
%TO.P,U1,7*%
%TO.N,Net-(R2-Pad1)*%
X43180000Y-50800000D03*
%TO.P,U1,22*%
%TO.N,Net-(R1-Pad1)*%
X27940000Y-45720000D03*
%TO.P,U1,6*%
%TO.N,Net-(R5-Pad1)*%
X43180000Y-53340000D03*
%TO.P,U1,21*%
%TO.N,Net-(J3-Pad3)*%
X27940000Y-43180000D03*
%TO.P,U1,5*%
%TO.N,Net-(R4-Pad1)*%
X43180000Y-55880000D03*
%TO.P,U1,20*%
%TO.N,Net-(J4-Pad3)*%
X27940000Y-40640000D03*
%TO.P,U1,4*%
%TO.N,GND*%
X43180000Y-58420000D03*
%TO.P,U1,19*%
%TO.N,Net-(R6-Pad1)*%
X27940000Y-38100000D03*
%TO.P,U1,3*%
%TO.N,Net-(U1-Pad3)*%
X43180000Y-60960000D03*
%TO.P,U1,18*%
%TO.N,Net-(U1-Pad18)*%
X27940000Y-35560000D03*
%TO.P,U1,2*%
%TO.N,Net-(U1-Pad2)*%
X43180000Y-63500000D03*
%TO.P,U1,17*%
%TO.N,+3V3*%
X27940000Y-33020000D03*
D17*
%TO.P,U1,1*%
%TO.N,Net-(U1-Pad1)*%
X43180000Y-66040000D03*
%TD*%
D18*
%TO.P,U2,4*%
%TO.N,GND*%
X22225000Y-17145000D03*
%TO.P,U2,3*%
%TO.N,Net-(U2-Pad3)*%
X22225000Y-19685000D03*
%TO.P,U2,2*%
%TO.N,Net-(R6-Pad1)*%
X22225000Y-22225000D03*
D19*
%TO.P,U2,1*%
%TO.N,+3V3*%
X22225000Y-24765000D03*
%TD*%
D20*
%TO.P,J5,2*%
%TO.N,Net-(J5-Pad2)*%
X65405000Y-70485000D03*
%TO.P,J5,1*%
%TO.N,Net-(J2-Pad1)*%
%TA.AperFunction,ComponentPad*%
G36*
G01*
X66355000Y-75645000D02*
X64455000Y-75645000D01*
G75*
G02*
X64205000Y-75395000I0J250000D01*
G01*
X64205000Y-73495000D01*
G75*
G02*
X64455000Y-73245000I250000J0D01*
G01*
X66355000Y-73245000D01*
G75*
G02*
X66605000Y-73495000I0J-250000D01*
G01*
X66605000Y-75395000D01*
G75*
G02*
X66355000Y-75645000I-250000J0D01*
G01*
G37*
%TD.AperFunction*%
%TD*%
D21*
%TO.P,Q3,3*%
%TO.N,GND*%
X57150000Y-43180000D03*
%TO.P,Q3,2*%
%TO.N,Net-(M3-Pad2)*%
X57150000Y-45720000D03*
D22*
%TO.P,Q3,1*%
%TO.N,Net-(Q3-Pad1)*%
X57150000Y-48260000D03*
%TD*%
D21*
%TO.P,Q1,3*%
%TO.N,GND*%
X57150000Y-54610000D03*
%TO.P,Q1,2*%
%TO.N,Net-(M1-Pad2)*%
X57150000Y-57150000D03*
D22*
%TO.P,Q1,1*%
%TO.N,Net-(Q1-Pad1)*%
X57150000Y-59690000D03*
%TD*%
D21*
%TO.P,Q2,3*%
%TO.N,GND*%
X57150000Y-31750000D03*
%TO.P,Q2,2*%
%TO.N,Net-(M2-Pad2)*%
X57150000Y-34290000D03*
D22*
%TO.P,Q2,1*%
%TO.N,Net-(Q2-Pad1)*%
X57150000Y-36830000D03*
%TD*%
D20*
%TO.P,J1,2*%
%TO.N,Net-(J1-Pad2)*%
X50165000Y-70335000D03*
%TO.P,J1,1*%
%TO.N,+5V*%
%TA.AperFunction,ComponentPad*%
G36*
G01*
X51115000Y-75495000D02*
X49215000Y-75495000D01*
G75*
G02*
X48965000Y-75245000I0J250000D01*
G01*
X48965000Y-73345000D01*
G75*
G02*
X49215000Y-73095000I250000J0D01*
G01*
X51115000Y-73095000D01*
G75*
G02*
X51365000Y-73345000I0J-250000D01*
G01*
X51365000Y-75245000D01*
G75*
G02*
X51115000Y-75495000I-250000J0D01*
G01*
G37*
%TD.AperFunction*%
%TD*%
D12*
%TO.P,R2,2*%
%TO.N,Net-(Q2-Pad1)*%
X50795000Y-36830000D03*
D13*
%TO.P,R2,1*%
%TO.N,Net-(R2-Pad1)*%
X48895000Y-36830000D03*
%TD*%
D12*
%TO.P,R3,2*%
%TO.N,Net-(R1-Pad1)*%
X22225000Y-62870000D03*
D13*
%TO.P,R3,1*%
%TO.N,GND*%
X22225000Y-64770000D03*
%TD*%
D12*
%TO.P,R4,2*%
%TO.N,Net-(Q1-Pad1)*%
X50795000Y-59690000D03*
D13*
%TO.P,R4,1*%
%TO.N,Net-(R4-Pad1)*%
X48895000Y-59690000D03*
%TD*%
D12*
%TO.P,R5,2*%
%TO.N,Net-(Q3-Pad1)*%
X50795000Y-48260000D03*
D13*
%TO.P,R5,1*%
%TO.N,Net-(R5-Pad1)*%
X48895000Y-48260000D03*
%TD*%
D23*
%TO.N,Net-(J2-Pad1)*%
X67055001Y-72794999D02*
X65405000Y-74445000D01*
X67055001Y-23345001D02*
X67055001Y-72794999D01*
X64030000Y-20320000D02*
X67055001Y-23345001D01*
X62230000Y-20320000D02*
X64030000Y-20320000D01*
X64500000Y-22590000D02*
X64500000Y-34290000D01*
X62230000Y-20320000D02*
X64500000Y-22590000D01*
X64500000Y-34290000D02*
X64500000Y-45720000D01*
X64500000Y-45720000D02*
X64500000Y-57150000D01*
D24*
%TO.N,Net-(J3-Pad3)*%
X23400001Y-52164999D02*
X23400001Y-47719999D01*
X23400001Y-47719999D02*
X27940000Y-43180000D01*
X22225000Y-53340000D02*
X23400001Y-52164999D01*
%TO.N,Net-(Q1-Pad1)*%
X50795000Y-59690000D02*
X57150000Y-59690000D01*
%TO.N,Net-(Q2-Pad1)*%
X50795000Y-36830000D02*
X57150000Y-36830000D01*
%TO.N,Net-(Q3-Pad1)*%
X50795000Y-48260000D02*
X57150000Y-48260000D01*
%TO.N,Net-(R1-Pad1)*%
X29065001Y-46845001D02*
X27940000Y-45720000D01*
X29065001Y-66580001D02*
X29065001Y-46845001D01*
X25160002Y-70485000D02*
X29065001Y-66580001D01*
X22225000Y-70485000D02*
X25160002Y-70485000D01*
X23250001Y-63895001D02*
X22225000Y-62870000D01*
X23250001Y-69459999D02*
X23250001Y-63895001D01*
X22225000Y-70485000D02*
X23250001Y-69459999D01*
%TO.N,Net-(R2-Pad1)*%
X48895000Y-45085000D02*
X48895000Y-36830000D01*
X43180000Y-50800000D02*
X48895000Y-45085000D01*
%TO.N,Net-(R4-Pad1)*%
X45085000Y-55880000D02*
X48895000Y-59690000D01*
X43180000Y-55880000D02*
X45085000Y-55880000D01*
%TO.N,Net-(R5-Pad1)*%
X48260000Y-48260000D02*
X48895000Y-48260000D01*
X43180000Y-53340000D02*
X48260000Y-48260000D01*
%TO.N,Net-(J4-Pad3)*%
X25400000Y-43180000D02*
X27940000Y-40640000D01*
X22225000Y-43180000D02*
X25400000Y-43180000D01*
%TO.N,Net-(R6-Pad1)*%
X20564999Y-37074999D02*
X21590000Y-38100000D01*
X20564999Y-23885001D02*
X20564999Y-37074999D01*
X22225000Y-22225000D02*
X20564999Y-23885001D01*
X21590000Y-38100000D02*
X27940000Y-38100000D01*
%TO.N,+3V3*%
X22225000Y-27305000D02*
X27940000Y-33020000D01*
X22225000Y-24765000D02*
X22225000Y-27305000D01*
X24760000Y-36200000D02*
X27940000Y-33020000D01*
X21590000Y-36200000D02*
X24760000Y-36200000D01*
%TO.N,+5V*%
X50165000Y-74295000D02*
X49714990Y-73844990D01*
X25400000Y-55880000D02*
X27940000Y-58420000D01*
X22225000Y-55880000D02*
X25400000Y-55880000D01*
X21590000Y-55245000D02*
X22225000Y-55880000D01*
X19685000Y-48260000D02*
X19685000Y-55245000D01*
X19685000Y-55245000D02*
X21590000Y-55245000D01*
X22225000Y-45720000D02*
X19685000Y-48260000D01*
X23495000Y-74295000D02*
X22225000Y-73025000D01*
X50165000Y-74295000D02*
X23495000Y-74295000D01*
X19685000Y-70485000D02*
X19685000Y-55245000D01*
X22225000Y-73025000D02*
X19685000Y-70485000D01*
%TD*%
D25*
%TO.N,GND*%
X69825001Y-76810000D02*
X19075000Y-76810000D01*
X19075000Y-70939707D01*
X19089871Y-70957826D01*
X19144999Y-71025001D01*
X19174003Y-71048804D01*
X20783790Y-72658593D01*
X20740000Y-72878740D01*
X20740000Y-73171260D01*
X20797068Y-73458158D01*
X20909010Y-73728411D01*
X21071525Y-73971632D01*
X21278368Y-74178475D01*
X21521589Y-74340990D01*
X21791842Y-74452932D01*
X22078740Y-74510000D01*
X22371260Y-74510000D01*
X22591408Y-74466210D01*
X22931201Y-74806003D01*
X22954999Y-74835001D01*
X23070724Y-74929974D01*
X23202753Y-75000546D01*
X23346014Y-75044003D01*
X23457667Y-75055000D01*
X23457676Y-75055000D01*
X23494999Y-75058676D01*
X23532322Y-75055000D01*
X48326928Y-75055000D01*
X48326928Y-75245000D01*
X48343992Y-75418254D01*
X48394528Y-75584850D01*
X48476595Y-75738386D01*
X48587038Y-75872962D01*
X48721614Y-75983405D01*
X48875150Y-76065472D01*
X49041746Y-76116008D01*
X49215000Y-76133072D01*
X51115000Y-76133072D01*
X51288254Y-76116008D01*
X51454850Y-76065472D01*
X51608386Y-75983405D01*
X51742962Y-75872962D01*
X51853405Y-75738386D01*
X51935472Y-75584850D01*
X51986008Y-75418254D01*
X52003072Y-75245000D01*
X52003072Y-73345000D01*
X51986008Y-73171746D01*
X51935472Y-73005150D01*
X51853405Y-72851614D01*
X51742962Y-72717038D01*
X51608386Y-72606595D01*
X51454850Y-72524528D01*
X51288254Y-72473992D01*
X51115000Y-72456928D01*
X49215000Y-72456928D01*
X49041746Y-72473992D01*
X48875150Y-72524528D01*
X48721614Y-72606595D01*
X48587038Y-72717038D01*
X48476595Y-72851614D01*
X48394528Y-73005150D01*
X48343992Y-73171746D01*
X48326928Y-73345000D01*
X48326928Y-73535000D01*
X23809802Y-73535000D01*
X23666210Y-73391408D01*
X23710000Y-73171260D01*
X23710000Y-72878740D01*
X23652932Y-72591842D01*
X23540990Y-72321589D01*
X23378475Y-72078368D01*
X23246620Y-71946513D01*
X23319180Y-71924502D01*
X23429494Y-71865537D01*
X23526185Y-71786185D01*
X23605537Y-71689494D01*
X23664502Y-71579180D01*
X23700812Y-71459482D01*
X23713072Y-71335000D01*
X23713072Y-71245000D01*
X25122680Y-71245000D01*
X25160002Y-71248676D01*
X25197324Y-71245000D01*
X25197335Y-71245000D01*
X25308988Y-71234003D01*
X25452249Y-71190546D01*
X25584278Y-71119974D01*
X25700003Y-71025001D01*
X25723806Y-70995997D01*
X26565535Y-70154268D01*
X48330000Y-70154268D01*
X48330000Y-70515732D01*
X48400518Y-70870250D01*
X48538844Y-71204199D01*
X48739662Y-71504744D01*
X48995256Y-71760338D01*
X49295801Y-71961156D01*
X49629750Y-72099482D01*
X49984268Y-72170000D01*
X50345732Y-72170000D01*
X50700250Y-72099482D01*
X51034199Y-71961156D01*
X51334744Y-71760338D01*
X51590338Y-71504744D01*
X51791156Y-71204199D01*
X51929482Y-70870250D01*
X52000000Y-70515732D01*
X52000000Y-70154268D01*
X51929482Y-69799750D01*
X51791156Y-69465801D01*
X51590338Y-69165256D01*
X51334744Y-68909662D01*
X51034199Y-68708844D01*
X50700250Y-68570518D01*
X50345732Y-68500000D01*
X49984268Y-68500000D01*
X49629750Y-68570518D01*
X49295801Y-68708844D01*
X48995256Y-68909662D01*
X48739662Y-69165256D01*
X48538844Y-69465801D01*
X48400518Y-69799750D01*
X48330000Y-70154268D01*
X26565535Y-70154268D01*
X29576005Y-67143799D01*
X29605002Y-67120002D01*
X29699975Y-67004277D01*
X29770547Y-66872248D01*
X29814004Y-66728987D01*
X29825001Y-66617334D01*
X29825001Y-66617333D01*
X29828678Y-66580001D01*
X29825001Y-66542668D01*
X29825001Y-65240000D01*
X41741928Y-65240000D01*
X41741928Y-66840000D01*
X41754188Y-66964482D01*
X41790498Y-67084180D01*
X41849463Y-67194494D01*
X41928815Y-67291185D01*
X42025506Y-67370537D01*
X42135820Y-67429502D01*
X42255518Y-67465812D01*
X42380000Y-67478072D01*
X43980000Y-67478072D01*
X44104482Y-67465812D01*
X44224180Y-67429502D01*
X44334494Y-67370537D01*
X44431185Y-67291185D01*
X44510537Y-67194494D01*
X44569502Y-67084180D01*
X44605812Y-66964482D01*
X44618072Y-66840000D01*
X44618072Y-65240000D01*
X44605812Y-65115518D01*
X44569502Y-64995820D01*
X44510537Y-64885506D01*
X44431185Y-64788815D01*
X44334494Y-64709463D01*
X44224180Y-64650498D01*
X44104482Y-64614188D01*
X44096039Y-64613357D01*
X44294637Y-64414759D01*
X44451680Y-64179727D01*
X44559853Y-63918574D01*
X44615000Y-63641335D01*
X44615000Y-63358665D01*
X44559853Y-63081426D01*
X44451680Y-62820273D01*
X44294637Y-62585241D01*
X44094759Y-62385363D01*
X43862241Y-62230000D01*
X44094759Y-62074637D01*
X44294637Y-61874759D01*
X44451680Y-61639727D01*
X44559853Y-61378574D01*
X44615000Y-61101335D01*
X44615000Y-60818665D01*
X44559853Y-60541426D01*
X44451680Y-60280273D01*
X44294637Y-60045241D01*
X44094759Y-59845363D01*
X43859727Y-59688320D01*
X43849135Y-59683933D01*
X44035131Y-59572385D01*
X44243519Y-59383414D01*
X44411037Y-59157420D01*
X44531246Y-58903087D01*
X44571904Y-58769039D01*
X44449915Y-58547000D01*
X43307000Y-58547000D01*
X43307000Y-58567000D01*
X43053000Y-58567000D01*
X43053000Y-58547000D01*
X41910085Y-58547000D01*
X41788096Y-58769039D01*
X41828754Y-58903087D01*
X41948963Y-59157420D01*
X42116481Y-59383414D01*
X42324869Y-59572385D01*
X42510865Y-59683933D01*
X42500273Y-59688320D01*
X42265241Y-59845363D01*
X42065363Y-60045241D01*
X41908320Y-60280273D01*
X41800147Y-60541426D01*
X41745000Y-60818665D01*
X41745000Y-61101335D01*
X41800147Y-61378574D01*
X41908320Y-61639727D01*
X42065363Y-61874759D01*
X42265241Y-62074637D01*
X42497759Y-62230000D01*
X42265241Y-62385363D01*
X42065363Y-62585241D01*
X41908320Y-62820273D01*
X41800147Y-63081426D01*
X41745000Y-63358665D01*
X41745000Y-63641335D01*
X41800147Y-63918574D01*
X41908320Y-64179727D01*
X42065363Y-64414759D01*
X42263961Y-64613357D01*
X42255518Y-64614188D01*
X42135820Y-64650498D01*
X42025506Y-64709463D01*
X41928815Y-64788815D01*
X41849463Y-64885506D01*
X41790498Y-64995820D01*
X41754188Y-65115518D01*
X41741928Y-65240000D01*
X29825001Y-65240000D01*
X29825001Y-46882326D01*
X29828677Y-46845001D01*
X29825001Y-46807676D01*
X29825001Y-46807668D01*
X29814004Y-46696015D01*
X29770547Y-46552754D01*
X29699975Y-46420725D01*
X29605002Y-46305000D01*
X29576004Y-46281202D01*
X29338688Y-46043886D01*
X29375000Y-45861335D01*
X29375000Y-45578665D01*
X29319853Y-45301426D01*
X29211680Y-45040273D01*
X29054637Y-44805241D01*
X28854759Y-44605363D01*
X28622241Y-44450000D01*
X28854759Y-44294637D01*
X29054637Y-44094759D01*
X29211680Y-43859727D01*
X29319853Y-43598574D01*
X29375000Y-43321335D01*
X29375000Y-43038665D01*
X29319853Y-42761426D01*
X29211680Y-42500273D01*
X29054637Y-42265241D01*
X28854759Y-42065363D01*
X28622241Y-41910000D01*
X28854759Y-41754637D01*
X29054637Y-41554759D01*
X29211680Y-41319727D01*
X29319853Y-41058574D01*
X29375000Y-40781335D01*
X29375000Y-40498665D01*
X29319853Y-40221426D01*
X29211680Y-39960273D01*
X29054637Y-39725241D01*
X28854759Y-39525363D01*
X28622241Y-39370000D01*
X28854759Y-39214637D01*
X29054637Y-39014759D01*
X29211680Y-38779727D01*
X29319853Y-38518574D01*
X29375000Y-38241335D01*
X29375000Y-37958665D01*
X29319853Y-37681426D01*
X29211680Y-37420273D01*
X29054637Y-37185241D01*
X28854759Y-36985363D01*
X28622241Y-36830000D01*
X28854759Y-36674637D01*
X29054637Y-36474759D01*
X29211680Y-36239727D01*
X29319853Y-35978574D01*
X29375000Y-35701335D01*
X29375000Y-35418665D01*
X29319853Y-35141426D01*
X29211680Y-34880273D01*
X29054637Y-34645241D01*
X28854759Y-34445363D01*
X28622241Y-34290000D01*
X28854759Y-34134637D01*
X29054637Y-33934759D01*
X29211680Y-33699727D01*
X29319853Y-33438574D01*
X29375000Y-33161335D01*
X29375000Y-32878665D01*
X29319853Y-32601426D01*
X29211680Y-32340273D01*
X29054637Y-32105241D01*
X28854759Y-31905363D01*
X28622241Y-31750000D01*
X28854759Y-31594637D01*
X29054637Y-31394759D01*
X29211680Y-31159727D01*
X29319853Y-30898574D01*
X29375000Y-30621335D01*
X29375000Y-30338665D01*
X41745000Y-30338665D01*
X41745000Y-30621335D01*
X41800147Y-30898574D01*
X41908320Y-31159727D01*
X42065363Y-31394759D01*
X42265241Y-31594637D01*
X42497759Y-31750000D01*
X42265241Y-31905363D01*
X42065363Y-32105241D01*
X41908320Y-32340273D01*
X41800147Y-32601426D01*
X41745000Y-32878665D01*
X41745000Y-33161335D01*
X41800147Y-33438574D01*
X41908320Y-33699727D01*
X42065363Y-33934759D01*
X42265241Y-34134637D01*
X42497759Y-34290000D01*
X42265241Y-34445363D01*
X42065363Y-34645241D01*
X41908320Y-34880273D01*
X41800147Y-35141426D01*
X41745000Y-35418665D01*
X41745000Y-35701335D01*
X41800147Y-35978574D01*
X41908320Y-36239727D01*
X42065363Y-36474759D01*
X42265241Y-36674637D01*
X42497759Y-36830000D01*
X42265241Y-36985363D01*
X42065363Y-37185241D01*
X41908320Y-37420273D01*
X41800147Y-37681426D01*
X41745000Y-37958665D01*
X41745000Y-38241335D01*
X41800147Y-38518574D01*
X41908320Y-38779727D01*
X42065363Y-39014759D01*
X42265241Y-39214637D01*
X42497759Y-39370000D01*
X42265241Y-39525363D01*
X42065363Y-39725241D01*
X41908320Y-39960273D01*
X41800147Y-40221426D01*
X41745000Y-40498665D01*
X41745000Y-40781335D01*
X41800147Y-41058574D01*
X41908320Y-41319727D01*
X42065363Y-41554759D01*
X42265241Y-41754637D01*
X42497759Y-41910000D01*
X42265241Y-42065363D01*
X42065363Y-42265241D01*
X41908320Y-42500273D01*
X41800147Y-42761426D01*
X41745000Y-43038665D01*
X41745000Y-43321335D01*
X41800147Y-43598574D01*
X41908320Y-43859727D01*
X42065363Y-44094759D01*
X42265241Y-44294637D01*
X42497759Y-44450000D01*
X42265241Y-44605363D01*
X42065363Y-44805241D01*
X41908320Y-45040273D01*
X41800147Y-45301426D01*
X41745000Y-45578665D01*
X41745000Y-45861335D01*
X41800147Y-46138574D01*
X41908320Y-46399727D01*
X42065363Y-46634759D01*
X42265241Y-46834637D01*
X42497759Y-46990000D01*
X42265241Y-47145363D01*
X42065363Y-47345241D01*
X41908320Y-47580273D01*
X41800147Y-47841426D01*
X41745000Y-48118665D01*
X41745000Y-48401335D01*
X41800147Y-48678574D01*
X41908320Y-48939727D01*
X42065363Y-49174759D01*
X42265241Y-49374637D01*
X42497759Y-49530000D01*
X42265241Y-49685363D01*
X42065363Y-49885241D01*
X41908320Y-50120273D01*
X41800147Y-50381426D01*
X41745000Y-50658665D01*
X41745000Y-50941335D01*
X41800147Y-51218574D01*
X41908320Y-51479727D01*
X42065363Y-51714759D01*
X42265241Y-51914637D01*
X42497759Y-52070000D01*
X42265241Y-52225363D01*
X42065363Y-52425241D01*
X41908320Y-52660273D01*
X41800147Y-52921426D01*
X41745000Y-53198665D01*
X41745000Y-53481335D01*
X41800147Y-53758574D01*
X41908320Y-54019727D01*
X42065363Y-54254759D01*
X42265241Y-54454637D01*
X42497759Y-54610000D01*
X42265241Y-54765363D01*
X42065363Y-54965241D01*
X41908320Y-55200273D01*
X41800147Y-55461426D01*
X41745000Y-55738665D01*
X41745000Y-56021335D01*
X41800147Y-56298574D01*
X41908320Y-56559727D01*
X42065363Y-56794759D01*
X42265241Y-56994637D01*
X42500273Y-57151680D01*
X42510865Y-57156067D01*
X42324869Y-57267615D01*
X42116481Y-57456586D01*
X41948963Y-57682580D01*
X41828754Y-57936913D01*
X41788096Y-58070961D01*
X41910085Y-58293000D01*
X43053000Y-58293000D01*
X43053000Y-58273000D01*
X43307000Y-58273000D01*
X43307000Y-58293000D01*
X44449915Y-58293000D01*
X44571904Y-58070961D01*
X44531246Y-57936913D01*
X44411037Y-57682580D01*
X44243519Y-57456586D01*
X44035131Y-57267615D01*
X43849135Y-57156067D01*
X43859727Y-57151680D01*
X44094759Y-56994637D01*
X44294637Y-56794759D01*
X44398043Y-56640000D01*
X44770199Y-56640000D01*
X47581355Y-59451157D01*
X47560000Y-59558514D01*
X47560000Y-59821486D01*
X47611304Y-60079405D01*
X47711939Y-60322359D01*
X47858038Y-60541013D01*
X48043987Y-60726962D01*
X48262641Y-60873061D01*
X48505595Y-60973696D01*
X48763514Y-61025000D01*
X49026486Y-61025000D01*
X49284405Y-60973696D01*
X49527359Y-60873061D01*
X49746013Y-60726962D01*
X49845000Y-60627975D01*
X49943987Y-60726962D01*
X50162641Y-60873061D01*
X50405595Y-60973696D01*
X50663514Y-61025000D01*
X50926486Y-61025000D01*
X51184405Y-60973696D01*
X51427359Y-60873061D01*
X51646013Y-60726962D01*
X51831962Y-60541013D01*
X51892775Y-60450000D01*
X55511928Y-60450000D01*
X55511928Y-60642500D01*
X55524188Y-60766982D01*
X55560498Y-60886680D01*
X55619463Y-60996994D01*
X55698815Y-61093685D01*
X55795506Y-61173037D01*
X55905820Y-61232002D01*
X56025518Y-61268312D01*
X56150000Y-61280572D01*
X58150000Y-61280572D01*
X58274482Y-61268312D01*
X58394180Y-61232002D01*
X58504494Y-61173037D01*
X58601185Y-61093685D01*
X58680537Y-60996994D01*
X58739502Y-60886680D01*
X58775812Y-60766982D01*
X58788072Y-60642500D01*
X58788072Y-58737500D01*
X58775812Y-58613018D01*
X58739502Y-58493320D01*
X58680537Y-58383006D01*
X58601185Y-58286315D01*
X58504494Y-58206963D01*
X58420554Y-58162095D01*
X58523845Y-58036235D01*
X58671255Y-57760449D01*
X58762030Y-57461204D01*
X58792681Y-57150000D01*
X58762030Y-56838796D01*
X58671255Y-56539551D01*
X58523845Y-56263765D01*
X58325463Y-56022037D01*
X58146101Y-55874837D01*
X58331315Y-55719437D01*
X58525969Y-55476923D01*
X58669571Y-55201094D01*
X58740563Y-54982980D01*
X58620594Y-54737000D01*
X57277000Y-54737000D01*
X57277000Y-54757000D01*
X57023000Y-54757000D01*
X57023000Y-54737000D01*
X55679406Y-54737000D01*
X55559437Y-54982980D01*
X55630429Y-55201094D01*
X55774031Y-55476923D01*
X55968685Y-55719437D01*
X56153899Y-55874837D01*
X55974537Y-56022037D01*
X55776155Y-56263765D01*
X55628745Y-56539551D01*
X55537970Y-56838796D01*
X55507319Y-57150000D01*
X55537970Y-57461204D01*
X55628745Y-57760449D01*
X55776155Y-58036235D01*
X55879446Y-58162095D01*
X55795506Y-58206963D01*
X55698815Y-58286315D01*
X55619463Y-58383006D01*
X55560498Y-58493320D01*
X55524188Y-58613018D01*
X55511928Y-58737500D01*
X55511928Y-58930000D01*
X51892775Y-58930000D01*
X51831962Y-58838987D01*
X51646013Y-58653038D01*
X51427359Y-58506939D01*
X51184405Y-58406304D01*
X50926486Y-58355000D01*
X50663514Y-58355000D01*
X50405595Y-58406304D01*
X50162641Y-58506939D01*
X49943987Y-58653038D01*
X49845000Y-58752025D01*
X49746013Y-58653038D01*
X49527359Y-58506939D01*
X49284405Y-58406304D01*
X49026486Y-58355000D01*
X48763514Y-58355000D01*
X48656157Y-58376355D01*
X45648804Y-55369003D01*
X45625001Y-55339999D01*
X45509276Y-55245026D01*
X45377247Y-55174454D01*
X45233986Y-55130997D01*
X45122333Y-55120000D01*
X45122322Y-55120000D01*
X45085000Y-55116324D01*
X45047678Y-55120000D01*
X44398043Y-55120000D01*
X44294637Y-54965241D01*
X44094759Y-54765363D01*
X43862241Y-54610000D01*
X44094759Y-54454637D01*
X44294637Y-54254759D01*
X44306489Y-54237020D01*
X55559437Y-54237020D01*
X55679406Y-54483000D01*
X57023000Y-54483000D01*
X57023000Y-53184430D01*
X57277000Y-53184430D01*
X57277000Y-54483000D01*
X58620594Y-54483000D01*
X58740563Y-54237020D01*
X58669571Y-54018906D01*
X58525969Y-53743077D01*
X58331315Y-53500563D01*
X58093089Y-53300684D01*
X57820446Y-53151121D01*
X57523863Y-53057622D01*
X57277000Y-53184430D01*
X57023000Y-53184430D01*
X56776137Y-53057622D01*
X56479554Y-53151121D01*
X56206911Y-53300684D01*
X55968685Y-53500563D01*
X55774031Y-53743077D01*
X55630429Y-54018906D01*
X55559437Y-54237020D01*
X44306489Y-54237020D01*
X44451680Y-54019727D01*
X44559853Y-53758574D01*
X44615000Y-53481335D01*
X44615000Y-53198665D01*
X44578688Y-53016113D01*
X48196161Y-49398641D01*
X48262641Y-49443061D01*
X48505595Y-49543696D01*
X48763514Y-49595000D01*
X49026486Y-49595000D01*
X49284405Y-49543696D01*
X49527359Y-49443061D01*
X49746013Y-49296962D01*
X49845000Y-49197975D01*
X49943987Y-49296962D01*
X50162641Y-49443061D01*
X50405595Y-49543696D01*
X50663514Y-49595000D01*
X50926486Y-49595000D01*
X51184405Y-49543696D01*
X51427359Y-49443061D01*
X51646013Y-49296962D01*
X51831962Y-49111013D01*
X51892775Y-49020000D01*
X55511928Y-49020000D01*
X55511928Y-49212500D01*
X55524188Y-49336982D01*
X55560498Y-49456680D01*
X55619463Y-49566994D01*
X55698815Y-49663685D01*
X55795506Y-49743037D01*
X55905820Y-49802002D01*
X56025518Y-49838312D01*
X56150000Y-49850572D01*
X58150000Y-49850572D01*
X58274482Y-49838312D01*
X58394180Y-49802002D01*
X58504494Y-49743037D01*
X58601185Y-49663685D01*
X58680537Y-49566994D01*
X58739502Y-49456680D01*
X58775812Y-49336982D01*
X58788072Y-49212500D01*
X58788072Y-47307500D01*
X58775812Y-47183018D01*
X58739502Y-47063320D01*
X58680537Y-46953006D01*
X58601185Y-46856315D01*
X58504494Y-46776963D01*
X58420554Y-46732095D01*
X58523845Y-46606235D01*
X58671255Y-46330449D01*
X58762030Y-46031204D01*
X58792681Y-45720000D01*
X58762030Y-45408796D01*
X58671255Y-45109551D01*
X58523845Y-44833765D01*
X58325463Y-44592037D01*
X58146101Y-44444837D01*
X58331315Y-44289437D01*
X58525969Y-44046923D01*
X58669571Y-43771094D01*
X58740563Y-43552980D01*
X58620594Y-43307000D01*
X57277000Y-43307000D01*
X57277000Y-43327000D01*
X57023000Y-43327000D01*
X57023000Y-43307000D01*
X55679406Y-43307000D01*
X55559437Y-43552980D01*
X55630429Y-43771094D01*
X55774031Y-44046923D01*
X55968685Y-44289437D01*
X56153899Y-44444837D01*
X55974537Y-44592037D01*
X55776155Y-44833765D01*
X55628745Y-45109551D01*
X55537970Y-45408796D01*
X55507319Y-45720000D01*
X55537970Y-46031204D01*
X55628745Y-46330449D01*
X55776155Y-46606235D01*
X55879446Y-46732095D01*
X55795506Y-46776963D01*
X55698815Y-46856315D01*
X55619463Y-46953006D01*
X55560498Y-47063320D01*
X55524188Y-47183018D01*
X55511928Y-47307500D01*
X55511928Y-47500000D01*
X51892775Y-47500000D01*
X51831962Y-47408987D01*
X51646013Y-47223038D01*
X51427359Y-47076939D01*
X51184405Y-46976304D01*
X50926486Y-46925000D01*
X50663514Y-46925000D01*
X50405595Y-46976304D01*
X50162641Y-47076939D01*
X49943987Y-47223038D01*
X49845000Y-47322025D01*
X49746013Y-47223038D01*
X49527359Y-47076939D01*
X49284405Y-46976304D01*
X49026486Y-46925000D01*
X48763514Y-46925000D01*
X48505595Y-46976304D01*
X48262641Y-47076939D01*
X48043987Y-47223038D01*
X47858038Y-47408987D01*
X47711939Y-47627641D01*
X47637256Y-47807942D01*
X44615000Y-50830199D01*
X44615000Y-50658665D01*
X44578688Y-50476113D01*
X49406004Y-45648798D01*
X49435001Y-45625001D01*
X49529974Y-45509276D01*
X49600546Y-45377247D01*
X49644003Y-45233986D01*
X49655000Y-45122333D01*
X49655000Y-45122332D01*
X49658677Y-45085000D01*
X49655000Y-45047667D01*
X49655000Y-42807020D01*
X55559437Y-42807020D01*
X55679406Y-43053000D01*
X57023000Y-43053000D01*
X57023000Y-41754430D01*
X57277000Y-41754430D01*
X57277000Y-43053000D01*
X58620594Y-43053000D01*
X58740563Y-42807020D01*
X58669571Y-42588906D01*
X58525969Y-42313077D01*
X58331315Y-42070563D01*
X58093089Y-41870684D01*
X57820446Y-41721121D01*
X57523863Y-41627622D01*
X57277000Y-41754430D01*
X57023000Y-41754430D01*
X56776137Y-41627622D01*
X56479554Y-41721121D01*
X56206911Y-41870684D01*
X55968685Y-42070563D01*
X55774031Y-42313077D01*
X55630429Y-42588906D01*
X55559437Y-42807020D01*
X49655000Y-42807020D01*
X49655000Y-37927775D01*
X49746013Y-37866962D01*
X49845000Y-37767975D01*
X49943987Y-37866962D01*
X50162641Y-38013061D01*
X50405595Y-38113696D01*
X50663514Y-38165000D01*
X50926486Y-38165000D01*
X51184405Y-38113696D01*
X51427359Y-38013061D01*
X51646013Y-37866962D01*
X51831962Y-37681013D01*
X51892775Y-37590000D01*
X55511928Y-37590000D01*
X55511928Y-37782500D01*
X55524188Y-37906982D01*
X55560498Y-38026680D01*
X55619463Y-38136994D01*
X55698815Y-38233685D01*
X55795506Y-38313037D01*
X55905820Y-38372002D01*
X56025518Y-38408312D01*
X56150000Y-38420572D01*
X58150000Y-38420572D01*
X58274482Y-38408312D01*
X58394180Y-38372002D01*
X58504494Y-38313037D01*
X58601185Y-38233685D01*
X58680537Y-38136994D01*
X58739502Y-38026680D01*
X58775812Y-37906982D01*
X58788072Y-37782500D01*
X58788072Y-35877500D01*
X58775812Y-35753018D01*
X58739502Y-35633320D01*
X58680537Y-35523006D01*
X58601185Y-35426315D01*
X58504494Y-35346963D01*
X58420554Y-35302095D01*
X58523845Y-35176235D01*
X58671255Y-34900449D01*
X58762030Y-34601204D01*
X58792681Y-34290000D01*
X58762030Y-33978796D01*
X58671255Y-33679551D01*
X58523845Y-33403765D01*
X58325463Y-33162037D01*
X58146101Y-33014837D01*
X58331315Y-32859437D01*
X58525969Y-32616923D01*
X58669571Y-32341094D01*
X58740563Y-32122980D01*
X58620594Y-31877000D01*
X57277000Y-31877000D01*
X57277000Y-31897000D01*
X57023000Y-31897000D01*
X57023000Y-31877000D01*
X55679406Y-31877000D01*
X55559437Y-32122980D01*
X55630429Y-32341094D01*
X55774031Y-32616923D01*
X55968685Y-32859437D01*
X56153899Y-33014837D01*
X55974537Y-33162037D01*
X55776155Y-33403765D01*
X55628745Y-33679551D01*
X55537970Y-33978796D01*
X55507319Y-34290000D01*
X55537970Y-34601204D01*
X55628745Y-34900449D01*
X55776155Y-35176235D01*
X55879446Y-35302095D01*
X55795506Y-35346963D01*
X55698815Y-35426315D01*
X55619463Y-35523006D01*
X55560498Y-35633320D01*
X55524188Y-35753018D01*
X55511928Y-35877500D01*
X55511928Y-36070000D01*
X51892775Y-36070000D01*
X51831962Y-35978987D01*
X51646013Y-35793038D01*
X51427359Y-35646939D01*
X51184405Y-35546304D01*
X50926486Y-35495000D01*
X50663514Y-35495000D01*
X50405595Y-35546304D01*
X50162641Y-35646939D01*
X49943987Y-35793038D01*
X49845000Y-35892025D01*
X49746013Y-35793038D01*
X49527359Y-35646939D01*
X49284405Y-35546304D01*
X49026486Y-35495000D01*
X48763514Y-35495000D01*
X48505595Y-35546304D01*
X48262641Y-35646939D01*
X48043987Y-35793038D01*
X47858038Y-35978987D01*
X47711939Y-36197641D01*
X47611304Y-36440595D01*
X47560000Y-36698514D01*
X47560000Y-36961486D01*
X47611304Y-37219405D01*
X47711939Y-37462359D01*
X47858038Y-37681013D01*
X48043987Y-37866962D01*
X48135001Y-37927775D01*
X48135000Y-44770198D01*
X44615000Y-48290199D01*
X44615000Y-48118665D01*
X44559853Y-47841426D01*
X44451680Y-47580273D01*
X44294637Y-47345241D01*
X44094759Y-47145363D01*
X43862241Y-46990000D01*
X44094759Y-46834637D01*
X44294637Y-46634759D01*
X44451680Y-46399727D01*
X44559853Y-46138574D01*
X44615000Y-45861335D01*
X44615000Y-45578665D01*
X44559853Y-45301426D01*
X44451680Y-45040273D01*
X44294637Y-44805241D01*
X44094759Y-44605363D01*
X43862241Y-44450000D01*
X44094759Y-44294637D01*
X44294637Y-44094759D01*
X44451680Y-43859727D01*
X44559853Y-43598574D01*
X44615000Y-43321335D01*
X44615000Y-43038665D01*
X44559853Y-42761426D01*
X44451680Y-42500273D01*
X44294637Y-42265241D01*
X44094759Y-42065363D01*
X43862241Y-41910000D01*
X44094759Y-41754637D01*
X44294637Y-41554759D01*
X44451680Y-41319727D01*
X44559853Y-41058574D01*
X44615000Y-40781335D01*
X44615000Y-40498665D01*
X44559853Y-40221426D01*
X44451680Y-39960273D01*
X44294637Y-39725241D01*
X44094759Y-39525363D01*
X43862241Y-39370000D01*
X44094759Y-39214637D01*
X44294637Y-39014759D01*
X44451680Y-38779727D01*
X44559853Y-38518574D01*
X44615000Y-38241335D01*
X44615000Y-37958665D01*
X44559853Y-37681426D01*
X44451680Y-37420273D01*
X44294637Y-37185241D01*
X44094759Y-36985363D01*
X43862241Y-36830000D01*
X44094759Y-36674637D01*
X44294637Y-36474759D01*
X44451680Y-36239727D01*
X44559853Y-35978574D01*
X44615000Y-35701335D01*
X44615000Y-35418665D01*
X44559853Y-35141426D01*
X44451680Y-34880273D01*
X44294637Y-34645241D01*
X44094759Y-34445363D01*
X43862241Y-34290000D01*
X44094759Y-34134637D01*
X44294637Y-33934759D01*
X44451680Y-33699727D01*
X44559853Y-33438574D01*
X44615000Y-33161335D01*
X44615000Y-32878665D01*
X44559853Y-32601426D01*
X44451680Y-32340273D01*
X44294637Y-32105241D01*
X44094759Y-31905363D01*
X43862241Y-31750000D01*
X44094759Y-31594637D01*
X44294637Y-31394759D01*
X44306489Y-31377020D01*
X55559437Y-31377020D01*
X55679406Y-31623000D01*
X57023000Y-31623000D01*
X57023000Y-30324430D01*
X57277000Y-30324430D01*
X57277000Y-31623000D01*
X58620594Y-31623000D01*
X58740563Y-31377020D01*
X58669571Y-31158906D01*
X58525969Y-30883077D01*
X58331315Y-30640563D01*
X58093089Y-30440684D01*
X57820446Y-30291121D01*
X57523863Y-30197622D01*
X57277000Y-30324430D01*
X57023000Y-30324430D01*
X56776137Y-30197622D01*
X56479554Y-30291121D01*
X56206911Y-30440684D01*
X55968685Y-30640563D01*
X55774031Y-30883077D01*
X55630429Y-31158906D01*
X55559437Y-31377020D01*
X44306489Y-31377020D01*
X44451680Y-31159727D01*
X44559853Y-30898574D01*
X44615000Y-30621335D01*
X44615000Y-30338665D01*
X44559853Y-30061426D01*
X44451680Y-29800273D01*
X44294637Y-29565241D01*
X44094759Y-29365363D01*
X43859727Y-29208320D01*
X43598574Y-29100147D01*
X43321335Y-29045000D01*
X43038665Y-29045000D01*
X42761426Y-29100147D01*
X42500273Y-29208320D01*
X42265241Y-29365363D01*
X42065363Y-29565241D01*
X41908320Y-29800273D01*
X41800147Y-30061426D01*
X41745000Y-30338665D01*
X29375000Y-30338665D01*
X29319853Y-30061426D01*
X29211680Y-29800273D01*
X29054637Y-29565241D01*
X28854759Y-29365363D01*
X28619727Y-29208320D01*
X28358574Y-29100147D01*
X28081335Y-29045000D01*
X27798665Y-29045000D01*
X27521426Y-29100147D01*
X27260273Y-29208320D01*
X27025241Y-29365363D01*
X26825363Y-29565241D01*
X26668320Y-29800273D01*
X26560147Y-30061426D01*
X26505000Y-30338665D01*
X26505000Y-30510198D01*
X22985000Y-26990199D01*
X22985000Y-26152087D01*
X23099482Y-26140812D01*
X23219180Y-26104502D01*
X23329494Y-26045537D01*
X23426185Y-25966185D01*
X23505537Y-25869494D01*
X23564502Y-25759180D01*
X23600812Y-25639482D01*
X23613072Y-25515000D01*
X23613072Y-24015000D01*
X23600812Y-23890518D01*
X23564502Y-23770820D01*
X23505537Y-23660506D01*
X23426185Y-23563815D01*
X23329494Y-23484463D01*
X23219180Y-23425498D01*
X23099482Y-23389188D01*
X22991517Y-23378555D01*
X23107886Y-23300799D01*
X23300799Y-23107886D01*
X23452371Y-22881043D01*
X23556775Y-22628989D01*
X23610000Y-22361411D01*
X23610000Y-22088589D01*
X23556775Y-21821011D01*
X23493903Y-21669224D01*
X56060381Y-21669224D01*
X56192317Y-21964312D01*
X56533045Y-22135159D01*
X56900557Y-22236250D01*
X57280729Y-22263701D01*
X57658951Y-22216457D01*
X58020690Y-22096333D01*
X58267683Y-21964312D01*
X58399619Y-21669224D01*
X57230000Y-20499605D01*
X56060381Y-21669224D01*
X23493903Y-21669224D01*
X23452371Y-21568957D01*
X23300799Y-21342114D01*
X23107886Y-21149201D01*
X22881043Y-20997629D01*
X22778127Y-20955000D01*
X22881043Y-20912371D01*
X23107886Y-20760799D01*
X23300799Y-20567886D01*
X23432535Y-20370729D01*
X55286299Y-20370729D01*
X55333543Y-20748951D01*
X55453667Y-21110690D01*
X55585688Y-21357683D01*
X55880776Y-21489619D01*
X57050395Y-20320000D01*
X57409605Y-20320000D01*
X58579224Y-21489619D01*
X58874312Y-21357683D01*
X59045159Y-21016955D01*
X59146250Y-20649443D01*
X59173701Y-20269271D01*
X59126457Y-19891049D01*
X59006333Y-19529310D01*
X58874312Y-19282317D01*
X58579224Y-19150381D01*
X57409605Y-20320000D01*
X57050395Y-20320000D01*
X55880776Y-19150381D01*
X55585688Y-19282317D01*
X55414841Y-19623045D01*
X55313750Y-19990557D01*
X55286299Y-20370729D01*
X23432535Y-20370729D01*
X23452371Y-20341043D01*
X23556775Y-20088989D01*
X23610000Y-19821411D01*
X23610000Y-19548589D01*
X23556775Y-19281011D01*
X23452371Y-19028957D01*
X23413496Y-18970776D01*
X56060381Y-18970776D01*
X57230000Y-20140395D01*
X58350395Y-19020000D01*
X60291928Y-19020000D01*
X60291928Y-21620000D01*
X60304188Y-21744482D01*
X60340498Y-21864180D01*
X60399463Y-21974494D01*
X60478815Y-22071185D01*
X60575506Y-22150537D01*
X60685820Y-22209502D01*
X60805518Y-22245812D01*
X60930000Y-22258072D01*
X62916493Y-22258072D01*
X63615000Y-22956579D01*
X63615001Y-32805375D01*
X63525518Y-32814188D01*
X63405820Y-32850498D01*
X63295506Y-32909463D01*
X63198815Y-32988815D01*
X63119463Y-33085506D01*
X63060498Y-33195820D01*
X63038487Y-33268380D01*
X62906632Y-33136525D01*
X62663411Y-32974010D01*
X62393158Y-32862068D01*
X62106260Y-32805000D01*
X61813740Y-32805000D01*
X61526842Y-32862068D01*
X61256589Y-32974010D01*
X61013368Y-33136525D01*
X60806525Y-33343368D01*
X60644010Y-33586589D01*
X60532068Y-33856842D01*
X60475000Y-34143740D01*
X60475000Y-34436260D01*
X60532068Y-34723158D01*
X60644010Y-34993411D01*
X60806525Y-35236632D01*
X61013368Y-35443475D01*
X61256589Y-35605990D01*
X61526842Y-35717932D01*
X61813740Y-35775000D01*
X62106260Y-35775000D01*
X62393158Y-35717932D01*
X62663411Y-35605990D01*
X62906632Y-35443475D01*
X63038487Y-35311620D01*
X63060498Y-35384180D01*
X63119463Y-35494494D01*
X63198815Y-35591185D01*
X63295506Y-35670537D01*
X63405820Y-35729502D01*
X63525518Y-35765812D01*
X63615000Y-35774625D01*
X63615001Y-44235375D01*
X63525518Y-44244188D01*
X63405820Y-44280498D01*
X63295506Y-44339463D01*
X63198815Y-44418815D01*
X63119463Y-44515506D01*
X63060498Y-44625820D01*
X63038487Y-44698380D01*
X62906632Y-44566525D01*
X62663411Y-44404010D01*
X62393158Y-44292068D01*
X62106260Y-44235000D01*
X61813740Y-44235000D01*
X61526842Y-44292068D01*
X61256589Y-44404010D01*
X61013368Y-44566525D01*
X60806525Y-44773368D01*
X60644010Y-45016589D01*
X60532068Y-45286842D01*
X60475000Y-45573740D01*
X60475000Y-45866260D01*
X60532068Y-46153158D01*
X60644010Y-46423411D01*
X60806525Y-46666632D01*
X61013368Y-46873475D01*
X61256589Y-47035990D01*
X61526842Y-47147932D01*
X61813740Y-47205000D01*
X62106260Y-47205000D01*
X62393158Y-47147932D01*
X62663411Y-47035990D01*
X62906632Y-46873475D01*
X63038487Y-46741620D01*
X63060498Y-46814180D01*
X63119463Y-46924494D01*
X63198815Y-47021185D01*
X63295506Y-47100537D01*
X63405820Y-47159502D01*
X63525518Y-47195812D01*
X63615000Y-47204625D01*
X63615001Y-55665375D01*
X63525518Y-55674188D01*
X63405820Y-55710498D01*
X63295506Y-55769463D01*
X63198815Y-55848815D01*
X63119463Y-55945506D01*
X63060498Y-56055820D01*
X63038487Y-56128380D01*
X62906632Y-55996525D01*
X62663411Y-55834010D01*
X62393158Y-55722068D01*
X62106260Y-55665000D01*
X61813740Y-55665000D01*
X61526842Y-55722068D01*
X61256589Y-55834010D01*
X61013368Y-55996525D01*
X60806525Y-56203368D01*
X60644010Y-56446589D01*
X60532068Y-56716842D01*
X60475000Y-57003740D01*
X60475000Y-57296260D01*
X60532068Y-57583158D01*
X60644010Y-57853411D01*
X60806525Y-58096632D01*
X61013368Y-58303475D01*
X61256589Y-58465990D01*
X61526842Y-58577932D01*
X61813740Y-58635000D01*
X62106260Y-58635000D01*
X62393158Y-58577932D01*
X62663411Y-58465990D01*
X62906632Y-58303475D01*
X63038487Y-58171620D01*
X63060498Y-58244180D01*
X63119463Y-58354494D01*
X63198815Y-58451185D01*
X63295506Y-58530537D01*
X63405820Y-58589502D01*
X63525518Y-58625812D01*
X63650000Y-58638072D01*
X65350000Y-58638072D01*
X65474482Y-58625812D01*
X65594180Y-58589502D01*
X65704494Y-58530537D01*
X65801185Y-58451185D01*
X65880537Y-58354494D01*
X65939502Y-58244180D01*
X65975812Y-58124482D01*
X65988072Y-58000000D01*
X65988072Y-56300000D01*
X65975812Y-56175518D01*
X65939502Y-56055820D01*
X65880537Y-55945506D01*
X65801185Y-55848815D01*
X65704494Y-55769463D01*
X65594180Y-55710498D01*
X65474482Y-55674188D01*
X65385000Y-55665375D01*
X65385000Y-47204625D01*
X65474482Y-47195812D01*
X65594180Y-47159502D01*
X65704494Y-47100537D01*
X65801185Y-47021185D01*
X65880537Y-46924494D01*
X65939502Y-46814180D01*
X65975812Y-46694482D01*
X65988072Y-46570000D01*
X65988072Y-44870000D01*
X65975812Y-44745518D01*
X65939502Y-44625820D01*
X65880537Y-44515506D01*
X65801185Y-44418815D01*
X65704494Y-44339463D01*
X65594180Y-44280498D01*
X65474482Y-44244188D01*
X65385000Y-44235375D01*
X65385000Y-35774625D01*
X65474482Y-35765812D01*
X65594180Y-35729502D01*
X65704494Y-35670537D01*
X65801185Y-35591185D01*
X65880537Y-35494494D01*
X65939502Y-35384180D01*
X65975812Y-35264482D01*
X65988072Y-35140000D01*
X65988072Y-33440000D01*
X65975812Y-33315518D01*
X65939502Y-33195820D01*
X65880537Y-33085506D01*
X65801185Y-32988815D01*
X65704494Y-32909463D01*
X65594180Y-32850498D01*
X65474482Y-32814188D01*
X65385000Y-32805375D01*
X65385000Y-22926579D01*
X66170001Y-23711580D01*
X66170002Y-68815684D01*
X65940250Y-68720518D01*
X65585732Y-68650000D01*
X65224268Y-68650000D01*
X64869750Y-68720518D01*
X64535801Y-68858844D01*
X64235256Y-69059662D01*
X63979662Y-69315256D01*
X63778844Y-69615801D01*
X63640518Y-69949750D01*
X63570000Y-70304268D01*
X63570000Y-70665732D01*
X63640518Y-71020250D01*
X63778844Y-71354199D01*
X63979662Y-71654744D01*
X64235256Y-71910338D01*
X64535801Y-72111156D01*
X64869750Y-72249482D01*
X65224268Y-72320000D01*
X65585732Y-72320000D01*
X65940250Y-72249482D01*
X66170002Y-72154316D01*
X66170002Y-72428419D01*
X65991493Y-72606928D01*
X64455000Y-72606928D01*
X64281746Y-72623992D01*
X64115150Y-72674528D01*
X63961614Y-72756595D01*
X63827038Y-72867038D01*
X63716595Y-73001614D01*
X63634528Y-73155150D01*
X63583992Y-73321746D01*
X63566928Y-73495000D01*
X63566928Y-75395000D01*
X63583992Y-75568254D01*
X63634528Y-75734850D01*
X63716595Y-75888386D01*
X63827038Y-76022962D01*
X63961614Y-76133405D01*
X64115150Y-76215472D01*
X64281746Y-76266008D01*
X64455000Y-76283072D01*
X66355000Y-76283072D01*
X66528254Y-76266008D01*
X66694850Y-76215472D01*
X66848386Y-76133405D01*
X66982962Y-76022962D01*
X67093405Y-75888386D01*
X67175472Y-75734850D01*
X67226008Y-75568254D01*
X67243072Y-75395000D01*
X67243072Y-73858507D01*
X67650050Y-73451529D01*
X67683818Y-73423816D01*
X67767586Y-73321746D01*
X67794412Y-73289058D01*
X67855919Y-73173985D01*
X67876590Y-73135312D01*
X67927196Y-72968489D01*
X67940001Y-72838476D01*
X67940001Y-72838468D01*
X67944282Y-72794999D01*
X67940001Y-72751530D01*
X67940001Y-23388466D01*
X67944282Y-23345000D01*
X67940001Y-23301534D01*
X67940001Y-23301524D01*
X67927196Y-23171511D01*
X67876590Y-23004688D01*
X67794412Y-22850942D01*
X67770211Y-22821453D01*
X67711533Y-22749954D01*
X67711531Y-22749952D01*
X67683818Y-22716184D01*
X67650051Y-22688472D01*
X64686534Y-19724956D01*
X64658817Y-19691183D01*
X64524059Y-19580589D01*
X64370313Y-19498411D01*
X64203490Y-19447805D01*
X64168072Y-19444317D01*
X64168072Y-19020000D01*
X64155812Y-18895518D01*
X64119502Y-18775820D01*
X64060537Y-18665506D01*
X63981185Y-18568815D01*
X63884494Y-18489463D01*
X63774180Y-18430498D01*
X63654482Y-18394188D01*
X63530000Y-18381928D01*
X60930000Y-18381928D01*
X60805518Y-18394188D01*
X60685820Y-18430498D01*
X60575506Y-18489463D01*
X60478815Y-18568815D01*
X60399463Y-18665506D01*
X60340498Y-18775820D01*
X60304188Y-18895518D01*
X60291928Y-19020000D01*
X58350395Y-19020000D01*
X58399619Y-18970776D01*
X58267683Y-18675688D01*
X57926955Y-18504841D01*
X57559443Y-18403750D01*
X57179271Y-18376299D01*
X56801049Y-18423543D01*
X56439310Y-18543667D01*
X56192317Y-18675688D01*
X56060381Y-18970776D01*
X23413496Y-18970776D01*
X23300799Y-18802114D01*
X23107886Y-18609201D01*
X22881043Y-18457629D01*
X22781721Y-18416489D01*
X22823832Y-18401277D01*
X22936863Y-18340860D01*
X23002388Y-18101993D01*
X22225000Y-17324605D01*
X21447612Y-18101993D01*
X21513137Y-18340860D01*
X21671477Y-18415164D01*
X21568957Y-18457629D01*
X21342114Y-18609201D01*
X21149201Y-18802114D01*
X20997629Y-19028957D01*
X20893225Y-19281011D01*
X20840000Y-19548589D01*
X20840000Y-19821411D01*
X20893225Y-20088989D01*
X20997629Y-20341043D01*
X21149201Y-20567886D01*
X21342114Y-20760799D01*
X21568957Y-20912371D01*
X21671873Y-20955000D01*
X21568957Y-20997629D01*
X21342114Y-21149201D01*
X21149201Y-21342114D01*
X20997629Y-21568957D01*
X20893225Y-21821011D01*
X20840000Y-22088589D01*
X20840000Y-22361411D01*
X20868833Y-22506365D01*
X20054002Y-23321197D01*
X20024998Y-23345000D01*
X19970351Y-23411588D01*
X19930025Y-23460725D01*
X19920107Y-23479281D01*
X19859453Y-23592755D01*
X19815996Y-23736016D01*
X19804999Y-23847669D01*
X19804999Y-23847679D01*
X19801323Y-23885001D01*
X19804999Y-23922323D01*
X19805000Y-37037667D01*
X19801323Y-37074999D01*
X19805000Y-37112332D01*
X19815997Y-37223985D01*
X19823581Y-37248987D01*
X19859453Y-37367245D01*
X19930025Y-37499275D01*
X19995457Y-37579003D01*
X20024999Y-37615000D01*
X20053997Y-37638798D01*
X20276355Y-37861156D01*
X20255000Y-37968514D01*
X20255000Y-38231486D01*
X20306304Y-38489405D01*
X20406939Y-38732359D01*
X20553038Y-38951013D01*
X20738987Y-39136962D01*
X20957641Y-39283061D01*
X21200595Y-39383696D01*
X21458514Y-39435000D01*
X21721486Y-39435000D01*
X21979405Y-39383696D01*
X22222359Y-39283061D01*
X22441013Y-39136962D01*
X22626962Y-38951013D01*
X22687775Y-38860000D01*
X26721957Y-38860000D01*
X26825363Y-39014759D01*
X27025241Y-39214637D01*
X27257759Y-39370000D01*
X27025241Y-39525363D01*
X26825363Y-39725241D01*
X26668320Y-39960273D01*
X26560147Y-40221426D01*
X26505000Y-40498665D01*
X26505000Y-40781335D01*
X26541312Y-40963886D01*
X25085199Y-42420000D01*
X23503178Y-42420000D01*
X23378475Y-42233368D01*
X23171632Y-42026525D01*
X22928411Y-41864010D01*
X22658158Y-41752068D01*
X22371260Y-41695000D01*
X22078740Y-41695000D01*
X21791842Y-41752068D01*
X21521589Y-41864010D01*
X21278368Y-42026525D01*
X21071525Y-42233368D01*
X20909010Y-42476589D01*
X20797068Y-42746842D01*
X20740000Y-43033740D01*
X20740000Y-43326260D01*
X20797068Y-43613158D01*
X20909010Y-43883411D01*
X21071525Y-44126632D01*
X21278368Y-44333475D01*
X21452760Y-44450000D01*
X21278368Y-44566525D01*
X21071525Y-44773368D01*
X20909010Y-45016589D01*
X20797068Y-45286842D01*
X20740000Y-45573740D01*
X20740000Y-45866260D01*
X20783790Y-46086407D01*
X19174003Y-47696196D01*
X19144999Y-47719999D01*
X19089871Y-47787174D01*
X19075000Y-47805293D01*
X19075000Y-17217492D01*
X20835188Y-17217492D01*
X20876035Y-17487238D01*
X20968723Y-17743832D01*
X21029140Y-17856863D01*
X21268007Y-17922388D01*
X22045395Y-17145000D01*
X22404605Y-17145000D01*
X23181993Y-17922388D01*
X23420860Y-17856863D01*
X23536760Y-17609884D01*
X23602250Y-17345040D01*
X23614812Y-17072508D01*
X23573965Y-16802762D01*
X23481277Y-16546168D01*
X23420860Y-16433137D01*
X23181993Y-16367612D01*
X22404605Y-17145000D01*
X22045395Y-17145000D01*
X21268007Y-16367612D01*
X21029140Y-16433137D01*
X20913240Y-16680116D01*
X20847750Y-16944960D01*
X20835188Y-17217492D01*
X19075000Y-17217492D01*
X19075000Y-16188007D01*
X21447612Y-16188007D01*
X22225000Y-16965395D01*
X23002388Y-16188007D01*
X22936863Y-15949140D01*
X22689884Y-15833240D01*
X22425040Y-15767750D01*
X22152508Y-15755188D01*
X21882762Y-15796035D01*
X21626168Y-15888723D01*
X21513137Y-15949140D01*
X21447612Y-16188007D01*
X19075000Y-16188007D01*
X19075000Y-14630000D01*
X69825000Y-14630000D01*
X69825001Y-76810000D01*
%TA.AperFunction,Conductor*%
D26*
G36*
X69825001Y-76810000D02*
G01*
X19075000Y-76810000D01*
X19075000Y-70939707D01*
X19089871Y-70957826D01*
X19144999Y-71025001D01*
X19174003Y-71048804D01*
X20783790Y-72658593D01*
X20740000Y-72878740D01*
X20740000Y-73171260D01*
X20797068Y-73458158D01*
X20909010Y-73728411D01*
X21071525Y-73971632D01*
X21278368Y-74178475D01*
X21521589Y-74340990D01*
X21791842Y-74452932D01*
X22078740Y-74510000D01*
X22371260Y-74510000D01*
X22591408Y-74466210D01*
X22931201Y-74806003D01*
X22954999Y-74835001D01*
X23070724Y-74929974D01*
X23202753Y-75000546D01*
X23346014Y-75044003D01*
X23457667Y-75055000D01*
X23457676Y-75055000D01*
X23494999Y-75058676D01*
X23532322Y-75055000D01*
X48326928Y-75055000D01*
X48326928Y-75245000D01*
X48343992Y-75418254D01*
X48394528Y-75584850D01*
X48476595Y-75738386D01*
X48587038Y-75872962D01*
X48721614Y-75983405D01*
X48875150Y-76065472D01*
X49041746Y-76116008D01*
X49215000Y-76133072D01*
X51115000Y-76133072D01*
X51288254Y-76116008D01*
X51454850Y-76065472D01*
X51608386Y-75983405D01*
X51742962Y-75872962D01*
X51853405Y-75738386D01*
X51935472Y-75584850D01*
X51986008Y-75418254D01*
X52003072Y-75245000D01*
X52003072Y-73345000D01*
X51986008Y-73171746D01*
X51935472Y-73005150D01*
X51853405Y-72851614D01*
X51742962Y-72717038D01*
X51608386Y-72606595D01*
X51454850Y-72524528D01*
X51288254Y-72473992D01*
X51115000Y-72456928D01*
X49215000Y-72456928D01*
X49041746Y-72473992D01*
X48875150Y-72524528D01*
X48721614Y-72606595D01*
X48587038Y-72717038D01*
X48476595Y-72851614D01*
X48394528Y-73005150D01*
X48343992Y-73171746D01*
X48326928Y-73345000D01*
X48326928Y-73535000D01*
X23809802Y-73535000D01*
X23666210Y-73391408D01*
X23710000Y-73171260D01*
X23710000Y-72878740D01*
X23652932Y-72591842D01*
X23540990Y-72321589D01*
X23378475Y-72078368D01*
X23246620Y-71946513D01*
X23319180Y-71924502D01*
X23429494Y-71865537D01*
X23526185Y-71786185D01*
X23605537Y-71689494D01*
X23664502Y-71579180D01*
X23700812Y-71459482D01*
X23713072Y-71335000D01*
X23713072Y-71245000D01*
X25122680Y-71245000D01*
X25160002Y-71248676D01*
X25197324Y-71245000D01*
X25197335Y-71245000D01*
X25308988Y-71234003D01*
X25452249Y-71190546D01*
X25584278Y-71119974D01*
X25700003Y-71025001D01*
X25723806Y-70995997D01*
X26565535Y-70154268D01*
X48330000Y-70154268D01*
X48330000Y-70515732D01*
X48400518Y-70870250D01*
X48538844Y-71204199D01*
X48739662Y-71504744D01*
X48995256Y-71760338D01*
X49295801Y-71961156D01*
X49629750Y-72099482D01*
X49984268Y-72170000D01*
X50345732Y-72170000D01*
X50700250Y-72099482D01*
X51034199Y-71961156D01*
X51334744Y-71760338D01*
X51590338Y-71504744D01*
X51791156Y-71204199D01*
X51929482Y-70870250D01*
X52000000Y-70515732D01*
X52000000Y-70154268D01*
X51929482Y-69799750D01*
X51791156Y-69465801D01*
X51590338Y-69165256D01*
X51334744Y-68909662D01*
X51034199Y-68708844D01*
X50700250Y-68570518D01*
X50345732Y-68500000D01*
X49984268Y-68500000D01*
X49629750Y-68570518D01*
X49295801Y-68708844D01*
X48995256Y-68909662D01*
X48739662Y-69165256D01*
X48538844Y-69465801D01*
X48400518Y-69799750D01*
X48330000Y-70154268D01*
X26565535Y-70154268D01*
X29576005Y-67143799D01*
X29605002Y-67120002D01*
X29699975Y-67004277D01*
X29770547Y-66872248D01*
X29814004Y-66728987D01*
X29825001Y-66617334D01*
X29825001Y-66617333D01*
X29828678Y-66580001D01*
X29825001Y-66542668D01*
X29825001Y-65240000D01*
X41741928Y-65240000D01*
X41741928Y-66840000D01*
X41754188Y-66964482D01*
X41790498Y-67084180D01*
X41849463Y-67194494D01*
X41928815Y-67291185D01*
X42025506Y-67370537D01*
X42135820Y-67429502D01*
X42255518Y-67465812D01*
X42380000Y-67478072D01*
X43980000Y-67478072D01*
X44104482Y-67465812D01*
X44224180Y-67429502D01*
X44334494Y-67370537D01*
X44431185Y-67291185D01*
X44510537Y-67194494D01*
X44569502Y-67084180D01*
X44605812Y-66964482D01*
X44618072Y-66840000D01*
X44618072Y-65240000D01*
X44605812Y-65115518D01*
X44569502Y-64995820D01*
X44510537Y-64885506D01*
X44431185Y-64788815D01*
X44334494Y-64709463D01*
X44224180Y-64650498D01*
X44104482Y-64614188D01*
X44096039Y-64613357D01*
X44294637Y-64414759D01*
X44451680Y-64179727D01*
X44559853Y-63918574D01*
X44615000Y-63641335D01*
X44615000Y-63358665D01*
X44559853Y-63081426D01*
X44451680Y-62820273D01*
X44294637Y-62585241D01*
X44094759Y-62385363D01*
X43862241Y-62230000D01*
X44094759Y-62074637D01*
X44294637Y-61874759D01*
X44451680Y-61639727D01*
X44559853Y-61378574D01*
X44615000Y-61101335D01*
X44615000Y-60818665D01*
X44559853Y-60541426D01*
X44451680Y-60280273D01*
X44294637Y-60045241D01*
X44094759Y-59845363D01*
X43859727Y-59688320D01*
X43849135Y-59683933D01*
X44035131Y-59572385D01*
X44243519Y-59383414D01*
X44411037Y-59157420D01*
X44531246Y-58903087D01*
X44571904Y-58769039D01*
X44449915Y-58547000D01*
X43307000Y-58547000D01*
X43307000Y-58567000D01*
X43053000Y-58567000D01*
X43053000Y-58547000D01*
X41910085Y-58547000D01*
X41788096Y-58769039D01*
X41828754Y-58903087D01*
X41948963Y-59157420D01*
X42116481Y-59383414D01*
X42324869Y-59572385D01*
X42510865Y-59683933D01*
X42500273Y-59688320D01*
X42265241Y-59845363D01*
X42065363Y-60045241D01*
X41908320Y-60280273D01*
X41800147Y-60541426D01*
X41745000Y-60818665D01*
X41745000Y-61101335D01*
X41800147Y-61378574D01*
X41908320Y-61639727D01*
X42065363Y-61874759D01*
X42265241Y-62074637D01*
X42497759Y-62230000D01*
X42265241Y-62385363D01*
X42065363Y-62585241D01*
X41908320Y-62820273D01*
X41800147Y-63081426D01*
X41745000Y-63358665D01*
X41745000Y-63641335D01*
X41800147Y-63918574D01*
X41908320Y-64179727D01*
X42065363Y-64414759D01*
X42263961Y-64613357D01*
X42255518Y-64614188D01*
X42135820Y-64650498D01*
X42025506Y-64709463D01*
X41928815Y-64788815D01*
X41849463Y-64885506D01*
X41790498Y-64995820D01*
X41754188Y-65115518D01*
X41741928Y-65240000D01*
X29825001Y-65240000D01*
X29825001Y-46882326D01*
X29828677Y-46845001D01*
X29825001Y-46807676D01*
X29825001Y-46807668D01*
X29814004Y-46696015D01*
X29770547Y-46552754D01*
X29699975Y-46420725D01*
X29605002Y-46305000D01*
X29576004Y-46281202D01*
X29338688Y-46043886D01*
X29375000Y-45861335D01*
X29375000Y-45578665D01*
X29319853Y-45301426D01*
X29211680Y-45040273D01*
X29054637Y-44805241D01*
X28854759Y-44605363D01*
X28622241Y-44450000D01*
X28854759Y-44294637D01*
X29054637Y-44094759D01*
X29211680Y-43859727D01*
X29319853Y-43598574D01*
X29375000Y-43321335D01*
X29375000Y-43038665D01*
X29319853Y-42761426D01*
X29211680Y-42500273D01*
X29054637Y-42265241D01*
X28854759Y-42065363D01*
X28622241Y-41910000D01*
X28854759Y-41754637D01*
X29054637Y-41554759D01*
X29211680Y-41319727D01*
X29319853Y-41058574D01*
X29375000Y-40781335D01*
X29375000Y-40498665D01*
X29319853Y-40221426D01*
X29211680Y-39960273D01*
X29054637Y-39725241D01*
X28854759Y-39525363D01*
X28622241Y-39370000D01*
X28854759Y-39214637D01*
X29054637Y-39014759D01*
X29211680Y-38779727D01*
X29319853Y-38518574D01*
X29375000Y-38241335D01*
X29375000Y-37958665D01*
X29319853Y-37681426D01*
X29211680Y-37420273D01*
X29054637Y-37185241D01*
X28854759Y-36985363D01*
X28622241Y-36830000D01*
X28854759Y-36674637D01*
X29054637Y-36474759D01*
X29211680Y-36239727D01*
X29319853Y-35978574D01*
X29375000Y-35701335D01*
X29375000Y-35418665D01*
X29319853Y-35141426D01*
X29211680Y-34880273D01*
X29054637Y-34645241D01*
X28854759Y-34445363D01*
X28622241Y-34290000D01*
X28854759Y-34134637D01*
X29054637Y-33934759D01*
X29211680Y-33699727D01*
X29319853Y-33438574D01*
X29375000Y-33161335D01*
X29375000Y-32878665D01*
X29319853Y-32601426D01*
X29211680Y-32340273D01*
X29054637Y-32105241D01*
X28854759Y-31905363D01*
X28622241Y-31750000D01*
X28854759Y-31594637D01*
X29054637Y-31394759D01*
X29211680Y-31159727D01*
X29319853Y-30898574D01*
X29375000Y-30621335D01*
X29375000Y-30338665D01*
X41745000Y-30338665D01*
X41745000Y-30621335D01*
X41800147Y-30898574D01*
X41908320Y-31159727D01*
X42065363Y-31394759D01*
X42265241Y-31594637D01*
X42497759Y-31750000D01*
X42265241Y-31905363D01*
X42065363Y-32105241D01*
X41908320Y-32340273D01*
X41800147Y-32601426D01*
X41745000Y-32878665D01*
X41745000Y-33161335D01*
X41800147Y-33438574D01*
X41908320Y-33699727D01*
X42065363Y-33934759D01*
X42265241Y-34134637D01*
X42497759Y-34290000D01*
X42265241Y-34445363D01*
X42065363Y-34645241D01*
X41908320Y-34880273D01*
X41800147Y-35141426D01*
X41745000Y-35418665D01*
X41745000Y-35701335D01*
X41800147Y-35978574D01*
X41908320Y-36239727D01*
X42065363Y-36474759D01*
X42265241Y-36674637D01*
X42497759Y-36830000D01*
X42265241Y-36985363D01*
X42065363Y-37185241D01*
X41908320Y-37420273D01*
X41800147Y-37681426D01*
X41745000Y-37958665D01*
X41745000Y-38241335D01*
X41800147Y-38518574D01*
X41908320Y-38779727D01*
X42065363Y-39014759D01*
X42265241Y-39214637D01*
X42497759Y-39370000D01*
X42265241Y-39525363D01*
X42065363Y-39725241D01*
X41908320Y-39960273D01*
X41800147Y-40221426D01*
X41745000Y-40498665D01*
X41745000Y-40781335D01*
X41800147Y-41058574D01*
X41908320Y-41319727D01*
X42065363Y-41554759D01*
X42265241Y-41754637D01*
X42497759Y-41910000D01*
X42265241Y-42065363D01*
X42065363Y-42265241D01*
X41908320Y-42500273D01*
X41800147Y-42761426D01*
X41745000Y-43038665D01*
X41745000Y-43321335D01*
X41800147Y-43598574D01*
X41908320Y-43859727D01*
X42065363Y-44094759D01*
X42265241Y-44294637D01*
X42497759Y-44450000D01*
X42265241Y-44605363D01*
X42065363Y-44805241D01*
X41908320Y-45040273D01*
X41800147Y-45301426D01*
X41745000Y-45578665D01*
X41745000Y-45861335D01*
X41800147Y-46138574D01*
X41908320Y-46399727D01*
X42065363Y-46634759D01*
X42265241Y-46834637D01*
X42497759Y-46990000D01*
X42265241Y-47145363D01*
X42065363Y-47345241D01*
X41908320Y-47580273D01*
X41800147Y-47841426D01*
X41745000Y-48118665D01*
X41745000Y-48401335D01*
X41800147Y-48678574D01*
X41908320Y-48939727D01*
X42065363Y-49174759D01*
X42265241Y-49374637D01*
X42497759Y-49530000D01*
X42265241Y-49685363D01*
X42065363Y-49885241D01*
X41908320Y-50120273D01*
X41800147Y-50381426D01*
X41745000Y-50658665D01*
X41745000Y-50941335D01*
X41800147Y-51218574D01*
X41908320Y-51479727D01*
X42065363Y-51714759D01*
X42265241Y-51914637D01*
X42497759Y-52070000D01*
X42265241Y-52225363D01*
X42065363Y-52425241D01*
X41908320Y-52660273D01*
X41800147Y-52921426D01*
X41745000Y-53198665D01*
X41745000Y-53481335D01*
X41800147Y-53758574D01*
X41908320Y-54019727D01*
X42065363Y-54254759D01*
X42265241Y-54454637D01*
X42497759Y-54610000D01*
X42265241Y-54765363D01*
X42065363Y-54965241D01*
X41908320Y-55200273D01*
X41800147Y-55461426D01*
X41745000Y-55738665D01*
X41745000Y-56021335D01*
X41800147Y-56298574D01*
X41908320Y-56559727D01*
X42065363Y-56794759D01*
X42265241Y-56994637D01*
X42500273Y-57151680D01*
X42510865Y-57156067D01*
X42324869Y-57267615D01*
X42116481Y-57456586D01*
X41948963Y-57682580D01*
X41828754Y-57936913D01*
X41788096Y-58070961D01*
X41910085Y-58293000D01*
X43053000Y-58293000D01*
X43053000Y-58273000D01*
X43307000Y-58273000D01*
X43307000Y-58293000D01*
X44449915Y-58293000D01*
X44571904Y-58070961D01*
X44531246Y-57936913D01*
X44411037Y-57682580D01*
X44243519Y-57456586D01*
X44035131Y-57267615D01*
X43849135Y-57156067D01*
X43859727Y-57151680D01*
X44094759Y-56994637D01*
X44294637Y-56794759D01*
X44398043Y-56640000D01*
X44770199Y-56640000D01*
X47581355Y-59451157D01*
X47560000Y-59558514D01*
X47560000Y-59821486D01*
X47611304Y-60079405D01*
X47711939Y-60322359D01*
X47858038Y-60541013D01*
X48043987Y-60726962D01*
X48262641Y-60873061D01*
X48505595Y-60973696D01*
X48763514Y-61025000D01*
X49026486Y-61025000D01*
X49284405Y-60973696D01*
X49527359Y-60873061D01*
X49746013Y-60726962D01*
X49845000Y-60627975D01*
X49943987Y-60726962D01*
X50162641Y-60873061D01*
X50405595Y-60973696D01*
X50663514Y-61025000D01*
X50926486Y-61025000D01*
X51184405Y-60973696D01*
X51427359Y-60873061D01*
X51646013Y-60726962D01*
X51831962Y-60541013D01*
X51892775Y-60450000D01*
X55511928Y-60450000D01*
X55511928Y-60642500D01*
X55524188Y-60766982D01*
X55560498Y-60886680D01*
X55619463Y-60996994D01*
X55698815Y-61093685D01*
X55795506Y-61173037D01*
X55905820Y-61232002D01*
X56025518Y-61268312D01*
X56150000Y-61280572D01*
X58150000Y-61280572D01*
X58274482Y-61268312D01*
X58394180Y-61232002D01*
X58504494Y-61173037D01*
X58601185Y-61093685D01*
X58680537Y-60996994D01*
X58739502Y-60886680D01*
X58775812Y-60766982D01*
X58788072Y-60642500D01*
X58788072Y-58737500D01*
X58775812Y-58613018D01*
X58739502Y-58493320D01*
X58680537Y-58383006D01*
X58601185Y-58286315D01*
X58504494Y-58206963D01*
X58420554Y-58162095D01*
X58523845Y-58036235D01*
X58671255Y-57760449D01*
X58762030Y-57461204D01*
X58792681Y-57150000D01*
X58762030Y-56838796D01*
X58671255Y-56539551D01*
X58523845Y-56263765D01*
X58325463Y-56022037D01*
X58146101Y-55874837D01*
X58331315Y-55719437D01*
X58525969Y-55476923D01*
X58669571Y-55201094D01*
X58740563Y-54982980D01*
X58620594Y-54737000D01*
X57277000Y-54737000D01*
X57277000Y-54757000D01*
X57023000Y-54757000D01*
X57023000Y-54737000D01*
X55679406Y-54737000D01*
X55559437Y-54982980D01*
X55630429Y-55201094D01*
X55774031Y-55476923D01*
X55968685Y-55719437D01*
X56153899Y-55874837D01*
X55974537Y-56022037D01*
X55776155Y-56263765D01*
X55628745Y-56539551D01*
X55537970Y-56838796D01*
X55507319Y-57150000D01*
X55537970Y-57461204D01*
X55628745Y-57760449D01*
X55776155Y-58036235D01*
X55879446Y-58162095D01*
X55795506Y-58206963D01*
X55698815Y-58286315D01*
X55619463Y-58383006D01*
X55560498Y-58493320D01*
X55524188Y-58613018D01*
X55511928Y-58737500D01*
X55511928Y-58930000D01*
X51892775Y-58930000D01*
X51831962Y-58838987D01*
X51646013Y-58653038D01*
X51427359Y-58506939D01*
X51184405Y-58406304D01*
X50926486Y-58355000D01*
X50663514Y-58355000D01*
X50405595Y-58406304D01*
X50162641Y-58506939D01*
X49943987Y-58653038D01*
X49845000Y-58752025D01*
X49746013Y-58653038D01*
X49527359Y-58506939D01*
X49284405Y-58406304D01*
X49026486Y-58355000D01*
X48763514Y-58355000D01*
X48656157Y-58376355D01*
X45648804Y-55369003D01*
X45625001Y-55339999D01*
X45509276Y-55245026D01*
X45377247Y-55174454D01*
X45233986Y-55130997D01*
X45122333Y-55120000D01*
X45122322Y-55120000D01*
X45085000Y-55116324D01*
X45047678Y-55120000D01*
X44398043Y-55120000D01*
X44294637Y-54965241D01*
X44094759Y-54765363D01*
X43862241Y-54610000D01*
X44094759Y-54454637D01*
X44294637Y-54254759D01*
X44306489Y-54237020D01*
X55559437Y-54237020D01*
X55679406Y-54483000D01*
X57023000Y-54483000D01*
X57023000Y-53184430D01*
X57277000Y-53184430D01*
X57277000Y-54483000D01*
X58620594Y-54483000D01*
X58740563Y-54237020D01*
X58669571Y-54018906D01*
X58525969Y-53743077D01*
X58331315Y-53500563D01*
X58093089Y-53300684D01*
X57820446Y-53151121D01*
X57523863Y-53057622D01*
X57277000Y-53184430D01*
X57023000Y-53184430D01*
X56776137Y-53057622D01*
X56479554Y-53151121D01*
X56206911Y-53300684D01*
X55968685Y-53500563D01*
X55774031Y-53743077D01*
X55630429Y-54018906D01*
X55559437Y-54237020D01*
X44306489Y-54237020D01*
X44451680Y-54019727D01*
X44559853Y-53758574D01*
X44615000Y-53481335D01*
X44615000Y-53198665D01*
X44578688Y-53016113D01*
X48196161Y-49398641D01*
X48262641Y-49443061D01*
X48505595Y-49543696D01*
X48763514Y-49595000D01*
X49026486Y-49595000D01*
X49284405Y-49543696D01*
X49527359Y-49443061D01*
X49746013Y-49296962D01*
X49845000Y-49197975D01*
X49943987Y-49296962D01*
X50162641Y-49443061D01*
X50405595Y-49543696D01*
X50663514Y-49595000D01*
X50926486Y-49595000D01*
X51184405Y-49543696D01*
X51427359Y-49443061D01*
X51646013Y-49296962D01*
X51831962Y-49111013D01*
X51892775Y-49020000D01*
X55511928Y-49020000D01*
X55511928Y-49212500D01*
X55524188Y-49336982D01*
X55560498Y-49456680D01*
X55619463Y-49566994D01*
X55698815Y-49663685D01*
X55795506Y-49743037D01*
X55905820Y-49802002D01*
X56025518Y-49838312D01*
X56150000Y-49850572D01*
X58150000Y-49850572D01*
X58274482Y-49838312D01*
X58394180Y-49802002D01*
X58504494Y-49743037D01*
X58601185Y-49663685D01*
X58680537Y-49566994D01*
X58739502Y-49456680D01*
X58775812Y-49336982D01*
X58788072Y-49212500D01*
X58788072Y-47307500D01*
X58775812Y-47183018D01*
X58739502Y-47063320D01*
X58680537Y-46953006D01*
X58601185Y-46856315D01*
X58504494Y-46776963D01*
X58420554Y-46732095D01*
X58523845Y-46606235D01*
X58671255Y-46330449D01*
X58762030Y-46031204D01*
X58792681Y-45720000D01*
X58762030Y-45408796D01*
X58671255Y-45109551D01*
X58523845Y-44833765D01*
X58325463Y-44592037D01*
X58146101Y-44444837D01*
X58331315Y-44289437D01*
X58525969Y-44046923D01*
X58669571Y-43771094D01*
X58740563Y-43552980D01*
X58620594Y-43307000D01*
X57277000Y-43307000D01*
X57277000Y-43327000D01*
X57023000Y-43327000D01*
X57023000Y-43307000D01*
X55679406Y-43307000D01*
X55559437Y-43552980D01*
X55630429Y-43771094D01*
X55774031Y-44046923D01*
X55968685Y-44289437D01*
X56153899Y-44444837D01*
X55974537Y-44592037D01*
X55776155Y-44833765D01*
X55628745Y-45109551D01*
X55537970Y-45408796D01*
X55507319Y-45720000D01*
X55537970Y-46031204D01*
X55628745Y-46330449D01*
X55776155Y-46606235D01*
X55879446Y-46732095D01*
X55795506Y-46776963D01*
X55698815Y-46856315D01*
X55619463Y-46953006D01*
X55560498Y-47063320D01*
X55524188Y-47183018D01*
X55511928Y-47307500D01*
X55511928Y-47500000D01*
X51892775Y-47500000D01*
X51831962Y-47408987D01*
X51646013Y-47223038D01*
X51427359Y-47076939D01*
X51184405Y-46976304D01*
X50926486Y-46925000D01*
X50663514Y-46925000D01*
X50405595Y-46976304D01*
X50162641Y-47076939D01*
X49943987Y-47223038D01*
X49845000Y-47322025D01*
X49746013Y-47223038D01*
X49527359Y-47076939D01*
X49284405Y-46976304D01*
X49026486Y-46925000D01*
X48763514Y-46925000D01*
X48505595Y-46976304D01*
X48262641Y-47076939D01*
X48043987Y-47223038D01*
X47858038Y-47408987D01*
X47711939Y-47627641D01*
X47637256Y-47807942D01*
X44615000Y-50830199D01*
X44615000Y-50658665D01*
X44578688Y-50476113D01*
X49406004Y-45648798D01*
X49435001Y-45625001D01*
X49529974Y-45509276D01*
X49600546Y-45377247D01*
X49644003Y-45233986D01*
X49655000Y-45122333D01*
X49655000Y-45122332D01*
X49658677Y-45085000D01*
X49655000Y-45047667D01*
X49655000Y-42807020D01*
X55559437Y-42807020D01*
X55679406Y-43053000D01*
X57023000Y-43053000D01*
X57023000Y-41754430D01*
X57277000Y-41754430D01*
X57277000Y-43053000D01*
X58620594Y-43053000D01*
X58740563Y-42807020D01*
X58669571Y-42588906D01*
X58525969Y-42313077D01*
X58331315Y-42070563D01*
X58093089Y-41870684D01*
X57820446Y-41721121D01*
X57523863Y-41627622D01*
X57277000Y-41754430D01*
X57023000Y-41754430D01*
X56776137Y-41627622D01*
X56479554Y-41721121D01*
X56206911Y-41870684D01*
X55968685Y-42070563D01*
X55774031Y-42313077D01*
X55630429Y-42588906D01*
X55559437Y-42807020D01*
X49655000Y-42807020D01*
X49655000Y-37927775D01*
X49746013Y-37866962D01*
X49845000Y-37767975D01*
X49943987Y-37866962D01*
X50162641Y-38013061D01*
X50405595Y-38113696D01*
X50663514Y-38165000D01*
X50926486Y-38165000D01*
X51184405Y-38113696D01*
X51427359Y-38013061D01*
X51646013Y-37866962D01*
X51831962Y-37681013D01*
X51892775Y-37590000D01*
X55511928Y-37590000D01*
X55511928Y-37782500D01*
X55524188Y-37906982D01*
X55560498Y-38026680D01*
X55619463Y-38136994D01*
X55698815Y-38233685D01*
X55795506Y-38313037D01*
X55905820Y-38372002D01*
X56025518Y-38408312D01*
X56150000Y-38420572D01*
X58150000Y-38420572D01*
X58274482Y-38408312D01*
X58394180Y-38372002D01*
X58504494Y-38313037D01*
X58601185Y-38233685D01*
X58680537Y-38136994D01*
X58739502Y-38026680D01*
X58775812Y-37906982D01*
X58788072Y-37782500D01*
X58788072Y-35877500D01*
X58775812Y-35753018D01*
X58739502Y-35633320D01*
X58680537Y-35523006D01*
X58601185Y-35426315D01*
X58504494Y-35346963D01*
X58420554Y-35302095D01*
X58523845Y-35176235D01*
X58671255Y-34900449D01*
X58762030Y-34601204D01*
X58792681Y-34290000D01*
X58762030Y-33978796D01*
X58671255Y-33679551D01*
X58523845Y-33403765D01*
X58325463Y-33162037D01*
X58146101Y-33014837D01*
X58331315Y-32859437D01*
X58525969Y-32616923D01*
X58669571Y-32341094D01*
X58740563Y-32122980D01*
X58620594Y-31877000D01*
X57277000Y-31877000D01*
X57277000Y-31897000D01*
X57023000Y-31897000D01*
X57023000Y-31877000D01*
X55679406Y-31877000D01*
X55559437Y-32122980D01*
X55630429Y-32341094D01*
X55774031Y-32616923D01*
X55968685Y-32859437D01*
X56153899Y-33014837D01*
X55974537Y-33162037D01*
X55776155Y-33403765D01*
X55628745Y-33679551D01*
X55537970Y-33978796D01*
X55507319Y-34290000D01*
X55537970Y-34601204D01*
X55628745Y-34900449D01*
X55776155Y-35176235D01*
X55879446Y-35302095D01*
X55795506Y-35346963D01*
X55698815Y-35426315D01*
X55619463Y-35523006D01*
X55560498Y-35633320D01*
X55524188Y-35753018D01*
X55511928Y-35877500D01*
X55511928Y-36070000D01*
X51892775Y-36070000D01*
X51831962Y-35978987D01*
X51646013Y-35793038D01*
X51427359Y-35646939D01*
X51184405Y-35546304D01*
X50926486Y-35495000D01*
X50663514Y-35495000D01*
X50405595Y-35546304D01*
X50162641Y-35646939D01*
X49943987Y-35793038D01*
X49845000Y-35892025D01*
X49746013Y-35793038D01*
X49527359Y-35646939D01*
X49284405Y-35546304D01*
X49026486Y-35495000D01*
X48763514Y-35495000D01*
X48505595Y-35546304D01*
X48262641Y-35646939D01*
X48043987Y-35793038D01*
X47858038Y-35978987D01*
X47711939Y-36197641D01*
X47611304Y-36440595D01*
X47560000Y-36698514D01*
X47560000Y-36961486D01*
X47611304Y-37219405D01*
X47711939Y-37462359D01*
X47858038Y-37681013D01*
X48043987Y-37866962D01*
X48135001Y-37927775D01*
X48135000Y-44770198D01*
X44615000Y-48290199D01*
X44615000Y-48118665D01*
X44559853Y-47841426D01*
X44451680Y-47580273D01*
X44294637Y-47345241D01*
X44094759Y-47145363D01*
X43862241Y-46990000D01*
X44094759Y-46834637D01*
X44294637Y-46634759D01*
X44451680Y-46399727D01*
X44559853Y-46138574D01*
X44615000Y-45861335D01*
X44615000Y-45578665D01*
X44559853Y-45301426D01*
X44451680Y-45040273D01*
X44294637Y-44805241D01*
X44094759Y-44605363D01*
X43862241Y-44450000D01*
X44094759Y-44294637D01*
X44294637Y-44094759D01*
X44451680Y-43859727D01*
X44559853Y-43598574D01*
X44615000Y-43321335D01*
X44615000Y-43038665D01*
X44559853Y-42761426D01*
X44451680Y-42500273D01*
X44294637Y-42265241D01*
X44094759Y-42065363D01*
X43862241Y-41910000D01*
X44094759Y-41754637D01*
X44294637Y-41554759D01*
X44451680Y-41319727D01*
X44559853Y-41058574D01*
X44615000Y-40781335D01*
X44615000Y-40498665D01*
X44559853Y-40221426D01*
X44451680Y-39960273D01*
X44294637Y-39725241D01*
X44094759Y-39525363D01*
X43862241Y-39370000D01*
X44094759Y-39214637D01*
X44294637Y-39014759D01*
X44451680Y-38779727D01*
X44559853Y-38518574D01*
X44615000Y-38241335D01*
X44615000Y-37958665D01*
X44559853Y-37681426D01*
X44451680Y-37420273D01*
X44294637Y-37185241D01*
X44094759Y-36985363D01*
X43862241Y-36830000D01*
X44094759Y-36674637D01*
X44294637Y-36474759D01*
X44451680Y-36239727D01*
X44559853Y-35978574D01*
X44615000Y-35701335D01*
X44615000Y-35418665D01*
X44559853Y-35141426D01*
X44451680Y-34880273D01*
X44294637Y-34645241D01*
X44094759Y-34445363D01*
X43862241Y-34290000D01*
X44094759Y-34134637D01*
X44294637Y-33934759D01*
X44451680Y-33699727D01*
X44559853Y-33438574D01*
X44615000Y-33161335D01*
X44615000Y-32878665D01*
X44559853Y-32601426D01*
X44451680Y-32340273D01*
X44294637Y-32105241D01*
X44094759Y-31905363D01*
X43862241Y-31750000D01*
X44094759Y-31594637D01*
X44294637Y-31394759D01*
X44306489Y-31377020D01*
X55559437Y-31377020D01*
X55679406Y-31623000D01*
X57023000Y-31623000D01*
X57023000Y-30324430D01*
X57277000Y-30324430D01*
X57277000Y-31623000D01*
X58620594Y-31623000D01*
X58740563Y-31377020D01*
X58669571Y-31158906D01*
X58525969Y-30883077D01*
X58331315Y-30640563D01*
X58093089Y-30440684D01*
X57820446Y-30291121D01*
X57523863Y-30197622D01*
X57277000Y-30324430D01*
X57023000Y-30324430D01*
X56776137Y-30197622D01*
X56479554Y-30291121D01*
X56206911Y-30440684D01*
X55968685Y-30640563D01*
X55774031Y-30883077D01*
X55630429Y-31158906D01*
X55559437Y-31377020D01*
X44306489Y-31377020D01*
X44451680Y-31159727D01*
X44559853Y-30898574D01*
X44615000Y-30621335D01*
X44615000Y-30338665D01*
X44559853Y-30061426D01*
X44451680Y-29800273D01*
X44294637Y-29565241D01*
X44094759Y-29365363D01*
X43859727Y-29208320D01*
X43598574Y-29100147D01*
X43321335Y-29045000D01*
X43038665Y-29045000D01*
X42761426Y-29100147D01*
X42500273Y-29208320D01*
X42265241Y-29365363D01*
X42065363Y-29565241D01*
X41908320Y-29800273D01*
X41800147Y-30061426D01*
X41745000Y-30338665D01*
X29375000Y-30338665D01*
X29319853Y-30061426D01*
X29211680Y-29800273D01*
X29054637Y-29565241D01*
X28854759Y-29365363D01*
X28619727Y-29208320D01*
X28358574Y-29100147D01*
X28081335Y-29045000D01*
X27798665Y-29045000D01*
X27521426Y-29100147D01*
X27260273Y-29208320D01*
X27025241Y-29365363D01*
X26825363Y-29565241D01*
X26668320Y-29800273D01*
X26560147Y-30061426D01*
X26505000Y-30338665D01*
X26505000Y-30510198D01*
X22985000Y-26990199D01*
X22985000Y-26152087D01*
X23099482Y-26140812D01*
X23219180Y-26104502D01*
X23329494Y-26045537D01*
X23426185Y-25966185D01*
X23505537Y-25869494D01*
X23564502Y-25759180D01*
X23600812Y-25639482D01*
X23613072Y-25515000D01*
X23613072Y-24015000D01*
X23600812Y-23890518D01*
X23564502Y-23770820D01*
X23505537Y-23660506D01*
X23426185Y-23563815D01*
X23329494Y-23484463D01*
X23219180Y-23425498D01*
X23099482Y-23389188D01*
X22991517Y-23378555D01*
X23107886Y-23300799D01*
X23300799Y-23107886D01*
X23452371Y-22881043D01*
X23556775Y-22628989D01*
X23610000Y-22361411D01*
X23610000Y-22088589D01*
X23556775Y-21821011D01*
X23493903Y-21669224D01*
X56060381Y-21669224D01*
X56192317Y-21964312D01*
X56533045Y-22135159D01*
X56900557Y-22236250D01*
X57280729Y-22263701D01*
X57658951Y-22216457D01*
X58020690Y-22096333D01*
X58267683Y-21964312D01*
X58399619Y-21669224D01*
X57230000Y-20499605D01*
X56060381Y-21669224D01*
X23493903Y-21669224D01*
X23452371Y-21568957D01*
X23300799Y-21342114D01*
X23107886Y-21149201D01*
X22881043Y-20997629D01*
X22778127Y-20955000D01*
X22881043Y-20912371D01*
X23107886Y-20760799D01*
X23300799Y-20567886D01*
X23432535Y-20370729D01*
X55286299Y-20370729D01*
X55333543Y-20748951D01*
X55453667Y-21110690D01*
X55585688Y-21357683D01*
X55880776Y-21489619D01*
X57050395Y-20320000D01*
X57409605Y-20320000D01*
X58579224Y-21489619D01*
X58874312Y-21357683D01*
X59045159Y-21016955D01*
X59146250Y-20649443D01*
X59173701Y-20269271D01*
X59126457Y-19891049D01*
X59006333Y-19529310D01*
X58874312Y-19282317D01*
X58579224Y-19150381D01*
X57409605Y-20320000D01*
X57050395Y-20320000D01*
X55880776Y-19150381D01*
X55585688Y-19282317D01*
X55414841Y-19623045D01*
X55313750Y-19990557D01*
X55286299Y-20370729D01*
X23432535Y-20370729D01*
X23452371Y-20341043D01*
X23556775Y-20088989D01*
X23610000Y-19821411D01*
X23610000Y-19548589D01*
X23556775Y-19281011D01*
X23452371Y-19028957D01*
X23413496Y-18970776D01*
X56060381Y-18970776D01*
X57230000Y-20140395D01*
X58350395Y-19020000D01*
X60291928Y-19020000D01*
X60291928Y-21620000D01*
X60304188Y-21744482D01*
X60340498Y-21864180D01*
X60399463Y-21974494D01*
X60478815Y-22071185D01*
X60575506Y-22150537D01*
X60685820Y-22209502D01*
X60805518Y-22245812D01*
X60930000Y-22258072D01*
X62916493Y-22258072D01*
X63615000Y-22956579D01*
X63615001Y-32805375D01*
X63525518Y-32814188D01*
X63405820Y-32850498D01*
X63295506Y-32909463D01*
X63198815Y-32988815D01*
X63119463Y-33085506D01*
X63060498Y-33195820D01*
X63038487Y-33268380D01*
X62906632Y-33136525D01*
X62663411Y-32974010D01*
X62393158Y-32862068D01*
X62106260Y-32805000D01*
X61813740Y-32805000D01*
X61526842Y-32862068D01*
X61256589Y-32974010D01*
X61013368Y-33136525D01*
X60806525Y-33343368D01*
X60644010Y-33586589D01*
X60532068Y-33856842D01*
X60475000Y-34143740D01*
X60475000Y-34436260D01*
X60532068Y-34723158D01*
X60644010Y-34993411D01*
X60806525Y-35236632D01*
X61013368Y-35443475D01*
X61256589Y-35605990D01*
X61526842Y-35717932D01*
X61813740Y-35775000D01*
X62106260Y-35775000D01*
X62393158Y-35717932D01*
X62663411Y-35605990D01*
X62906632Y-35443475D01*
X63038487Y-35311620D01*
X63060498Y-35384180D01*
X63119463Y-35494494D01*
X63198815Y-35591185D01*
X63295506Y-35670537D01*
X63405820Y-35729502D01*
X63525518Y-35765812D01*
X63615000Y-35774625D01*
X63615001Y-44235375D01*
X63525518Y-44244188D01*
X63405820Y-44280498D01*
X63295506Y-44339463D01*
X63198815Y-44418815D01*
X63119463Y-44515506D01*
X63060498Y-44625820D01*
X63038487Y-44698380D01*
X62906632Y-44566525D01*
X62663411Y-44404010D01*
X62393158Y-44292068D01*
X62106260Y-44235000D01*
X61813740Y-44235000D01*
X61526842Y-44292068D01*
X61256589Y-44404010D01*
X61013368Y-44566525D01*
X60806525Y-44773368D01*
X60644010Y-45016589D01*
X60532068Y-45286842D01*
X60475000Y-45573740D01*
X60475000Y-45866260D01*
X60532068Y-46153158D01*
X60644010Y-46423411D01*
X60806525Y-46666632D01*
X61013368Y-46873475D01*
X61256589Y-47035990D01*
X61526842Y-47147932D01*
X61813740Y-47205000D01*
X62106260Y-47205000D01*
X62393158Y-47147932D01*
X62663411Y-47035990D01*
X62906632Y-46873475D01*
X63038487Y-46741620D01*
X63060498Y-46814180D01*
X63119463Y-46924494D01*
X63198815Y-47021185D01*
X63295506Y-47100537D01*
X63405820Y-47159502D01*
X63525518Y-47195812D01*
X63615000Y-47204625D01*
X63615001Y-55665375D01*
X63525518Y-55674188D01*
X63405820Y-55710498D01*
X63295506Y-55769463D01*
X63198815Y-55848815D01*
X63119463Y-55945506D01*
X63060498Y-56055820D01*
X63038487Y-56128380D01*
X62906632Y-55996525D01*
X62663411Y-55834010D01*
X62393158Y-55722068D01*
X62106260Y-55665000D01*
X61813740Y-55665000D01*
X61526842Y-55722068D01*
X61256589Y-55834010D01*
X61013368Y-55996525D01*
X60806525Y-56203368D01*
X60644010Y-56446589D01*
X60532068Y-56716842D01*
X60475000Y-57003740D01*
X60475000Y-57296260D01*
X60532068Y-57583158D01*
X60644010Y-57853411D01*
X60806525Y-58096632D01*
X61013368Y-58303475D01*
X61256589Y-58465990D01*
X61526842Y-58577932D01*
X61813740Y-58635000D01*
X62106260Y-58635000D01*
X62393158Y-58577932D01*
X62663411Y-58465990D01*
X62906632Y-58303475D01*
X63038487Y-58171620D01*
X63060498Y-58244180D01*
X63119463Y-58354494D01*
X63198815Y-58451185D01*
X63295506Y-58530537D01*
X63405820Y-58589502D01*
X63525518Y-58625812D01*
X63650000Y-58638072D01*
X65350000Y-58638072D01*
X65474482Y-58625812D01*
X65594180Y-58589502D01*
X65704494Y-58530537D01*
X65801185Y-58451185D01*
X65880537Y-58354494D01*
X65939502Y-58244180D01*
X65975812Y-58124482D01*
X65988072Y-58000000D01*
X65988072Y-56300000D01*
X65975812Y-56175518D01*
X65939502Y-56055820D01*
X65880537Y-55945506D01*
X65801185Y-55848815D01*
X65704494Y-55769463D01*
X65594180Y-55710498D01*
X65474482Y-55674188D01*
X65385000Y-55665375D01*
X65385000Y-47204625D01*
X65474482Y-47195812D01*
X65594180Y-47159502D01*
X65704494Y-47100537D01*
X65801185Y-47021185D01*
X65880537Y-46924494D01*
X65939502Y-46814180D01*
X65975812Y-46694482D01*
X65988072Y-46570000D01*
X65988072Y-44870000D01*
X65975812Y-44745518D01*
X65939502Y-44625820D01*
X65880537Y-44515506D01*
X65801185Y-44418815D01*
X65704494Y-44339463D01*
X65594180Y-44280498D01*
X65474482Y-44244188D01*
X65385000Y-44235375D01*
X65385000Y-35774625D01*
X65474482Y-35765812D01*
X65594180Y-35729502D01*
X65704494Y-35670537D01*
X65801185Y-35591185D01*
X65880537Y-35494494D01*
X65939502Y-35384180D01*
X65975812Y-35264482D01*
X65988072Y-35140000D01*
X65988072Y-33440000D01*
X65975812Y-33315518D01*
X65939502Y-33195820D01*
X65880537Y-33085506D01*
X65801185Y-32988815D01*
X65704494Y-32909463D01*
X65594180Y-32850498D01*
X65474482Y-32814188D01*
X65385000Y-32805375D01*
X65385000Y-22926579D01*
X66170001Y-23711580D01*
X66170002Y-68815684D01*
X65940250Y-68720518D01*
X65585732Y-68650000D01*
X65224268Y-68650000D01*
X64869750Y-68720518D01*
X64535801Y-68858844D01*
X64235256Y-69059662D01*
X63979662Y-69315256D01*
X63778844Y-69615801D01*
X63640518Y-69949750D01*
X63570000Y-70304268D01*
X63570000Y-70665732D01*
X63640518Y-71020250D01*
X63778844Y-71354199D01*
X63979662Y-71654744D01*
X64235256Y-71910338D01*
X64535801Y-72111156D01*
X64869750Y-72249482D01*
X65224268Y-72320000D01*
X65585732Y-72320000D01*
X65940250Y-72249482D01*
X66170002Y-72154316D01*
X66170002Y-72428419D01*
X65991493Y-72606928D01*
X64455000Y-72606928D01*
X64281746Y-72623992D01*
X64115150Y-72674528D01*
X63961614Y-72756595D01*
X63827038Y-72867038D01*
X63716595Y-73001614D01*
X63634528Y-73155150D01*
X63583992Y-73321746D01*
X63566928Y-73495000D01*
X63566928Y-75395000D01*
X63583992Y-75568254D01*
X63634528Y-75734850D01*
X63716595Y-75888386D01*
X63827038Y-76022962D01*
X63961614Y-76133405D01*
X64115150Y-76215472D01*
X64281746Y-76266008D01*
X64455000Y-76283072D01*
X66355000Y-76283072D01*
X66528254Y-76266008D01*
X66694850Y-76215472D01*
X66848386Y-76133405D01*
X66982962Y-76022962D01*
X67093405Y-75888386D01*
X67175472Y-75734850D01*
X67226008Y-75568254D01*
X67243072Y-75395000D01*
X67243072Y-73858507D01*
X67650050Y-73451529D01*
X67683818Y-73423816D01*
X67767586Y-73321746D01*
X67794412Y-73289058D01*
X67855919Y-73173985D01*
X67876590Y-73135312D01*
X67927196Y-72968489D01*
X67940001Y-72838476D01*
X67940001Y-72838468D01*
X67944282Y-72794999D01*
X67940001Y-72751530D01*
X67940001Y-23388466D01*
X67944282Y-23345000D01*
X67940001Y-23301534D01*
X67940001Y-23301524D01*
X67927196Y-23171511D01*
X67876590Y-23004688D01*
X67794412Y-22850942D01*
X67770211Y-22821453D01*
X67711533Y-22749954D01*
X67711531Y-22749952D01*
X67683818Y-22716184D01*
X67650051Y-22688472D01*
X64686534Y-19724956D01*
X64658817Y-19691183D01*
X64524059Y-19580589D01*
X64370313Y-19498411D01*
X64203490Y-19447805D01*
X64168072Y-19444317D01*
X64168072Y-19020000D01*
X64155812Y-18895518D01*
X64119502Y-18775820D01*
X64060537Y-18665506D01*
X63981185Y-18568815D01*
X63884494Y-18489463D01*
X63774180Y-18430498D01*
X63654482Y-18394188D01*
X63530000Y-18381928D01*
X60930000Y-18381928D01*
X60805518Y-18394188D01*
X60685820Y-18430498D01*
X60575506Y-18489463D01*
X60478815Y-18568815D01*
X60399463Y-18665506D01*
X60340498Y-18775820D01*
X60304188Y-18895518D01*
X60291928Y-19020000D01*
X58350395Y-19020000D01*
X58399619Y-18970776D01*
X58267683Y-18675688D01*
X57926955Y-18504841D01*
X57559443Y-18403750D01*
X57179271Y-18376299D01*
X56801049Y-18423543D01*
X56439310Y-18543667D01*
X56192317Y-18675688D01*
X56060381Y-18970776D01*
X23413496Y-18970776D01*
X23300799Y-18802114D01*
X23107886Y-18609201D01*
X22881043Y-18457629D01*
X22781721Y-18416489D01*
X22823832Y-18401277D01*
X22936863Y-18340860D01*
X23002388Y-18101993D01*
X22225000Y-17324605D01*
X21447612Y-18101993D01*
X21513137Y-18340860D01*
X21671477Y-18415164D01*
X21568957Y-18457629D01*
X21342114Y-18609201D01*
X21149201Y-18802114D01*
X20997629Y-19028957D01*
X20893225Y-19281011D01*
X20840000Y-19548589D01*
X20840000Y-19821411D01*
X20893225Y-20088989D01*
X20997629Y-20341043D01*
X21149201Y-20567886D01*
X21342114Y-20760799D01*
X21568957Y-20912371D01*
X21671873Y-20955000D01*
X21568957Y-20997629D01*
X21342114Y-21149201D01*
X21149201Y-21342114D01*
X20997629Y-21568957D01*
X20893225Y-21821011D01*
X20840000Y-22088589D01*
X20840000Y-22361411D01*
X20868833Y-22506365D01*
X20054002Y-23321197D01*
X20024998Y-23345000D01*
X19970351Y-23411588D01*
X19930025Y-23460725D01*
X19920107Y-23479281D01*
X19859453Y-23592755D01*
X19815996Y-23736016D01*
X19804999Y-23847669D01*
X19804999Y-23847679D01*
X19801323Y-23885001D01*
X19804999Y-23922323D01*
X19805000Y-37037667D01*
X19801323Y-37074999D01*
X19805000Y-37112332D01*
X19815997Y-37223985D01*
X19823581Y-37248987D01*
X19859453Y-37367245D01*
X19930025Y-37499275D01*
X19995457Y-37579003D01*
X20024999Y-37615000D01*
X20053997Y-37638798D01*
X20276355Y-37861156D01*
X20255000Y-37968514D01*
X20255000Y-38231486D01*
X20306304Y-38489405D01*
X20406939Y-38732359D01*
X20553038Y-38951013D01*
X20738987Y-39136962D01*
X20957641Y-39283061D01*
X21200595Y-39383696D01*
X21458514Y-39435000D01*
X21721486Y-39435000D01*
X21979405Y-39383696D01*
X22222359Y-39283061D01*
X22441013Y-39136962D01*
X22626962Y-38951013D01*
X22687775Y-38860000D01*
X26721957Y-38860000D01*
X26825363Y-39014759D01*
X27025241Y-39214637D01*
X27257759Y-39370000D01*
X27025241Y-39525363D01*
X26825363Y-39725241D01*
X26668320Y-39960273D01*
X26560147Y-40221426D01*
X26505000Y-40498665D01*
X26505000Y-40781335D01*
X26541312Y-40963886D01*
X25085199Y-42420000D01*
X23503178Y-42420000D01*
X23378475Y-42233368D01*
X23171632Y-42026525D01*
X22928411Y-41864010D01*
X22658158Y-41752068D01*
X22371260Y-41695000D01*
X22078740Y-41695000D01*
X21791842Y-41752068D01*
X21521589Y-41864010D01*
X21278368Y-42026525D01*
X21071525Y-42233368D01*
X20909010Y-42476589D01*
X20797068Y-42746842D01*
X20740000Y-43033740D01*
X20740000Y-43326260D01*
X20797068Y-43613158D01*
X20909010Y-43883411D01*
X21071525Y-44126632D01*
X21278368Y-44333475D01*
X21452760Y-44450000D01*
X21278368Y-44566525D01*
X21071525Y-44773368D01*
X20909010Y-45016589D01*
X20797068Y-45286842D01*
X20740000Y-45573740D01*
X20740000Y-45866260D01*
X20783790Y-46086407D01*
X19174003Y-47696196D01*
X19144999Y-47719999D01*
X19089871Y-47787174D01*
X19075000Y-47805293D01*
X19075000Y-17217492D01*
X20835188Y-17217492D01*
X20876035Y-17487238D01*
X20968723Y-17743832D01*
X21029140Y-17856863D01*
X21268007Y-17922388D01*
X22045395Y-17145000D01*
X22404605Y-17145000D01*
X23181993Y-17922388D01*
X23420860Y-17856863D01*
X23536760Y-17609884D01*
X23602250Y-17345040D01*
X23614812Y-17072508D01*
X23573965Y-16802762D01*
X23481277Y-16546168D01*
X23420860Y-16433137D01*
X23181993Y-16367612D01*
X22404605Y-17145000D01*
X22045395Y-17145000D01*
X21268007Y-16367612D01*
X21029140Y-16433137D01*
X20913240Y-16680116D01*
X20847750Y-16944960D01*
X20835188Y-17217492D01*
X19075000Y-17217492D01*
X19075000Y-16188007D01*
X21447612Y-16188007D01*
X22225000Y-16965395D01*
X23002388Y-16188007D01*
X22936863Y-15949140D01*
X22689884Y-15833240D01*
X22425040Y-15767750D01*
X22152508Y-15755188D01*
X21882762Y-15796035D01*
X21626168Y-15888723D01*
X21513137Y-15949140D01*
X21447612Y-16188007D01*
X19075000Y-16188007D01*
X19075000Y-14630000D01*
X69825000Y-14630000D01*
X69825001Y-76810000D01*
G37*
%TD.AperFunction*%
D25*
X20740000Y-56026260D02*
X20797068Y-56313158D01*
X20909010Y-56583411D01*
X21071525Y-56826632D01*
X21203380Y-56958487D01*
X21130820Y-56980498D01*
X21020506Y-57039463D01*
X20923815Y-57118815D01*
X20844463Y-57215506D01*
X20785498Y-57325820D01*
X20749188Y-57445518D01*
X20736928Y-57570000D01*
X20740000Y-58134250D01*
X20898750Y-58293000D01*
X22098000Y-58293000D01*
X22098000Y-58273000D01*
X22352000Y-58273000D01*
X22352000Y-58293000D01*
X23551250Y-58293000D01*
X23710000Y-58134250D01*
X23713072Y-57570000D01*
X23700812Y-57445518D01*
X23664502Y-57325820D01*
X23605537Y-57215506D01*
X23526185Y-57118815D01*
X23429494Y-57039463D01*
X23319180Y-56980498D01*
X23246620Y-56958487D01*
X23378475Y-56826632D01*
X23503178Y-56640000D01*
X25085199Y-56640000D01*
X26541312Y-58096114D01*
X26505000Y-58278665D01*
X26505000Y-58561335D01*
X26560147Y-58838574D01*
X26668320Y-59099727D01*
X26825363Y-59334759D01*
X27025241Y-59534637D01*
X27257759Y-59690000D01*
X27025241Y-59845363D01*
X26825363Y-60045241D01*
X26668320Y-60280273D01*
X26560147Y-60541426D01*
X26505000Y-60818665D01*
X26505000Y-61101335D01*
X26560147Y-61378574D01*
X26668320Y-61639727D01*
X26825363Y-61874759D01*
X27025241Y-62074637D01*
X27257759Y-62230000D01*
X27025241Y-62385363D01*
X26825363Y-62585241D01*
X26668320Y-62820273D01*
X26560147Y-63081426D01*
X26505000Y-63358665D01*
X26505000Y-63641335D01*
X26560147Y-63918574D01*
X26668320Y-64179727D01*
X26825363Y-64414759D01*
X27025241Y-64614637D01*
X27257759Y-64770000D01*
X27025241Y-64925363D01*
X26825363Y-65125241D01*
X26668320Y-65360273D01*
X26560147Y-65621426D01*
X26505000Y-65898665D01*
X26505000Y-66181335D01*
X26560147Y-66458574D01*
X26668320Y-66719727D01*
X26825363Y-66954759D01*
X27025241Y-67154637D01*
X27259222Y-67310978D01*
X24845201Y-69725000D01*
X23963812Y-69725000D01*
X23999004Y-69608985D01*
X24010001Y-69497332D01*
X24010001Y-69497323D01*
X24013677Y-69460000D01*
X24010001Y-69422677D01*
X24010001Y-63932323D01*
X24013677Y-63895000D01*
X24010001Y-63857677D01*
X24010001Y-63857668D01*
X23999004Y-63746015D01*
X23955547Y-63602754D01*
X23884975Y-63470725D01*
X23790002Y-63355000D01*
X23761004Y-63331202D01*
X23538645Y-63108843D01*
X23560000Y-63001486D01*
X23560000Y-62738514D01*
X23508696Y-62480595D01*
X23408061Y-62237641D01*
X23261962Y-62018987D01*
X23076013Y-61833038D01*
X22857359Y-61686939D01*
X22614405Y-61586304D01*
X22356486Y-61535000D01*
X22093514Y-61535000D01*
X21835595Y-61586304D01*
X21592641Y-61686939D01*
X21373987Y-61833038D01*
X21188038Y-62018987D01*
X21041939Y-62237641D01*
X20941304Y-62480595D01*
X20890000Y-62738514D01*
X20890000Y-63001486D01*
X20941304Y-63259405D01*
X21041939Y-63502359D01*
X21188038Y-63721013D01*
X21373987Y-63906962D01*
X21592641Y-64053061D01*
X21754859Y-64120254D01*
X22225000Y-64590395D01*
X22239143Y-64576253D01*
X22418748Y-64755858D01*
X22404605Y-64770000D01*
X22418748Y-64784143D01*
X22239143Y-64963748D01*
X22225000Y-64949605D01*
X21483336Y-65691269D01*
X21542797Y-65925037D01*
X21781242Y-66035934D01*
X22036740Y-66098183D01*
X22299473Y-66109390D01*
X22490002Y-66079869D01*
X22490001Y-68996928D01*
X21375000Y-68996928D01*
X21250518Y-69009188D01*
X21130820Y-69045498D01*
X21020506Y-69104463D01*
X20923815Y-69183815D01*
X20844463Y-69280506D01*
X20785498Y-69390820D01*
X20749188Y-69510518D01*
X20736928Y-69635000D01*
X20736928Y-70462127D01*
X20445000Y-70170199D01*
X20445000Y-64844473D01*
X20885610Y-64844473D01*
X20925875Y-65104344D01*
X21016065Y-65351366D01*
X21069963Y-65452203D01*
X21303731Y-65511664D01*
X22045395Y-64770000D01*
X21303731Y-64028336D01*
X21069963Y-64087797D01*
X20959066Y-64326242D01*
X20896817Y-64581740D01*
X20885610Y-64844473D01*
X20445000Y-64844473D01*
X20445000Y-59270000D01*
X20736928Y-59270000D01*
X20749188Y-59394482D01*
X20785498Y-59514180D01*
X20844463Y-59624494D01*
X20923815Y-59721185D01*
X21020506Y-59800537D01*
X21130820Y-59859502D01*
X21250518Y-59895812D01*
X21375000Y-59908072D01*
X21939250Y-59905000D01*
X22098000Y-59746250D01*
X22098000Y-58547000D01*
X22352000Y-58547000D01*
X22352000Y-59746250D01*
X22510750Y-59905000D01*
X23075000Y-59908072D01*
X23199482Y-59895812D01*
X23319180Y-59859502D01*
X23429494Y-59800537D01*
X23526185Y-59721185D01*
X23605537Y-59624494D01*
X23664502Y-59514180D01*
X23700812Y-59394482D01*
X23713072Y-59270000D01*
X23710000Y-58705750D01*
X23551250Y-58547000D01*
X22352000Y-58547000D01*
X22098000Y-58547000D01*
X20898750Y-58547000D01*
X20740000Y-58705750D01*
X20736928Y-59270000D01*
X20445000Y-59270000D01*
X20445000Y-56005000D01*
X20740000Y-56005000D01*
X20740000Y-56026260D01*
%TA.AperFunction,Conductor*%
D26*
G36*
X20740000Y-56026260D02*
G01*
X20797068Y-56313158D01*
X20909010Y-56583411D01*
X21071525Y-56826632D01*
X21203380Y-56958487D01*
X21130820Y-56980498D01*
X21020506Y-57039463D01*
X20923815Y-57118815D01*
X20844463Y-57215506D01*
X20785498Y-57325820D01*
X20749188Y-57445518D01*
X20736928Y-57570000D01*
X20740000Y-58134250D01*
X20898750Y-58293000D01*
X22098000Y-58293000D01*
X22098000Y-58273000D01*
X22352000Y-58273000D01*
X22352000Y-58293000D01*
X23551250Y-58293000D01*
X23710000Y-58134250D01*
X23713072Y-57570000D01*
X23700812Y-57445518D01*
X23664502Y-57325820D01*
X23605537Y-57215506D01*
X23526185Y-57118815D01*
X23429494Y-57039463D01*
X23319180Y-56980498D01*
X23246620Y-56958487D01*
X23378475Y-56826632D01*
X23503178Y-56640000D01*
X25085199Y-56640000D01*
X26541312Y-58096114D01*
X26505000Y-58278665D01*
X26505000Y-58561335D01*
X26560147Y-58838574D01*
X26668320Y-59099727D01*
X26825363Y-59334759D01*
X27025241Y-59534637D01*
X27257759Y-59690000D01*
X27025241Y-59845363D01*
X26825363Y-60045241D01*
X26668320Y-60280273D01*
X26560147Y-60541426D01*
X26505000Y-60818665D01*
X26505000Y-61101335D01*
X26560147Y-61378574D01*
X26668320Y-61639727D01*
X26825363Y-61874759D01*
X27025241Y-62074637D01*
X27257759Y-62230000D01*
X27025241Y-62385363D01*
X26825363Y-62585241D01*
X26668320Y-62820273D01*
X26560147Y-63081426D01*
X26505000Y-63358665D01*
X26505000Y-63641335D01*
X26560147Y-63918574D01*
X26668320Y-64179727D01*
X26825363Y-64414759D01*
X27025241Y-64614637D01*
X27257759Y-64770000D01*
X27025241Y-64925363D01*
X26825363Y-65125241D01*
X26668320Y-65360273D01*
X26560147Y-65621426D01*
X26505000Y-65898665D01*
X26505000Y-66181335D01*
X26560147Y-66458574D01*
X26668320Y-66719727D01*
X26825363Y-66954759D01*
X27025241Y-67154637D01*
X27259222Y-67310978D01*
X24845201Y-69725000D01*
X23963812Y-69725000D01*
X23999004Y-69608985D01*
X24010001Y-69497332D01*
X24010001Y-69497323D01*
X24013677Y-69460000D01*
X24010001Y-69422677D01*
X24010001Y-63932323D01*
X24013677Y-63895000D01*
X24010001Y-63857677D01*
X24010001Y-63857668D01*
X23999004Y-63746015D01*
X23955547Y-63602754D01*
X23884975Y-63470725D01*
X23790002Y-63355000D01*
X23761004Y-63331202D01*
X23538645Y-63108843D01*
X23560000Y-63001486D01*
X23560000Y-62738514D01*
X23508696Y-62480595D01*
X23408061Y-62237641D01*
X23261962Y-62018987D01*
X23076013Y-61833038D01*
X22857359Y-61686939D01*
X22614405Y-61586304D01*
X22356486Y-61535000D01*
X22093514Y-61535000D01*
X21835595Y-61586304D01*
X21592641Y-61686939D01*
X21373987Y-61833038D01*
X21188038Y-62018987D01*
X21041939Y-62237641D01*
X20941304Y-62480595D01*
X20890000Y-62738514D01*
X20890000Y-63001486D01*
X20941304Y-63259405D01*
X21041939Y-63502359D01*
X21188038Y-63721013D01*
X21373987Y-63906962D01*
X21592641Y-64053061D01*
X21754859Y-64120254D01*
X22225000Y-64590395D01*
X22239143Y-64576253D01*
X22418748Y-64755858D01*
X22404605Y-64770000D01*
X22418748Y-64784143D01*
X22239143Y-64963748D01*
X22225000Y-64949605D01*
X21483336Y-65691269D01*
X21542797Y-65925037D01*
X21781242Y-66035934D01*
X22036740Y-66098183D01*
X22299473Y-66109390D01*
X22490002Y-66079869D01*
X22490001Y-68996928D01*
X21375000Y-68996928D01*
X21250518Y-69009188D01*
X21130820Y-69045498D01*
X21020506Y-69104463D01*
X20923815Y-69183815D01*
X20844463Y-69280506D01*
X20785498Y-69390820D01*
X20749188Y-69510518D01*
X20736928Y-69635000D01*
X20736928Y-70462127D01*
X20445000Y-70170199D01*
X20445000Y-64844473D01*
X20885610Y-64844473D01*
X20925875Y-65104344D01*
X21016065Y-65351366D01*
X21069963Y-65452203D01*
X21303731Y-65511664D01*
X22045395Y-64770000D01*
X21303731Y-64028336D01*
X21069963Y-64087797D01*
X20959066Y-64326242D01*
X20896817Y-64581740D01*
X20885610Y-64844473D01*
X20445000Y-64844473D01*
X20445000Y-59270000D01*
X20736928Y-59270000D01*
X20749188Y-59394482D01*
X20785498Y-59514180D01*
X20844463Y-59624494D01*
X20923815Y-59721185D01*
X21020506Y-59800537D01*
X21130820Y-59859502D01*
X21250518Y-59895812D01*
X21375000Y-59908072D01*
X21939250Y-59905000D01*
X22098000Y-59746250D01*
X22098000Y-58547000D01*
X22352000Y-58547000D01*
X22352000Y-59746250D01*
X22510750Y-59905000D01*
X23075000Y-59908072D01*
X23199482Y-59895812D01*
X23319180Y-59859502D01*
X23429494Y-59800537D01*
X23526185Y-59721185D01*
X23605537Y-59624494D01*
X23664502Y-59514180D01*
X23700812Y-59394482D01*
X23713072Y-59270000D01*
X23710000Y-58705750D01*
X23551250Y-58547000D01*
X22352000Y-58547000D01*
X22098000Y-58547000D01*
X20898750Y-58547000D01*
X20740000Y-58705750D01*
X20736928Y-59270000D01*
X20445000Y-59270000D01*
X20445000Y-56005000D01*
X20740000Y-56005000D01*
X20740000Y-56026260D01*
G37*
%TD.AperFunction*%
D25*
X22352000Y-48133000D02*
X22372000Y-48133000D01*
X22372000Y-48387000D01*
X22352000Y-48387000D01*
X22352000Y-49586250D01*
X22510750Y-49745000D01*
X22640002Y-49745704D01*
X22640001Y-51850197D01*
X22591408Y-51898790D01*
X22371260Y-51855000D01*
X22078740Y-51855000D01*
X21791842Y-51912068D01*
X21521589Y-52024010D01*
X21278368Y-52186525D01*
X21071525Y-52393368D01*
X20909010Y-52636589D01*
X20797068Y-52906842D01*
X20740000Y-53193740D01*
X20740000Y-53486260D01*
X20797068Y-53773158D01*
X20909010Y-54043411D01*
X21071525Y-54286632D01*
X21269893Y-54485000D01*
X20445000Y-54485000D01*
X20445000Y-48574801D01*
X20740000Y-48279802D01*
X20740000Y-48387002D01*
X20898748Y-48387002D01*
X20740000Y-48545750D01*
X20736928Y-49110000D01*
X20749188Y-49234482D01*
X20785498Y-49354180D01*
X20844463Y-49464494D01*
X20923815Y-49561185D01*
X21020506Y-49640537D01*
X21130820Y-49699502D01*
X21250518Y-49735812D01*
X21375000Y-49748072D01*
X21939250Y-49745000D01*
X22098000Y-49586250D01*
X22098000Y-48387000D01*
X22078000Y-48387000D01*
X22078000Y-48133000D01*
X22098000Y-48133000D01*
X22098000Y-48113000D01*
X22352000Y-48113000D01*
X22352000Y-48133000D01*
%TA.AperFunction,Conductor*%
D26*
G36*
X22352000Y-48133000D02*
G01*
X22372000Y-48133000D01*
X22372000Y-48387000D01*
X22352000Y-48387000D01*
X22352000Y-49586250D01*
X22510750Y-49745000D01*
X22640002Y-49745704D01*
X22640001Y-51850197D01*
X22591408Y-51898790D01*
X22371260Y-51855000D01*
X22078740Y-51855000D01*
X21791842Y-51912068D01*
X21521589Y-52024010D01*
X21278368Y-52186525D01*
X21071525Y-52393368D01*
X20909010Y-52636589D01*
X20797068Y-52906842D01*
X20740000Y-53193740D01*
X20740000Y-53486260D01*
X20797068Y-53773158D01*
X20909010Y-54043411D01*
X21071525Y-54286632D01*
X21269893Y-54485000D01*
X20445000Y-54485000D01*
X20445000Y-48574801D01*
X20740000Y-48279802D01*
X20740000Y-48387002D01*
X20898748Y-48387002D01*
X20740000Y-48545750D01*
X20736928Y-49110000D01*
X20749188Y-49234482D01*
X20785498Y-49354180D01*
X20844463Y-49464494D01*
X20923815Y-49561185D01*
X21020506Y-49640537D01*
X21130820Y-49699502D01*
X21250518Y-49735812D01*
X21375000Y-49748072D01*
X21939250Y-49745000D01*
X22098000Y-49586250D01*
X22098000Y-48387000D01*
X22078000Y-48387000D01*
X22078000Y-48133000D01*
X22098000Y-48133000D01*
X22098000Y-48113000D01*
X22352000Y-48113000D01*
X22352000Y-48133000D01*
G37*
%TD.AperFunction*%
%TD*%
M02*
