M48
; DRILL file {KiCad 5.1.12-84ad8e8a86~92~ubuntu18.04.1} date Sun 05 Dec 2021 17:17:59 AEDT
; FORMAT={-:-/ absolute / inch / decimal}
; #@! TF.CreationDate,2021-12-05T17:17:59+11:00
; #@! TF.GenerationSoftware,Kicad,Pcbnew,5.1.12-84ad8e8a86~92~ubuntu18.04.1
; #@! TF.FileFunction,Plated,1,2,PTH
FMAT,2
INCH
T1C0.0197
T2C0.0276
T3C0.0315
T4C0.0433
T5C0.0551
%
G90
G05
T1
X1.1Y-0.9
X1.1394Y-0.9
X1.1787Y-0.9
X2.05Y-2.85
X2.0894Y-2.85
X2.1Y-0.85
X2.1Y-0.8894
X2.1Y-0.9287
X2.55Y-2.85
X2.5894Y-2.85
X2.9Y-0.9
X2.9Y-0.9394
X3.05Y-2.85
X3.0894Y-2.85
T2
X2.0Y-2.1
X2.0Y-2.1748
X2.5Y-2.1
X2.5Y-2.1748
X2.7Y-0.9
X2.7748Y-0.9
X3.0Y-2.1
X3.0Y-2.1748
T3
X1.6Y-1.15
X1.6Y-1.75
X1.7Y-1.15
X1.7Y-1.75
X1.8Y-1.15
X1.8Y-1.75
X1.9Y-1.15
X1.9Y-1.75
X2.0Y-1.15
X2.0Y-1.75
X2.1Y-1.15
X2.1Y-1.75
X2.2Y-1.15
X2.2Y-1.75
X2.3Y-1.15
X2.3Y-1.75
X2.4Y-1.15
X2.4Y-1.75
X2.5Y-1.15
X2.5Y-1.75
X2.6Y-1.15
X2.6Y-1.75
X2.7Y-1.15
X2.7Y-1.75
X2.8Y-1.15
X2.8Y-1.75
X2.9Y-1.15
X2.9Y-1.75
X3.0Y-1.15
X3.0Y-1.75
T4
X1.1Y-1.5
X1.1Y-1.6
X2.0Y-2.5
X2.1Y-2.5
X2.2Y-2.5
X2.5Y-2.5
X2.6Y-2.5
X2.7Y-2.5
X3.0Y-2.5
X3.1Y-2.5
X3.2Y-2.5
T5
X0.95Y-2.1
X0.95Y-2.2559
X1.4Y-2.1
X1.4Y-2.2559
T0
M30
