%TF.GenerationSoftware,KiCad,Pcbnew,5.1.12-84ad8e8a86~92~ubuntu20.04.1*%
%TF.CreationDate,2022-01-12T20:25:55+11:00*%
%TF.ProjectId,aquaponics-1,61717561-706f-46e6-9963-732d312e6b69,rev?*%
%TF.SameCoordinates,Original*%
%TF.FileFunction,Copper,L2,Bot*%
%TF.FilePolarity,Positive*%
%FSLAX46Y46*%
G04 Gerber Fmt 4.6, Leading zero omitted, Abs format (unit mm)*
G04 Created by KiCad (PCBNEW 5.1.12-84ad8e8a86~92~ubuntu20.04.1) date 2022-01-12 20:25:55*
%MOMM*%
%LPD*%
G01*
G04 APERTURE LIST*
%TA.AperFunction,ComponentPad*%
%ADD10O,1.700000X1.700000*%
%TD*%
%TA.AperFunction,ComponentPad*%
%ADD11R,1.700000X1.700000*%
%TD*%
%TA.AperFunction,ComponentPad*%
%ADD12C,2.400000*%
%TD*%
%TA.AperFunction,ComponentPad*%
%ADD13O,1.400000X1.400000*%
%TD*%
%TA.AperFunction,ComponentPad*%
%ADD14C,1.400000*%
%TD*%
%TA.AperFunction,ComponentPad*%
%ADD15C,2.600000*%
%TD*%
%TA.AperFunction,ComponentPad*%
%ADD16R,2.600000X2.600000*%
%TD*%
%TA.AperFunction,ComponentPad*%
%ADD17O,1.600000X1.600000*%
%TD*%
%TA.AperFunction,ComponentPad*%
%ADD18R,1.600000X1.600000*%
%TD*%
%TA.AperFunction,ComponentPad*%
%ADD19C,1.500000*%
%TD*%
%TA.AperFunction,ComponentPad*%
%ADD20R,1.500000X1.500000*%
%TD*%
%TA.AperFunction,ComponentPad*%
%ADD21O,2.000000X1.905000*%
%TD*%
%TA.AperFunction,ComponentPad*%
%ADD22R,2.000000X1.905000*%
%TD*%
%TA.AperFunction,ComponentPad*%
%ADD23O,2.240000X2.240000*%
%TD*%
%TA.AperFunction,ComponentPad*%
%ADD24R,2.240000X2.240000*%
%TD*%
%TA.AperFunction,Conductor*%
%ADD25C,0.500000*%
%TD*%
%TA.AperFunction,Conductor*%
%ADD26C,0.250000*%
%TD*%
%TA.AperFunction,Conductor*%
%ADD27C,0.254000*%
%TD*%
%TA.AperFunction,Conductor*%
%ADD28C,0.100000*%
%TD*%
G04 APERTURE END LIST*
D10*
%TO.P,J6,4*%
%TO.N,GND1*%
X31750000Y-73660000D03*
%TO.P,J6,3*%
%TO.N,+5V*%
X34290000Y-73660000D03*
%TO.P,J6,2*%
%TO.N,Net-(J6-Pad2)*%
X36830000Y-73660000D03*
D11*
%TO.P,J6,1*%
%TO.N,Net-(J6-Pad1)*%
X39370000Y-73660000D03*
%TD*%
D10*
%TO.P,J3,3*%
%TO.N,Net-(J3-Pad3)*%
X23495000Y-53340000D03*
%TO.P,J3,2*%
%TO.N,+5V*%
X23495000Y-55880000D03*
D11*
%TO.P,J3,1*%
%TO.N,GND1*%
X23495000Y-58420000D03*
%TD*%
D12*
%TO.P,J5,2*%
%TO.N,GND*%
X67310000Y-64770000D03*
%TO.P,J5,1*%
%TO.N,Net-(J2-Pad1)*%
%TA.AperFunction,ComponentPad*%
G36*
G01*
X68260000Y-74860000D02*
X66360000Y-74860000D01*
G75*
G02*
X66110000Y-74610000I0J250000D01*
G01*
X66110000Y-72710000D01*
G75*
G02*
X66360000Y-72460000I250000J0D01*
G01*
X68260000Y-72460000D01*
G75*
G02*
X68510000Y-72710000I0J-250000D01*
G01*
X68510000Y-74610000D01*
G75*
G02*
X68260000Y-74860000I-250000J0D01*
G01*
G37*
%TD.AperFunction*%
%TD*%
%TO.P,J1,2*%
%TO.N,GND1*%
X52070000Y-64770000D03*
%TO.P,J1,1*%
%TO.N,+5V*%
%TA.AperFunction,ComponentPad*%
G36*
G01*
X53020000Y-74860000D02*
X51120000Y-74860000D01*
G75*
G02*
X50870000Y-74610000I0J250000D01*
G01*
X50870000Y-72710000D01*
G75*
G02*
X51120000Y-72460000I250000J0D01*
G01*
X53020000Y-72460000D01*
G75*
G02*
X53270000Y-72710000I0J-250000D01*
G01*
X53270000Y-74610000D01*
G75*
G02*
X53020000Y-74860000I-250000J0D01*
G01*
G37*
%TD.AperFunction*%
%TD*%
D10*
%TO.P,J4,3*%
%TO.N,Net-(J4-Pad3)*%
X23495000Y-43180000D03*
%TO.P,J4,2*%
%TO.N,+5V*%
X23495000Y-45720000D03*
D11*
%TO.P,J4,1*%
%TO.N,GND1*%
X23495000Y-48260000D03*
%TD*%
D13*
%TO.P,R6,2*%
%TO.N,+3V3*%
X22860000Y-36200000D03*
D14*
%TO.P,R6,1*%
%TO.N,Net-(R6-Pad1)*%
X22860000Y-38100000D03*
%TD*%
D10*
%TO.P,R1,2*%
%TO.N,+5V*%
X23495000Y-73025000D03*
D11*
%TO.P,R1,1*%
%TO.N,Net-(R1-Pad1)*%
X23495000Y-70485000D03*
%TD*%
D10*
%TO.P,M3,2*%
%TO.N,Net-(M3-Pad2)*%
X63230000Y-45720000D03*
D11*
%TO.P,M3,1*%
%TO.N,Net-(J2-Pad1)*%
X65770000Y-45720000D03*
%TD*%
D10*
%TO.P,M2,2*%
%TO.N,Net-(M2-Pad2)*%
X63230000Y-34290000D03*
D11*
%TO.P,M2,1*%
%TO.N,Net-(J2-Pad1)*%
X65770000Y-34290000D03*
%TD*%
D10*
%TO.P,M1,2*%
%TO.N,Net-(M1-Pad2)*%
X63230000Y-57150000D03*
D11*
%TO.P,M1,1*%
%TO.N,Net-(J2-Pad1)*%
X65770000Y-57150000D03*
%TD*%
D15*
%TO.P,J2,2*%
%TO.N,Net-(D1-Pad1)*%
X58500000Y-20320000D03*
D16*
%TO.P,J2,1*%
%TO.N,Net-(J2-Pad1)*%
X63500000Y-20320000D03*
%TD*%
D17*
%TO.P,U1,16*%
%TO.N,Net-(R6-Pad1)*%
X29210000Y-30480000D03*
%TO.P,U1,15*%
%TO.N,Net-(U1-Pad15)*%
X44450000Y-30480000D03*
%TO.P,U1,30*%
%TO.N,Net-(U1-Pad30)*%
X29210000Y-66040000D03*
%TO.P,U1,14*%
%TO.N,Net-(U1-Pad14)*%
X44450000Y-33020000D03*
%TO.P,U1,29*%
%TO.N,GND1*%
X29210000Y-63500000D03*
%TO.P,U1,13*%
%TO.N,Net-(U1-Pad13)*%
X44450000Y-35560000D03*
%TO.P,U1,28*%
%TO.N,Net-(U1-Pad28)*%
X29210000Y-60960000D03*
%TO.P,U1,12*%
%TO.N,Net-(U1-Pad12)*%
X44450000Y-38100000D03*
%TO.P,U1,27*%
%TO.N,+5V*%
X29210000Y-58420000D03*
%TO.P,U1,11*%
%TO.N,Net-(U1-Pad11)*%
X44450000Y-40640000D03*
%TO.P,U1,26*%
%TO.N,Net-(U1-Pad26)*%
X29210000Y-55880000D03*
%TO.P,U1,10*%
%TO.N,Net-(U1-Pad10)*%
X44450000Y-43180000D03*
%TO.P,U1,25*%
%TO.N,Net-(U1-Pad25)*%
X29210000Y-53340000D03*
%TO.P,U1,9*%
%TO.N,Net-(U1-Pad9)*%
X44450000Y-45720000D03*
%TO.P,U1,24*%
%TO.N,Net-(J6-Pad2)*%
X29210000Y-50800000D03*
%TO.P,U1,8*%
%TO.N,Net-(U1-Pad8)*%
X44450000Y-48260000D03*
%TO.P,U1,23*%
%TO.N,Net-(J6-Pad1)*%
X29210000Y-48260000D03*
%TO.P,U1,7*%
%TO.N,Net-(R2-Pad1)*%
X44450000Y-50800000D03*
%TO.P,U1,22*%
%TO.N,Net-(R1-Pad1)*%
X29210000Y-45720000D03*
%TO.P,U1,6*%
%TO.N,Net-(R5-Pad1)*%
X44450000Y-53340000D03*
%TO.P,U1,21*%
%TO.N,Net-(J3-Pad3)*%
X29210000Y-43180000D03*
%TO.P,U1,5*%
%TO.N,Net-(R4-Pad1)*%
X44450000Y-55880000D03*
%TO.P,U1,20*%
%TO.N,Net-(J4-Pad3)*%
X29210000Y-40640000D03*
%TO.P,U1,4*%
%TO.N,GND1*%
X44450000Y-58420000D03*
%TO.P,U1,19*%
%TO.N,Net-(U1-Pad19)*%
X29210000Y-38100000D03*
%TO.P,U1,3*%
%TO.N,Net-(U1-Pad3)*%
X44450000Y-60960000D03*
%TO.P,U1,18*%
%TO.N,Net-(U1-Pad18)*%
X29210000Y-35560000D03*
%TO.P,U1,2*%
%TO.N,Net-(U1-Pad2)*%
X44450000Y-63500000D03*
%TO.P,U1,17*%
%TO.N,+3V3*%
X29210000Y-33020000D03*
D18*
%TO.P,U1,1*%
%TO.N,Net-(U1-Pad1)*%
X44450000Y-66040000D03*
%TD*%
D19*
%TO.P,U2,4*%
%TO.N,GND1*%
X23495000Y-17145000D03*
%TO.P,U2,3*%
%TO.N,Net-(U2-Pad3)*%
X23495000Y-19685000D03*
%TO.P,U2,2*%
%TO.N,Net-(R6-Pad1)*%
X23495000Y-22225000D03*
D20*
%TO.P,U2,1*%
%TO.N,+3V3*%
X23495000Y-24765000D03*
%TD*%
D21*
%TO.P,Q3,3*%
%TO.N,GND*%
X58420000Y-43180000D03*
%TO.P,Q3,2*%
%TO.N,Net-(M3-Pad2)*%
X58420000Y-45720000D03*
D22*
%TO.P,Q3,1*%
%TO.N,Net-(Q3-Pad1)*%
X58420000Y-48260000D03*
%TD*%
D21*
%TO.P,Q1,3*%
%TO.N,GND*%
X58420000Y-54610000D03*
%TO.P,Q1,2*%
%TO.N,Net-(M1-Pad2)*%
X58420000Y-57150000D03*
D22*
%TO.P,Q1,1*%
%TO.N,Net-(Q1-Pad1)*%
X58420000Y-59690000D03*
%TD*%
D21*
%TO.P,Q2,3*%
%TO.N,GND*%
X58420000Y-31750000D03*
%TO.P,Q2,2*%
%TO.N,Net-(M2-Pad2)*%
X58420000Y-34290000D03*
D22*
%TO.P,Q2,1*%
%TO.N,Net-(Q2-Pad1)*%
X58420000Y-36830000D03*
%TD*%
D13*
%TO.P,R2,2*%
%TO.N,Net-(Q2-Pad1)*%
X52065000Y-36830000D03*
D14*
%TO.P,R2,1*%
%TO.N,Net-(R2-Pad1)*%
X50165000Y-36830000D03*
%TD*%
D13*
%TO.P,R3,2*%
%TO.N,Net-(R1-Pad1)*%
X23495000Y-62870000D03*
D14*
%TO.P,R3,1*%
%TO.N,GND1*%
X23495000Y-64770000D03*
%TD*%
D13*
%TO.P,R4,2*%
%TO.N,Net-(Q1-Pad1)*%
X52065000Y-59690000D03*
D14*
%TO.P,R4,1*%
%TO.N,Net-(R4-Pad1)*%
X50165000Y-59690000D03*
%TD*%
D13*
%TO.P,R5,2*%
%TO.N,Net-(Q3-Pad1)*%
X52065000Y-48260000D03*
D14*
%TO.P,R5,1*%
%TO.N,Net-(R5-Pad1)*%
X50165000Y-48260000D03*
%TD*%
D23*
%TO.P,D1,2*%
%TO.N,GND*%
X46990000Y-20320000D03*
D24*
%TO.P,D1,1*%
%TO.N,Net-(D1-Pad1)*%
X46990000Y-17780000D03*
%TD*%
D25*
%TO.N,GND*%
X58420000Y-54610000D02*
X69850000Y-54610000D01*
X69850000Y-62230000D02*
X67310000Y-64770000D01*
X69850000Y-54610000D02*
X69850000Y-62230000D01*
X58420000Y-31750000D02*
X55880000Y-31750000D01*
X55880000Y-31750000D02*
X55880000Y-43180000D01*
X55880000Y-43180000D02*
X58420000Y-43180000D01*
X55880000Y-43180000D02*
X55880000Y-54610000D01*
X55880000Y-54610000D02*
X58420000Y-54610000D01*
X46990000Y-22860000D02*
X55880000Y-31750000D01*
X46990000Y-20320000D02*
X46990000Y-22860000D01*
%TO.N,Net-(M1-Pad2)*%
X58420000Y-57150000D02*
X63230000Y-57150000D01*
%TO.N,Net-(M2-Pad2)*%
X58420000Y-34290000D02*
X63230000Y-34290000D01*
%TO.N,Net-(M3-Pad2)*%
X58420000Y-45720000D02*
X63230000Y-45720000D01*
%TO.N,Net-(D1-Pad1)*%
X46990000Y-17780000D02*
X54610000Y-17780000D01*
X54610000Y-17780000D02*
X54610000Y-20320000D01*
X54610000Y-20320000D02*
X58500000Y-20320000D01*
D26*
%TO.N,GND1*%
X23495000Y-57785000D02*
X23495000Y-58420000D01*
X46170010Y-58870010D02*
X44636400Y-58870010D01*
X52070000Y-64770000D02*
X46170010Y-58870010D01*
X29210000Y-63500000D02*
X27940000Y-63500000D01*
X26670000Y-64770000D02*
X23495000Y-64770000D01*
X27940000Y-63500000D02*
X26670000Y-64770000D01*
X23495000Y-17145000D02*
X22225000Y-17145000D01*
X22225000Y-17145000D02*
X21590000Y-17780000D01*
X21590000Y-17780000D02*
X21590000Y-48260000D01*
X21590000Y-48260000D02*
X23495000Y-48260000D01*
X21590000Y-48260000D02*
X21590000Y-58420000D01*
X21590000Y-58420000D02*
X23495000Y-58420000D01*
X21590000Y-58420000D02*
X21590000Y-64770000D01*
X21590000Y-64770000D02*
X23495000Y-64770000D01*
D25*
X23495000Y-65405000D02*
X23495000Y-64770000D01*
X31750000Y-73660000D02*
X23495000Y-65405000D01*
%TO.N,Net-(J6-Pad2)*%
X36830000Y-58420000D02*
X29210000Y-50800000D01*
X36830000Y-73660000D02*
X36830000Y-58420000D01*
%TO.N,Net-(J6-Pad1)*%
X39370000Y-58420000D02*
X29210000Y-48260000D01*
X39370000Y-73660000D02*
X39370000Y-58420000D01*
%TD*%
D27*
%TO.N,GND*%
X71730001Y-76810000D02*
X19177000Y-76810000D01*
X19177000Y-69635000D01*
X22006928Y-69635000D01*
X22006928Y-71335000D01*
X22019188Y-71459482D01*
X22055498Y-71579180D01*
X22114463Y-71689494D01*
X22193815Y-71786185D01*
X22290506Y-71865537D01*
X22400820Y-71924502D01*
X22473380Y-71946513D01*
X22341525Y-72078368D01*
X22179010Y-72321589D01*
X22067068Y-72591842D01*
X22010000Y-72878740D01*
X22010000Y-73171260D01*
X22067068Y-73458158D01*
X22179010Y-73728411D01*
X22341525Y-73971632D01*
X22548368Y-74178475D01*
X22791589Y-74340990D01*
X23061842Y-74452932D01*
X23348740Y-74510000D01*
X23641260Y-74510000D01*
X23928158Y-74452932D01*
X24198411Y-74340990D01*
X24441632Y-74178475D01*
X24648475Y-73971632D01*
X24810990Y-73728411D01*
X24922932Y-73458158D01*
X24980000Y-73171260D01*
X24980000Y-72878740D01*
X24922932Y-72591842D01*
X24810990Y-72321589D01*
X24648475Y-72078368D01*
X24516620Y-71946513D01*
X24589180Y-71924502D01*
X24699494Y-71865537D01*
X24796185Y-71786185D01*
X24875537Y-71689494D01*
X24934502Y-71579180D01*
X24970812Y-71459482D01*
X24983072Y-71335000D01*
X24983072Y-69635000D01*
X24970812Y-69510518D01*
X24934502Y-69390820D01*
X24875537Y-69280506D01*
X24796185Y-69183815D01*
X24699494Y-69104463D01*
X24589180Y-69045498D01*
X24469482Y-69009188D01*
X24345000Y-68996928D01*
X22645000Y-68996928D01*
X22520518Y-69009188D01*
X22400820Y-69045498D01*
X22290506Y-69104463D01*
X22193815Y-69183815D01*
X22114463Y-69280506D01*
X22055498Y-69390820D01*
X22019188Y-69510518D01*
X22006928Y-69635000D01*
X19177000Y-69635000D01*
X19177000Y-48260000D01*
X20826323Y-48260000D01*
X20830000Y-48297333D01*
X20830001Y-58382657D01*
X20826323Y-58420000D01*
X20830000Y-58457333D01*
X20830001Y-64732657D01*
X20826323Y-64770000D01*
X20840997Y-64918986D01*
X20884454Y-65062247D01*
X20955026Y-65194276D01*
X21049999Y-65310001D01*
X21165724Y-65404974D01*
X21297753Y-65475546D01*
X21441014Y-65519003D01*
X21552667Y-65530000D01*
X21590000Y-65533677D01*
X21627333Y-65530000D01*
X22397225Y-65530000D01*
X22458038Y-65621013D01*
X22643987Y-65806962D01*
X22741017Y-65871795D01*
X22755589Y-65899058D01*
X22866183Y-66033817D01*
X22899956Y-66061534D01*
X30279461Y-73441040D01*
X30265000Y-73513740D01*
X30265000Y-73806260D01*
X30322068Y-74093158D01*
X30434010Y-74363411D01*
X30596525Y-74606632D01*
X30803368Y-74813475D01*
X31046589Y-74975990D01*
X31316842Y-75087932D01*
X31603740Y-75145000D01*
X31896260Y-75145000D01*
X32183158Y-75087932D01*
X32453411Y-74975990D01*
X32696632Y-74813475D01*
X32903475Y-74606632D01*
X33020000Y-74432240D01*
X33136525Y-74606632D01*
X33343368Y-74813475D01*
X33586589Y-74975990D01*
X33856842Y-75087932D01*
X34143740Y-75145000D01*
X34436260Y-75145000D01*
X34723158Y-75087932D01*
X34993411Y-74975990D01*
X35236632Y-74813475D01*
X35443475Y-74606632D01*
X35560000Y-74432240D01*
X35676525Y-74606632D01*
X35883368Y-74813475D01*
X36126589Y-74975990D01*
X36396842Y-75087932D01*
X36683740Y-75145000D01*
X36976260Y-75145000D01*
X37263158Y-75087932D01*
X37533411Y-74975990D01*
X37776632Y-74813475D01*
X37908487Y-74681620D01*
X37930498Y-74754180D01*
X37989463Y-74864494D01*
X38068815Y-74961185D01*
X38165506Y-75040537D01*
X38275820Y-75099502D01*
X38395518Y-75135812D01*
X38520000Y-75148072D01*
X40220000Y-75148072D01*
X40344482Y-75135812D01*
X40464180Y-75099502D01*
X40574494Y-75040537D01*
X40671185Y-74961185D01*
X40750537Y-74864494D01*
X40809502Y-74754180D01*
X40845812Y-74634482D01*
X40858072Y-74510000D01*
X40858072Y-72810000D01*
X40848224Y-72710000D01*
X50231928Y-72710000D01*
X50231928Y-74610000D01*
X50248992Y-74783254D01*
X50299528Y-74949850D01*
X50381595Y-75103386D01*
X50492038Y-75237962D01*
X50626614Y-75348405D01*
X50780150Y-75430472D01*
X50946746Y-75481008D01*
X51120000Y-75498072D01*
X53020000Y-75498072D01*
X53193254Y-75481008D01*
X53359850Y-75430472D01*
X53513386Y-75348405D01*
X53647962Y-75237962D01*
X53758405Y-75103386D01*
X53840472Y-74949850D01*
X53891008Y-74783254D01*
X53908072Y-74610000D01*
X53908072Y-72710000D01*
X65471928Y-72710000D01*
X65471928Y-74610000D01*
X65488992Y-74783254D01*
X65539528Y-74949850D01*
X65621595Y-75103386D01*
X65732038Y-75237962D01*
X65866614Y-75348405D01*
X66020150Y-75430472D01*
X66186746Y-75481008D01*
X66360000Y-75498072D01*
X68260000Y-75498072D01*
X68433254Y-75481008D01*
X68599850Y-75430472D01*
X68753386Y-75348405D01*
X68887962Y-75237962D01*
X68998405Y-75103386D01*
X69080472Y-74949850D01*
X69131008Y-74783254D01*
X69148072Y-74610000D01*
X69148072Y-72710000D01*
X69131008Y-72536746D01*
X69080472Y-72370150D01*
X68998405Y-72216614D01*
X68887962Y-72082038D01*
X68753386Y-71971595D01*
X68599850Y-71889528D01*
X68433254Y-71838992D01*
X68260000Y-71821928D01*
X66360000Y-71821928D01*
X66186746Y-71838992D01*
X66020150Y-71889528D01*
X65866614Y-71971595D01*
X65732038Y-72082038D01*
X65621595Y-72216614D01*
X65539528Y-72370150D01*
X65488992Y-72536746D01*
X65471928Y-72710000D01*
X53908072Y-72710000D01*
X53891008Y-72536746D01*
X53840472Y-72370150D01*
X53758405Y-72216614D01*
X53647962Y-72082038D01*
X53513386Y-71971595D01*
X53359850Y-71889528D01*
X53193254Y-71838992D01*
X53020000Y-71821928D01*
X51120000Y-71821928D01*
X50946746Y-71838992D01*
X50780150Y-71889528D01*
X50626614Y-71971595D01*
X50492038Y-72082038D01*
X50381595Y-72216614D01*
X50299528Y-72370150D01*
X50248992Y-72536746D01*
X50231928Y-72710000D01*
X40848224Y-72710000D01*
X40845812Y-72685518D01*
X40809502Y-72565820D01*
X40750537Y-72455506D01*
X40671185Y-72358815D01*
X40574494Y-72279463D01*
X40464180Y-72220498D01*
X40344482Y-72184188D01*
X40255000Y-72175375D01*
X40255000Y-65240000D01*
X43011928Y-65240000D01*
X43011928Y-66840000D01*
X43024188Y-66964482D01*
X43060498Y-67084180D01*
X43119463Y-67194494D01*
X43198815Y-67291185D01*
X43295506Y-67370537D01*
X43405820Y-67429502D01*
X43525518Y-67465812D01*
X43650000Y-67478072D01*
X45250000Y-67478072D01*
X45374482Y-67465812D01*
X45494180Y-67429502D01*
X45604494Y-67370537D01*
X45701185Y-67291185D01*
X45780537Y-67194494D01*
X45839502Y-67084180D01*
X45875812Y-66964482D01*
X45888072Y-66840000D01*
X45888072Y-65240000D01*
X45875812Y-65115518D01*
X45839502Y-64995820D01*
X45780537Y-64885506D01*
X45701185Y-64788815D01*
X45604494Y-64709463D01*
X45494180Y-64650498D01*
X45374482Y-64614188D01*
X45366039Y-64613357D01*
X45564637Y-64414759D01*
X45721680Y-64179727D01*
X45829853Y-63918574D01*
X45885000Y-63641335D01*
X45885000Y-63358665D01*
X45829853Y-63081426D01*
X45721680Y-62820273D01*
X45564637Y-62585241D01*
X45364759Y-62385363D01*
X45132241Y-62230000D01*
X45364759Y-62074637D01*
X45564637Y-61874759D01*
X45721680Y-61639727D01*
X45829853Y-61378574D01*
X45885000Y-61101335D01*
X45885000Y-60818665D01*
X45829853Y-60541426D01*
X45721680Y-60280273D01*
X45564637Y-60045241D01*
X45364759Y-59845363D01*
X45132241Y-59690000D01*
X45222023Y-59630010D01*
X45855209Y-59630010D01*
X50350750Y-64125551D01*
X50305518Y-64234750D01*
X50235000Y-64589268D01*
X50235000Y-64950732D01*
X50305518Y-65305250D01*
X50443844Y-65639199D01*
X50644662Y-65939744D01*
X50900256Y-66195338D01*
X51200801Y-66396156D01*
X51534750Y-66534482D01*
X51889268Y-66605000D01*
X52250732Y-66605000D01*
X52605250Y-66534482D01*
X52939199Y-66396156D01*
X53239744Y-66195338D01*
X53387102Y-66047980D01*
X66211626Y-66047980D01*
X66331514Y-66332836D01*
X66655210Y-66493699D01*
X67004069Y-66588322D01*
X67364684Y-66613067D01*
X67723198Y-66566985D01*
X68065833Y-66451846D01*
X68288486Y-66332836D01*
X68408374Y-66047980D01*
X67310000Y-64949605D01*
X66211626Y-66047980D01*
X53387102Y-66047980D01*
X53495338Y-65939744D01*
X53696156Y-65639199D01*
X53834482Y-65305250D01*
X53905000Y-64950732D01*
X53905000Y-64824684D01*
X65466933Y-64824684D01*
X65513015Y-65183198D01*
X65628154Y-65525833D01*
X65747164Y-65748486D01*
X66032020Y-65868374D01*
X67130395Y-64770000D01*
X67489605Y-64770000D01*
X68587980Y-65868374D01*
X68872836Y-65748486D01*
X69033699Y-65424790D01*
X69128322Y-65075931D01*
X69153067Y-64715316D01*
X69106985Y-64356802D01*
X68991846Y-64014167D01*
X68872836Y-63791514D01*
X68587980Y-63671626D01*
X67489605Y-64770000D01*
X67130395Y-64770000D01*
X66032020Y-63671626D01*
X65747164Y-63791514D01*
X65586301Y-64115210D01*
X65491678Y-64464069D01*
X65466933Y-64824684D01*
X53905000Y-64824684D01*
X53905000Y-64589268D01*
X53834482Y-64234750D01*
X53696156Y-63900801D01*
X53495338Y-63600256D01*
X53387102Y-63492020D01*
X66211626Y-63492020D01*
X67310000Y-64590395D01*
X68408374Y-63492020D01*
X68288486Y-63207164D01*
X67964790Y-63046301D01*
X67615931Y-62951678D01*
X67255316Y-62926933D01*
X66896802Y-62973015D01*
X66554167Y-63088154D01*
X66331514Y-63207164D01*
X66211626Y-63492020D01*
X53387102Y-63492020D01*
X53239744Y-63344662D01*
X52939199Y-63143844D01*
X52605250Y-63005518D01*
X52250732Y-62935000D01*
X51889268Y-62935000D01*
X51534750Y-63005518D01*
X51425551Y-63050750D01*
X47933315Y-59558514D01*
X48830000Y-59558514D01*
X48830000Y-59821486D01*
X48881304Y-60079405D01*
X48981939Y-60322359D01*
X49128038Y-60541013D01*
X49313987Y-60726962D01*
X49532641Y-60873061D01*
X49775595Y-60973696D01*
X50033514Y-61025000D01*
X50296486Y-61025000D01*
X50554405Y-60973696D01*
X50797359Y-60873061D01*
X51016013Y-60726962D01*
X51115000Y-60627975D01*
X51213987Y-60726962D01*
X51432641Y-60873061D01*
X51675595Y-60973696D01*
X51933514Y-61025000D01*
X52196486Y-61025000D01*
X52454405Y-60973696D01*
X52697359Y-60873061D01*
X52916013Y-60726962D01*
X53101962Y-60541013D01*
X53248061Y-60322359D01*
X53348696Y-60079405D01*
X53400000Y-59821486D01*
X53400000Y-59558514D01*
X53348696Y-59300595D01*
X53248061Y-59057641D01*
X53101962Y-58838987D01*
X52916013Y-58653038D01*
X52697359Y-58506939D01*
X52454405Y-58406304D01*
X52196486Y-58355000D01*
X51933514Y-58355000D01*
X51675595Y-58406304D01*
X51432641Y-58506939D01*
X51213987Y-58653038D01*
X51115000Y-58752025D01*
X51016013Y-58653038D01*
X50797359Y-58506939D01*
X50554405Y-58406304D01*
X50296486Y-58355000D01*
X50033514Y-58355000D01*
X49775595Y-58406304D01*
X49532641Y-58506939D01*
X49313987Y-58653038D01*
X49128038Y-58838987D01*
X48981939Y-59057641D01*
X48881304Y-59300595D01*
X48830000Y-59558514D01*
X47933315Y-59558514D01*
X46733814Y-58359013D01*
X46710011Y-58330009D01*
X46594286Y-58235036D01*
X46462257Y-58164464D01*
X46318996Y-58121007D01*
X46207343Y-58110010D01*
X46207332Y-58110010D01*
X46170010Y-58106334D01*
X46132688Y-58110010D01*
X45851452Y-58110010D01*
X45829853Y-58001426D01*
X45721680Y-57740273D01*
X45564637Y-57505241D01*
X45364759Y-57305363D01*
X45132241Y-57150000D01*
X56777319Y-57150000D01*
X56807970Y-57461204D01*
X56898745Y-57760449D01*
X57046155Y-58036235D01*
X57149446Y-58162095D01*
X57065506Y-58206963D01*
X56968815Y-58286315D01*
X56889463Y-58383006D01*
X56830498Y-58493320D01*
X56794188Y-58613018D01*
X56781928Y-58737500D01*
X56781928Y-60642500D01*
X56794188Y-60766982D01*
X56830498Y-60886680D01*
X56889463Y-60996994D01*
X56968815Y-61093685D01*
X57065506Y-61173037D01*
X57175820Y-61232002D01*
X57295518Y-61268312D01*
X57420000Y-61280572D01*
X59420000Y-61280572D01*
X59544482Y-61268312D01*
X59664180Y-61232002D01*
X59774494Y-61173037D01*
X59871185Y-61093685D01*
X59950537Y-60996994D01*
X60009502Y-60886680D01*
X60045812Y-60766982D01*
X60058072Y-60642500D01*
X60058072Y-58737500D01*
X60045812Y-58613018D01*
X60009502Y-58493320D01*
X59950537Y-58383006D01*
X59871185Y-58286315D01*
X59774494Y-58206963D01*
X59690554Y-58162095D01*
X59793845Y-58036235D01*
X59794505Y-58035000D01*
X62035344Y-58035000D01*
X62076525Y-58096632D01*
X62283368Y-58303475D01*
X62526589Y-58465990D01*
X62796842Y-58577932D01*
X63083740Y-58635000D01*
X63376260Y-58635000D01*
X63663158Y-58577932D01*
X63933411Y-58465990D01*
X64176632Y-58303475D01*
X64308487Y-58171620D01*
X64330498Y-58244180D01*
X64389463Y-58354494D01*
X64468815Y-58451185D01*
X64565506Y-58530537D01*
X64675820Y-58589502D01*
X64795518Y-58625812D01*
X64920000Y-58638072D01*
X66620000Y-58638072D01*
X66744482Y-58625812D01*
X66864180Y-58589502D01*
X66974494Y-58530537D01*
X67071185Y-58451185D01*
X67150537Y-58354494D01*
X67209502Y-58244180D01*
X67245812Y-58124482D01*
X67258072Y-58000000D01*
X67258072Y-56300000D01*
X67245812Y-56175518D01*
X67209502Y-56055820D01*
X67150537Y-55945506D01*
X67071185Y-55848815D01*
X66974494Y-55769463D01*
X66864180Y-55710498D01*
X66744482Y-55674188D01*
X66620000Y-55661928D01*
X64920000Y-55661928D01*
X64795518Y-55674188D01*
X64675820Y-55710498D01*
X64565506Y-55769463D01*
X64468815Y-55848815D01*
X64389463Y-55945506D01*
X64330498Y-56055820D01*
X64308487Y-56128380D01*
X64176632Y-55996525D01*
X63933411Y-55834010D01*
X63663158Y-55722068D01*
X63376260Y-55665000D01*
X63083740Y-55665000D01*
X62796842Y-55722068D01*
X62526589Y-55834010D01*
X62283368Y-55996525D01*
X62076525Y-56203368D01*
X62035344Y-56265000D01*
X59794505Y-56265000D01*
X59793845Y-56263765D01*
X59595463Y-56022037D01*
X59416101Y-55874837D01*
X59601315Y-55719437D01*
X59795969Y-55476923D01*
X59939571Y-55201094D01*
X60010563Y-54982980D01*
X59890594Y-54737000D01*
X58547000Y-54737000D01*
X58547000Y-54757000D01*
X58293000Y-54757000D01*
X58293000Y-54737000D01*
X56949406Y-54737000D01*
X56829437Y-54982980D01*
X56900429Y-55201094D01*
X57044031Y-55476923D01*
X57238685Y-55719437D01*
X57423899Y-55874837D01*
X57244537Y-56022037D01*
X57046155Y-56263765D01*
X56898745Y-56539551D01*
X56807970Y-56838796D01*
X56777319Y-57150000D01*
X45132241Y-57150000D01*
X45364759Y-56994637D01*
X45564637Y-56794759D01*
X45721680Y-56559727D01*
X45829853Y-56298574D01*
X45885000Y-56021335D01*
X45885000Y-55738665D01*
X45829853Y-55461426D01*
X45721680Y-55200273D01*
X45564637Y-54965241D01*
X45364759Y-54765363D01*
X45132241Y-54610000D01*
X45364759Y-54454637D01*
X45564637Y-54254759D01*
X45576489Y-54237020D01*
X56829437Y-54237020D01*
X56949406Y-54483000D01*
X58293000Y-54483000D01*
X58293000Y-53184430D01*
X58547000Y-53184430D01*
X58547000Y-54483000D01*
X59890594Y-54483000D01*
X60010563Y-54237020D01*
X59939571Y-54018906D01*
X59795969Y-53743077D01*
X59601315Y-53500563D01*
X59363089Y-53300684D01*
X59090446Y-53151121D01*
X58793863Y-53057622D01*
X58547000Y-53184430D01*
X58293000Y-53184430D01*
X58046137Y-53057622D01*
X57749554Y-53151121D01*
X57476911Y-53300684D01*
X57238685Y-53500563D01*
X57044031Y-53743077D01*
X56900429Y-54018906D01*
X56829437Y-54237020D01*
X45576489Y-54237020D01*
X45721680Y-54019727D01*
X45829853Y-53758574D01*
X45885000Y-53481335D01*
X45885000Y-53198665D01*
X45829853Y-52921426D01*
X45721680Y-52660273D01*
X45564637Y-52425241D01*
X45364759Y-52225363D01*
X45132241Y-52070000D01*
X45364759Y-51914637D01*
X45564637Y-51714759D01*
X45721680Y-51479727D01*
X45829853Y-51218574D01*
X45885000Y-50941335D01*
X45885000Y-50658665D01*
X45829853Y-50381426D01*
X45721680Y-50120273D01*
X45564637Y-49885241D01*
X45364759Y-49685363D01*
X45132241Y-49530000D01*
X45364759Y-49374637D01*
X45564637Y-49174759D01*
X45721680Y-48939727D01*
X45829853Y-48678574D01*
X45885000Y-48401335D01*
X45885000Y-48128514D01*
X48830000Y-48128514D01*
X48830000Y-48391486D01*
X48881304Y-48649405D01*
X48981939Y-48892359D01*
X49128038Y-49111013D01*
X49313987Y-49296962D01*
X49532641Y-49443061D01*
X49775595Y-49543696D01*
X50033514Y-49595000D01*
X50296486Y-49595000D01*
X50554405Y-49543696D01*
X50797359Y-49443061D01*
X51016013Y-49296962D01*
X51115000Y-49197975D01*
X51213987Y-49296962D01*
X51432641Y-49443061D01*
X51675595Y-49543696D01*
X51933514Y-49595000D01*
X52196486Y-49595000D01*
X52454405Y-49543696D01*
X52697359Y-49443061D01*
X52916013Y-49296962D01*
X53101962Y-49111013D01*
X53248061Y-48892359D01*
X53348696Y-48649405D01*
X53400000Y-48391486D01*
X53400000Y-48128514D01*
X53348696Y-47870595D01*
X53248061Y-47627641D01*
X53101962Y-47408987D01*
X52916013Y-47223038D01*
X52697359Y-47076939D01*
X52454405Y-46976304D01*
X52196486Y-46925000D01*
X51933514Y-46925000D01*
X51675595Y-46976304D01*
X51432641Y-47076939D01*
X51213987Y-47223038D01*
X51115000Y-47322025D01*
X51016013Y-47223038D01*
X50797359Y-47076939D01*
X50554405Y-46976304D01*
X50296486Y-46925000D01*
X50033514Y-46925000D01*
X49775595Y-46976304D01*
X49532641Y-47076939D01*
X49313987Y-47223038D01*
X49128038Y-47408987D01*
X48981939Y-47627641D01*
X48881304Y-47870595D01*
X48830000Y-48128514D01*
X45885000Y-48128514D01*
X45885000Y-48118665D01*
X45829853Y-47841426D01*
X45721680Y-47580273D01*
X45564637Y-47345241D01*
X45364759Y-47145363D01*
X45132241Y-46990000D01*
X45364759Y-46834637D01*
X45564637Y-46634759D01*
X45721680Y-46399727D01*
X45829853Y-46138574D01*
X45885000Y-45861335D01*
X45885000Y-45720000D01*
X56777319Y-45720000D01*
X56807970Y-46031204D01*
X56898745Y-46330449D01*
X57046155Y-46606235D01*
X57149446Y-46732095D01*
X57065506Y-46776963D01*
X56968815Y-46856315D01*
X56889463Y-46953006D01*
X56830498Y-47063320D01*
X56794188Y-47183018D01*
X56781928Y-47307500D01*
X56781928Y-49212500D01*
X56794188Y-49336982D01*
X56830498Y-49456680D01*
X56889463Y-49566994D01*
X56968815Y-49663685D01*
X57065506Y-49743037D01*
X57175820Y-49802002D01*
X57295518Y-49838312D01*
X57420000Y-49850572D01*
X59420000Y-49850572D01*
X59544482Y-49838312D01*
X59664180Y-49802002D01*
X59774494Y-49743037D01*
X59871185Y-49663685D01*
X59950537Y-49566994D01*
X60009502Y-49456680D01*
X60045812Y-49336982D01*
X60058072Y-49212500D01*
X60058072Y-47307500D01*
X60045812Y-47183018D01*
X60009502Y-47063320D01*
X59950537Y-46953006D01*
X59871185Y-46856315D01*
X59774494Y-46776963D01*
X59690554Y-46732095D01*
X59793845Y-46606235D01*
X59794505Y-46605000D01*
X62035344Y-46605000D01*
X62076525Y-46666632D01*
X62283368Y-46873475D01*
X62526589Y-47035990D01*
X62796842Y-47147932D01*
X63083740Y-47205000D01*
X63376260Y-47205000D01*
X63663158Y-47147932D01*
X63933411Y-47035990D01*
X64176632Y-46873475D01*
X64308487Y-46741620D01*
X64330498Y-46814180D01*
X64389463Y-46924494D01*
X64468815Y-47021185D01*
X64565506Y-47100537D01*
X64675820Y-47159502D01*
X64795518Y-47195812D01*
X64920000Y-47208072D01*
X66620000Y-47208072D01*
X66744482Y-47195812D01*
X66864180Y-47159502D01*
X66974494Y-47100537D01*
X67071185Y-47021185D01*
X67150537Y-46924494D01*
X67209502Y-46814180D01*
X67245812Y-46694482D01*
X67258072Y-46570000D01*
X67258072Y-44870000D01*
X67245812Y-44745518D01*
X67209502Y-44625820D01*
X67150537Y-44515506D01*
X67071185Y-44418815D01*
X66974494Y-44339463D01*
X66864180Y-44280498D01*
X66744482Y-44244188D01*
X66620000Y-44231928D01*
X64920000Y-44231928D01*
X64795518Y-44244188D01*
X64675820Y-44280498D01*
X64565506Y-44339463D01*
X64468815Y-44418815D01*
X64389463Y-44515506D01*
X64330498Y-44625820D01*
X64308487Y-44698380D01*
X64176632Y-44566525D01*
X63933411Y-44404010D01*
X63663158Y-44292068D01*
X63376260Y-44235000D01*
X63083740Y-44235000D01*
X62796842Y-44292068D01*
X62526589Y-44404010D01*
X62283368Y-44566525D01*
X62076525Y-44773368D01*
X62035344Y-44835000D01*
X59794505Y-44835000D01*
X59793845Y-44833765D01*
X59595463Y-44592037D01*
X59416101Y-44444837D01*
X59601315Y-44289437D01*
X59795969Y-44046923D01*
X59939571Y-43771094D01*
X60010563Y-43552980D01*
X59890594Y-43307000D01*
X58547000Y-43307000D01*
X58547000Y-43327000D01*
X58293000Y-43327000D01*
X58293000Y-43307000D01*
X56949406Y-43307000D01*
X56829437Y-43552980D01*
X56900429Y-43771094D01*
X57044031Y-44046923D01*
X57238685Y-44289437D01*
X57423899Y-44444837D01*
X57244537Y-44592037D01*
X57046155Y-44833765D01*
X56898745Y-45109551D01*
X56807970Y-45408796D01*
X56777319Y-45720000D01*
X45885000Y-45720000D01*
X45885000Y-45578665D01*
X45829853Y-45301426D01*
X45721680Y-45040273D01*
X45564637Y-44805241D01*
X45364759Y-44605363D01*
X45132241Y-44450000D01*
X45364759Y-44294637D01*
X45564637Y-44094759D01*
X45721680Y-43859727D01*
X45829853Y-43598574D01*
X45885000Y-43321335D01*
X45885000Y-43038665D01*
X45838923Y-42807020D01*
X56829437Y-42807020D01*
X56949406Y-43053000D01*
X58293000Y-43053000D01*
X58293000Y-41754430D01*
X58547000Y-41754430D01*
X58547000Y-43053000D01*
X59890594Y-43053000D01*
X60010563Y-42807020D01*
X59939571Y-42588906D01*
X59795969Y-42313077D01*
X59601315Y-42070563D01*
X59363089Y-41870684D01*
X59090446Y-41721121D01*
X58793863Y-41627622D01*
X58547000Y-41754430D01*
X58293000Y-41754430D01*
X58046137Y-41627622D01*
X57749554Y-41721121D01*
X57476911Y-41870684D01*
X57238685Y-42070563D01*
X57044031Y-42313077D01*
X56900429Y-42588906D01*
X56829437Y-42807020D01*
X45838923Y-42807020D01*
X45829853Y-42761426D01*
X45721680Y-42500273D01*
X45564637Y-42265241D01*
X45364759Y-42065363D01*
X45132241Y-41910000D01*
X45364759Y-41754637D01*
X45564637Y-41554759D01*
X45721680Y-41319727D01*
X45829853Y-41058574D01*
X45885000Y-40781335D01*
X45885000Y-40498665D01*
X45829853Y-40221426D01*
X45721680Y-39960273D01*
X45564637Y-39725241D01*
X45364759Y-39525363D01*
X45132241Y-39370000D01*
X45364759Y-39214637D01*
X45564637Y-39014759D01*
X45721680Y-38779727D01*
X45829853Y-38518574D01*
X45885000Y-38241335D01*
X45885000Y-37958665D01*
X45829853Y-37681426D01*
X45721680Y-37420273D01*
X45564637Y-37185241D01*
X45364759Y-36985363D01*
X45132241Y-36830000D01*
X45329024Y-36698514D01*
X48830000Y-36698514D01*
X48830000Y-36961486D01*
X48881304Y-37219405D01*
X48981939Y-37462359D01*
X49128038Y-37681013D01*
X49313987Y-37866962D01*
X49532641Y-38013061D01*
X49775595Y-38113696D01*
X50033514Y-38165000D01*
X50296486Y-38165000D01*
X50554405Y-38113696D01*
X50797359Y-38013061D01*
X51016013Y-37866962D01*
X51115000Y-37767975D01*
X51213987Y-37866962D01*
X51432641Y-38013061D01*
X51675595Y-38113696D01*
X51933514Y-38165000D01*
X52196486Y-38165000D01*
X52454405Y-38113696D01*
X52697359Y-38013061D01*
X52916013Y-37866962D01*
X53101962Y-37681013D01*
X53248061Y-37462359D01*
X53348696Y-37219405D01*
X53400000Y-36961486D01*
X53400000Y-36698514D01*
X53348696Y-36440595D01*
X53248061Y-36197641D01*
X53101962Y-35978987D01*
X52916013Y-35793038D01*
X52697359Y-35646939D01*
X52454405Y-35546304D01*
X52196486Y-35495000D01*
X51933514Y-35495000D01*
X51675595Y-35546304D01*
X51432641Y-35646939D01*
X51213987Y-35793038D01*
X51115000Y-35892025D01*
X51016013Y-35793038D01*
X50797359Y-35646939D01*
X50554405Y-35546304D01*
X50296486Y-35495000D01*
X50033514Y-35495000D01*
X49775595Y-35546304D01*
X49532641Y-35646939D01*
X49313987Y-35793038D01*
X49128038Y-35978987D01*
X48981939Y-36197641D01*
X48881304Y-36440595D01*
X48830000Y-36698514D01*
X45329024Y-36698514D01*
X45364759Y-36674637D01*
X45564637Y-36474759D01*
X45721680Y-36239727D01*
X45829853Y-35978574D01*
X45885000Y-35701335D01*
X45885000Y-35418665D01*
X45829853Y-35141426D01*
X45721680Y-34880273D01*
X45564637Y-34645241D01*
X45364759Y-34445363D01*
X45132241Y-34290000D01*
X56777319Y-34290000D01*
X56807970Y-34601204D01*
X56898745Y-34900449D01*
X57046155Y-35176235D01*
X57149446Y-35302095D01*
X57065506Y-35346963D01*
X56968815Y-35426315D01*
X56889463Y-35523006D01*
X56830498Y-35633320D01*
X56794188Y-35753018D01*
X56781928Y-35877500D01*
X56781928Y-37782500D01*
X56794188Y-37906982D01*
X56830498Y-38026680D01*
X56889463Y-38136994D01*
X56968815Y-38233685D01*
X57065506Y-38313037D01*
X57175820Y-38372002D01*
X57295518Y-38408312D01*
X57420000Y-38420572D01*
X59420000Y-38420572D01*
X59544482Y-38408312D01*
X59664180Y-38372002D01*
X59774494Y-38313037D01*
X59871185Y-38233685D01*
X59950537Y-38136994D01*
X60009502Y-38026680D01*
X60045812Y-37906982D01*
X60058072Y-37782500D01*
X60058072Y-35877500D01*
X60045812Y-35753018D01*
X60009502Y-35633320D01*
X59950537Y-35523006D01*
X59871185Y-35426315D01*
X59774494Y-35346963D01*
X59690554Y-35302095D01*
X59793845Y-35176235D01*
X59794505Y-35175000D01*
X62035344Y-35175000D01*
X62076525Y-35236632D01*
X62283368Y-35443475D01*
X62526589Y-35605990D01*
X62796842Y-35717932D01*
X63083740Y-35775000D01*
X63376260Y-35775000D01*
X63663158Y-35717932D01*
X63933411Y-35605990D01*
X64176632Y-35443475D01*
X64308487Y-35311620D01*
X64330498Y-35384180D01*
X64389463Y-35494494D01*
X64468815Y-35591185D01*
X64565506Y-35670537D01*
X64675820Y-35729502D01*
X64795518Y-35765812D01*
X64920000Y-35778072D01*
X66620000Y-35778072D01*
X66744482Y-35765812D01*
X66864180Y-35729502D01*
X66974494Y-35670537D01*
X67071185Y-35591185D01*
X67150537Y-35494494D01*
X67209502Y-35384180D01*
X67245812Y-35264482D01*
X67258072Y-35140000D01*
X67258072Y-33440000D01*
X67245812Y-33315518D01*
X67209502Y-33195820D01*
X67150537Y-33085506D01*
X67071185Y-32988815D01*
X66974494Y-32909463D01*
X66864180Y-32850498D01*
X66744482Y-32814188D01*
X66620000Y-32801928D01*
X64920000Y-32801928D01*
X64795518Y-32814188D01*
X64675820Y-32850498D01*
X64565506Y-32909463D01*
X64468815Y-32988815D01*
X64389463Y-33085506D01*
X64330498Y-33195820D01*
X64308487Y-33268380D01*
X64176632Y-33136525D01*
X63933411Y-32974010D01*
X63663158Y-32862068D01*
X63376260Y-32805000D01*
X63083740Y-32805000D01*
X62796842Y-32862068D01*
X62526589Y-32974010D01*
X62283368Y-33136525D01*
X62076525Y-33343368D01*
X62035344Y-33405000D01*
X59794505Y-33405000D01*
X59793845Y-33403765D01*
X59595463Y-33162037D01*
X59416101Y-33014837D01*
X59601315Y-32859437D01*
X59795969Y-32616923D01*
X59939571Y-32341094D01*
X60010563Y-32122980D01*
X59890594Y-31877000D01*
X58547000Y-31877000D01*
X58547000Y-31897000D01*
X58293000Y-31897000D01*
X58293000Y-31877000D01*
X56949406Y-31877000D01*
X56829437Y-32122980D01*
X56900429Y-32341094D01*
X57044031Y-32616923D01*
X57238685Y-32859437D01*
X57423899Y-33014837D01*
X57244537Y-33162037D01*
X57046155Y-33403765D01*
X56898745Y-33679551D01*
X56807970Y-33978796D01*
X56777319Y-34290000D01*
X45132241Y-34290000D01*
X45364759Y-34134637D01*
X45564637Y-33934759D01*
X45721680Y-33699727D01*
X45829853Y-33438574D01*
X45885000Y-33161335D01*
X45885000Y-32878665D01*
X45829853Y-32601426D01*
X45721680Y-32340273D01*
X45564637Y-32105241D01*
X45364759Y-31905363D01*
X45132241Y-31750000D01*
X45364759Y-31594637D01*
X45564637Y-31394759D01*
X45576489Y-31377020D01*
X56829437Y-31377020D01*
X56949406Y-31623000D01*
X58293000Y-31623000D01*
X58293000Y-30324430D01*
X58547000Y-30324430D01*
X58547000Y-31623000D01*
X59890594Y-31623000D01*
X60010563Y-31377020D01*
X59939571Y-31158906D01*
X59795969Y-30883077D01*
X59601315Y-30640563D01*
X59363089Y-30440684D01*
X59090446Y-30291121D01*
X58793863Y-30197622D01*
X58547000Y-30324430D01*
X58293000Y-30324430D01*
X58046137Y-30197622D01*
X57749554Y-30291121D01*
X57476911Y-30440684D01*
X57238685Y-30640563D01*
X57044031Y-30883077D01*
X56900429Y-31158906D01*
X56829437Y-31377020D01*
X45576489Y-31377020D01*
X45721680Y-31159727D01*
X45829853Y-30898574D01*
X45885000Y-30621335D01*
X45885000Y-30338665D01*
X45829853Y-30061426D01*
X45721680Y-29800273D01*
X45564637Y-29565241D01*
X45364759Y-29365363D01*
X45129727Y-29208320D01*
X44868574Y-29100147D01*
X44591335Y-29045000D01*
X44308665Y-29045000D01*
X44031426Y-29100147D01*
X43770273Y-29208320D01*
X43535241Y-29365363D01*
X43335363Y-29565241D01*
X43178320Y-29800273D01*
X43070147Y-30061426D01*
X43015000Y-30338665D01*
X43015000Y-30621335D01*
X43070147Y-30898574D01*
X43178320Y-31159727D01*
X43335363Y-31394759D01*
X43535241Y-31594637D01*
X43767759Y-31750000D01*
X43535241Y-31905363D01*
X43335363Y-32105241D01*
X43178320Y-32340273D01*
X43070147Y-32601426D01*
X43015000Y-32878665D01*
X43015000Y-33161335D01*
X43070147Y-33438574D01*
X43178320Y-33699727D01*
X43335363Y-33934759D01*
X43535241Y-34134637D01*
X43767759Y-34290000D01*
X43535241Y-34445363D01*
X43335363Y-34645241D01*
X43178320Y-34880273D01*
X43070147Y-35141426D01*
X43015000Y-35418665D01*
X43015000Y-35701335D01*
X43070147Y-35978574D01*
X43178320Y-36239727D01*
X43335363Y-36474759D01*
X43535241Y-36674637D01*
X43767759Y-36830000D01*
X43535241Y-36985363D01*
X43335363Y-37185241D01*
X43178320Y-37420273D01*
X43070147Y-37681426D01*
X43015000Y-37958665D01*
X43015000Y-38241335D01*
X43070147Y-38518574D01*
X43178320Y-38779727D01*
X43335363Y-39014759D01*
X43535241Y-39214637D01*
X43767759Y-39370000D01*
X43535241Y-39525363D01*
X43335363Y-39725241D01*
X43178320Y-39960273D01*
X43070147Y-40221426D01*
X43015000Y-40498665D01*
X43015000Y-40781335D01*
X43070147Y-41058574D01*
X43178320Y-41319727D01*
X43335363Y-41554759D01*
X43535241Y-41754637D01*
X43767759Y-41910000D01*
X43535241Y-42065363D01*
X43335363Y-42265241D01*
X43178320Y-42500273D01*
X43070147Y-42761426D01*
X43015000Y-43038665D01*
X43015000Y-43321335D01*
X43070147Y-43598574D01*
X43178320Y-43859727D01*
X43335363Y-44094759D01*
X43535241Y-44294637D01*
X43767759Y-44450000D01*
X43535241Y-44605363D01*
X43335363Y-44805241D01*
X43178320Y-45040273D01*
X43070147Y-45301426D01*
X43015000Y-45578665D01*
X43015000Y-45861335D01*
X43070147Y-46138574D01*
X43178320Y-46399727D01*
X43335363Y-46634759D01*
X43535241Y-46834637D01*
X43767759Y-46990000D01*
X43535241Y-47145363D01*
X43335363Y-47345241D01*
X43178320Y-47580273D01*
X43070147Y-47841426D01*
X43015000Y-48118665D01*
X43015000Y-48401335D01*
X43070147Y-48678574D01*
X43178320Y-48939727D01*
X43335363Y-49174759D01*
X43535241Y-49374637D01*
X43767759Y-49530000D01*
X43535241Y-49685363D01*
X43335363Y-49885241D01*
X43178320Y-50120273D01*
X43070147Y-50381426D01*
X43015000Y-50658665D01*
X43015000Y-50941335D01*
X43070147Y-51218574D01*
X43178320Y-51479727D01*
X43335363Y-51714759D01*
X43535241Y-51914637D01*
X43767759Y-52070000D01*
X43535241Y-52225363D01*
X43335363Y-52425241D01*
X43178320Y-52660273D01*
X43070147Y-52921426D01*
X43015000Y-53198665D01*
X43015000Y-53481335D01*
X43070147Y-53758574D01*
X43178320Y-54019727D01*
X43335363Y-54254759D01*
X43535241Y-54454637D01*
X43767759Y-54610000D01*
X43535241Y-54765363D01*
X43335363Y-54965241D01*
X43178320Y-55200273D01*
X43070147Y-55461426D01*
X43015000Y-55738665D01*
X43015000Y-56021335D01*
X43070147Y-56298574D01*
X43178320Y-56559727D01*
X43335363Y-56794759D01*
X43535241Y-56994637D01*
X43767759Y-57150000D01*
X43535241Y-57305363D01*
X43335363Y-57505241D01*
X43178320Y-57740273D01*
X43070147Y-58001426D01*
X43015000Y-58278665D01*
X43015000Y-58561335D01*
X43070147Y-58838574D01*
X43178320Y-59099727D01*
X43335363Y-59334759D01*
X43535241Y-59534637D01*
X43767759Y-59690000D01*
X43535241Y-59845363D01*
X43335363Y-60045241D01*
X43178320Y-60280273D01*
X43070147Y-60541426D01*
X43015000Y-60818665D01*
X43015000Y-61101335D01*
X43070147Y-61378574D01*
X43178320Y-61639727D01*
X43335363Y-61874759D01*
X43535241Y-62074637D01*
X43767759Y-62230000D01*
X43535241Y-62385363D01*
X43335363Y-62585241D01*
X43178320Y-62820273D01*
X43070147Y-63081426D01*
X43015000Y-63358665D01*
X43015000Y-63641335D01*
X43070147Y-63918574D01*
X43178320Y-64179727D01*
X43335363Y-64414759D01*
X43533961Y-64613357D01*
X43525518Y-64614188D01*
X43405820Y-64650498D01*
X43295506Y-64709463D01*
X43198815Y-64788815D01*
X43119463Y-64885506D01*
X43060498Y-64995820D01*
X43024188Y-65115518D01*
X43011928Y-65240000D01*
X40255000Y-65240000D01*
X40255000Y-58463469D01*
X40259281Y-58420000D01*
X40255000Y-58376531D01*
X40255000Y-58376523D01*
X40242195Y-58246510D01*
X40191589Y-58079687D01*
X40109411Y-57925941D01*
X39998817Y-57791183D01*
X39965049Y-57763470D01*
X30638017Y-48436439D01*
X30645000Y-48401335D01*
X30645000Y-48118665D01*
X30589853Y-47841426D01*
X30481680Y-47580273D01*
X30324637Y-47345241D01*
X30124759Y-47145363D01*
X29892241Y-46990000D01*
X30124759Y-46834637D01*
X30324637Y-46634759D01*
X30481680Y-46399727D01*
X30589853Y-46138574D01*
X30645000Y-45861335D01*
X30645000Y-45578665D01*
X30589853Y-45301426D01*
X30481680Y-45040273D01*
X30324637Y-44805241D01*
X30124759Y-44605363D01*
X29892241Y-44450000D01*
X30124759Y-44294637D01*
X30324637Y-44094759D01*
X30481680Y-43859727D01*
X30589853Y-43598574D01*
X30645000Y-43321335D01*
X30645000Y-43038665D01*
X30589853Y-42761426D01*
X30481680Y-42500273D01*
X30324637Y-42265241D01*
X30124759Y-42065363D01*
X29892241Y-41910000D01*
X30124759Y-41754637D01*
X30324637Y-41554759D01*
X30481680Y-41319727D01*
X30589853Y-41058574D01*
X30645000Y-40781335D01*
X30645000Y-40498665D01*
X30589853Y-40221426D01*
X30481680Y-39960273D01*
X30324637Y-39725241D01*
X30124759Y-39525363D01*
X29892241Y-39370000D01*
X30124759Y-39214637D01*
X30324637Y-39014759D01*
X30481680Y-38779727D01*
X30589853Y-38518574D01*
X30645000Y-38241335D01*
X30645000Y-37958665D01*
X30589853Y-37681426D01*
X30481680Y-37420273D01*
X30324637Y-37185241D01*
X30124759Y-36985363D01*
X29892241Y-36830000D01*
X30124759Y-36674637D01*
X30324637Y-36474759D01*
X30481680Y-36239727D01*
X30589853Y-35978574D01*
X30645000Y-35701335D01*
X30645000Y-35418665D01*
X30589853Y-35141426D01*
X30481680Y-34880273D01*
X30324637Y-34645241D01*
X30124759Y-34445363D01*
X29892241Y-34290000D01*
X30124759Y-34134637D01*
X30324637Y-33934759D01*
X30481680Y-33699727D01*
X30589853Y-33438574D01*
X30645000Y-33161335D01*
X30645000Y-32878665D01*
X30589853Y-32601426D01*
X30481680Y-32340273D01*
X30324637Y-32105241D01*
X30124759Y-31905363D01*
X29892241Y-31750000D01*
X30124759Y-31594637D01*
X30324637Y-31394759D01*
X30481680Y-31159727D01*
X30589853Y-30898574D01*
X30645000Y-30621335D01*
X30645000Y-30338665D01*
X30589853Y-30061426D01*
X30481680Y-29800273D01*
X30324637Y-29565241D01*
X30124759Y-29365363D01*
X29889727Y-29208320D01*
X29628574Y-29100147D01*
X29351335Y-29045000D01*
X29068665Y-29045000D01*
X28791426Y-29100147D01*
X28530273Y-29208320D01*
X28295241Y-29365363D01*
X28095363Y-29565241D01*
X27938320Y-29800273D01*
X27830147Y-30061426D01*
X27775000Y-30338665D01*
X27775000Y-30621335D01*
X27830147Y-30898574D01*
X27938320Y-31159727D01*
X28095363Y-31394759D01*
X28295241Y-31594637D01*
X28527759Y-31750000D01*
X28295241Y-31905363D01*
X28095363Y-32105241D01*
X27938320Y-32340273D01*
X27830147Y-32601426D01*
X27775000Y-32878665D01*
X27775000Y-33161335D01*
X27830147Y-33438574D01*
X27938320Y-33699727D01*
X28095363Y-33934759D01*
X28295241Y-34134637D01*
X28527759Y-34290000D01*
X28295241Y-34445363D01*
X28095363Y-34645241D01*
X27938320Y-34880273D01*
X27830147Y-35141426D01*
X27775000Y-35418665D01*
X27775000Y-35701335D01*
X27830147Y-35978574D01*
X27938320Y-36239727D01*
X28095363Y-36474759D01*
X28295241Y-36674637D01*
X28527759Y-36830000D01*
X28295241Y-36985363D01*
X28095363Y-37185241D01*
X27938320Y-37420273D01*
X27830147Y-37681426D01*
X27775000Y-37958665D01*
X27775000Y-38241335D01*
X27830147Y-38518574D01*
X27938320Y-38779727D01*
X28095363Y-39014759D01*
X28295241Y-39214637D01*
X28527759Y-39370000D01*
X28295241Y-39525363D01*
X28095363Y-39725241D01*
X27938320Y-39960273D01*
X27830147Y-40221426D01*
X27775000Y-40498665D01*
X27775000Y-40781335D01*
X27830147Y-41058574D01*
X27938320Y-41319727D01*
X28095363Y-41554759D01*
X28295241Y-41754637D01*
X28527759Y-41910000D01*
X28295241Y-42065363D01*
X28095363Y-42265241D01*
X27938320Y-42500273D01*
X27830147Y-42761426D01*
X27775000Y-43038665D01*
X27775000Y-43321335D01*
X27830147Y-43598574D01*
X27938320Y-43859727D01*
X28095363Y-44094759D01*
X28295241Y-44294637D01*
X28527759Y-44450000D01*
X28295241Y-44605363D01*
X28095363Y-44805241D01*
X27938320Y-45040273D01*
X27830147Y-45301426D01*
X27775000Y-45578665D01*
X27775000Y-45861335D01*
X27830147Y-46138574D01*
X27938320Y-46399727D01*
X28095363Y-46634759D01*
X28295241Y-46834637D01*
X28527759Y-46990000D01*
X28295241Y-47145363D01*
X28095363Y-47345241D01*
X27938320Y-47580273D01*
X27830147Y-47841426D01*
X27775000Y-48118665D01*
X27775000Y-48401335D01*
X27830147Y-48678574D01*
X27938320Y-48939727D01*
X28095363Y-49174759D01*
X28295241Y-49374637D01*
X28527759Y-49530000D01*
X28295241Y-49685363D01*
X28095363Y-49885241D01*
X27938320Y-50120273D01*
X27830147Y-50381426D01*
X27775000Y-50658665D01*
X27775000Y-50941335D01*
X27830147Y-51218574D01*
X27938320Y-51479727D01*
X28095363Y-51714759D01*
X28295241Y-51914637D01*
X28527759Y-52070000D01*
X28295241Y-52225363D01*
X28095363Y-52425241D01*
X27938320Y-52660273D01*
X27830147Y-52921426D01*
X27775000Y-53198665D01*
X27775000Y-53481335D01*
X27830147Y-53758574D01*
X27938320Y-54019727D01*
X28095363Y-54254759D01*
X28295241Y-54454637D01*
X28527759Y-54610000D01*
X28295241Y-54765363D01*
X28095363Y-54965241D01*
X27938320Y-55200273D01*
X27830147Y-55461426D01*
X27775000Y-55738665D01*
X27775000Y-56021335D01*
X27830147Y-56298574D01*
X27938320Y-56559727D01*
X28095363Y-56794759D01*
X28295241Y-56994637D01*
X28527759Y-57150000D01*
X28295241Y-57305363D01*
X28095363Y-57505241D01*
X27938320Y-57740273D01*
X27830147Y-58001426D01*
X27775000Y-58278665D01*
X27775000Y-58561335D01*
X27830147Y-58838574D01*
X27938320Y-59099727D01*
X28095363Y-59334759D01*
X28295241Y-59534637D01*
X28527759Y-59690000D01*
X28295241Y-59845363D01*
X28095363Y-60045241D01*
X27938320Y-60280273D01*
X27830147Y-60541426D01*
X27775000Y-60818665D01*
X27775000Y-61101335D01*
X27830147Y-61378574D01*
X27938320Y-61639727D01*
X28095363Y-61874759D01*
X28295241Y-62074637D01*
X28527759Y-62230000D01*
X28295241Y-62385363D01*
X28095363Y-62585241D01*
X27991957Y-62740000D01*
X27977322Y-62740000D01*
X27939999Y-62736324D01*
X27902676Y-62740000D01*
X27902667Y-62740000D01*
X27791014Y-62750997D01*
X27647753Y-62794454D01*
X27515724Y-62865026D01*
X27399999Y-62959999D01*
X27376201Y-62988997D01*
X26355199Y-64010000D01*
X24592775Y-64010000D01*
X24531962Y-63918987D01*
X24432975Y-63820000D01*
X24531962Y-63721013D01*
X24678061Y-63502359D01*
X24778696Y-63259405D01*
X24830000Y-63001486D01*
X24830000Y-62738514D01*
X24778696Y-62480595D01*
X24678061Y-62237641D01*
X24531962Y-62018987D01*
X24346013Y-61833038D01*
X24127359Y-61686939D01*
X23884405Y-61586304D01*
X23626486Y-61535000D01*
X23363514Y-61535000D01*
X23105595Y-61586304D01*
X22862641Y-61686939D01*
X22643987Y-61833038D01*
X22458038Y-62018987D01*
X22350000Y-62180678D01*
X22350000Y-59832338D01*
X22400820Y-59859502D01*
X22520518Y-59895812D01*
X22645000Y-59908072D01*
X24345000Y-59908072D01*
X24469482Y-59895812D01*
X24589180Y-59859502D01*
X24699494Y-59800537D01*
X24796185Y-59721185D01*
X24875537Y-59624494D01*
X24934502Y-59514180D01*
X24970812Y-59394482D01*
X24983072Y-59270000D01*
X24983072Y-57570000D01*
X24970812Y-57445518D01*
X24934502Y-57325820D01*
X24875537Y-57215506D01*
X24796185Y-57118815D01*
X24699494Y-57039463D01*
X24589180Y-56980498D01*
X24516620Y-56958487D01*
X24648475Y-56826632D01*
X24810990Y-56583411D01*
X24922932Y-56313158D01*
X24980000Y-56026260D01*
X24980000Y-55733740D01*
X24922932Y-55446842D01*
X24810990Y-55176589D01*
X24648475Y-54933368D01*
X24441632Y-54726525D01*
X24267240Y-54610000D01*
X24441632Y-54493475D01*
X24648475Y-54286632D01*
X24810990Y-54043411D01*
X24922932Y-53773158D01*
X24980000Y-53486260D01*
X24980000Y-53193740D01*
X24922932Y-52906842D01*
X24810990Y-52636589D01*
X24648475Y-52393368D01*
X24441632Y-52186525D01*
X24198411Y-52024010D01*
X23928158Y-51912068D01*
X23641260Y-51855000D01*
X23348740Y-51855000D01*
X23061842Y-51912068D01*
X22791589Y-52024010D01*
X22548368Y-52186525D01*
X22350000Y-52384893D01*
X22350000Y-49672338D01*
X22400820Y-49699502D01*
X22520518Y-49735812D01*
X22645000Y-49748072D01*
X24345000Y-49748072D01*
X24469482Y-49735812D01*
X24589180Y-49699502D01*
X24699494Y-49640537D01*
X24796185Y-49561185D01*
X24875537Y-49464494D01*
X24934502Y-49354180D01*
X24970812Y-49234482D01*
X24983072Y-49110000D01*
X24983072Y-47410000D01*
X24970812Y-47285518D01*
X24934502Y-47165820D01*
X24875537Y-47055506D01*
X24796185Y-46958815D01*
X24699494Y-46879463D01*
X24589180Y-46820498D01*
X24516620Y-46798487D01*
X24648475Y-46666632D01*
X24810990Y-46423411D01*
X24922932Y-46153158D01*
X24980000Y-45866260D01*
X24980000Y-45573740D01*
X24922932Y-45286842D01*
X24810990Y-45016589D01*
X24648475Y-44773368D01*
X24441632Y-44566525D01*
X24267240Y-44450000D01*
X24441632Y-44333475D01*
X24648475Y-44126632D01*
X24810990Y-43883411D01*
X24922932Y-43613158D01*
X24980000Y-43326260D01*
X24980000Y-43033740D01*
X24922932Y-42746842D01*
X24810990Y-42476589D01*
X24648475Y-42233368D01*
X24441632Y-42026525D01*
X24198411Y-41864010D01*
X23928158Y-41752068D01*
X23641260Y-41695000D01*
X23348740Y-41695000D01*
X23061842Y-41752068D01*
X22791589Y-41864010D01*
X22548368Y-42026525D01*
X22350000Y-42224893D01*
X22350000Y-39333744D01*
X22470595Y-39383696D01*
X22728514Y-39435000D01*
X22991486Y-39435000D01*
X23249405Y-39383696D01*
X23492359Y-39283061D01*
X23711013Y-39136962D01*
X23896962Y-38951013D01*
X24043061Y-38732359D01*
X24143696Y-38489405D01*
X24195000Y-38231486D01*
X24195000Y-37968514D01*
X24143696Y-37710595D01*
X24043061Y-37467641D01*
X23896962Y-37248987D01*
X23797975Y-37150000D01*
X23896962Y-37051013D01*
X24043061Y-36832359D01*
X24143696Y-36589405D01*
X24195000Y-36331486D01*
X24195000Y-36068514D01*
X24143696Y-35810595D01*
X24043061Y-35567641D01*
X23896962Y-35348987D01*
X23711013Y-35163038D01*
X23492359Y-35016939D01*
X23249405Y-34916304D01*
X22991486Y-34865000D01*
X22728514Y-34865000D01*
X22470595Y-34916304D01*
X22350000Y-34966256D01*
X22350000Y-26012295D01*
X22390506Y-26045537D01*
X22500820Y-26104502D01*
X22620518Y-26140812D01*
X22745000Y-26153072D01*
X24245000Y-26153072D01*
X24369482Y-26140812D01*
X24489180Y-26104502D01*
X24599494Y-26045537D01*
X24696185Y-25966185D01*
X24775537Y-25869494D01*
X24834502Y-25759180D01*
X24870812Y-25639482D01*
X24883072Y-25515000D01*
X24883072Y-24015000D01*
X24870812Y-23890518D01*
X24834502Y-23770820D01*
X24775537Y-23660506D01*
X24696185Y-23563815D01*
X24599494Y-23484463D01*
X24489180Y-23425498D01*
X24369482Y-23389188D01*
X24261517Y-23378555D01*
X24377886Y-23300799D01*
X24570799Y-23107886D01*
X24722371Y-22881043D01*
X24826775Y-22628989D01*
X24880000Y-22361411D01*
X24880000Y-22088589D01*
X24826775Y-21821011D01*
X24722371Y-21568957D01*
X24570799Y-21342114D01*
X24377886Y-21149201D01*
X24151043Y-20997629D01*
X24048127Y-20955000D01*
X24151043Y-20912371D01*
X24377886Y-20760799D01*
X24419425Y-20719260D01*
X45281015Y-20719260D01*
X45391744Y-21044995D01*
X45563894Y-21342869D01*
X45790848Y-21601434D01*
X46063885Y-21810755D01*
X46372512Y-21962787D01*
X46590741Y-22028982D01*
X46863000Y-21911190D01*
X46863000Y-20447000D01*
X47117000Y-20447000D01*
X47117000Y-21911190D01*
X47389259Y-22028982D01*
X47607488Y-21962787D01*
X47916115Y-21810755D01*
X48189152Y-21601434D01*
X48416106Y-21342869D01*
X48588256Y-21044995D01*
X48698985Y-20719260D01*
X48581653Y-20447000D01*
X47117000Y-20447000D01*
X46863000Y-20447000D01*
X45398347Y-20447000D01*
X45281015Y-20719260D01*
X24419425Y-20719260D01*
X24570799Y-20567886D01*
X24722371Y-20341043D01*
X24826775Y-20088989D01*
X24880000Y-19821411D01*
X24880000Y-19548589D01*
X24826775Y-19281011D01*
X24722371Y-19028957D01*
X24570799Y-18802114D01*
X24377886Y-18609201D01*
X24151043Y-18457629D01*
X24048127Y-18415000D01*
X24151043Y-18372371D01*
X24377886Y-18220799D01*
X24570799Y-18027886D01*
X24722371Y-17801043D01*
X24826775Y-17548989D01*
X24880000Y-17281411D01*
X24880000Y-17008589D01*
X24826775Y-16741011D01*
X24793220Y-16660000D01*
X45231928Y-16660000D01*
X45231928Y-18900000D01*
X45244188Y-19024482D01*
X45280498Y-19144180D01*
X45339463Y-19254494D01*
X45418815Y-19351185D01*
X45496031Y-19414555D01*
X45391744Y-19595005D01*
X45281015Y-19920740D01*
X45398347Y-20193000D01*
X46863000Y-20193000D01*
X46863000Y-20173000D01*
X47117000Y-20173000D01*
X47117000Y-20193000D01*
X48581653Y-20193000D01*
X48698985Y-19920740D01*
X48588256Y-19595005D01*
X48483969Y-19414555D01*
X48561185Y-19351185D01*
X48640537Y-19254494D01*
X48699502Y-19144180D01*
X48735812Y-19024482D01*
X48748072Y-18900000D01*
X48748072Y-18665000D01*
X53725000Y-18665000D01*
X53725001Y-20276514D01*
X53720718Y-20320000D01*
X53737805Y-20493490D01*
X53788411Y-20660313D01*
X53870589Y-20814059D01*
X53981183Y-20948817D01*
X54115941Y-21059411D01*
X54269687Y-21141589D01*
X54436510Y-21192195D01*
X54566523Y-21205000D01*
X54566524Y-21205000D01*
X54610000Y-21209282D01*
X54653477Y-21205000D01*
X56772150Y-21205000D01*
X56785225Y-21236566D01*
X56996987Y-21553491D01*
X57266509Y-21823013D01*
X57583434Y-22034775D01*
X57935581Y-22180639D01*
X58309419Y-22255000D01*
X58690581Y-22255000D01*
X59064419Y-22180639D01*
X59416566Y-22034775D01*
X59733491Y-21823013D01*
X60003013Y-21553491D01*
X60214775Y-21236566D01*
X60360639Y-20884419D01*
X60435000Y-20510581D01*
X60435000Y-20129419D01*
X60360639Y-19755581D01*
X60214775Y-19403434D01*
X60003013Y-19086509D01*
X59936504Y-19020000D01*
X61561928Y-19020000D01*
X61561928Y-21620000D01*
X61574188Y-21744482D01*
X61610498Y-21864180D01*
X61669463Y-21974494D01*
X61748815Y-22071185D01*
X61845506Y-22150537D01*
X61955820Y-22209502D01*
X62075518Y-22245812D01*
X62200000Y-22258072D01*
X64800000Y-22258072D01*
X64924482Y-22245812D01*
X65044180Y-22209502D01*
X65154494Y-22150537D01*
X65251185Y-22071185D01*
X65330537Y-21974494D01*
X65389502Y-21864180D01*
X65425812Y-21744482D01*
X65438072Y-21620000D01*
X65438072Y-19020000D01*
X65425812Y-18895518D01*
X65389502Y-18775820D01*
X65330537Y-18665506D01*
X65251185Y-18568815D01*
X65154494Y-18489463D01*
X65044180Y-18430498D01*
X64924482Y-18394188D01*
X64800000Y-18381928D01*
X62200000Y-18381928D01*
X62075518Y-18394188D01*
X61955820Y-18430498D01*
X61845506Y-18489463D01*
X61748815Y-18568815D01*
X61669463Y-18665506D01*
X61610498Y-18775820D01*
X61574188Y-18895518D01*
X61561928Y-19020000D01*
X59936504Y-19020000D01*
X59733491Y-18816987D01*
X59416566Y-18605225D01*
X59064419Y-18459361D01*
X58690581Y-18385000D01*
X58309419Y-18385000D01*
X57935581Y-18459361D01*
X57583434Y-18605225D01*
X57266509Y-18816987D01*
X56996987Y-19086509D01*
X56785225Y-19403434D01*
X56772150Y-19435000D01*
X55495000Y-19435000D01*
X55495000Y-17823477D01*
X55499282Y-17780000D01*
X55484609Y-17631015D01*
X55482195Y-17606510D01*
X55431589Y-17439687D01*
X55349411Y-17285941D01*
X55238817Y-17151183D01*
X55145323Y-17074454D01*
X55104059Y-17040589D01*
X54950313Y-16958411D01*
X54783490Y-16907805D01*
X54653477Y-16895000D01*
X54653476Y-16895000D01*
X54610000Y-16890718D01*
X54566523Y-16895000D01*
X48748072Y-16895000D01*
X48748072Y-16660000D01*
X48735812Y-16535518D01*
X48699502Y-16415820D01*
X48640537Y-16305506D01*
X48561185Y-16208815D01*
X48464494Y-16129463D01*
X48354180Y-16070498D01*
X48234482Y-16034188D01*
X48110000Y-16021928D01*
X45870000Y-16021928D01*
X45745518Y-16034188D01*
X45625820Y-16070498D01*
X45515506Y-16129463D01*
X45418815Y-16208815D01*
X45339463Y-16305506D01*
X45280498Y-16415820D01*
X45244188Y-16535518D01*
X45231928Y-16660000D01*
X24793220Y-16660000D01*
X24722371Y-16488957D01*
X24570799Y-16262114D01*
X24377886Y-16069201D01*
X24151043Y-15917629D01*
X23898989Y-15813225D01*
X23631411Y-15760000D01*
X23358589Y-15760000D01*
X23091011Y-15813225D01*
X22838957Y-15917629D01*
X22612114Y-16069201D01*
X22419201Y-16262114D01*
X22337091Y-16385000D01*
X22262333Y-16385000D01*
X22225000Y-16381323D01*
X22187667Y-16385000D01*
X22076014Y-16395997D01*
X21932753Y-16439454D01*
X21800724Y-16510026D01*
X21684999Y-16604999D01*
X21661200Y-16633998D01*
X21079002Y-17216197D01*
X21049999Y-17239999D01*
X20994871Y-17307174D01*
X20955026Y-17355724D01*
X20911451Y-17437247D01*
X20884454Y-17487754D01*
X20840997Y-17631015D01*
X20830000Y-17742668D01*
X20830000Y-17742678D01*
X20826324Y-17780000D01*
X20830000Y-17817322D01*
X20830001Y-48222657D01*
X20826323Y-48260000D01*
X19177000Y-48260000D01*
X19177000Y-14630000D01*
X71730000Y-14630000D01*
X71730001Y-76810000D01*
%TA.AperFunction,Conductor*%
D28*
G36*
X71730001Y-76810000D02*
G01*
X19177000Y-76810000D01*
X19177000Y-69635000D01*
X22006928Y-69635000D01*
X22006928Y-71335000D01*
X22019188Y-71459482D01*
X22055498Y-71579180D01*
X22114463Y-71689494D01*
X22193815Y-71786185D01*
X22290506Y-71865537D01*
X22400820Y-71924502D01*
X22473380Y-71946513D01*
X22341525Y-72078368D01*
X22179010Y-72321589D01*
X22067068Y-72591842D01*
X22010000Y-72878740D01*
X22010000Y-73171260D01*
X22067068Y-73458158D01*
X22179010Y-73728411D01*
X22341525Y-73971632D01*
X22548368Y-74178475D01*
X22791589Y-74340990D01*
X23061842Y-74452932D01*
X23348740Y-74510000D01*
X23641260Y-74510000D01*
X23928158Y-74452932D01*
X24198411Y-74340990D01*
X24441632Y-74178475D01*
X24648475Y-73971632D01*
X24810990Y-73728411D01*
X24922932Y-73458158D01*
X24980000Y-73171260D01*
X24980000Y-72878740D01*
X24922932Y-72591842D01*
X24810990Y-72321589D01*
X24648475Y-72078368D01*
X24516620Y-71946513D01*
X24589180Y-71924502D01*
X24699494Y-71865537D01*
X24796185Y-71786185D01*
X24875537Y-71689494D01*
X24934502Y-71579180D01*
X24970812Y-71459482D01*
X24983072Y-71335000D01*
X24983072Y-69635000D01*
X24970812Y-69510518D01*
X24934502Y-69390820D01*
X24875537Y-69280506D01*
X24796185Y-69183815D01*
X24699494Y-69104463D01*
X24589180Y-69045498D01*
X24469482Y-69009188D01*
X24345000Y-68996928D01*
X22645000Y-68996928D01*
X22520518Y-69009188D01*
X22400820Y-69045498D01*
X22290506Y-69104463D01*
X22193815Y-69183815D01*
X22114463Y-69280506D01*
X22055498Y-69390820D01*
X22019188Y-69510518D01*
X22006928Y-69635000D01*
X19177000Y-69635000D01*
X19177000Y-48260000D01*
X20826323Y-48260000D01*
X20830000Y-48297333D01*
X20830001Y-58382657D01*
X20826323Y-58420000D01*
X20830000Y-58457333D01*
X20830001Y-64732657D01*
X20826323Y-64770000D01*
X20840997Y-64918986D01*
X20884454Y-65062247D01*
X20955026Y-65194276D01*
X21049999Y-65310001D01*
X21165724Y-65404974D01*
X21297753Y-65475546D01*
X21441014Y-65519003D01*
X21552667Y-65530000D01*
X21590000Y-65533677D01*
X21627333Y-65530000D01*
X22397225Y-65530000D01*
X22458038Y-65621013D01*
X22643987Y-65806962D01*
X22741017Y-65871795D01*
X22755589Y-65899058D01*
X22866183Y-66033817D01*
X22899956Y-66061534D01*
X30279461Y-73441040D01*
X30265000Y-73513740D01*
X30265000Y-73806260D01*
X30322068Y-74093158D01*
X30434010Y-74363411D01*
X30596525Y-74606632D01*
X30803368Y-74813475D01*
X31046589Y-74975990D01*
X31316842Y-75087932D01*
X31603740Y-75145000D01*
X31896260Y-75145000D01*
X32183158Y-75087932D01*
X32453411Y-74975990D01*
X32696632Y-74813475D01*
X32903475Y-74606632D01*
X33020000Y-74432240D01*
X33136525Y-74606632D01*
X33343368Y-74813475D01*
X33586589Y-74975990D01*
X33856842Y-75087932D01*
X34143740Y-75145000D01*
X34436260Y-75145000D01*
X34723158Y-75087932D01*
X34993411Y-74975990D01*
X35236632Y-74813475D01*
X35443475Y-74606632D01*
X35560000Y-74432240D01*
X35676525Y-74606632D01*
X35883368Y-74813475D01*
X36126589Y-74975990D01*
X36396842Y-75087932D01*
X36683740Y-75145000D01*
X36976260Y-75145000D01*
X37263158Y-75087932D01*
X37533411Y-74975990D01*
X37776632Y-74813475D01*
X37908487Y-74681620D01*
X37930498Y-74754180D01*
X37989463Y-74864494D01*
X38068815Y-74961185D01*
X38165506Y-75040537D01*
X38275820Y-75099502D01*
X38395518Y-75135812D01*
X38520000Y-75148072D01*
X40220000Y-75148072D01*
X40344482Y-75135812D01*
X40464180Y-75099502D01*
X40574494Y-75040537D01*
X40671185Y-74961185D01*
X40750537Y-74864494D01*
X40809502Y-74754180D01*
X40845812Y-74634482D01*
X40858072Y-74510000D01*
X40858072Y-72810000D01*
X40848224Y-72710000D01*
X50231928Y-72710000D01*
X50231928Y-74610000D01*
X50248992Y-74783254D01*
X50299528Y-74949850D01*
X50381595Y-75103386D01*
X50492038Y-75237962D01*
X50626614Y-75348405D01*
X50780150Y-75430472D01*
X50946746Y-75481008D01*
X51120000Y-75498072D01*
X53020000Y-75498072D01*
X53193254Y-75481008D01*
X53359850Y-75430472D01*
X53513386Y-75348405D01*
X53647962Y-75237962D01*
X53758405Y-75103386D01*
X53840472Y-74949850D01*
X53891008Y-74783254D01*
X53908072Y-74610000D01*
X53908072Y-72710000D01*
X65471928Y-72710000D01*
X65471928Y-74610000D01*
X65488992Y-74783254D01*
X65539528Y-74949850D01*
X65621595Y-75103386D01*
X65732038Y-75237962D01*
X65866614Y-75348405D01*
X66020150Y-75430472D01*
X66186746Y-75481008D01*
X66360000Y-75498072D01*
X68260000Y-75498072D01*
X68433254Y-75481008D01*
X68599850Y-75430472D01*
X68753386Y-75348405D01*
X68887962Y-75237962D01*
X68998405Y-75103386D01*
X69080472Y-74949850D01*
X69131008Y-74783254D01*
X69148072Y-74610000D01*
X69148072Y-72710000D01*
X69131008Y-72536746D01*
X69080472Y-72370150D01*
X68998405Y-72216614D01*
X68887962Y-72082038D01*
X68753386Y-71971595D01*
X68599850Y-71889528D01*
X68433254Y-71838992D01*
X68260000Y-71821928D01*
X66360000Y-71821928D01*
X66186746Y-71838992D01*
X66020150Y-71889528D01*
X65866614Y-71971595D01*
X65732038Y-72082038D01*
X65621595Y-72216614D01*
X65539528Y-72370150D01*
X65488992Y-72536746D01*
X65471928Y-72710000D01*
X53908072Y-72710000D01*
X53891008Y-72536746D01*
X53840472Y-72370150D01*
X53758405Y-72216614D01*
X53647962Y-72082038D01*
X53513386Y-71971595D01*
X53359850Y-71889528D01*
X53193254Y-71838992D01*
X53020000Y-71821928D01*
X51120000Y-71821928D01*
X50946746Y-71838992D01*
X50780150Y-71889528D01*
X50626614Y-71971595D01*
X50492038Y-72082038D01*
X50381595Y-72216614D01*
X50299528Y-72370150D01*
X50248992Y-72536746D01*
X50231928Y-72710000D01*
X40848224Y-72710000D01*
X40845812Y-72685518D01*
X40809502Y-72565820D01*
X40750537Y-72455506D01*
X40671185Y-72358815D01*
X40574494Y-72279463D01*
X40464180Y-72220498D01*
X40344482Y-72184188D01*
X40255000Y-72175375D01*
X40255000Y-65240000D01*
X43011928Y-65240000D01*
X43011928Y-66840000D01*
X43024188Y-66964482D01*
X43060498Y-67084180D01*
X43119463Y-67194494D01*
X43198815Y-67291185D01*
X43295506Y-67370537D01*
X43405820Y-67429502D01*
X43525518Y-67465812D01*
X43650000Y-67478072D01*
X45250000Y-67478072D01*
X45374482Y-67465812D01*
X45494180Y-67429502D01*
X45604494Y-67370537D01*
X45701185Y-67291185D01*
X45780537Y-67194494D01*
X45839502Y-67084180D01*
X45875812Y-66964482D01*
X45888072Y-66840000D01*
X45888072Y-65240000D01*
X45875812Y-65115518D01*
X45839502Y-64995820D01*
X45780537Y-64885506D01*
X45701185Y-64788815D01*
X45604494Y-64709463D01*
X45494180Y-64650498D01*
X45374482Y-64614188D01*
X45366039Y-64613357D01*
X45564637Y-64414759D01*
X45721680Y-64179727D01*
X45829853Y-63918574D01*
X45885000Y-63641335D01*
X45885000Y-63358665D01*
X45829853Y-63081426D01*
X45721680Y-62820273D01*
X45564637Y-62585241D01*
X45364759Y-62385363D01*
X45132241Y-62230000D01*
X45364759Y-62074637D01*
X45564637Y-61874759D01*
X45721680Y-61639727D01*
X45829853Y-61378574D01*
X45885000Y-61101335D01*
X45885000Y-60818665D01*
X45829853Y-60541426D01*
X45721680Y-60280273D01*
X45564637Y-60045241D01*
X45364759Y-59845363D01*
X45132241Y-59690000D01*
X45222023Y-59630010D01*
X45855209Y-59630010D01*
X50350750Y-64125551D01*
X50305518Y-64234750D01*
X50235000Y-64589268D01*
X50235000Y-64950732D01*
X50305518Y-65305250D01*
X50443844Y-65639199D01*
X50644662Y-65939744D01*
X50900256Y-66195338D01*
X51200801Y-66396156D01*
X51534750Y-66534482D01*
X51889268Y-66605000D01*
X52250732Y-66605000D01*
X52605250Y-66534482D01*
X52939199Y-66396156D01*
X53239744Y-66195338D01*
X53387102Y-66047980D01*
X66211626Y-66047980D01*
X66331514Y-66332836D01*
X66655210Y-66493699D01*
X67004069Y-66588322D01*
X67364684Y-66613067D01*
X67723198Y-66566985D01*
X68065833Y-66451846D01*
X68288486Y-66332836D01*
X68408374Y-66047980D01*
X67310000Y-64949605D01*
X66211626Y-66047980D01*
X53387102Y-66047980D01*
X53495338Y-65939744D01*
X53696156Y-65639199D01*
X53834482Y-65305250D01*
X53905000Y-64950732D01*
X53905000Y-64824684D01*
X65466933Y-64824684D01*
X65513015Y-65183198D01*
X65628154Y-65525833D01*
X65747164Y-65748486D01*
X66032020Y-65868374D01*
X67130395Y-64770000D01*
X67489605Y-64770000D01*
X68587980Y-65868374D01*
X68872836Y-65748486D01*
X69033699Y-65424790D01*
X69128322Y-65075931D01*
X69153067Y-64715316D01*
X69106985Y-64356802D01*
X68991846Y-64014167D01*
X68872836Y-63791514D01*
X68587980Y-63671626D01*
X67489605Y-64770000D01*
X67130395Y-64770000D01*
X66032020Y-63671626D01*
X65747164Y-63791514D01*
X65586301Y-64115210D01*
X65491678Y-64464069D01*
X65466933Y-64824684D01*
X53905000Y-64824684D01*
X53905000Y-64589268D01*
X53834482Y-64234750D01*
X53696156Y-63900801D01*
X53495338Y-63600256D01*
X53387102Y-63492020D01*
X66211626Y-63492020D01*
X67310000Y-64590395D01*
X68408374Y-63492020D01*
X68288486Y-63207164D01*
X67964790Y-63046301D01*
X67615931Y-62951678D01*
X67255316Y-62926933D01*
X66896802Y-62973015D01*
X66554167Y-63088154D01*
X66331514Y-63207164D01*
X66211626Y-63492020D01*
X53387102Y-63492020D01*
X53239744Y-63344662D01*
X52939199Y-63143844D01*
X52605250Y-63005518D01*
X52250732Y-62935000D01*
X51889268Y-62935000D01*
X51534750Y-63005518D01*
X51425551Y-63050750D01*
X47933315Y-59558514D01*
X48830000Y-59558514D01*
X48830000Y-59821486D01*
X48881304Y-60079405D01*
X48981939Y-60322359D01*
X49128038Y-60541013D01*
X49313987Y-60726962D01*
X49532641Y-60873061D01*
X49775595Y-60973696D01*
X50033514Y-61025000D01*
X50296486Y-61025000D01*
X50554405Y-60973696D01*
X50797359Y-60873061D01*
X51016013Y-60726962D01*
X51115000Y-60627975D01*
X51213987Y-60726962D01*
X51432641Y-60873061D01*
X51675595Y-60973696D01*
X51933514Y-61025000D01*
X52196486Y-61025000D01*
X52454405Y-60973696D01*
X52697359Y-60873061D01*
X52916013Y-60726962D01*
X53101962Y-60541013D01*
X53248061Y-60322359D01*
X53348696Y-60079405D01*
X53400000Y-59821486D01*
X53400000Y-59558514D01*
X53348696Y-59300595D01*
X53248061Y-59057641D01*
X53101962Y-58838987D01*
X52916013Y-58653038D01*
X52697359Y-58506939D01*
X52454405Y-58406304D01*
X52196486Y-58355000D01*
X51933514Y-58355000D01*
X51675595Y-58406304D01*
X51432641Y-58506939D01*
X51213987Y-58653038D01*
X51115000Y-58752025D01*
X51016013Y-58653038D01*
X50797359Y-58506939D01*
X50554405Y-58406304D01*
X50296486Y-58355000D01*
X50033514Y-58355000D01*
X49775595Y-58406304D01*
X49532641Y-58506939D01*
X49313987Y-58653038D01*
X49128038Y-58838987D01*
X48981939Y-59057641D01*
X48881304Y-59300595D01*
X48830000Y-59558514D01*
X47933315Y-59558514D01*
X46733814Y-58359013D01*
X46710011Y-58330009D01*
X46594286Y-58235036D01*
X46462257Y-58164464D01*
X46318996Y-58121007D01*
X46207343Y-58110010D01*
X46207332Y-58110010D01*
X46170010Y-58106334D01*
X46132688Y-58110010D01*
X45851452Y-58110010D01*
X45829853Y-58001426D01*
X45721680Y-57740273D01*
X45564637Y-57505241D01*
X45364759Y-57305363D01*
X45132241Y-57150000D01*
X56777319Y-57150000D01*
X56807970Y-57461204D01*
X56898745Y-57760449D01*
X57046155Y-58036235D01*
X57149446Y-58162095D01*
X57065506Y-58206963D01*
X56968815Y-58286315D01*
X56889463Y-58383006D01*
X56830498Y-58493320D01*
X56794188Y-58613018D01*
X56781928Y-58737500D01*
X56781928Y-60642500D01*
X56794188Y-60766982D01*
X56830498Y-60886680D01*
X56889463Y-60996994D01*
X56968815Y-61093685D01*
X57065506Y-61173037D01*
X57175820Y-61232002D01*
X57295518Y-61268312D01*
X57420000Y-61280572D01*
X59420000Y-61280572D01*
X59544482Y-61268312D01*
X59664180Y-61232002D01*
X59774494Y-61173037D01*
X59871185Y-61093685D01*
X59950537Y-60996994D01*
X60009502Y-60886680D01*
X60045812Y-60766982D01*
X60058072Y-60642500D01*
X60058072Y-58737500D01*
X60045812Y-58613018D01*
X60009502Y-58493320D01*
X59950537Y-58383006D01*
X59871185Y-58286315D01*
X59774494Y-58206963D01*
X59690554Y-58162095D01*
X59793845Y-58036235D01*
X59794505Y-58035000D01*
X62035344Y-58035000D01*
X62076525Y-58096632D01*
X62283368Y-58303475D01*
X62526589Y-58465990D01*
X62796842Y-58577932D01*
X63083740Y-58635000D01*
X63376260Y-58635000D01*
X63663158Y-58577932D01*
X63933411Y-58465990D01*
X64176632Y-58303475D01*
X64308487Y-58171620D01*
X64330498Y-58244180D01*
X64389463Y-58354494D01*
X64468815Y-58451185D01*
X64565506Y-58530537D01*
X64675820Y-58589502D01*
X64795518Y-58625812D01*
X64920000Y-58638072D01*
X66620000Y-58638072D01*
X66744482Y-58625812D01*
X66864180Y-58589502D01*
X66974494Y-58530537D01*
X67071185Y-58451185D01*
X67150537Y-58354494D01*
X67209502Y-58244180D01*
X67245812Y-58124482D01*
X67258072Y-58000000D01*
X67258072Y-56300000D01*
X67245812Y-56175518D01*
X67209502Y-56055820D01*
X67150537Y-55945506D01*
X67071185Y-55848815D01*
X66974494Y-55769463D01*
X66864180Y-55710498D01*
X66744482Y-55674188D01*
X66620000Y-55661928D01*
X64920000Y-55661928D01*
X64795518Y-55674188D01*
X64675820Y-55710498D01*
X64565506Y-55769463D01*
X64468815Y-55848815D01*
X64389463Y-55945506D01*
X64330498Y-56055820D01*
X64308487Y-56128380D01*
X64176632Y-55996525D01*
X63933411Y-55834010D01*
X63663158Y-55722068D01*
X63376260Y-55665000D01*
X63083740Y-55665000D01*
X62796842Y-55722068D01*
X62526589Y-55834010D01*
X62283368Y-55996525D01*
X62076525Y-56203368D01*
X62035344Y-56265000D01*
X59794505Y-56265000D01*
X59793845Y-56263765D01*
X59595463Y-56022037D01*
X59416101Y-55874837D01*
X59601315Y-55719437D01*
X59795969Y-55476923D01*
X59939571Y-55201094D01*
X60010563Y-54982980D01*
X59890594Y-54737000D01*
X58547000Y-54737000D01*
X58547000Y-54757000D01*
X58293000Y-54757000D01*
X58293000Y-54737000D01*
X56949406Y-54737000D01*
X56829437Y-54982980D01*
X56900429Y-55201094D01*
X57044031Y-55476923D01*
X57238685Y-55719437D01*
X57423899Y-55874837D01*
X57244537Y-56022037D01*
X57046155Y-56263765D01*
X56898745Y-56539551D01*
X56807970Y-56838796D01*
X56777319Y-57150000D01*
X45132241Y-57150000D01*
X45364759Y-56994637D01*
X45564637Y-56794759D01*
X45721680Y-56559727D01*
X45829853Y-56298574D01*
X45885000Y-56021335D01*
X45885000Y-55738665D01*
X45829853Y-55461426D01*
X45721680Y-55200273D01*
X45564637Y-54965241D01*
X45364759Y-54765363D01*
X45132241Y-54610000D01*
X45364759Y-54454637D01*
X45564637Y-54254759D01*
X45576489Y-54237020D01*
X56829437Y-54237020D01*
X56949406Y-54483000D01*
X58293000Y-54483000D01*
X58293000Y-53184430D01*
X58547000Y-53184430D01*
X58547000Y-54483000D01*
X59890594Y-54483000D01*
X60010563Y-54237020D01*
X59939571Y-54018906D01*
X59795969Y-53743077D01*
X59601315Y-53500563D01*
X59363089Y-53300684D01*
X59090446Y-53151121D01*
X58793863Y-53057622D01*
X58547000Y-53184430D01*
X58293000Y-53184430D01*
X58046137Y-53057622D01*
X57749554Y-53151121D01*
X57476911Y-53300684D01*
X57238685Y-53500563D01*
X57044031Y-53743077D01*
X56900429Y-54018906D01*
X56829437Y-54237020D01*
X45576489Y-54237020D01*
X45721680Y-54019727D01*
X45829853Y-53758574D01*
X45885000Y-53481335D01*
X45885000Y-53198665D01*
X45829853Y-52921426D01*
X45721680Y-52660273D01*
X45564637Y-52425241D01*
X45364759Y-52225363D01*
X45132241Y-52070000D01*
X45364759Y-51914637D01*
X45564637Y-51714759D01*
X45721680Y-51479727D01*
X45829853Y-51218574D01*
X45885000Y-50941335D01*
X45885000Y-50658665D01*
X45829853Y-50381426D01*
X45721680Y-50120273D01*
X45564637Y-49885241D01*
X45364759Y-49685363D01*
X45132241Y-49530000D01*
X45364759Y-49374637D01*
X45564637Y-49174759D01*
X45721680Y-48939727D01*
X45829853Y-48678574D01*
X45885000Y-48401335D01*
X45885000Y-48128514D01*
X48830000Y-48128514D01*
X48830000Y-48391486D01*
X48881304Y-48649405D01*
X48981939Y-48892359D01*
X49128038Y-49111013D01*
X49313987Y-49296962D01*
X49532641Y-49443061D01*
X49775595Y-49543696D01*
X50033514Y-49595000D01*
X50296486Y-49595000D01*
X50554405Y-49543696D01*
X50797359Y-49443061D01*
X51016013Y-49296962D01*
X51115000Y-49197975D01*
X51213987Y-49296962D01*
X51432641Y-49443061D01*
X51675595Y-49543696D01*
X51933514Y-49595000D01*
X52196486Y-49595000D01*
X52454405Y-49543696D01*
X52697359Y-49443061D01*
X52916013Y-49296962D01*
X53101962Y-49111013D01*
X53248061Y-48892359D01*
X53348696Y-48649405D01*
X53400000Y-48391486D01*
X53400000Y-48128514D01*
X53348696Y-47870595D01*
X53248061Y-47627641D01*
X53101962Y-47408987D01*
X52916013Y-47223038D01*
X52697359Y-47076939D01*
X52454405Y-46976304D01*
X52196486Y-46925000D01*
X51933514Y-46925000D01*
X51675595Y-46976304D01*
X51432641Y-47076939D01*
X51213987Y-47223038D01*
X51115000Y-47322025D01*
X51016013Y-47223038D01*
X50797359Y-47076939D01*
X50554405Y-46976304D01*
X50296486Y-46925000D01*
X50033514Y-46925000D01*
X49775595Y-46976304D01*
X49532641Y-47076939D01*
X49313987Y-47223038D01*
X49128038Y-47408987D01*
X48981939Y-47627641D01*
X48881304Y-47870595D01*
X48830000Y-48128514D01*
X45885000Y-48128514D01*
X45885000Y-48118665D01*
X45829853Y-47841426D01*
X45721680Y-47580273D01*
X45564637Y-47345241D01*
X45364759Y-47145363D01*
X45132241Y-46990000D01*
X45364759Y-46834637D01*
X45564637Y-46634759D01*
X45721680Y-46399727D01*
X45829853Y-46138574D01*
X45885000Y-45861335D01*
X45885000Y-45720000D01*
X56777319Y-45720000D01*
X56807970Y-46031204D01*
X56898745Y-46330449D01*
X57046155Y-46606235D01*
X57149446Y-46732095D01*
X57065506Y-46776963D01*
X56968815Y-46856315D01*
X56889463Y-46953006D01*
X56830498Y-47063320D01*
X56794188Y-47183018D01*
X56781928Y-47307500D01*
X56781928Y-49212500D01*
X56794188Y-49336982D01*
X56830498Y-49456680D01*
X56889463Y-49566994D01*
X56968815Y-49663685D01*
X57065506Y-49743037D01*
X57175820Y-49802002D01*
X57295518Y-49838312D01*
X57420000Y-49850572D01*
X59420000Y-49850572D01*
X59544482Y-49838312D01*
X59664180Y-49802002D01*
X59774494Y-49743037D01*
X59871185Y-49663685D01*
X59950537Y-49566994D01*
X60009502Y-49456680D01*
X60045812Y-49336982D01*
X60058072Y-49212500D01*
X60058072Y-47307500D01*
X60045812Y-47183018D01*
X60009502Y-47063320D01*
X59950537Y-46953006D01*
X59871185Y-46856315D01*
X59774494Y-46776963D01*
X59690554Y-46732095D01*
X59793845Y-46606235D01*
X59794505Y-46605000D01*
X62035344Y-46605000D01*
X62076525Y-46666632D01*
X62283368Y-46873475D01*
X62526589Y-47035990D01*
X62796842Y-47147932D01*
X63083740Y-47205000D01*
X63376260Y-47205000D01*
X63663158Y-47147932D01*
X63933411Y-47035990D01*
X64176632Y-46873475D01*
X64308487Y-46741620D01*
X64330498Y-46814180D01*
X64389463Y-46924494D01*
X64468815Y-47021185D01*
X64565506Y-47100537D01*
X64675820Y-47159502D01*
X64795518Y-47195812D01*
X64920000Y-47208072D01*
X66620000Y-47208072D01*
X66744482Y-47195812D01*
X66864180Y-47159502D01*
X66974494Y-47100537D01*
X67071185Y-47021185D01*
X67150537Y-46924494D01*
X67209502Y-46814180D01*
X67245812Y-46694482D01*
X67258072Y-46570000D01*
X67258072Y-44870000D01*
X67245812Y-44745518D01*
X67209502Y-44625820D01*
X67150537Y-44515506D01*
X67071185Y-44418815D01*
X66974494Y-44339463D01*
X66864180Y-44280498D01*
X66744482Y-44244188D01*
X66620000Y-44231928D01*
X64920000Y-44231928D01*
X64795518Y-44244188D01*
X64675820Y-44280498D01*
X64565506Y-44339463D01*
X64468815Y-44418815D01*
X64389463Y-44515506D01*
X64330498Y-44625820D01*
X64308487Y-44698380D01*
X64176632Y-44566525D01*
X63933411Y-44404010D01*
X63663158Y-44292068D01*
X63376260Y-44235000D01*
X63083740Y-44235000D01*
X62796842Y-44292068D01*
X62526589Y-44404010D01*
X62283368Y-44566525D01*
X62076525Y-44773368D01*
X62035344Y-44835000D01*
X59794505Y-44835000D01*
X59793845Y-44833765D01*
X59595463Y-44592037D01*
X59416101Y-44444837D01*
X59601315Y-44289437D01*
X59795969Y-44046923D01*
X59939571Y-43771094D01*
X60010563Y-43552980D01*
X59890594Y-43307000D01*
X58547000Y-43307000D01*
X58547000Y-43327000D01*
X58293000Y-43327000D01*
X58293000Y-43307000D01*
X56949406Y-43307000D01*
X56829437Y-43552980D01*
X56900429Y-43771094D01*
X57044031Y-44046923D01*
X57238685Y-44289437D01*
X57423899Y-44444837D01*
X57244537Y-44592037D01*
X57046155Y-44833765D01*
X56898745Y-45109551D01*
X56807970Y-45408796D01*
X56777319Y-45720000D01*
X45885000Y-45720000D01*
X45885000Y-45578665D01*
X45829853Y-45301426D01*
X45721680Y-45040273D01*
X45564637Y-44805241D01*
X45364759Y-44605363D01*
X45132241Y-44450000D01*
X45364759Y-44294637D01*
X45564637Y-44094759D01*
X45721680Y-43859727D01*
X45829853Y-43598574D01*
X45885000Y-43321335D01*
X45885000Y-43038665D01*
X45838923Y-42807020D01*
X56829437Y-42807020D01*
X56949406Y-43053000D01*
X58293000Y-43053000D01*
X58293000Y-41754430D01*
X58547000Y-41754430D01*
X58547000Y-43053000D01*
X59890594Y-43053000D01*
X60010563Y-42807020D01*
X59939571Y-42588906D01*
X59795969Y-42313077D01*
X59601315Y-42070563D01*
X59363089Y-41870684D01*
X59090446Y-41721121D01*
X58793863Y-41627622D01*
X58547000Y-41754430D01*
X58293000Y-41754430D01*
X58046137Y-41627622D01*
X57749554Y-41721121D01*
X57476911Y-41870684D01*
X57238685Y-42070563D01*
X57044031Y-42313077D01*
X56900429Y-42588906D01*
X56829437Y-42807020D01*
X45838923Y-42807020D01*
X45829853Y-42761426D01*
X45721680Y-42500273D01*
X45564637Y-42265241D01*
X45364759Y-42065363D01*
X45132241Y-41910000D01*
X45364759Y-41754637D01*
X45564637Y-41554759D01*
X45721680Y-41319727D01*
X45829853Y-41058574D01*
X45885000Y-40781335D01*
X45885000Y-40498665D01*
X45829853Y-40221426D01*
X45721680Y-39960273D01*
X45564637Y-39725241D01*
X45364759Y-39525363D01*
X45132241Y-39370000D01*
X45364759Y-39214637D01*
X45564637Y-39014759D01*
X45721680Y-38779727D01*
X45829853Y-38518574D01*
X45885000Y-38241335D01*
X45885000Y-37958665D01*
X45829853Y-37681426D01*
X45721680Y-37420273D01*
X45564637Y-37185241D01*
X45364759Y-36985363D01*
X45132241Y-36830000D01*
X45329024Y-36698514D01*
X48830000Y-36698514D01*
X48830000Y-36961486D01*
X48881304Y-37219405D01*
X48981939Y-37462359D01*
X49128038Y-37681013D01*
X49313987Y-37866962D01*
X49532641Y-38013061D01*
X49775595Y-38113696D01*
X50033514Y-38165000D01*
X50296486Y-38165000D01*
X50554405Y-38113696D01*
X50797359Y-38013061D01*
X51016013Y-37866962D01*
X51115000Y-37767975D01*
X51213987Y-37866962D01*
X51432641Y-38013061D01*
X51675595Y-38113696D01*
X51933514Y-38165000D01*
X52196486Y-38165000D01*
X52454405Y-38113696D01*
X52697359Y-38013061D01*
X52916013Y-37866962D01*
X53101962Y-37681013D01*
X53248061Y-37462359D01*
X53348696Y-37219405D01*
X53400000Y-36961486D01*
X53400000Y-36698514D01*
X53348696Y-36440595D01*
X53248061Y-36197641D01*
X53101962Y-35978987D01*
X52916013Y-35793038D01*
X52697359Y-35646939D01*
X52454405Y-35546304D01*
X52196486Y-35495000D01*
X51933514Y-35495000D01*
X51675595Y-35546304D01*
X51432641Y-35646939D01*
X51213987Y-35793038D01*
X51115000Y-35892025D01*
X51016013Y-35793038D01*
X50797359Y-35646939D01*
X50554405Y-35546304D01*
X50296486Y-35495000D01*
X50033514Y-35495000D01*
X49775595Y-35546304D01*
X49532641Y-35646939D01*
X49313987Y-35793038D01*
X49128038Y-35978987D01*
X48981939Y-36197641D01*
X48881304Y-36440595D01*
X48830000Y-36698514D01*
X45329024Y-36698514D01*
X45364759Y-36674637D01*
X45564637Y-36474759D01*
X45721680Y-36239727D01*
X45829853Y-35978574D01*
X45885000Y-35701335D01*
X45885000Y-35418665D01*
X45829853Y-35141426D01*
X45721680Y-34880273D01*
X45564637Y-34645241D01*
X45364759Y-34445363D01*
X45132241Y-34290000D01*
X56777319Y-34290000D01*
X56807970Y-34601204D01*
X56898745Y-34900449D01*
X57046155Y-35176235D01*
X57149446Y-35302095D01*
X57065506Y-35346963D01*
X56968815Y-35426315D01*
X56889463Y-35523006D01*
X56830498Y-35633320D01*
X56794188Y-35753018D01*
X56781928Y-35877500D01*
X56781928Y-37782500D01*
X56794188Y-37906982D01*
X56830498Y-38026680D01*
X56889463Y-38136994D01*
X56968815Y-38233685D01*
X57065506Y-38313037D01*
X57175820Y-38372002D01*
X57295518Y-38408312D01*
X57420000Y-38420572D01*
X59420000Y-38420572D01*
X59544482Y-38408312D01*
X59664180Y-38372002D01*
X59774494Y-38313037D01*
X59871185Y-38233685D01*
X59950537Y-38136994D01*
X60009502Y-38026680D01*
X60045812Y-37906982D01*
X60058072Y-37782500D01*
X60058072Y-35877500D01*
X60045812Y-35753018D01*
X60009502Y-35633320D01*
X59950537Y-35523006D01*
X59871185Y-35426315D01*
X59774494Y-35346963D01*
X59690554Y-35302095D01*
X59793845Y-35176235D01*
X59794505Y-35175000D01*
X62035344Y-35175000D01*
X62076525Y-35236632D01*
X62283368Y-35443475D01*
X62526589Y-35605990D01*
X62796842Y-35717932D01*
X63083740Y-35775000D01*
X63376260Y-35775000D01*
X63663158Y-35717932D01*
X63933411Y-35605990D01*
X64176632Y-35443475D01*
X64308487Y-35311620D01*
X64330498Y-35384180D01*
X64389463Y-35494494D01*
X64468815Y-35591185D01*
X64565506Y-35670537D01*
X64675820Y-35729502D01*
X64795518Y-35765812D01*
X64920000Y-35778072D01*
X66620000Y-35778072D01*
X66744482Y-35765812D01*
X66864180Y-35729502D01*
X66974494Y-35670537D01*
X67071185Y-35591185D01*
X67150537Y-35494494D01*
X67209502Y-35384180D01*
X67245812Y-35264482D01*
X67258072Y-35140000D01*
X67258072Y-33440000D01*
X67245812Y-33315518D01*
X67209502Y-33195820D01*
X67150537Y-33085506D01*
X67071185Y-32988815D01*
X66974494Y-32909463D01*
X66864180Y-32850498D01*
X66744482Y-32814188D01*
X66620000Y-32801928D01*
X64920000Y-32801928D01*
X64795518Y-32814188D01*
X64675820Y-32850498D01*
X64565506Y-32909463D01*
X64468815Y-32988815D01*
X64389463Y-33085506D01*
X64330498Y-33195820D01*
X64308487Y-33268380D01*
X64176632Y-33136525D01*
X63933411Y-32974010D01*
X63663158Y-32862068D01*
X63376260Y-32805000D01*
X63083740Y-32805000D01*
X62796842Y-32862068D01*
X62526589Y-32974010D01*
X62283368Y-33136525D01*
X62076525Y-33343368D01*
X62035344Y-33405000D01*
X59794505Y-33405000D01*
X59793845Y-33403765D01*
X59595463Y-33162037D01*
X59416101Y-33014837D01*
X59601315Y-32859437D01*
X59795969Y-32616923D01*
X59939571Y-32341094D01*
X60010563Y-32122980D01*
X59890594Y-31877000D01*
X58547000Y-31877000D01*
X58547000Y-31897000D01*
X58293000Y-31897000D01*
X58293000Y-31877000D01*
X56949406Y-31877000D01*
X56829437Y-32122980D01*
X56900429Y-32341094D01*
X57044031Y-32616923D01*
X57238685Y-32859437D01*
X57423899Y-33014837D01*
X57244537Y-33162037D01*
X57046155Y-33403765D01*
X56898745Y-33679551D01*
X56807970Y-33978796D01*
X56777319Y-34290000D01*
X45132241Y-34290000D01*
X45364759Y-34134637D01*
X45564637Y-33934759D01*
X45721680Y-33699727D01*
X45829853Y-33438574D01*
X45885000Y-33161335D01*
X45885000Y-32878665D01*
X45829853Y-32601426D01*
X45721680Y-32340273D01*
X45564637Y-32105241D01*
X45364759Y-31905363D01*
X45132241Y-31750000D01*
X45364759Y-31594637D01*
X45564637Y-31394759D01*
X45576489Y-31377020D01*
X56829437Y-31377020D01*
X56949406Y-31623000D01*
X58293000Y-31623000D01*
X58293000Y-30324430D01*
X58547000Y-30324430D01*
X58547000Y-31623000D01*
X59890594Y-31623000D01*
X60010563Y-31377020D01*
X59939571Y-31158906D01*
X59795969Y-30883077D01*
X59601315Y-30640563D01*
X59363089Y-30440684D01*
X59090446Y-30291121D01*
X58793863Y-30197622D01*
X58547000Y-30324430D01*
X58293000Y-30324430D01*
X58046137Y-30197622D01*
X57749554Y-30291121D01*
X57476911Y-30440684D01*
X57238685Y-30640563D01*
X57044031Y-30883077D01*
X56900429Y-31158906D01*
X56829437Y-31377020D01*
X45576489Y-31377020D01*
X45721680Y-31159727D01*
X45829853Y-30898574D01*
X45885000Y-30621335D01*
X45885000Y-30338665D01*
X45829853Y-30061426D01*
X45721680Y-29800273D01*
X45564637Y-29565241D01*
X45364759Y-29365363D01*
X45129727Y-29208320D01*
X44868574Y-29100147D01*
X44591335Y-29045000D01*
X44308665Y-29045000D01*
X44031426Y-29100147D01*
X43770273Y-29208320D01*
X43535241Y-29365363D01*
X43335363Y-29565241D01*
X43178320Y-29800273D01*
X43070147Y-30061426D01*
X43015000Y-30338665D01*
X43015000Y-30621335D01*
X43070147Y-30898574D01*
X43178320Y-31159727D01*
X43335363Y-31394759D01*
X43535241Y-31594637D01*
X43767759Y-31750000D01*
X43535241Y-31905363D01*
X43335363Y-32105241D01*
X43178320Y-32340273D01*
X43070147Y-32601426D01*
X43015000Y-32878665D01*
X43015000Y-33161335D01*
X43070147Y-33438574D01*
X43178320Y-33699727D01*
X43335363Y-33934759D01*
X43535241Y-34134637D01*
X43767759Y-34290000D01*
X43535241Y-34445363D01*
X43335363Y-34645241D01*
X43178320Y-34880273D01*
X43070147Y-35141426D01*
X43015000Y-35418665D01*
X43015000Y-35701335D01*
X43070147Y-35978574D01*
X43178320Y-36239727D01*
X43335363Y-36474759D01*
X43535241Y-36674637D01*
X43767759Y-36830000D01*
X43535241Y-36985363D01*
X43335363Y-37185241D01*
X43178320Y-37420273D01*
X43070147Y-37681426D01*
X43015000Y-37958665D01*
X43015000Y-38241335D01*
X43070147Y-38518574D01*
X43178320Y-38779727D01*
X43335363Y-39014759D01*
X43535241Y-39214637D01*
X43767759Y-39370000D01*
X43535241Y-39525363D01*
X43335363Y-39725241D01*
X43178320Y-39960273D01*
X43070147Y-40221426D01*
X43015000Y-40498665D01*
X43015000Y-40781335D01*
X43070147Y-41058574D01*
X43178320Y-41319727D01*
X43335363Y-41554759D01*
X43535241Y-41754637D01*
X43767759Y-41910000D01*
X43535241Y-42065363D01*
X43335363Y-42265241D01*
X43178320Y-42500273D01*
X43070147Y-42761426D01*
X43015000Y-43038665D01*
X43015000Y-43321335D01*
X43070147Y-43598574D01*
X43178320Y-43859727D01*
X43335363Y-44094759D01*
X43535241Y-44294637D01*
X43767759Y-44450000D01*
X43535241Y-44605363D01*
X43335363Y-44805241D01*
X43178320Y-45040273D01*
X43070147Y-45301426D01*
X43015000Y-45578665D01*
X43015000Y-45861335D01*
X43070147Y-46138574D01*
X43178320Y-46399727D01*
X43335363Y-46634759D01*
X43535241Y-46834637D01*
X43767759Y-46990000D01*
X43535241Y-47145363D01*
X43335363Y-47345241D01*
X43178320Y-47580273D01*
X43070147Y-47841426D01*
X43015000Y-48118665D01*
X43015000Y-48401335D01*
X43070147Y-48678574D01*
X43178320Y-48939727D01*
X43335363Y-49174759D01*
X43535241Y-49374637D01*
X43767759Y-49530000D01*
X43535241Y-49685363D01*
X43335363Y-49885241D01*
X43178320Y-50120273D01*
X43070147Y-50381426D01*
X43015000Y-50658665D01*
X43015000Y-50941335D01*
X43070147Y-51218574D01*
X43178320Y-51479727D01*
X43335363Y-51714759D01*
X43535241Y-51914637D01*
X43767759Y-52070000D01*
X43535241Y-52225363D01*
X43335363Y-52425241D01*
X43178320Y-52660273D01*
X43070147Y-52921426D01*
X43015000Y-53198665D01*
X43015000Y-53481335D01*
X43070147Y-53758574D01*
X43178320Y-54019727D01*
X43335363Y-54254759D01*
X43535241Y-54454637D01*
X43767759Y-54610000D01*
X43535241Y-54765363D01*
X43335363Y-54965241D01*
X43178320Y-55200273D01*
X43070147Y-55461426D01*
X43015000Y-55738665D01*
X43015000Y-56021335D01*
X43070147Y-56298574D01*
X43178320Y-56559727D01*
X43335363Y-56794759D01*
X43535241Y-56994637D01*
X43767759Y-57150000D01*
X43535241Y-57305363D01*
X43335363Y-57505241D01*
X43178320Y-57740273D01*
X43070147Y-58001426D01*
X43015000Y-58278665D01*
X43015000Y-58561335D01*
X43070147Y-58838574D01*
X43178320Y-59099727D01*
X43335363Y-59334759D01*
X43535241Y-59534637D01*
X43767759Y-59690000D01*
X43535241Y-59845363D01*
X43335363Y-60045241D01*
X43178320Y-60280273D01*
X43070147Y-60541426D01*
X43015000Y-60818665D01*
X43015000Y-61101335D01*
X43070147Y-61378574D01*
X43178320Y-61639727D01*
X43335363Y-61874759D01*
X43535241Y-62074637D01*
X43767759Y-62230000D01*
X43535241Y-62385363D01*
X43335363Y-62585241D01*
X43178320Y-62820273D01*
X43070147Y-63081426D01*
X43015000Y-63358665D01*
X43015000Y-63641335D01*
X43070147Y-63918574D01*
X43178320Y-64179727D01*
X43335363Y-64414759D01*
X43533961Y-64613357D01*
X43525518Y-64614188D01*
X43405820Y-64650498D01*
X43295506Y-64709463D01*
X43198815Y-64788815D01*
X43119463Y-64885506D01*
X43060498Y-64995820D01*
X43024188Y-65115518D01*
X43011928Y-65240000D01*
X40255000Y-65240000D01*
X40255000Y-58463469D01*
X40259281Y-58420000D01*
X40255000Y-58376531D01*
X40255000Y-58376523D01*
X40242195Y-58246510D01*
X40191589Y-58079687D01*
X40109411Y-57925941D01*
X39998817Y-57791183D01*
X39965049Y-57763470D01*
X30638017Y-48436439D01*
X30645000Y-48401335D01*
X30645000Y-48118665D01*
X30589853Y-47841426D01*
X30481680Y-47580273D01*
X30324637Y-47345241D01*
X30124759Y-47145363D01*
X29892241Y-46990000D01*
X30124759Y-46834637D01*
X30324637Y-46634759D01*
X30481680Y-46399727D01*
X30589853Y-46138574D01*
X30645000Y-45861335D01*
X30645000Y-45578665D01*
X30589853Y-45301426D01*
X30481680Y-45040273D01*
X30324637Y-44805241D01*
X30124759Y-44605363D01*
X29892241Y-44450000D01*
X30124759Y-44294637D01*
X30324637Y-44094759D01*
X30481680Y-43859727D01*
X30589853Y-43598574D01*
X30645000Y-43321335D01*
X30645000Y-43038665D01*
X30589853Y-42761426D01*
X30481680Y-42500273D01*
X30324637Y-42265241D01*
X30124759Y-42065363D01*
X29892241Y-41910000D01*
X30124759Y-41754637D01*
X30324637Y-41554759D01*
X30481680Y-41319727D01*
X30589853Y-41058574D01*
X30645000Y-40781335D01*
X30645000Y-40498665D01*
X30589853Y-40221426D01*
X30481680Y-39960273D01*
X30324637Y-39725241D01*
X30124759Y-39525363D01*
X29892241Y-39370000D01*
X30124759Y-39214637D01*
X30324637Y-39014759D01*
X30481680Y-38779727D01*
X30589853Y-38518574D01*
X30645000Y-38241335D01*
X30645000Y-37958665D01*
X30589853Y-37681426D01*
X30481680Y-37420273D01*
X30324637Y-37185241D01*
X30124759Y-36985363D01*
X29892241Y-36830000D01*
X30124759Y-36674637D01*
X30324637Y-36474759D01*
X30481680Y-36239727D01*
X30589853Y-35978574D01*
X30645000Y-35701335D01*
X30645000Y-35418665D01*
X30589853Y-35141426D01*
X30481680Y-34880273D01*
X30324637Y-34645241D01*
X30124759Y-34445363D01*
X29892241Y-34290000D01*
X30124759Y-34134637D01*
X30324637Y-33934759D01*
X30481680Y-33699727D01*
X30589853Y-33438574D01*
X30645000Y-33161335D01*
X30645000Y-32878665D01*
X30589853Y-32601426D01*
X30481680Y-32340273D01*
X30324637Y-32105241D01*
X30124759Y-31905363D01*
X29892241Y-31750000D01*
X30124759Y-31594637D01*
X30324637Y-31394759D01*
X30481680Y-31159727D01*
X30589853Y-30898574D01*
X30645000Y-30621335D01*
X30645000Y-30338665D01*
X30589853Y-30061426D01*
X30481680Y-29800273D01*
X30324637Y-29565241D01*
X30124759Y-29365363D01*
X29889727Y-29208320D01*
X29628574Y-29100147D01*
X29351335Y-29045000D01*
X29068665Y-29045000D01*
X28791426Y-29100147D01*
X28530273Y-29208320D01*
X28295241Y-29365363D01*
X28095363Y-29565241D01*
X27938320Y-29800273D01*
X27830147Y-30061426D01*
X27775000Y-30338665D01*
X27775000Y-30621335D01*
X27830147Y-30898574D01*
X27938320Y-31159727D01*
X28095363Y-31394759D01*
X28295241Y-31594637D01*
X28527759Y-31750000D01*
X28295241Y-31905363D01*
X28095363Y-32105241D01*
X27938320Y-32340273D01*
X27830147Y-32601426D01*
X27775000Y-32878665D01*
X27775000Y-33161335D01*
X27830147Y-33438574D01*
X27938320Y-33699727D01*
X28095363Y-33934759D01*
X28295241Y-34134637D01*
X28527759Y-34290000D01*
X28295241Y-34445363D01*
X28095363Y-34645241D01*
X27938320Y-34880273D01*
X27830147Y-35141426D01*
X27775000Y-35418665D01*
X27775000Y-35701335D01*
X27830147Y-35978574D01*
X27938320Y-36239727D01*
X28095363Y-36474759D01*
X28295241Y-36674637D01*
X28527759Y-36830000D01*
X28295241Y-36985363D01*
X28095363Y-37185241D01*
X27938320Y-37420273D01*
X27830147Y-37681426D01*
X27775000Y-37958665D01*
X27775000Y-38241335D01*
X27830147Y-38518574D01*
X27938320Y-38779727D01*
X28095363Y-39014759D01*
X28295241Y-39214637D01*
X28527759Y-39370000D01*
X28295241Y-39525363D01*
X28095363Y-39725241D01*
X27938320Y-39960273D01*
X27830147Y-40221426D01*
X27775000Y-40498665D01*
X27775000Y-40781335D01*
X27830147Y-41058574D01*
X27938320Y-41319727D01*
X28095363Y-41554759D01*
X28295241Y-41754637D01*
X28527759Y-41910000D01*
X28295241Y-42065363D01*
X28095363Y-42265241D01*
X27938320Y-42500273D01*
X27830147Y-42761426D01*
X27775000Y-43038665D01*
X27775000Y-43321335D01*
X27830147Y-43598574D01*
X27938320Y-43859727D01*
X28095363Y-44094759D01*
X28295241Y-44294637D01*
X28527759Y-44450000D01*
X28295241Y-44605363D01*
X28095363Y-44805241D01*
X27938320Y-45040273D01*
X27830147Y-45301426D01*
X27775000Y-45578665D01*
X27775000Y-45861335D01*
X27830147Y-46138574D01*
X27938320Y-46399727D01*
X28095363Y-46634759D01*
X28295241Y-46834637D01*
X28527759Y-46990000D01*
X28295241Y-47145363D01*
X28095363Y-47345241D01*
X27938320Y-47580273D01*
X27830147Y-47841426D01*
X27775000Y-48118665D01*
X27775000Y-48401335D01*
X27830147Y-48678574D01*
X27938320Y-48939727D01*
X28095363Y-49174759D01*
X28295241Y-49374637D01*
X28527759Y-49530000D01*
X28295241Y-49685363D01*
X28095363Y-49885241D01*
X27938320Y-50120273D01*
X27830147Y-50381426D01*
X27775000Y-50658665D01*
X27775000Y-50941335D01*
X27830147Y-51218574D01*
X27938320Y-51479727D01*
X28095363Y-51714759D01*
X28295241Y-51914637D01*
X28527759Y-52070000D01*
X28295241Y-52225363D01*
X28095363Y-52425241D01*
X27938320Y-52660273D01*
X27830147Y-52921426D01*
X27775000Y-53198665D01*
X27775000Y-53481335D01*
X27830147Y-53758574D01*
X27938320Y-54019727D01*
X28095363Y-54254759D01*
X28295241Y-54454637D01*
X28527759Y-54610000D01*
X28295241Y-54765363D01*
X28095363Y-54965241D01*
X27938320Y-55200273D01*
X27830147Y-55461426D01*
X27775000Y-55738665D01*
X27775000Y-56021335D01*
X27830147Y-56298574D01*
X27938320Y-56559727D01*
X28095363Y-56794759D01*
X28295241Y-56994637D01*
X28527759Y-57150000D01*
X28295241Y-57305363D01*
X28095363Y-57505241D01*
X27938320Y-57740273D01*
X27830147Y-58001426D01*
X27775000Y-58278665D01*
X27775000Y-58561335D01*
X27830147Y-58838574D01*
X27938320Y-59099727D01*
X28095363Y-59334759D01*
X28295241Y-59534637D01*
X28527759Y-59690000D01*
X28295241Y-59845363D01*
X28095363Y-60045241D01*
X27938320Y-60280273D01*
X27830147Y-60541426D01*
X27775000Y-60818665D01*
X27775000Y-61101335D01*
X27830147Y-61378574D01*
X27938320Y-61639727D01*
X28095363Y-61874759D01*
X28295241Y-62074637D01*
X28527759Y-62230000D01*
X28295241Y-62385363D01*
X28095363Y-62585241D01*
X27991957Y-62740000D01*
X27977322Y-62740000D01*
X27939999Y-62736324D01*
X27902676Y-62740000D01*
X27902667Y-62740000D01*
X27791014Y-62750997D01*
X27647753Y-62794454D01*
X27515724Y-62865026D01*
X27399999Y-62959999D01*
X27376201Y-62988997D01*
X26355199Y-64010000D01*
X24592775Y-64010000D01*
X24531962Y-63918987D01*
X24432975Y-63820000D01*
X24531962Y-63721013D01*
X24678061Y-63502359D01*
X24778696Y-63259405D01*
X24830000Y-63001486D01*
X24830000Y-62738514D01*
X24778696Y-62480595D01*
X24678061Y-62237641D01*
X24531962Y-62018987D01*
X24346013Y-61833038D01*
X24127359Y-61686939D01*
X23884405Y-61586304D01*
X23626486Y-61535000D01*
X23363514Y-61535000D01*
X23105595Y-61586304D01*
X22862641Y-61686939D01*
X22643987Y-61833038D01*
X22458038Y-62018987D01*
X22350000Y-62180678D01*
X22350000Y-59832338D01*
X22400820Y-59859502D01*
X22520518Y-59895812D01*
X22645000Y-59908072D01*
X24345000Y-59908072D01*
X24469482Y-59895812D01*
X24589180Y-59859502D01*
X24699494Y-59800537D01*
X24796185Y-59721185D01*
X24875537Y-59624494D01*
X24934502Y-59514180D01*
X24970812Y-59394482D01*
X24983072Y-59270000D01*
X24983072Y-57570000D01*
X24970812Y-57445518D01*
X24934502Y-57325820D01*
X24875537Y-57215506D01*
X24796185Y-57118815D01*
X24699494Y-57039463D01*
X24589180Y-56980498D01*
X24516620Y-56958487D01*
X24648475Y-56826632D01*
X24810990Y-56583411D01*
X24922932Y-56313158D01*
X24980000Y-56026260D01*
X24980000Y-55733740D01*
X24922932Y-55446842D01*
X24810990Y-55176589D01*
X24648475Y-54933368D01*
X24441632Y-54726525D01*
X24267240Y-54610000D01*
X24441632Y-54493475D01*
X24648475Y-54286632D01*
X24810990Y-54043411D01*
X24922932Y-53773158D01*
X24980000Y-53486260D01*
X24980000Y-53193740D01*
X24922932Y-52906842D01*
X24810990Y-52636589D01*
X24648475Y-52393368D01*
X24441632Y-52186525D01*
X24198411Y-52024010D01*
X23928158Y-51912068D01*
X23641260Y-51855000D01*
X23348740Y-51855000D01*
X23061842Y-51912068D01*
X22791589Y-52024010D01*
X22548368Y-52186525D01*
X22350000Y-52384893D01*
X22350000Y-49672338D01*
X22400820Y-49699502D01*
X22520518Y-49735812D01*
X22645000Y-49748072D01*
X24345000Y-49748072D01*
X24469482Y-49735812D01*
X24589180Y-49699502D01*
X24699494Y-49640537D01*
X24796185Y-49561185D01*
X24875537Y-49464494D01*
X24934502Y-49354180D01*
X24970812Y-49234482D01*
X24983072Y-49110000D01*
X24983072Y-47410000D01*
X24970812Y-47285518D01*
X24934502Y-47165820D01*
X24875537Y-47055506D01*
X24796185Y-46958815D01*
X24699494Y-46879463D01*
X24589180Y-46820498D01*
X24516620Y-46798487D01*
X24648475Y-46666632D01*
X24810990Y-46423411D01*
X24922932Y-46153158D01*
X24980000Y-45866260D01*
X24980000Y-45573740D01*
X24922932Y-45286842D01*
X24810990Y-45016589D01*
X24648475Y-44773368D01*
X24441632Y-44566525D01*
X24267240Y-44450000D01*
X24441632Y-44333475D01*
X24648475Y-44126632D01*
X24810990Y-43883411D01*
X24922932Y-43613158D01*
X24980000Y-43326260D01*
X24980000Y-43033740D01*
X24922932Y-42746842D01*
X24810990Y-42476589D01*
X24648475Y-42233368D01*
X24441632Y-42026525D01*
X24198411Y-41864010D01*
X23928158Y-41752068D01*
X23641260Y-41695000D01*
X23348740Y-41695000D01*
X23061842Y-41752068D01*
X22791589Y-41864010D01*
X22548368Y-42026525D01*
X22350000Y-42224893D01*
X22350000Y-39333744D01*
X22470595Y-39383696D01*
X22728514Y-39435000D01*
X22991486Y-39435000D01*
X23249405Y-39383696D01*
X23492359Y-39283061D01*
X23711013Y-39136962D01*
X23896962Y-38951013D01*
X24043061Y-38732359D01*
X24143696Y-38489405D01*
X24195000Y-38231486D01*
X24195000Y-37968514D01*
X24143696Y-37710595D01*
X24043061Y-37467641D01*
X23896962Y-37248987D01*
X23797975Y-37150000D01*
X23896962Y-37051013D01*
X24043061Y-36832359D01*
X24143696Y-36589405D01*
X24195000Y-36331486D01*
X24195000Y-36068514D01*
X24143696Y-35810595D01*
X24043061Y-35567641D01*
X23896962Y-35348987D01*
X23711013Y-35163038D01*
X23492359Y-35016939D01*
X23249405Y-34916304D01*
X22991486Y-34865000D01*
X22728514Y-34865000D01*
X22470595Y-34916304D01*
X22350000Y-34966256D01*
X22350000Y-26012295D01*
X22390506Y-26045537D01*
X22500820Y-26104502D01*
X22620518Y-26140812D01*
X22745000Y-26153072D01*
X24245000Y-26153072D01*
X24369482Y-26140812D01*
X24489180Y-26104502D01*
X24599494Y-26045537D01*
X24696185Y-25966185D01*
X24775537Y-25869494D01*
X24834502Y-25759180D01*
X24870812Y-25639482D01*
X24883072Y-25515000D01*
X24883072Y-24015000D01*
X24870812Y-23890518D01*
X24834502Y-23770820D01*
X24775537Y-23660506D01*
X24696185Y-23563815D01*
X24599494Y-23484463D01*
X24489180Y-23425498D01*
X24369482Y-23389188D01*
X24261517Y-23378555D01*
X24377886Y-23300799D01*
X24570799Y-23107886D01*
X24722371Y-22881043D01*
X24826775Y-22628989D01*
X24880000Y-22361411D01*
X24880000Y-22088589D01*
X24826775Y-21821011D01*
X24722371Y-21568957D01*
X24570799Y-21342114D01*
X24377886Y-21149201D01*
X24151043Y-20997629D01*
X24048127Y-20955000D01*
X24151043Y-20912371D01*
X24377886Y-20760799D01*
X24419425Y-20719260D01*
X45281015Y-20719260D01*
X45391744Y-21044995D01*
X45563894Y-21342869D01*
X45790848Y-21601434D01*
X46063885Y-21810755D01*
X46372512Y-21962787D01*
X46590741Y-22028982D01*
X46863000Y-21911190D01*
X46863000Y-20447000D01*
X47117000Y-20447000D01*
X47117000Y-21911190D01*
X47389259Y-22028982D01*
X47607488Y-21962787D01*
X47916115Y-21810755D01*
X48189152Y-21601434D01*
X48416106Y-21342869D01*
X48588256Y-21044995D01*
X48698985Y-20719260D01*
X48581653Y-20447000D01*
X47117000Y-20447000D01*
X46863000Y-20447000D01*
X45398347Y-20447000D01*
X45281015Y-20719260D01*
X24419425Y-20719260D01*
X24570799Y-20567886D01*
X24722371Y-20341043D01*
X24826775Y-20088989D01*
X24880000Y-19821411D01*
X24880000Y-19548589D01*
X24826775Y-19281011D01*
X24722371Y-19028957D01*
X24570799Y-18802114D01*
X24377886Y-18609201D01*
X24151043Y-18457629D01*
X24048127Y-18415000D01*
X24151043Y-18372371D01*
X24377886Y-18220799D01*
X24570799Y-18027886D01*
X24722371Y-17801043D01*
X24826775Y-17548989D01*
X24880000Y-17281411D01*
X24880000Y-17008589D01*
X24826775Y-16741011D01*
X24793220Y-16660000D01*
X45231928Y-16660000D01*
X45231928Y-18900000D01*
X45244188Y-19024482D01*
X45280498Y-19144180D01*
X45339463Y-19254494D01*
X45418815Y-19351185D01*
X45496031Y-19414555D01*
X45391744Y-19595005D01*
X45281015Y-19920740D01*
X45398347Y-20193000D01*
X46863000Y-20193000D01*
X46863000Y-20173000D01*
X47117000Y-20173000D01*
X47117000Y-20193000D01*
X48581653Y-20193000D01*
X48698985Y-19920740D01*
X48588256Y-19595005D01*
X48483969Y-19414555D01*
X48561185Y-19351185D01*
X48640537Y-19254494D01*
X48699502Y-19144180D01*
X48735812Y-19024482D01*
X48748072Y-18900000D01*
X48748072Y-18665000D01*
X53725000Y-18665000D01*
X53725001Y-20276514D01*
X53720718Y-20320000D01*
X53737805Y-20493490D01*
X53788411Y-20660313D01*
X53870589Y-20814059D01*
X53981183Y-20948817D01*
X54115941Y-21059411D01*
X54269687Y-21141589D01*
X54436510Y-21192195D01*
X54566523Y-21205000D01*
X54566524Y-21205000D01*
X54610000Y-21209282D01*
X54653477Y-21205000D01*
X56772150Y-21205000D01*
X56785225Y-21236566D01*
X56996987Y-21553491D01*
X57266509Y-21823013D01*
X57583434Y-22034775D01*
X57935581Y-22180639D01*
X58309419Y-22255000D01*
X58690581Y-22255000D01*
X59064419Y-22180639D01*
X59416566Y-22034775D01*
X59733491Y-21823013D01*
X60003013Y-21553491D01*
X60214775Y-21236566D01*
X60360639Y-20884419D01*
X60435000Y-20510581D01*
X60435000Y-20129419D01*
X60360639Y-19755581D01*
X60214775Y-19403434D01*
X60003013Y-19086509D01*
X59936504Y-19020000D01*
X61561928Y-19020000D01*
X61561928Y-21620000D01*
X61574188Y-21744482D01*
X61610498Y-21864180D01*
X61669463Y-21974494D01*
X61748815Y-22071185D01*
X61845506Y-22150537D01*
X61955820Y-22209502D01*
X62075518Y-22245812D01*
X62200000Y-22258072D01*
X64800000Y-22258072D01*
X64924482Y-22245812D01*
X65044180Y-22209502D01*
X65154494Y-22150537D01*
X65251185Y-22071185D01*
X65330537Y-21974494D01*
X65389502Y-21864180D01*
X65425812Y-21744482D01*
X65438072Y-21620000D01*
X65438072Y-19020000D01*
X65425812Y-18895518D01*
X65389502Y-18775820D01*
X65330537Y-18665506D01*
X65251185Y-18568815D01*
X65154494Y-18489463D01*
X65044180Y-18430498D01*
X64924482Y-18394188D01*
X64800000Y-18381928D01*
X62200000Y-18381928D01*
X62075518Y-18394188D01*
X61955820Y-18430498D01*
X61845506Y-18489463D01*
X61748815Y-18568815D01*
X61669463Y-18665506D01*
X61610498Y-18775820D01*
X61574188Y-18895518D01*
X61561928Y-19020000D01*
X59936504Y-19020000D01*
X59733491Y-18816987D01*
X59416566Y-18605225D01*
X59064419Y-18459361D01*
X58690581Y-18385000D01*
X58309419Y-18385000D01*
X57935581Y-18459361D01*
X57583434Y-18605225D01*
X57266509Y-18816987D01*
X56996987Y-19086509D01*
X56785225Y-19403434D01*
X56772150Y-19435000D01*
X55495000Y-19435000D01*
X55495000Y-17823477D01*
X55499282Y-17780000D01*
X55484609Y-17631015D01*
X55482195Y-17606510D01*
X55431589Y-17439687D01*
X55349411Y-17285941D01*
X55238817Y-17151183D01*
X55145323Y-17074454D01*
X55104059Y-17040589D01*
X54950313Y-16958411D01*
X54783490Y-16907805D01*
X54653477Y-16895000D01*
X54653476Y-16895000D01*
X54610000Y-16890718D01*
X54566523Y-16895000D01*
X48748072Y-16895000D01*
X48748072Y-16660000D01*
X48735812Y-16535518D01*
X48699502Y-16415820D01*
X48640537Y-16305506D01*
X48561185Y-16208815D01*
X48464494Y-16129463D01*
X48354180Y-16070498D01*
X48234482Y-16034188D01*
X48110000Y-16021928D01*
X45870000Y-16021928D01*
X45745518Y-16034188D01*
X45625820Y-16070498D01*
X45515506Y-16129463D01*
X45418815Y-16208815D01*
X45339463Y-16305506D01*
X45280498Y-16415820D01*
X45244188Y-16535518D01*
X45231928Y-16660000D01*
X24793220Y-16660000D01*
X24722371Y-16488957D01*
X24570799Y-16262114D01*
X24377886Y-16069201D01*
X24151043Y-15917629D01*
X23898989Y-15813225D01*
X23631411Y-15760000D01*
X23358589Y-15760000D01*
X23091011Y-15813225D01*
X22838957Y-15917629D01*
X22612114Y-16069201D01*
X22419201Y-16262114D01*
X22337091Y-16385000D01*
X22262333Y-16385000D01*
X22225000Y-16381323D01*
X22187667Y-16385000D01*
X22076014Y-16395997D01*
X21932753Y-16439454D01*
X21800724Y-16510026D01*
X21684999Y-16604999D01*
X21661200Y-16633998D01*
X21079002Y-17216197D01*
X21049999Y-17239999D01*
X20994871Y-17307174D01*
X20955026Y-17355724D01*
X20911451Y-17437247D01*
X20884454Y-17487754D01*
X20840997Y-17631015D01*
X20830000Y-17742668D01*
X20830000Y-17742678D01*
X20826324Y-17780000D01*
X20830000Y-17817322D01*
X20830001Y-48222657D01*
X20826323Y-48260000D01*
X19177000Y-48260000D01*
X19177000Y-14630000D01*
X71730000Y-14630000D01*
X71730001Y-76810000D01*
G37*
%TD.AperFunction*%
%TD*%
M02*
