%TF.GenerationSoftware,KiCad,Pcbnew,5.1.9+dfsg1-1+b1*%
%TF.CreationDate,2021-12-16T19:11:23+11:00*%
%TF.ProjectId,aquaponics-1,61717561-706f-46e6-9963-732d312e6b69,rev?*%
%TF.SameCoordinates,Original*%
%TF.FileFunction,Copper,L2,Bot*%
%TF.FilePolarity,Positive*%
%FSLAX46Y46*%
G04 Gerber Fmt 4.6, Leading zero omitted, Abs format (unit mm)*
G04 Created by KiCad (PCBNEW 5.1.9+dfsg1-1+b1) date 2021-12-16 19:11:23*
%MOMM*%
%LPD*%
G01*
G04 APERTURE LIST*
%TA.AperFunction,ComponentPad*%
%ADD10R,1.700000X1.700000*%
%TD*%
%TA.AperFunction,ComponentPad*%
%ADD11O,1.700000X1.700000*%
%TD*%
%TA.AperFunction,ComponentPad*%
%ADD12O,1.400000X1.400000*%
%TD*%
%TA.AperFunction,ComponentPad*%
%ADD13C,1.400000*%
%TD*%
%TA.AperFunction,ComponentPad*%
%ADD14R,2.600000X2.600000*%
%TD*%
%TA.AperFunction,ComponentPad*%
%ADD15C,2.600000*%
%TD*%
%TA.AperFunction,ComponentPad*%
%ADD16O,1.600000X1.600000*%
%TD*%
%TA.AperFunction,ComponentPad*%
%ADD17R,1.600000X1.600000*%
%TD*%
%TA.AperFunction,ComponentPad*%
%ADD18C,1.500000*%
%TD*%
%TA.AperFunction,ComponentPad*%
%ADD19R,1.500000X1.500000*%
%TD*%
%TA.AperFunction,ComponentPad*%
%ADD20C,2.400000*%
%TD*%
%TA.AperFunction,ComponentPad*%
%ADD21O,2.000000X1.905000*%
%TD*%
%TA.AperFunction,ComponentPad*%
%ADD22R,2.000000X1.905000*%
%TD*%
%TA.AperFunction,Conductor*%
%ADD23C,0.250000*%
%TD*%
%TA.AperFunction,Conductor*%
%ADD24C,0.500000*%
%TD*%
G04 APERTURE END LIST*
D10*
%TO.P,J4,1*%
%TO.N,GND*%
X22225000Y-48260000D03*
D11*
%TO.P,J4,2*%
%TO.N,+5V*%
X22225000Y-45720000D03*
%TO.P,J4,3*%
%TO.N,Net-(J4-Pad3)*%
X22225000Y-43180000D03*
%TD*%
%TO.P,J3,3*%
%TO.N,Net-(J3-Pad3)*%
X22225000Y-53340000D03*
%TO.P,J3,2*%
%TO.N,+5V*%
X22225000Y-55880000D03*
D10*
%TO.P,J3,1*%
%TO.N,GND*%
X22225000Y-58420000D03*
%TD*%
D12*
%TO.P,R6,2*%
%TO.N,+3V3*%
X21590000Y-36200000D03*
D13*
%TO.P,R6,1*%
%TO.N,Net-(R6-Pad1)*%
X21590000Y-38100000D03*
%TD*%
D11*
%TO.P,R1,2*%
%TO.N,+5V*%
X22225000Y-73025000D03*
D10*
%TO.P,R1,1*%
%TO.N,Net-(R1-Pad1)*%
X22225000Y-70485000D03*
%TD*%
D11*
%TO.P,M3,2*%
%TO.N,Net-(M3-Pad2)*%
X61960000Y-45720000D03*
D10*
%TO.P,M3,1*%
%TO.N,Net-(J2-Pad1)*%
X64500000Y-45720000D03*
%TD*%
D11*
%TO.P,M2,2*%
%TO.N,Net-(M2-Pad2)*%
X61960000Y-34290000D03*
D10*
%TO.P,M2,1*%
%TO.N,Net-(J2-Pad1)*%
X64500000Y-34290000D03*
%TD*%
D11*
%TO.P,M1,2*%
%TO.N,Net-(M1-Pad2)*%
X61960000Y-57150000D03*
D10*
%TO.P,M1,1*%
%TO.N,Net-(J2-Pad1)*%
X64500000Y-57150000D03*
%TD*%
D14*
%TO.P,J2,1*%
%TO.N,Net-(J2-Pad1)*%
X62230000Y-20320000D03*
D15*
%TO.P,J2,2*%
%TO.N,GND*%
X57230000Y-20320000D03*
%TD*%
D16*
%TO.P,U1,16*%
%TO.N,Net-(U1-Pad16)*%
X27940000Y-30480000D03*
%TO.P,U1,15*%
%TO.N,Net-(U1-Pad15)*%
X43180000Y-30480000D03*
%TO.P,U1,30*%
%TO.N,Net-(U1-Pad30)*%
X27940000Y-66040000D03*
%TO.P,U1,14*%
%TO.N,Net-(U1-Pad14)*%
X43180000Y-33020000D03*
%TO.P,U1,29*%
%TO.N,Net-(U1-Pad29)*%
X27940000Y-63500000D03*
%TO.P,U1,13*%
%TO.N,Net-(U1-Pad13)*%
X43180000Y-35560000D03*
%TO.P,U1,28*%
%TO.N,Net-(U1-Pad28)*%
X27940000Y-60960000D03*
%TO.P,U1,12*%
%TO.N,Net-(U1-Pad12)*%
X43180000Y-38100000D03*
%TO.P,U1,27*%
%TO.N,+5V*%
X27940000Y-58420000D03*
%TO.P,U1,11*%
%TO.N,Net-(U1-Pad11)*%
X43180000Y-40640000D03*
%TO.P,U1,26*%
%TO.N,Net-(U1-Pad26)*%
X27940000Y-55880000D03*
%TO.P,U1,10*%
%TO.N,Net-(U1-Pad10)*%
X43180000Y-43180000D03*
%TO.P,U1,25*%
%TO.N,Net-(U1-Pad25)*%
X27940000Y-53340000D03*
%TO.P,U1,9*%
%TO.N,Net-(U1-Pad9)*%
X43180000Y-45720000D03*
%TO.P,U1,24*%
%TO.N,Net-(U1-Pad24)*%
X27940000Y-50800000D03*
%TO.P,U1,8*%
%TO.N,Net-(U1-Pad8)*%
X43180000Y-48260000D03*
%TO.P,U1,23*%
%TO.N,Net-(U1-Pad23)*%
X27940000Y-48260000D03*
%TO.P,U1,7*%
%TO.N,Net-(R2-Pad1)*%
X43180000Y-50800000D03*
%TO.P,U1,22*%
%TO.N,Net-(R1-Pad1)*%
X27940000Y-45720000D03*
%TO.P,U1,6*%
%TO.N,Net-(R5-Pad1)*%
X43180000Y-53340000D03*
%TO.P,U1,21*%
%TO.N,Net-(J3-Pad3)*%
X27940000Y-43180000D03*
%TO.P,U1,5*%
%TO.N,Net-(R4-Pad1)*%
X43180000Y-55880000D03*
%TO.P,U1,20*%
%TO.N,Net-(J4-Pad3)*%
X27940000Y-40640000D03*
%TO.P,U1,4*%
%TO.N,GND*%
X43180000Y-58420000D03*
%TO.P,U1,19*%
%TO.N,Net-(R6-Pad1)*%
X27940000Y-38100000D03*
%TO.P,U1,3*%
%TO.N,Net-(U1-Pad3)*%
X43180000Y-60960000D03*
%TO.P,U1,18*%
%TO.N,Net-(U1-Pad18)*%
X27940000Y-35560000D03*
%TO.P,U1,2*%
%TO.N,Net-(U1-Pad2)*%
X43180000Y-63500000D03*
%TO.P,U1,17*%
%TO.N,+3V3*%
X27940000Y-33020000D03*
D17*
%TO.P,U1,1*%
%TO.N,Net-(U1-Pad1)*%
X43180000Y-66040000D03*
%TD*%
D18*
%TO.P,U2,4*%
%TO.N,GND*%
X22225000Y-17145000D03*
%TO.P,U2,3*%
%TO.N,Net-(U2-Pad3)*%
X22225000Y-19685000D03*
%TO.P,U2,2*%
%TO.N,Net-(R6-Pad1)*%
X22225000Y-22225000D03*
D19*
%TO.P,U2,1*%
%TO.N,+3V3*%
X22225000Y-24765000D03*
%TD*%
D20*
%TO.P,J5,2*%
%TO.N,Net-(J5-Pad2)*%
X65405000Y-70485000D03*
%TO.P,J5,1*%
%TO.N,Net-(J2-Pad1)*%
%TA.AperFunction,ComponentPad*%
G36*
G01*
X66355000Y-75645000D02*
X64455000Y-75645000D01*
G75*
G02*
X64205000Y-75395000I0J250000D01*
G01*
X64205000Y-73495000D01*
G75*
G02*
X64455000Y-73245000I250000J0D01*
G01*
X66355000Y-73245000D01*
G75*
G02*
X66605000Y-73495000I0J-250000D01*
G01*
X66605000Y-75395000D01*
G75*
G02*
X66355000Y-75645000I-250000J0D01*
G01*
G37*
%TD.AperFunction*%
%TD*%
D21*
%TO.P,Q3,3*%
%TO.N,GND*%
X57150000Y-43180000D03*
%TO.P,Q3,2*%
%TO.N,Net-(M3-Pad2)*%
X57150000Y-45720000D03*
D22*
%TO.P,Q3,1*%
%TO.N,Net-(Q3-Pad1)*%
X57150000Y-48260000D03*
%TD*%
D21*
%TO.P,Q1,3*%
%TO.N,GND*%
X57150000Y-54610000D03*
%TO.P,Q1,2*%
%TO.N,Net-(M1-Pad2)*%
X57150000Y-57150000D03*
D22*
%TO.P,Q1,1*%
%TO.N,Net-(Q1-Pad1)*%
X57150000Y-59690000D03*
%TD*%
D21*
%TO.P,Q2,3*%
%TO.N,GND*%
X57150000Y-31750000D03*
%TO.P,Q2,2*%
%TO.N,Net-(M2-Pad2)*%
X57150000Y-34290000D03*
D22*
%TO.P,Q2,1*%
%TO.N,Net-(Q2-Pad1)*%
X57150000Y-36830000D03*
%TD*%
D20*
%TO.P,J1,2*%
%TO.N,Net-(J1-Pad2)*%
X50165000Y-70335000D03*
%TO.P,J1,1*%
%TO.N,+5V*%
%TA.AperFunction,ComponentPad*%
G36*
G01*
X51115000Y-75495000D02*
X49215000Y-75495000D01*
G75*
G02*
X48965000Y-75245000I0J250000D01*
G01*
X48965000Y-73345000D01*
G75*
G02*
X49215000Y-73095000I250000J0D01*
G01*
X51115000Y-73095000D01*
G75*
G02*
X51365000Y-73345000I0J-250000D01*
G01*
X51365000Y-75245000D01*
G75*
G02*
X51115000Y-75495000I-250000J0D01*
G01*
G37*
%TD.AperFunction*%
%TD*%
D12*
%TO.P,R2,2*%
%TO.N,Net-(Q2-Pad1)*%
X50795000Y-36830000D03*
D13*
%TO.P,R2,1*%
%TO.N,Net-(R2-Pad1)*%
X48895000Y-36830000D03*
%TD*%
D12*
%TO.P,R3,2*%
%TO.N,Net-(R1-Pad1)*%
X22225000Y-62870000D03*
D13*
%TO.P,R3,1*%
%TO.N,GND*%
X22225000Y-64770000D03*
%TD*%
D12*
%TO.P,R4,2*%
%TO.N,Net-(Q1-Pad1)*%
X50795000Y-59690000D03*
D13*
%TO.P,R4,1*%
%TO.N,Net-(R4-Pad1)*%
X48895000Y-59690000D03*
%TD*%
D12*
%TO.P,R5,2*%
%TO.N,Net-(Q3-Pad1)*%
X50795000Y-48260000D03*
D13*
%TO.P,R5,1*%
%TO.N,Net-(R5-Pad1)*%
X48895000Y-48260000D03*
%TD*%
D23*
%TO.N,GND*%
X49137002Y-58420000D02*
X43180000Y-58420000D01*
X51684512Y-55872490D02*
X49137002Y-58420000D01*
X57090010Y-55872490D02*
X51684512Y-55872490D01*
X57150000Y-55812500D02*
X57090010Y-55872490D01*
X57150000Y-54610000D02*
X57150000Y-55812500D01*
X22225000Y-57785000D02*
X22225000Y-58420000D01*
D24*
X55699990Y-53159990D02*
X57150000Y-54610000D01*
X55699990Y-44630010D02*
X55699990Y-53159990D01*
X57150000Y-43180000D02*
X55699990Y-44630010D01*
X55699990Y-33200010D02*
X57150000Y-31750000D01*
X55699990Y-41729990D02*
X55699990Y-33200010D01*
X57150000Y-43180000D02*
X55699990Y-41729990D01*
D23*
X21199999Y-63744999D02*
X22225000Y-64770000D01*
X21199999Y-59445001D02*
X21199999Y-63744999D01*
X22225000Y-58420000D02*
X21199999Y-59445001D01*
X34685002Y-58420000D02*
X43180000Y-58420000D01*
X28335002Y-64770000D02*
X34685002Y-58420000D01*
X22225000Y-64770000D02*
X28335002Y-64770000D01*
X21049999Y-57244999D02*
X22225000Y-58420000D01*
X21049999Y-49435001D02*
X21049999Y-57244999D01*
X22225000Y-48260000D02*
X21049999Y-49435001D01*
X25400000Y-20320000D02*
X22225000Y-17145000D01*
X57230000Y-20320000D02*
X25400000Y-20320000D01*
D24*
X57230000Y-31670000D02*
X57150000Y-31750000D01*
X57230000Y-20320000D02*
X57230000Y-31670000D01*
%TO.N,Net-(M1-Pad2)*%
X57150000Y-57150000D02*
X57150000Y-57785000D01*
X62865000Y-57785000D02*
X63500000Y-57150000D01*
X57150000Y-57785000D02*
X62865000Y-57785000D01*
%TO.N,Net-(M2-Pad2)*%
X57150000Y-34290000D02*
X65040000Y-34290000D01*
%TO.N,Net-(M3-Pad2)*%
X57150000Y-45720000D02*
X63500000Y-45720000D01*
%TD*%
M02*
