%TF.GenerationSoftware,KiCad,Pcbnew,5.1.9+dfsg1-1+b1*%
%TF.CreationDate,2021-12-12T08:10:16+11:00*%
%TF.ProjectId,aquaponics-1,61717561-706f-46e6-9963-732d312e6b69,rev?*%
%TF.SameCoordinates,Original*%
%TF.FileFunction,Soldermask,Top*%
%TF.FilePolarity,Negative*%
%FSLAX46Y46*%
G04 Gerber Fmt 4.6, Leading zero omitted, Abs format (unit mm)*
G04 Created by KiCad (PCBNEW 5.1.9+dfsg1-1+b1) date 2021-12-12 08:10:16*
%MOMM*%
%LPD*%
G01*
G04 APERTURE LIST*
%ADD10R,2.600000X2.600000*%
%ADD11C,2.600000*%
%ADD12O,1.600000X1.600000*%
%ADD13R,1.600000X1.600000*%
%ADD14C,1.500000*%
%ADD15R,1.500000X1.500000*%
%ADD16C,2.400000*%
%ADD17O,0.850000X0.850000*%
%ADD18R,0.850000X0.850000*%
%ADD19O,2.000000X1.905000*%
%ADD20R,2.000000X1.905000*%
%ADD21O,1.400000X1.400000*%
%ADD22C,1.400000*%
G04 APERTURE END LIST*
D10*
%TO.C,J2*%
X62230000Y-20320000D03*
D11*
X57230000Y-20320000D03*
%TD*%
D12*
%TO.C,U1*%
X27940000Y-30480000D03*
X43180000Y-30480000D03*
X27940000Y-66040000D03*
X43180000Y-33020000D03*
X27940000Y-63500000D03*
X43180000Y-35560000D03*
X27940000Y-60960000D03*
X43180000Y-38100000D03*
X27940000Y-58420000D03*
X43180000Y-40640000D03*
X27940000Y-55880000D03*
X43180000Y-43180000D03*
X27940000Y-53340000D03*
X43180000Y-45720000D03*
X27940000Y-50800000D03*
X43180000Y-48260000D03*
X27940000Y-48260000D03*
X43180000Y-50800000D03*
X27940000Y-45720000D03*
X43180000Y-53340000D03*
X27940000Y-43180000D03*
X43180000Y-55880000D03*
X27940000Y-40640000D03*
X43180000Y-58420000D03*
X27940000Y-38100000D03*
X43180000Y-60960000D03*
X27940000Y-35560000D03*
X43180000Y-63500000D03*
X27940000Y-33020000D03*
D13*
X43180000Y-66040000D03*
%TD*%
D14*
%TO.C,Temp*%
X31115000Y-19685000D03*
X28575000Y-19685000D03*
X26035000Y-19685000D03*
D15*
X23495000Y-19685000D03*
%TD*%
D16*
%TO.C,J5*%
X65405000Y-70485000D03*
G36*
G01*
X66355000Y-75645000D02*
X64455000Y-75645000D01*
G75*
G02*
X64205000Y-75395000I0J250000D01*
G01*
X64205000Y-73495000D01*
G75*
G02*
X64455000Y-73245000I250000J0D01*
G01*
X66355000Y-73245000D01*
G75*
G02*
X66605000Y-73495000I0J-250000D01*
G01*
X66605000Y-75395000D01*
G75*
G02*
X66355000Y-75645000I-250000J0D01*
G01*
G37*
%TD*%
D17*
%TO.C,Overflow*%
X63500000Y-34290000D03*
D18*
X64500000Y-34290000D03*
%TD*%
D19*
%TO.C,Q3*%
X57150000Y-43180000D03*
X57150000Y-45720000D03*
D20*
X57150000Y-48260000D03*
%TD*%
D17*
%TO.C,Feed*%
X63500000Y-45720000D03*
D18*
X64500000Y-45720000D03*
%TD*%
D19*
%TO.C,Q1*%
X57150000Y-54610000D03*
X57150000Y-57150000D03*
D20*
X57150000Y-59690000D03*
%TD*%
D19*
%TO.C,Q2*%
X57150000Y-31750000D03*
X57150000Y-34290000D03*
D20*
X57150000Y-36830000D03*
%TD*%
D17*
%TO.C,Pump*%
X63500000Y-57150000D03*
D18*
X64500000Y-57150000D03*
%TD*%
D17*
%TO.C,Rain*%
X24225000Y-43180000D03*
X23225000Y-43180000D03*
D18*
X22225000Y-43180000D03*
%TD*%
D16*
%TO.C,J1*%
X50165000Y-70335000D03*
G36*
G01*
X51115000Y-75495000D02*
X49215000Y-75495000D01*
G75*
G02*
X48965000Y-75245000I0J250000D01*
G01*
X48965000Y-73345000D01*
G75*
G02*
X49215000Y-73095000I250000J0D01*
G01*
X51115000Y-73095000D01*
G75*
G02*
X51365000Y-73345000I0J-250000D01*
G01*
X51365000Y-75245000D01*
G75*
G02*
X51115000Y-75495000I-250000J0D01*
G01*
G37*
%TD*%
D17*
%TO.C,Level*%
X24225000Y-46990000D03*
X23225000Y-46990000D03*
D18*
X22225000Y-46990000D03*
%TD*%
D17*
%TO.C,Light*%
X22495000Y-55880000D03*
D18*
X23495000Y-55880000D03*
%TD*%
D21*
%TO.C,R2*%
X50795000Y-36830000D03*
D22*
X48895000Y-36830000D03*
%TD*%
D21*
%TO.C,R3*%
X24125000Y-51435000D03*
D22*
X22225000Y-51435000D03*
%TD*%
D21*
%TO.C,R4*%
X50795000Y-59690000D03*
D22*
X48895000Y-59690000D03*
%TD*%
D21*
%TO.C,R5*%
X50795000Y-48260000D03*
D22*
X48895000Y-48260000D03*
%TD*%
D21*
%TO.C,R6*%
X21590000Y-33020000D03*
D22*
X21590000Y-38100000D03*
%TD*%
M02*
