M48
INCH,TZ
T1C0.0276
T2C0.0315
T3C0.0394
T4C0.0433
T5C0.0512
T6C0.0551
%
G90
G05
T1
X8500Y-14252
X8500Y-15000
X8750Y-24752
X8750Y-25500
X19250Y-14500
X19250Y-19000
X19250Y-23500
X19998Y-14500
X19998Y-19000
X19998Y-23500
T2
X8750Y-6750
X8750Y-7750
X8750Y-8750
X8750Y-9750
X11000Y-12000
X11000Y-13000
X11000Y-14000
X11000Y-15000
X11000Y-16000
X11000Y-17000
X11000Y-18000
X11000Y-19000
X11000Y-20000
X11000Y-21000
X11000Y-22000
X11000Y-23000
X11000Y-24000
X11000Y-25000
X11000Y-26000
X17000Y-12000
X17000Y-13000
X17000Y-14000
X17000Y-15000
X17000Y-16000
X17000Y-17000
X17000Y-18000
X17000Y-19000
X17000Y-20000
X17000Y-21000
X17000Y-22000
X17000Y-23000
X17000Y-24000
X17000Y-25000
X17000Y-26000
T3
X8750Y-17000
X8750Y-18000
X8750Y-19000
X8750Y-21000
X8750Y-22000
X8750Y-23000
X8750Y-27750
X8750Y-28750
X24394Y-13500
X24394Y-18000
X24394Y-22500
X25394Y-13500
X25394Y-18000
X25394Y-22500
T4
X22500Y-12500
X22500Y-13500
X22500Y-14500
X22500Y-17000
X22500Y-18000
X22500Y-19000
X22500Y-21500
X22500Y-22500
X22500Y-23500
T5
X22531Y-8000
X24500Y-8000
T6
X19750Y-27691
X19750Y-29250
X25750Y-27750
X25750Y-29309
T0
M30
