%TF.GenerationSoftware,KiCad,Pcbnew,5.1.9+dfsg1-1+b1*%
%TF.CreationDate,2021-12-12T08:10:16+11:00*%
%TF.ProjectId,aquaponics-1,61717561-706f-46e6-9963-732d312e6b69,rev?*%
%TF.SameCoordinates,Original*%
%TF.FileFunction,Legend,Top*%
%TF.FilePolarity,Positive*%
%FSLAX46Y46*%
G04 Gerber Fmt 4.6, Leading zero omitted, Abs format (unit mm)*
G04 Created by KiCad (PCBNEW 5.1.9+dfsg1-1+b1) date 2021-12-12 08:10:16*
%MOMM*%
%LPD*%
G01*
G04 APERTURE LIST*
%ADD10C,0.120000*%
%ADD11C,0.150000*%
G04 APERTURE END LIST*
D10*
%TO.C,J2*%
X64410000Y-20320000D02*
G75*
G03*
X64410000Y-20320000I-2180000J0D01*
G01*
X59410000Y-20320000D02*
G75*
G03*
X59410000Y-20320000I-2180000J0D01*
G01*
X64790000Y-15720000D02*
X54670000Y-15720000D01*
X64790000Y-16820000D02*
X54670000Y-16820000D01*
X64790000Y-24380000D02*
X54670000Y-24380000D01*
X64790000Y-15260000D02*
X54670000Y-15260000D01*
X64790000Y-24380000D02*
X64790000Y-15260000D01*
X54670000Y-24380000D02*
X54670000Y-15260000D01*
X60576000Y-21708000D02*
X60683000Y-21601000D01*
X63512000Y-18773000D02*
X63618000Y-18666000D01*
X60842000Y-21974000D02*
X60949000Y-21867000D01*
X63778000Y-19039000D02*
X63884000Y-18932000D01*
X55576000Y-21708000D02*
X55971000Y-21312000D01*
X58237000Y-19046000D02*
X58617000Y-18666000D01*
X55842000Y-21974000D02*
X56222000Y-21594000D01*
X58488000Y-19328000D02*
X58883000Y-18932000D01*
X65030000Y-15660000D02*
X65030000Y-15020000D01*
X65030000Y-15020000D02*
X64630000Y-15020000D01*
%TO.C,U1*%
X39497000Y-24003000D02*
X31623000Y-24003000D01*
X31623000Y-24003000D02*
X31623000Y-26543000D01*
X31623000Y-26543000D02*
X26543000Y-26543000D01*
X39497000Y-24003000D02*
X39497000Y-26543000D01*
X26543000Y-69977000D02*
X44577000Y-69977000D01*
X26543000Y-26543000D02*
X26543000Y-69977000D01*
X44577000Y-26543000D02*
X39497000Y-26543000D01*
X41910000Y-29210000D02*
X44580000Y-29210000D01*
X41910000Y-64770000D02*
X41910000Y-29210000D01*
X41910000Y-64770000D02*
X44577000Y-64770000D01*
X29210000Y-29210000D02*
X26540000Y-29210000D01*
X29210000Y-67310000D02*
X29210000Y-29210000D01*
X29210000Y-67310000D02*
X26540000Y-67310000D01*
X44577000Y-69977000D02*
X44577000Y-67310000D01*
X44577000Y-64770000D02*
X44577000Y-26543000D01*
X41910000Y-67310000D02*
X44577000Y-67310000D01*
X41910000Y-64770000D02*
X41910000Y-67310000D01*
%TO.C,Temp*%
X20895000Y-22845000D02*
X20895000Y-21235000D01*
X20895000Y-22845000D02*
X22895000Y-22845000D01*
X33435000Y-22565000D02*
X21185000Y-22565000D01*
X33435000Y-16805000D02*
X33435000Y-22565000D01*
X21175000Y-16805000D02*
X33435000Y-16805000D01*
X21175000Y-22555000D02*
X21175000Y-16815000D01*
%TO.C,J5*%
X70105000Y-73945000D02*
X70105000Y-74945000D01*
X69105000Y-74445000D02*
X70105000Y-73945000D01*
X70105000Y-74945000D02*
X69105000Y-74445000D01*
X68715000Y-68705000D02*
X68715000Y-72465000D01*
X62095000Y-68705000D02*
X68715000Y-68705000D01*
X62095000Y-72465000D02*
X62095000Y-68705000D01*
X68715000Y-76225000D02*
X68715000Y-72465000D01*
X62095000Y-76225000D02*
X68715000Y-76225000D01*
X62095000Y-72465000D02*
X62095000Y-76225000D01*
%TO.C,Overflow*%
X65185000Y-33595000D02*
X65185000Y-34290000D01*
X64500000Y-33595000D02*
X65185000Y-33595000D01*
X63815000Y-34898276D02*
X63815000Y-34985000D01*
X63815000Y-33595000D02*
X63815000Y-33681724D01*
X63815000Y-34985000D02*
X62940000Y-34985000D01*
X63815000Y-33595000D02*
X62940000Y-33595000D01*
X62940000Y-34684493D02*
X62940000Y-34985000D01*
X62940000Y-33595000D02*
X62940000Y-33895507D01*
%TO.C,Q3*%
X53880000Y-43869000D02*
X55390000Y-43869000D01*
X53880000Y-47570000D02*
X55390000Y-47570000D01*
X55390000Y-50840000D02*
X55390000Y-40600000D01*
X53880000Y-40600000D02*
X58521000Y-40600000D01*
X53880000Y-50840000D02*
X58521000Y-50840000D01*
X58521000Y-50840000D02*
X58521000Y-40600000D01*
X53880000Y-50840000D02*
X53880000Y-40600000D01*
%TO.C,Feed*%
X65185000Y-45025000D02*
X65185000Y-45720000D01*
X64500000Y-45025000D02*
X65185000Y-45025000D01*
X63815000Y-46328276D02*
X63815000Y-46415000D01*
X63815000Y-45025000D02*
X63815000Y-45111724D01*
X63815000Y-46415000D02*
X62940000Y-46415000D01*
X63815000Y-45025000D02*
X62940000Y-45025000D01*
X62940000Y-46114493D02*
X62940000Y-46415000D01*
X62940000Y-45025000D02*
X62940000Y-45325507D01*
%TO.C,Q1*%
X53880000Y-55299000D02*
X55390000Y-55299000D01*
X53880000Y-59000000D02*
X55390000Y-59000000D01*
X55390000Y-62270000D02*
X55390000Y-52030000D01*
X53880000Y-52030000D02*
X58521000Y-52030000D01*
X53880000Y-62270000D02*
X58521000Y-62270000D01*
X58521000Y-62270000D02*
X58521000Y-52030000D01*
X53880000Y-62270000D02*
X53880000Y-52030000D01*
%TO.C,Q2*%
X53880000Y-32439000D02*
X55390000Y-32439000D01*
X53880000Y-36140000D02*
X55390000Y-36140000D01*
X55390000Y-39410000D02*
X55390000Y-29170000D01*
X53880000Y-29170000D02*
X58521000Y-29170000D01*
X53880000Y-39410000D02*
X58521000Y-39410000D01*
X58521000Y-39410000D02*
X58521000Y-29170000D01*
X53880000Y-39410000D02*
X53880000Y-29170000D01*
%TO.C,Pump*%
X65185000Y-56455000D02*
X65185000Y-57150000D01*
X64500000Y-56455000D02*
X65185000Y-56455000D01*
X63815000Y-57758276D02*
X63815000Y-57845000D01*
X63815000Y-56455000D02*
X63815000Y-56541724D01*
X63815000Y-57845000D02*
X62940000Y-57845000D01*
X63815000Y-56455000D02*
X62940000Y-56455000D01*
X62940000Y-57544493D02*
X62940000Y-57845000D01*
X62940000Y-56455000D02*
X62940000Y-56755507D01*
%TO.C,Rain*%
X21540000Y-43875000D02*
X21540000Y-43180000D01*
X22225000Y-43875000D02*
X21540000Y-43875000D01*
X22910000Y-42571724D02*
X22910000Y-42485000D01*
X22910000Y-43875000D02*
X22910000Y-43788276D01*
X22910000Y-42485000D02*
X24785000Y-42485000D01*
X22910000Y-43875000D02*
X24785000Y-43875000D01*
X24785000Y-42785507D02*
X24785000Y-42485000D01*
X24785000Y-43875000D02*
X24785000Y-43574493D01*
%TO.C,J1*%
X54865000Y-73795000D02*
X54865000Y-74795000D01*
X53865000Y-74295000D02*
X54865000Y-73795000D01*
X54865000Y-74795000D02*
X53865000Y-74295000D01*
X53475000Y-68555000D02*
X53475000Y-72315000D01*
X46855000Y-68555000D02*
X53475000Y-68555000D01*
X46855000Y-72315000D02*
X46855000Y-68555000D01*
X53475000Y-76075000D02*
X53475000Y-72315000D01*
X46855000Y-76075000D02*
X53475000Y-76075000D01*
X46855000Y-72315000D02*
X46855000Y-76075000D01*
%TO.C,Level*%
X21540000Y-47685000D02*
X21540000Y-46990000D01*
X22225000Y-47685000D02*
X21540000Y-47685000D01*
X22910000Y-46381724D02*
X22910000Y-46295000D01*
X22910000Y-47685000D02*
X22910000Y-47598276D01*
X22910000Y-46295000D02*
X24785000Y-46295000D01*
X22910000Y-47685000D02*
X24785000Y-47685000D01*
X24785000Y-46595507D02*
X24785000Y-46295000D01*
X24785000Y-47685000D02*
X24785000Y-47384493D01*
%TO.C,Light*%
X24180000Y-55185000D02*
X24180000Y-55880000D01*
X23495000Y-55185000D02*
X24180000Y-55185000D01*
X22810000Y-56488276D02*
X22810000Y-56575000D01*
X22810000Y-55185000D02*
X22810000Y-55271724D01*
X22810000Y-56575000D02*
X21935000Y-56575000D01*
X22810000Y-55185000D02*
X21935000Y-55185000D01*
X21935000Y-56274493D02*
X21935000Y-56575000D01*
X21935000Y-55185000D02*
X21935000Y-55485507D01*
%TO.C,R2*%
X49215095Y-37579359D02*
G75*
G02*
X49312133Y-36130000I-320095J749359D01*
G01*
%TO.C,R3*%
X22545095Y-52184359D02*
G75*
G02*
X22642133Y-50735000I-320095J749359D01*
G01*
%TO.C,R4*%
X49215095Y-60439359D02*
G75*
G02*
X49312133Y-58990000I-320095J749359D01*
G01*
%TO.C,R5*%
X49215095Y-49009359D02*
G75*
G02*
X49312133Y-47560000I-320095J749359D01*
G01*
%TO.C,R6*%
X22510000Y-37480000D02*
X22510000Y-33640000D01*
X20670000Y-37480000D02*
X20670000Y-33640000D01*
%TO.C,J2*%
D11*
X59396666Y-24832380D02*
X59396666Y-25546666D01*
X59349047Y-25689523D01*
X59253809Y-25784761D01*
X59110952Y-25832380D01*
X59015714Y-25832380D01*
X59825238Y-24927619D02*
X59872857Y-24880000D01*
X59968095Y-24832380D01*
X60206190Y-24832380D01*
X60301428Y-24880000D01*
X60349047Y-24927619D01*
X60396666Y-25022857D01*
X60396666Y-25118095D01*
X60349047Y-25260952D01*
X59777619Y-25832380D01*
X60396666Y-25832380D01*
%TO.C,U1*%
X34798095Y-70572380D02*
X34798095Y-71381904D01*
X34845714Y-71477142D01*
X34893333Y-71524761D01*
X34988571Y-71572380D01*
X35179047Y-71572380D01*
X35274285Y-71524761D01*
X35321904Y-71477142D01*
X35369523Y-71381904D01*
X35369523Y-70572380D01*
X36369523Y-71572380D02*
X35798095Y-71572380D01*
X36083809Y-71572380D02*
X36083809Y-70572380D01*
X35988571Y-70715238D01*
X35893333Y-70810476D01*
X35798095Y-70858095D01*
%TO.C,Temp*%
X19447380Y-22518333D02*
X19447380Y-21946904D01*
X20447380Y-22232619D02*
X19447380Y-22232619D01*
X20399761Y-21232619D02*
X20447380Y-21327857D01*
X20447380Y-21518333D01*
X20399761Y-21613571D01*
X20304523Y-21661190D01*
X19923571Y-21661190D01*
X19828333Y-21613571D01*
X19780714Y-21518333D01*
X19780714Y-21327857D01*
X19828333Y-21232619D01*
X19923571Y-21185000D01*
X20018809Y-21185000D01*
X20114047Y-21661190D01*
X20447380Y-20756428D02*
X19780714Y-20756428D01*
X19875952Y-20756428D02*
X19828333Y-20708809D01*
X19780714Y-20613571D01*
X19780714Y-20470714D01*
X19828333Y-20375476D01*
X19923571Y-20327857D01*
X20447380Y-20327857D01*
X19923571Y-20327857D02*
X19828333Y-20280238D01*
X19780714Y-20185000D01*
X19780714Y-20042142D01*
X19828333Y-19946904D01*
X19923571Y-19899285D01*
X20447380Y-19899285D01*
X19780714Y-19423095D02*
X20780714Y-19423095D01*
X19828333Y-19423095D02*
X19780714Y-19327857D01*
X19780714Y-19137380D01*
X19828333Y-19042142D01*
X19875952Y-18994523D01*
X19971190Y-18946904D01*
X20256904Y-18946904D01*
X20352142Y-18994523D01*
X20399761Y-19042142D01*
X20447380Y-19137380D01*
X20447380Y-19327857D01*
X20399761Y-19423095D01*
%TO.C,J5*%
X60457380Y-72798333D02*
X61171666Y-72798333D01*
X61314523Y-72845952D01*
X61409761Y-72941190D01*
X61457380Y-73084047D01*
X61457380Y-73179285D01*
X60457380Y-71845952D02*
X60457380Y-72322142D01*
X60933571Y-72369761D01*
X60885952Y-72322142D01*
X60838333Y-72226904D01*
X60838333Y-71988809D01*
X60885952Y-71893571D01*
X60933571Y-71845952D01*
X61028809Y-71798333D01*
X61266904Y-71798333D01*
X61362142Y-71845952D01*
X61409761Y-71893571D01*
X61457380Y-71988809D01*
X61457380Y-72226904D01*
X61409761Y-72322142D01*
X61362142Y-72369761D01*
%TO.C,Overflow*%
X65512380Y-37028095D02*
X65512380Y-36837619D01*
X65560000Y-36742380D01*
X65655238Y-36647142D01*
X65845714Y-36599523D01*
X66179047Y-36599523D01*
X66369523Y-36647142D01*
X66464761Y-36742380D01*
X66512380Y-36837619D01*
X66512380Y-37028095D01*
X66464761Y-37123333D01*
X66369523Y-37218571D01*
X66179047Y-37266190D01*
X65845714Y-37266190D01*
X65655238Y-37218571D01*
X65560000Y-37123333D01*
X65512380Y-37028095D01*
X65845714Y-36266190D02*
X66512380Y-36028095D01*
X65845714Y-35790000D01*
X66464761Y-35028095D02*
X66512380Y-35123333D01*
X66512380Y-35313809D01*
X66464761Y-35409047D01*
X66369523Y-35456666D01*
X65988571Y-35456666D01*
X65893333Y-35409047D01*
X65845714Y-35313809D01*
X65845714Y-35123333D01*
X65893333Y-35028095D01*
X65988571Y-34980476D01*
X66083809Y-34980476D01*
X66179047Y-35456666D01*
X66512380Y-34551904D02*
X65845714Y-34551904D01*
X66036190Y-34551904D02*
X65940952Y-34504285D01*
X65893333Y-34456666D01*
X65845714Y-34361428D01*
X65845714Y-34266190D01*
X65845714Y-34075714D02*
X65845714Y-33694761D01*
X66512380Y-33932857D02*
X65655238Y-33932857D01*
X65560000Y-33885238D01*
X65512380Y-33790000D01*
X65512380Y-33694761D01*
X66512380Y-33218571D02*
X66464761Y-33313809D01*
X66369523Y-33361428D01*
X65512380Y-33361428D01*
X66512380Y-32694761D02*
X66464761Y-32790000D01*
X66417142Y-32837619D01*
X66321904Y-32885238D01*
X66036190Y-32885238D01*
X65940952Y-32837619D01*
X65893333Y-32790000D01*
X65845714Y-32694761D01*
X65845714Y-32551904D01*
X65893333Y-32456666D01*
X65940952Y-32409047D01*
X66036190Y-32361428D01*
X66321904Y-32361428D01*
X66417142Y-32409047D01*
X66464761Y-32456666D01*
X66512380Y-32551904D01*
X66512380Y-32694761D01*
X65845714Y-32028095D02*
X66512380Y-31837619D01*
X66036190Y-31647142D01*
X66512380Y-31456666D01*
X65845714Y-31266190D01*
%TO.C,Q3*%
X53427619Y-45815238D02*
X53380000Y-45910476D01*
X53284761Y-46005714D01*
X53141904Y-46148571D01*
X53094285Y-46243809D01*
X53094285Y-46339047D01*
X53332380Y-46291428D02*
X53284761Y-46386666D01*
X53189523Y-46481904D01*
X52999047Y-46529523D01*
X52665714Y-46529523D01*
X52475238Y-46481904D01*
X52380000Y-46386666D01*
X52332380Y-46291428D01*
X52332380Y-46100952D01*
X52380000Y-46005714D01*
X52475238Y-45910476D01*
X52665714Y-45862857D01*
X52999047Y-45862857D01*
X53189523Y-45910476D01*
X53284761Y-46005714D01*
X53332380Y-46100952D01*
X53332380Y-46291428D01*
X52332380Y-45529523D02*
X52332380Y-44910476D01*
X52713333Y-45243809D01*
X52713333Y-45100952D01*
X52760952Y-45005714D01*
X52808571Y-44958095D01*
X52903809Y-44910476D01*
X53141904Y-44910476D01*
X53237142Y-44958095D01*
X53284761Y-45005714D01*
X53332380Y-45100952D01*
X53332380Y-45386666D01*
X53284761Y-45481904D01*
X53237142Y-45529523D01*
%TO.C,Feed*%
X65988571Y-46886666D02*
X65988571Y-47220000D01*
X66512380Y-47220000D02*
X65512380Y-47220000D01*
X65512380Y-46743809D01*
X66464761Y-45981904D02*
X66512380Y-46077142D01*
X66512380Y-46267619D01*
X66464761Y-46362857D01*
X66369523Y-46410476D01*
X65988571Y-46410476D01*
X65893333Y-46362857D01*
X65845714Y-46267619D01*
X65845714Y-46077142D01*
X65893333Y-45981904D01*
X65988571Y-45934285D01*
X66083809Y-45934285D01*
X66179047Y-46410476D01*
X66464761Y-45124761D02*
X66512380Y-45220000D01*
X66512380Y-45410476D01*
X66464761Y-45505714D01*
X66369523Y-45553333D01*
X65988571Y-45553333D01*
X65893333Y-45505714D01*
X65845714Y-45410476D01*
X65845714Y-45220000D01*
X65893333Y-45124761D01*
X65988571Y-45077142D01*
X66083809Y-45077142D01*
X66179047Y-45553333D01*
X66512380Y-44220000D02*
X65512380Y-44220000D01*
X66464761Y-44220000D02*
X66512380Y-44315238D01*
X66512380Y-44505714D01*
X66464761Y-44600952D01*
X66417142Y-44648571D01*
X66321904Y-44696190D01*
X66036190Y-44696190D01*
X65940952Y-44648571D01*
X65893333Y-44600952D01*
X65845714Y-44505714D01*
X65845714Y-44315238D01*
X65893333Y-44220000D01*
%TO.C,Q1*%
X53427619Y-57245238D02*
X53380000Y-57340476D01*
X53284761Y-57435714D01*
X53141904Y-57578571D01*
X53094285Y-57673809D01*
X53094285Y-57769047D01*
X53332380Y-57721428D02*
X53284761Y-57816666D01*
X53189523Y-57911904D01*
X52999047Y-57959523D01*
X52665714Y-57959523D01*
X52475238Y-57911904D01*
X52380000Y-57816666D01*
X52332380Y-57721428D01*
X52332380Y-57530952D01*
X52380000Y-57435714D01*
X52475238Y-57340476D01*
X52665714Y-57292857D01*
X52999047Y-57292857D01*
X53189523Y-57340476D01*
X53284761Y-57435714D01*
X53332380Y-57530952D01*
X53332380Y-57721428D01*
X53332380Y-56340476D02*
X53332380Y-56911904D01*
X53332380Y-56626190D02*
X52332380Y-56626190D01*
X52475238Y-56721428D01*
X52570476Y-56816666D01*
X52618095Y-56911904D01*
%TO.C,Q2*%
X53427619Y-34385238D02*
X53380000Y-34480476D01*
X53284761Y-34575714D01*
X53141904Y-34718571D01*
X53094285Y-34813809D01*
X53094285Y-34909047D01*
X53332380Y-34861428D02*
X53284761Y-34956666D01*
X53189523Y-35051904D01*
X52999047Y-35099523D01*
X52665714Y-35099523D01*
X52475238Y-35051904D01*
X52380000Y-34956666D01*
X52332380Y-34861428D01*
X52332380Y-34670952D01*
X52380000Y-34575714D01*
X52475238Y-34480476D01*
X52665714Y-34432857D01*
X52999047Y-34432857D01*
X53189523Y-34480476D01*
X53284761Y-34575714D01*
X53332380Y-34670952D01*
X53332380Y-34861428D01*
X52427619Y-34051904D02*
X52380000Y-34004285D01*
X52332380Y-33909047D01*
X52332380Y-33670952D01*
X52380000Y-33575714D01*
X52427619Y-33528095D01*
X52522857Y-33480476D01*
X52618095Y-33480476D01*
X52760952Y-33528095D01*
X53332380Y-34099523D01*
X53332380Y-33480476D01*
%TO.C,Pump*%
X66512380Y-58983333D02*
X65512380Y-58983333D01*
X65512380Y-58602380D01*
X65560000Y-58507142D01*
X65607619Y-58459523D01*
X65702857Y-58411904D01*
X65845714Y-58411904D01*
X65940952Y-58459523D01*
X65988571Y-58507142D01*
X66036190Y-58602380D01*
X66036190Y-58983333D01*
X65845714Y-57554761D02*
X66512380Y-57554761D01*
X65845714Y-57983333D02*
X66369523Y-57983333D01*
X66464761Y-57935714D01*
X66512380Y-57840476D01*
X66512380Y-57697619D01*
X66464761Y-57602380D01*
X66417142Y-57554761D01*
X66512380Y-57078571D02*
X65845714Y-57078571D01*
X65940952Y-57078571D02*
X65893333Y-57030952D01*
X65845714Y-56935714D01*
X65845714Y-56792857D01*
X65893333Y-56697619D01*
X65988571Y-56650000D01*
X66512380Y-56650000D01*
X65988571Y-56650000D02*
X65893333Y-56602380D01*
X65845714Y-56507142D01*
X65845714Y-56364285D01*
X65893333Y-56269047D01*
X65988571Y-56221428D01*
X66512380Y-56221428D01*
X65845714Y-55745238D02*
X66845714Y-55745238D01*
X65893333Y-55745238D02*
X65845714Y-55650000D01*
X65845714Y-55459523D01*
X65893333Y-55364285D01*
X65940952Y-55316666D01*
X66036190Y-55269047D01*
X66321904Y-55269047D01*
X66417142Y-55316666D01*
X66464761Y-55364285D01*
X66512380Y-55459523D01*
X66512380Y-55650000D01*
X66464761Y-55745238D01*
%TO.C,Rain*%
X21117380Y-44013333D02*
X20641190Y-44346666D01*
X21117380Y-44584761D02*
X20117380Y-44584761D01*
X20117380Y-44203809D01*
X20165000Y-44108571D01*
X20212619Y-44060952D01*
X20307857Y-44013333D01*
X20450714Y-44013333D01*
X20545952Y-44060952D01*
X20593571Y-44108571D01*
X20641190Y-44203809D01*
X20641190Y-44584761D01*
X21117380Y-43156190D02*
X20593571Y-43156190D01*
X20498333Y-43203809D01*
X20450714Y-43299047D01*
X20450714Y-43489523D01*
X20498333Y-43584761D01*
X21069761Y-43156190D02*
X21117380Y-43251428D01*
X21117380Y-43489523D01*
X21069761Y-43584761D01*
X20974523Y-43632380D01*
X20879285Y-43632380D01*
X20784047Y-43584761D01*
X20736428Y-43489523D01*
X20736428Y-43251428D01*
X20688809Y-43156190D01*
X21117380Y-42680000D02*
X20450714Y-42680000D01*
X20117380Y-42680000D02*
X20165000Y-42727619D01*
X20212619Y-42680000D01*
X20165000Y-42632380D01*
X20117380Y-42680000D01*
X20212619Y-42680000D01*
X20450714Y-42203809D02*
X21117380Y-42203809D01*
X20545952Y-42203809D02*
X20498333Y-42156190D01*
X20450714Y-42060952D01*
X20450714Y-41918095D01*
X20498333Y-41822857D01*
X20593571Y-41775238D01*
X21117380Y-41775238D01*
%TO.C,J1*%
X45217380Y-72648333D02*
X45931666Y-72648333D01*
X46074523Y-72695952D01*
X46169761Y-72791190D01*
X46217380Y-72934047D01*
X46217380Y-73029285D01*
X46217380Y-71648333D02*
X46217380Y-72219761D01*
X46217380Y-71934047D02*
X45217380Y-71934047D01*
X45360238Y-72029285D01*
X45455476Y-72124523D01*
X45503095Y-72219761D01*
%TO.C,Level*%
X21117380Y-48180476D02*
X21117380Y-48656666D01*
X20117380Y-48656666D01*
X21069761Y-47466190D02*
X21117380Y-47561428D01*
X21117380Y-47751904D01*
X21069761Y-47847142D01*
X20974523Y-47894761D01*
X20593571Y-47894761D01*
X20498333Y-47847142D01*
X20450714Y-47751904D01*
X20450714Y-47561428D01*
X20498333Y-47466190D01*
X20593571Y-47418571D01*
X20688809Y-47418571D01*
X20784047Y-47894761D01*
X20450714Y-47085238D02*
X21117380Y-46847142D01*
X20450714Y-46609047D01*
X21069761Y-45847142D02*
X21117380Y-45942380D01*
X21117380Y-46132857D01*
X21069761Y-46228095D01*
X20974523Y-46275714D01*
X20593571Y-46275714D01*
X20498333Y-46228095D01*
X20450714Y-46132857D01*
X20450714Y-45942380D01*
X20498333Y-45847142D01*
X20593571Y-45799523D01*
X20688809Y-45799523D01*
X20784047Y-46275714D01*
X21117380Y-45228095D02*
X21069761Y-45323333D01*
X20974523Y-45370952D01*
X20117380Y-45370952D01*
%TO.C,Light*%
X25507380Y-56999047D02*
X25507380Y-57475238D01*
X24507380Y-57475238D01*
X25507380Y-56665714D02*
X24840714Y-56665714D01*
X24507380Y-56665714D02*
X24555000Y-56713333D01*
X24602619Y-56665714D01*
X24555000Y-56618095D01*
X24507380Y-56665714D01*
X24602619Y-56665714D01*
X24840714Y-55760952D02*
X25650238Y-55760952D01*
X25745476Y-55808571D01*
X25793095Y-55856190D01*
X25840714Y-55951428D01*
X25840714Y-56094285D01*
X25793095Y-56189523D01*
X25459761Y-55760952D02*
X25507380Y-55856190D01*
X25507380Y-56046666D01*
X25459761Y-56141904D01*
X25412142Y-56189523D01*
X25316904Y-56237142D01*
X25031190Y-56237142D01*
X24935952Y-56189523D01*
X24888333Y-56141904D01*
X24840714Y-56046666D01*
X24840714Y-55856190D01*
X24888333Y-55760952D01*
X25507380Y-55284761D02*
X24507380Y-55284761D01*
X25507380Y-54856190D02*
X24983571Y-54856190D01*
X24888333Y-54903809D01*
X24840714Y-54999047D01*
X24840714Y-55141904D01*
X24888333Y-55237142D01*
X24935952Y-55284761D01*
X24840714Y-54522857D02*
X24840714Y-54141904D01*
X24507380Y-54380000D02*
X25364523Y-54380000D01*
X25459761Y-54332380D01*
X25507380Y-54237142D01*
X25507380Y-54141904D01*
%TO.C,R2*%
X49678333Y-35362380D02*
X49345000Y-34886190D01*
X49106904Y-35362380D02*
X49106904Y-34362380D01*
X49487857Y-34362380D01*
X49583095Y-34410000D01*
X49630714Y-34457619D01*
X49678333Y-34552857D01*
X49678333Y-34695714D01*
X49630714Y-34790952D01*
X49583095Y-34838571D01*
X49487857Y-34886190D01*
X49106904Y-34886190D01*
X50059285Y-34457619D02*
X50106904Y-34410000D01*
X50202142Y-34362380D01*
X50440238Y-34362380D01*
X50535476Y-34410000D01*
X50583095Y-34457619D01*
X50630714Y-34552857D01*
X50630714Y-34648095D01*
X50583095Y-34790952D01*
X50011666Y-35362380D01*
X50630714Y-35362380D01*
%TO.C,R3*%
X23008333Y-49967380D02*
X22675000Y-49491190D01*
X22436904Y-49967380D02*
X22436904Y-48967380D01*
X22817857Y-48967380D01*
X22913095Y-49015000D01*
X22960714Y-49062619D01*
X23008333Y-49157857D01*
X23008333Y-49300714D01*
X22960714Y-49395952D01*
X22913095Y-49443571D01*
X22817857Y-49491190D01*
X22436904Y-49491190D01*
X23341666Y-48967380D02*
X23960714Y-48967380D01*
X23627380Y-49348333D01*
X23770238Y-49348333D01*
X23865476Y-49395952D01*
X23913095Y-49443571D01*
X23960714Y-49538809D01*
X23960714Y-49776904D01*
X23913095Y-49872142D01*
X23865476Y-49919761D01*
X23770238Y-49967380D01*
X23484523Y-49967380D01*
X23389285Y-49919761D01*
X23341666Y-49872142D01*
%TO.C,R4*%
X49678333Y-58222380D02*
X49345000Y-57746190D01*
X49106904Y-58222380D02*
X49106904Y-57222380D01*
X49487857Y-57222380D01*
X49583095Y-57270000D01*
X49630714Y-57317619D01*
X49678333Y-57412857D01*
X49678333Y-57555714D01*
X49630714Y-57650952D01*
X49583095Y-57698571D01*
X49487857Y-57746190D01*
X49106904Y-57746190D01*
X50535476Y-57555714D02*
X50535476Y-58222380D01*
X50297380Y-57174761D02*
X50059285Y-57889047D01*
X50678333Y-57889047D01*
%TO.C,R5*%
X49678333Y-46792380D02*
X49345000Y-46316190D01*
X49106904Y-46792380D02*
X49106904Y-45792380D01*
X49487857Y-45792380D01*
X49583095Y-45840000D01*
X49630714Y-45887619D01*
X49678333Y-45982857D01*
X49678333Y-46125714D01*
X49630714Y-46220952D01*
X49583095Y-46268571D01*
X49487857Y-46316190D01*
X49106904Y-46316190D01*
X50583095Y-45792380D02*
X50106904Y-45792380D01*
X50059285Y-46268571D01*
X50106904Y-46220952D01*
X50202142Y-46173333D01*
X50440238Y-46173333D01*
X50535476Y-46220952D01*
X50583095Y-46268571D01*
X50630714Y-46363809D01*
X50630714Y-46601904D01*
X50583095Y-46697142D01*
X50535476Y-46744761D01*
X50440238Y-46792380D01*
X50202142Y-46792380D01*
X50106904Y-46744761D01*
X50059285Y-46697142D01*
%TO.C,R6*%
X20122380Y-35726666D02*
X19646190Y-36060000D01*
X20122380Y-36298095D02*
X19122380Y-36298095D01*
X19122380Y-35917142D01*
X19170000Y-35821904D01*
X19217619Y-35774285D01*
X19312857Y-35726666D01*
X19455714Y-35726666D01*
X19550952Y-35774285D01*
X19598571Y-35821904D01*
X19646190Y-35917142D01*
X19646190Y-36298095D01*
X19122380Y-34869523D02*
X19122380Y-35060000D01*
X19170000Y-35155238D01*
X19217619Y-35202857D01*
X19360476Y-35298095D01*
X19550952Y-35345714D01*
X19931904Y-35345714D01*
X20027142Y-35298095D01*
X20074761Y-35250476D01*
X20122380Y-35155238D01*
X20122380Y-34964761D01*
X20074761Y-34869523D01*
X20027142Y-34821904D01*
X19931904Y-34774285D01*
X19693809Y-34774285D01*
X19598571Y-34821904D01*
X19550952Y-34869523D01*
X19503333Y-34964761D01*
X19503333Y-35155238D01*
X19550952Y-35250476D01*
X19598571Y-35298095D01*
X19693809Y-35345714D01*
%TD*%
M02*
